  0
SECTION
  2
HEADER
  9
$ACADVER
  1
AC1014
  9
$HANDSEED
  5
FFFF
  9
$MEASUREMENT
 70
     1
  0
ENDSEC
  0
SECTION
  2
TABLES
  0
TABLE
  2
VPORT
  5
8
330
0
100
AcDbSymbolTable
 70
     4
  0
VPORT
  5
2E
330
8
100
AcDbSymbolTableRecord
100
AcDbViewportTableRecord
  2
*ACTIVE
 70
     0
 10
0.0
 20
0.0
 11
1.0
 21
1.0
 12
210.0
 22
148.5
 13
0.0
 23
0.0
 14
10.0
 24
10.0
 15
10.0
 25
10.0
 16
0.0
 26
0.0
 36
1.0
 17
0.0
 27
0.0
 37
0.0
 40
341.0
 41
1.24
 42
50.0
 43
0.0
 44
0.0
 50
0.0
 51
0.0
 71
     0
 72
   100
 73
     1
 74
     3
 75
     0
 76
     0
 77
     0
 78
     0
  0
ENDTAB
  0
TABLE
  2
LTYPE
  5
5
330
0
100
AcDbSymbolTable
 70
     1
  0
LTYPE
  5
14
330
5
100
AcDbSymbolTableRecord
100
AcDbLinetypeTableRecord
  2
BYBLOCK
 70
     0
  3

 72
    65
 73
     0
 40
0.0
  0
LTYPE
  5
15
330
5
100
AcDbSymbolTableRecord
100
AcDbLinetypeTableRecord
  2
BYLAYER
 70
     0
  3

 72
    65
 73
     0
 40
0.0
  0
LTYPE
  5
16
330
5
100
AcDbSymbolTableRecord
100
AcDbLinetypeTableRecord
  2
CONTINUOUS
 70
     0
  3
Solid line
 72
    65
 73
     0
 40
0.0
  0
ENDTAB
  0
TABLE
  2
LAYER
  5
2
100
AcDbSymbolTable
 70
1
  0
LAYER
  5
50
100
AcDbSymbolTableRecord
100
AcDbLayerTableRecord
  2
0
 70
0
  6
CONTINUOUS
  0
ENDTAB
  0
TABLE
  2
STYLE
  5
3
330
0
100
AcDbSymbolTable
 70
     1
  0
STYLE
  5
11
330
3
100
AcDbSymbolTableRecord
100
AcDbTextStyleTableRecord
  2
STANDARD
 70
     0
 40
0.0
 41
1.0
 50
0.0
 71
     0
 42
2.5
  3
txt
  4

  0
ENDTAB
  0
TABLE
  2
VIEW
  5
6
330
0
100
AcDbSymbolTable
 70
     0
  0
ENDTAB
  0
TABLE
  2
UCS
  5
7
330
0
100
AcDbSymbolTable
 70
     0
  0
ENDTAB
  0
TABLE
  2
APPID
  5
9
330
0
100
AcDbSymbolTable
 70
     2
  0
APPID
  5
12
330
9
100
AcDbSymbolTableRecord
100
AcDbRegAppTableRecord
  2
ACAD
 70
     0
  0
ENDTAB
  0
TABLE
  2
DIMSTYLE
  5
A
330
0
100
AcDbSymbolTable
 70
     1
  0
DIMSTYLE
105
27
330
A
100
AcDbSymbolTableRecord
100
AcDbDimStyleTableRecord
  2
ISO-25
 70
     0
  3

  4

  5

  6

  7

 40
1.0
 41
2.5
 42
0.625
 43
3.75
 44
1.25
 45
0.0
 46
0.0
 47
0.0
 48
0.0
140
2.5
141
2.5
142
0.0
143
0.03937007874016
144
1.0
145
0.0
146
1.0
147
0.625
 71
     0
 72
     0
 73
     0
 74
     0
 75
     0
 76
     0
 77
     1
 78
     8
170
     0
171
     3
172
     1
173
     0
174
     0
175
     0
176
     0
177
     0
178
     0
270
     2
271
     2
272
     2
273
     2
274
     3
340
11
275
     0
280
     0
281
     0
282
     0
283
     0
284
     8
285
     0
286
     0
287
     3
288
     0
  0
ENDTAB
  0
TABLE
  2
BLOCK_RECORD
  5
1
330
0
100
AcDbSymbolTable
 70
     1
  0
BLOCK_RECORD
  5
1F
330
1
100
AcDbSymbolTableRecord
100
AcDbBlockTableRecord
  2
*MODEL_SPACE
  0
BLOCK_RECORD
  5
1B
330
1
100
AcDbSymbolTableRecord
100
AcDbBlockTableRecord
  2
*PAPER_SPACE
  0
ENDTAB
  0
ENDSEC
  0
SECTION
  2
BLOCKS
  0
BLOCK
  5
20
330
1F
100
AcDbEntity
  8
0
100
AcDbBlockBegin
  2
*MODEL_SPACE
 70
     0
 10
0.0
 20
0.0
 30
0.0
  3
*MODEL_SPACE
  1

  0
ENDBLK
  5
21
330
1F
100
AcDbEntity
  8
0
100
AcDbBlockEnd
  0
BLOCK
  5
1C
330
1B
100
AcDbEntity
 67
     1
  8
0
100
AcDbBlockBegin
  2
*PAPER_SPACE
  1

  0
ENDBLK
  5
1D
330
1B
100
AcDbEntity
 67
     1
  8
0
100
AcDbBlockEnd
  0
ENDSEC
  0
SECTION
  2
ENTITIES
  0
LWPOLYLINE
  5
100
100
AcDbEntity
  8
0
 62
7
100
AcDbPolyline
 90
33
 70
0
 10
31.539203
 20
22.176128
 30
0.0
 10
31.001483
 20
22.180377
 30
0.0
 10
30.463764
 20
22.184626
 30
0.0
 10
29.908785
 20
22.728452
 30
0.0
 10
29.353963
 20
23.272123
 30
0.0
 10
28.798809
 20
23.816120
 30
0.0
 10
28.243877
 20
24.359900
 30
0.0
 10
27.688920
 20
24.903704
 30
0.0
 10
27.134033
 20
25.447439
 30
0.0
 10
26.585490
 20
24.902666
 30
0.0
 10
26.037101
 20
24.358047
 30
0.0
 10
25.488754
 20
23.813469
 30
0.0
 10
24.940159
 20
23.268644
 30
0.0
 10
24.391513
 20
22.723770
 30
0.0
 10
23.842914
 20
22.178941
 30
0.0
 10
23.285695
 20
22.177530
 30
0.0
 10
22.728477
 20
22.176119
 30
0.0
 10
23.279202
 20
22.730965
 30
0.0
 10
23.829726
 20
23.285608
 30
0.0
 10
24.380620
 20
23.840624
 30
0.0
 10
24.931388
 20
24.395513
 30
0.0
 10
25.481924
 20
24.950168
 30
0.0
 10
26.032799
 20
25.505165
 30
0.0
 10
26.583613
 20
26.060100
 30
0.0
 10
27.134033
 20
26.614640
 30
0.0
 10
27.684710
 20
26.059794
 30
0.0
 10
28.235185
 20
25.505151
 30
0.0
 10
28.786031
 20
24.950135
 30
0.0
 10
29.336751
 20
24.395246
 30
0.0
 10
29.887238
 20
23.840590
 30
0.0
 10
30.438065
 20
23.285594
 30
0.0
 10
30.988830
 20
22.730658
 30
0.0
 10
31.539203
 20
22.176119
 30
0.0
  0
LWPOLYLINE
  5
101
100
AcDbEntity
  8
0
 62
7
100
AcDbPolyline
 90
127
 70
0
 10
2.557639
 20
12.495386
 30
0.0
 10
2.407708
 20
12.195525
 30
0.0
 10
2.054931
 20
11.454692
 30
0.0
 10
1.693333
 20
10.705039
 30
0.0
 10
1.340556
 20
9.964206
 30
0.0
 10
0.978958
 20
9.223372
 30
0.0
 10
0.626181
 20
8.482539
 30
0.0
 10
0.264583
 20
7.741706
 30
0.0
 10
0.908403
 20
7.741706
 30
0.0
 10
1.552222
 20
7.741706
 30
0.0
 10
2.196042
 20
7.741706
 30
0.0
 10
2.495903
 20
8.403164
 30
0.0
 10
2.795764
 20
9.064622
 30
0.0
 10
3.095625
 20
9.726081
 30
0.0
 10
3.395486
 20
10.387539
 30
0.0
 10
4.162778
 20
10.387539
 30
0.0
 10
4.938889
 20
10.387539
 30
0.0
 10
5.706181
 20
10.387539
 30
0.0
 10
6.482292
 20
10.387539
 30
0.0
 10
7.249583
 20
10.387539
 30
0.0
 10
7.249583
 20
9.726081
 30
0.0
 10
7.249583
 20
9.064622
 30
0.0
 10
7.249583
 20
8.403164
 30
0.0
 10
7.249583
 20
7.741706
 30
0.0
 10
8.078611
 20
7.741706
 30
0.0
 10
8.907639
 20
7.741706
 30
0.0
 10
9.727847
 20
7.741706
 30
0.0
 10
10.556875
 20
7.741706
 30
0.0
 10
11.385903
 20
7.741706
 30
0.0
 10
12.214931
 20
7.741706
 30
0.0
 10
13.035139
 20
7.741706
 30
0.0
 10
13.864167
 20
7.741706
 30
0.0
 10
14.693194
 20
7.741706
 30
0.0
 10
14.693194
 20
8.517817
 30
0.0
 10
14.693194
 20
9.293928
 30
0.0
 10
13.872986
 20
9.293928
 30
0.0
 10
13.061597
 20
9.293928
 30
0.0
 10
12.241389
 20
9.293928
 30
0.0
 10
11.421181
 20
9.293928
 30
0.0
 10
10.609792
 20
9.293928
 30
0.0
 10
9.789583
 20
9.293928
 30
0.0
 10
8.969375
 20
9.293928
 30
0.0
 10
8.969375
 20
10.052400
 30
0.0
 10
8.969375
 20
10.802053
 30
0.0
 10
8.969375
 20
11.560525
 30
0.0
 10
8.969375
 20
12.318997
 30
0.0
 10
8.969375
 20
12.495386
 30
0.0
 10
7.249583
 20
12.495386
 30
0.0
 10
7.249583
 20
12.460108
 30
0.0
 10
7.249583
 20
11.666358
 30
0.0
 10
6.420556
 20
11.666358
 30
0.0
 10
5.600347
 20
11.666358
 30
0.0
 10
4.771319
 20
11.666358
 30
0.0
 10
3.942292
 20
11.666358
 30
0.0
 10
4.277431
 20
12.380733
 30
0.0
 10
4.330347
 20
12.495386
 30
0.0
 10
2.557639
 20
12.495386
 30
0.0
 10
2.557639
 20
12.495386
 30
0.0
 10
4.330347
 20
12.495386
 30
0.0
 10
4.603750
 20
13.095108
 30
0.0
 10
4.938889
 20
13.809483
 30
0.0
 10
5.265208
 20
14.523858
 30
0.0
 10
5.600347
 20
15.238233
 30
0.0
 10
5.926667
 20
15.952608
 30
0.0
 10
6.261806
 20
16.666983
 30
0.0
 10
6.588125
 20
17.381358
 30
0.0
 10
6.923264
 20
18.095733
 30
0.0
 10
7.249583
 20
18.810108
 30
0.0
 10
7.249583
 20
18.016358
 30
0.0
 10
7.249583
 20
17.222608
 30
0.0
 10
7.249583
 20
16.428858
 30
0.0
 10
7.249583
 20
15.635108
 30
0.0
 10
7.249583
 20
14.841358
 30
0.0
 10
7.249583
 20
14.047608
 30
0.0
 10
7.249583
 20
13.253858
 30
0.0
 10
7.249583
 20
12.495386
 30
0.0
 10
8.969375
 20
12.495386
 30
0.0
 10
8.969375
 20
13.077469
 30
0.0
 10
8.969375
 20
13.835942
 30
0.0
 10
9.807222
 20
13.835942
 30
0.0
 10
10.645069
 20
13.835942
 30
0.0
 10
11.474097
 20
13.835942
 30
0.0
 10
12.311944
 20
13.835942
 30
0.0
 10
13.140972
 20
13.835942
 30
0.0
 10
13.140972
 20
14.567956
 30
0.0
 10
13.140972
 20
15.299969
 30
0.0
 10
12.311944
 20
15.299969
 30
0.0
 10
11.474097
 20
15.299969
 30
0.0
 10
10.636250
 20
15.299969
 30
0.0
 10
9.807222
 20
15.299969
 30
0.0
 10
8.969375
 20
15.299969
 30
0.0
 10
8.969375
 20
16.005525
 30
0.0
 10
8.969375
 20
16.702261
 30
0.0
 10
8.969375
 20
17.407817
 30
0.0
 10
8.969375
 20
18.104553
 30
0.0
 10
8.969375
 20
18.810108
 30
0.0
 10
9.807222
 20
18.810108
 30
0.0
 10
10.636250
 20
18.810108
 30
0.0
 10
11.465278
 20
18.810108
 30
0.0
 10
12.294306
 20
18.810108
 30
0.0
 10
13.123333
 20
18.810108
 30
0.0
 10
13.952361
 20
18.810108
 30
0.0
 10
14.790208
 20
18.810108
 30
0.0
 10
14.790208
 20
19.577400
 30
0.0
 10
14.790208
 20
20.353511
 30
0.0
 10
13.943542
 20
20.353511
 30
0.0
 10
13.096875
 20
20.353511
 30
0.0
 10
12.250208
 20
20.353511
 30
0.0
 10
11.403542
 20
20.353511
 30
0.0
 10
10.565694
 20
20.353511
 30
0.0
 10
9.719028
 20
20.353511
 30
0.0
 10
8.872361
 20
20.353511
 30
0.0
 10
8.025694
 20
20.353511
 30
0.0
 10
7.179028
 20
20.353511
 30
0.0
 10
6.341181
 20
20.353511
 30
0.0
 10
5.979583
 20
19.612678
 30
0.0
 10
5.626806
 20
18.871844
 30
0.0
 10
5.265208
 20
18.131011
 30
0.0
 10
4.912431
 20
17.390178
 30
0.0
 10
4.550833
 20
16.649344
 30
0.0
 10
4.198056
 20
15.899692
 30
0.0
 10
3.836458
 20
15.158858
 30
0.0
 10
3.483681
 20
14.418025
 30
0.0
 10
3.122083
 20
13.677192
 30
0.0
 10
2.769306
 20
12.936358
 30
0.0
 10
2.557639
 20
12.495386
 30
0.0
 10
2.557639
 20
12.495386
 30
0.0
  0
LWPOLYLINE
  5
102
100
AcDbEntity
  8
0
 62
7
100
AcDbPolyline
 90
99
 70
0
 10
16.166042
 20
15.855594
 30
0.0
 10
16.166042
 20
15.308789
 30
0.0
 10
16.166042
 20
14.470942
 30
0.0
 10
16.166042
 20
13.624275
 30
0.0
 10
16.166042
 20
12.786428
 30
0.0
 10
16.166042
 20
11.948581
 30
0.0
 10
16.166042
 20
11.101914
 30
0.0
 10
16.166042
 20
10.264067
 30
0.0
 10
16.166042
 20
9.426219
 30
0.0
 10
16.166042
 20
8.579553
 30
0.0
 10
16.166042
 20
7.741706
 30
0.0
 10
16.739306
 20
7.741706
 30
0.0
 10
17.312569
 20
7.741706
 30
0.0
 10
17.885833
 20
7.741706
 30
0.0
 10
17.885833
 20
8.526636
 30
0.0
 10
17.885833
 20
9.311567
 30
0.0
 10
17.885833
 20
10.096497
 30
0.0
 10
17.885833
 20
10.881428
 30
0.0
 10
17.885833
 20
11.666358
 30
0.0
 10
17.885833
 20
12.460108
 30
0.0
 10
17.885833
 20
13.245039
 30
0.0
 10
18.494375
 20
13.200942
 30
0.0
 10
19.102917
 20
13.174483
 30
0.0
 10
19.711458
 20
13.156844
 30
0.0
 10
20.134792
 20
12.477747
 30
0.0
 10
20.558125
 20
11.798650
 30
0.0
 10
20.981458
 20
11.128372
 30
0.0
 10
21.395972
 20
10.449275
 30
0.0
 10
21.819306
 20
9.770178
 30
0.0
 10
22.242639
 20
9.091081
 30
0.0
 10
22.665972
 20
8.420803
 30
0.0
 10
23.080486
 20
7.741706
 30
0.0
 10
23.741944
 20
7.741706
 30
0.0
 10
24.394583
 20
7.741706
 30
0.0
 10
25.056042
 20
7.741706
 30
0.0
 10
24.650347
 20
8.385525
 30
0.0
 10
24.244653
 20
9.029344
 30
0.0
 10
23.838958
 20
9.673164
 30
0.0
 10
23.433264
 20
10.316983
 30
0.0
 10
23.018750
 20
10.960803
 30
0.0
 10
22.613056
 20
11.613442
 30
0.0
 10
22.207361
 20
12.257261
 30
0.0
 10
21.801667
 20
12.901081
 30
0.0
 10
21.395972
 20
13.544900
 30
0.0
 10
22.066250
 20
13.791844
 30
0.0
 10
22.648333
 20
14.197539
 30
0.0
 10
23.133403
 20
14.726706
 30
0.0
 10
23.539097
 20
15.379344
 30
0.0
 10
23.697847
 20
15.855594
 30
0.0
 10
21.872222
 20
15.855594
 30
0.0
 10
21.784028
 20
15.617469
 30
0.0
 10
21.351875
 20
15.123581
 30
0.0
 10
20.646319
 20
14.797261
 30
0.0
 10
19.879028
 20
14.656150
 30
0.0
 10
19.094097
 20
14.620872
 30
0.0
 10
18.494375
 20
14.647331
 30
0.0
 10
17.885833
 20
14.709067
 30
0.0
 10
17.885833
 20
15.529275
 30
0.0
 10
17.885833
 20
15.855594
 30
0.0
 10
16.166042
 20
15.855594
 30
0.0
 10
16.166042
 20
15.855594
 30
0.0
 10
17.885833
 20
15.855594
 30
0.0
 10
17.885833
 20
16.349483
 30
0.0
 10
17.885833
 20
17.169692
 30
0.0
 10
17.885833
 20
17.989900
 30
0.0
 10
17.885833
 20
18.810108
 30
0.0
 10
18.397361
 20
18.863025
 30
0.0
 10
18.908889
 20
18.889483
 30
0.0
 10
19.729097
 20
18.863025
 30
0.0
 10
20.540486
 20
18.730733
 30
0.0
 10
21.298958
 20
18.430872
 30
0.0
 10
21.739931
 20
18.025178
 30
0.0
 10
21.986875
 20
17.496011
 30
0.0
 10
22.057431
 20
16.905108
 30
0.0
 10
22.004514
 20
16.243650
 30
0.0
 10
21.872222
 20
15.855594
 30
0.0
 10
23.697847
 20
15.855594
 30
0.0
 10
23.786042
 20
16.102539
 30
0.0
 10
23.865417
 20
16.869831
 30
0.0
 10
23.803681
 20
17.698858
 30
0.0
 10
23.565556
 20
18.492608
 30
0.0
 10
23.133403
 20
19.198164
 30
0.0
 10
22.507222
 20
19.744969
 30
0.0
 10
21.766389
 20
20.115386
 30
0.0
 10
20.972639
 20
20.335872
 30
0.0
 10
20.152431
 20
20.450525
 30
0.0
 10
19.323403
 20
20.485803
 30
0.0
 10
18.714861
 20
20.476983
 30
0.0
 10
18.106319
 20
20.450525
 30
0.0
 10
17.506597
 20
20.415247
 30
0.0
 10
16.836319
 20
20.388789
 30
0.0
 10
16.166042
 20
20.353511
 30
0.0
 10
16.166042
 20
19.515664
 30
0.0
 10
16.166042
 20
18.677817
 30
0.0
 10
16.166042
 20
17.831150
 30
0.0
 10
16.166042
 20
16.993303
 30
0.0
 10
16.166042
 20
16.155456
 30
0.0
 10
16.166042
 20
15.855594
 30
0.0
 10
16.166042
 20
15.855594
 30
0.0
  0
LWPOLYLINE
  5
103
100
AcDbEntity
  8
0
 62
7
100
AcDbPolyline
 90
37
 70
0
 10
26.031452
 20
7.739786
 30
0.0
 10
26.031452
 20
8.581079
 30
0.0
 10
26.031452
 20
9.422193
 30
0.0
 10
26.031452
 20
10.263355
 30
0.0
 10
26.031452
 20
11.104623
 30
0.0
 10
26.031452
 20
11.945815
 30
0.0
 10
26.031452
 20
12.786917
 30
0.0
 10
26.031452
 20
13.627841
 30
0.0
 10
26.031452
 20
14.468818
 30
0.0
 10
26.031452
 20
15.309737
 30
0.0
 10
26.031452
 20
16.151100
 30
0.0
 10
26.031452
 20
16.992090
 30
0.0
 10
26.031452
 20
17.833322
 30
0.0
 10
26.031452
 20
18.674530
 30
0.0
 10
26.031452
 20
19.515820
 30
0.0
 10
26.031452
 20
20.356912
 30
0.0
 10
26.605610
 20
20.356912
 30
0.0
 10
27.179581
 20
20.356912
 30
0.0
 10
27.753927
 20
20.356912
 30
0.0
 10
27.753927
 20
19.515619
 30
0.0
 10
27.753927
 20
18.674505
 30
0.0
 10
27.753927
 20
17.833343
 30
0.0
 10
27.753927
 20
16.992075
 30
0.0
 10
27.753927
 20
16.150883
 30
0.0
 10
27.753927
 20
15.309780
 30
0.0
 10
27.753927
 20
14.468857
 30
0.0
 10
27.753927
 20
13.627880
 30
0.0
 10
27.753927
 20
12.786961
 30
0.0
 10
27.753927
 20
11.945598
 30
0.0
 10
27.753927
 20
11.104608
 30
0.0
 10
27.753927
 20
10.263376
 30
0.0
 10
27.753927
 20
9.422168
 30
0.0
 10
27.753927
 20
8.580878
 30
0.0
 10
27.753927
 20
7.739786
 30
0.0
 10
27.179769
 20
7.739786
 30
0.0
 10
26.605798
 20
7.739786
 30
0.0
 10
26.031452
 20
7.739786
 30
0.0
  0
LWPOLYLINE
  5
104
100
AcDbEntity
  8
0
 62
7
100
AcDbPolyline
 90
73
 70
0
 10
29.453095
 20
8.316815
 30
0.0
 10
29.662663
 20
8.845040
 30
0.0
 10
29.872162
 20
9.373095
 30
0.0
 10
30.081799
 20
9.901493
 30
0.0
 10
30.657495
 20
9.559061
 30
0.0
 10
31.278917
 20
9.307237
 30
0.0
 10
31.916083
 20
9.141665
 30
0.0
 10
32.570776
 20
9.074706
 30
0.0
 10
33.151492
 20
9.126532
 30
0.0
 10
33.705604
 20
9.303911
 30
0.0
 10
34.189901
 20
9.625897
 30
0.0
 10
34.651476
 20
10.259307
 30
0.0
 10
34.801378
 20
11.029713
 30
0.0
 10
34.714914
 20
11.644494
 30
0.0
 10
34.456884
 20
12.209608
 30
0.0
 10
33.967858
 20
12.708005
 30
0.0
 10
33.376942
 20
13.086756
 30
0.0
 10
32.751635
 20
13.406727
 30
0.0
 10
32.243505
 20
13.643568
 30
0.0
 10
31.735375
 20
13.880409
 30
0.0
 10
31.050159
 20
14.249603
 30
0.0
 10
30.428097
 20
14.717080
 30
0.0
 10
29.926777
 20
15.310062
 30
0.0
 10
29.631336
 20
15.935674
 30
0.0
 10
29.467846
 20
16.608469
 30
0.0
 10
29.418647
 20
17.299520
 30
0.0
 10
29.476656
 20
17.952206
 30
0.0
 10
29.663646
 20
18.580143
 30
0.0
 10
29.983670
 20
19.151159
 30
0.0
 10
30.417683
 20
19.642085
 30
0.0
 10
30.975066
 20
20.062548
 30
0.0
 10
31.608047
 20
20.357104
 30
0.0
 10
32.286800
 20
20.522051
 30
0.0
 10
32.984169
 20
20.572221
 30
0.0
 10
33.744485
 20
20.546873
 30
0.0
 10
34.499324
 20
20.455457
 30
0.0
 10
35.233855
 20
20.260289
 30
0.0
 10
35.895150
 20
19.891843
 30
0.0
 10
35.641085
 20
19.142567
 30
0.0
 10
35.387020
 20
18.393291
 30
0.0
 10
34.879112
 20
18.671390
 30
0.0
 10
34.336310
 20
18.875584
 30
0.0
 10
33.690518
 20
19.043683
 30
0.0
 10
33.027231
 20
19.108118
 30
0.0
 10
32.282289
 20
18.997436
 30
0.0
 10
31.640639
 20
18.608600
 30
0.0
 10
31.258789
 20
18.019164
 30
0.0
 10
31.141120
 20
17.325357
 30
0.0
 10
31.183982
 20
16.876184
 30
0.0
 10
31.321982
 20
16.446895
 30
0.0
 10
31.821498
 20
15.783742
 30
0.0
 10
32.467652
 20
15.379564
 30
0.0
 10
33.147804
 20
15.034466
 30
0.0
 10
33.664546
 20
14.789013
 30
0.0
 10
34.181288
 20
14.543561
 30
0.0
 10
34.870663
 20
14.165237
 30
0.0
 10
35.492478
 20
13.685810
 30
0.0
 10
35.989887
 20
13.079456
 30
0.0
 10
36.303230
 20
12.401882
 30
0.0
 10
36.467579
 20
11.672732
 30
0.0
 10
36.515240
 20
10.926366
 30
0.0
 10
36.443366
 20
10.241475
 30
0.0
 10
36.218203
 20
9.590754
 30
0.0
 10
35.849227
 20
9.009589
 30
0.0
 10
35.369796
 20
8.514901
 30
0.0
 10
34.696714
 20
8.050836
 30
0.0
 10
33.939437
 20
7.740990
 30
0.0
 10
33.138531
 20
7.574156
 30
0.0
 10
32.321015
 20
7.524479
 30
0.0
 10
31.567633
 20
7.567191
 30
0.0
 10
30.826228
 20
7.705891
 30
0.0
 10
30.114334
 20
7.953909
 30
0.0
 10
29.453095
 20
8.316815
 30
0.0
  0
LWPOLYLINE
  5
105
100
AcDbEntity
  8
0
 62
7
100
AcDbPolyline
 90
79
 70
0
 10
53.336323
 20
18.220145
 30
0.0
 10
53.336323
 20
17.395949
 30
0.0
 10
53.336323
 20
16.571754
 30
0.0
 10
52.586170
 20
16.902209
 30
0.0
 10
51.801612
 20
17.140165
 30
0.0
 10
50.982768
 20
17.283272
 30
0.0
 10
50.153223
 20
17.329635
 30
0.0
 10
49.482311
 20
17.298970
 30
0.0
 10
48.821277
 20
17.184703
 30
0.0
 10
48.201679
 20
16.931747
 30
0.0
 10
47.713688
 20
16.425325
 30
0.0
 10
47.557478
 20
15.738084
 30
0.0
 10
47.670823
 20
15.201336
 30
0.0
 10
48.021680
 20
14.781260
 30
0.0
 10
48.612931
 20
14.486193
 30
0.0
 10
49.244510
 20
14.285954
 30
0.0
 10
49.887962
 20
14.127587
 30
0.0
 10
50.484794
 20
13.994957
 30
0.0
 10
51.187759
 20
13.821562
 30
0.0
 10
51.875016
 20
13.594152
 30
0.0
 10
52.531130
 20
13.289065
 30
0.0
 10
53.118433
 20
12.867609
 30
0.0
 10
53.576595
 20
12.285430
 30
0.0
 10
53.831270
 20
11.589149
 30
0.0
 10
53.904732
 20
10.849751
 30
0.0
 10
53.836380
 20
10.172622
 30
0.0
 10
53.613428
 20
9.530582
 30
0.0
 10
53.233388
 20
8.967212
 30
0.0
 10
52.730019
 20
8.509793
 30
0.0
 10
51.997969
 20
8.090040
 30
0.0
 10
51.196031
 20
7.825659
 30
0.0
 10
50.362489
 20
7.688036
 30
0.0
 10
49.518497
 20
7.647703
 30
0.0
 10
48.921648
 20
7.667968
 30
0.0
 10
48.327286
 20
7.726119
 30
0.0
 10
47.737477
 20
7.818227
 30
0.0
 10
47.082669
 20
7.951571
 30
0.0
 10
46.434973
 20
8.117383
 30
0.0
 10
45.795404
 20
8.310849
 30
0.0
 10
45.795404
 20
8.910838
 30
0.0
 10
45.795404
 20
9.510632
 30
0.0
 10
45.795404
 20
10.110817
 30
0.0
 10
46.411990
 20
9.814225
 30
0.0
 10
47.047119
 20
9.559442
 30
0.0
 10
47.699583
 20
9.352935
 30
0.0
 10
48.310747
 20
9.218216
 30
0.0
 10
48.930847
 20
9.134959
 30
0.0
 10
49.556391
 20
9.106625
 30
0.0
 10
50.209927
 20
9.140229
 30
0.0
 10
50.852590
 20
9.263231
 30
0.0
 10
51.451092
 20
9.523459
 30
0.0
 10
51.945846
 20
10.030370
 30
0.0
 10
52.114238
 20
10.717121
 30
0.0
 10
52.003604
 20
11.321180
 30
0.0
 10
51.631091
 20
11.806575
 30
0.0
 10
50.970815
 20
12.142544
 30
0.0
 10
50.260744
 20
12.363021
 30
0.0
 10
49.537442
 20
12.536037
 30
0.0
 10
48.931139
 20
12.678139
 30
0.0
 10
48.301744
 20
12.833970
 30
0.0
 10
47.688796
 20
13.044290
 30
0.0
 10
47.107443
 20
13.330039
 30
0.0
 10
46.591180
 20
13.720225
 30
0.0
 10
46.171424
 20
14.289004
 30
0.0
 10
45.938681
 20
14.957015
 30
0.0
 10
45.871192
 20
15.662296
 30
0.0
 10
45.928148
 20
16.319270
 30
0.0
 10
46.119146
 20
16.950060
 30
0.0
 10
46.460072
 20
17.513942
 30
0.0
 10
46.932226
 20
17.973834
 30
0.0
 10
47.615539
 20
18.374781
 30
0.0
 10
48.368425
 20
18.623492
 30
0.0
 10
49.151653
 20
18.751371
 30
0.0
 10
49.944805
 20
18.788556
 30
0.0
 10
50.553534
 20
18.773902
 30
0.0
 10
51.160494
 20
18.727728
 30
0.0
 10
51.763718
 20
18.646453
 30
0.0
 10
52.561262
 20
18.474722
 30
0.0
 10
53.336323
 20
18.220145
 30
0.0
  0
LWPOLYLINE
  5
106
100
AcDbEntity
  8
0
 62
7
100
AcDbPolyline
 90
100
 70
0
 10
55.474306
 20
16.014344
 30
0.0
 10
55.200903
 20
15.326428
 30
0.0
 10
55.024514
 20
14.603233
 30
0.0
 10
54.927500
 20
13.871219
 30
0.0
 10
54.892222
 20
13.121567
 30
0.0
 10
54.927500
 20
12.398372
 30
0.0
 10
55.033333
 20
11.675178
 30
0.0
 10
55.227361
 20
10.969622
 30
0.0
 10
55.509583
 20
10.299344
 30
0.0
 10
55.897639
 20
9.681983
 30
0.0
 10
56.373889
 20
9.126358
 30
0.0
 10
56.929514
 20
8.650108
 30
0.0
 10
57.555694
 20
8.262053
 30
0.0
 10
58.234792
 20
7.979831
 30
0.0
 10
58.940347
 20
7.785803
 30
0.0
 10
59.663542
 20
7.679969
 30
0.0
 10
60.395556
 20
7.644692
 30
0.0
 10
61.074653
 20
7.671150
 30
0.0
 10
61.736111
 20
7.741706
 30
0.0
 10
62.397569
 20
7.856358
 30
0.0
 10
63.050208
 20
8.015108
 30
0.0
 10
63.694028
 20
8.217956
 30
0.0
 10
64.320208
 20
8.464900
 30
0.0
 10
64.320208
 20
9.285108
 30
0.0
 10
64.320208
 20
10.114136
 30
0.0
 10
63.711667
 20
9.814275
 30
0.0
 10
63.085486
 20
9.567331
 30
0.0
 10
62.441667
 20
9.373303
 30
0.0
 10
61.806667
 20
9.232192
 30
0.0
 10
61.154028
 20
9.152817
 30
0.0
 10
60.501389
 20
9.126358
 30
0.0
 10
59.769375
 20
9.170456
 30
0.0
 10
59.055000
 20
9.329206
 30
0.0
 10
58.384722
 20
9.620247
 30
0.0
 10
57.793819
 20
10.061219
 30
0.0
 10
57.326389
 20
10.652122
 30
0.0
 10
57.000069
 20
11.331219
 30
0.0
 10
56.806042
 20
12.063233
 30
0.0
 10
56.717847
 20
12.812886
 30
0.0
 10
57.511597
 20
12.812886
 30
0.0
 10
58.314167
 20
12.812886
 30
0.0
 10
59.116736
 20
12.812886
 30
0.0
 10
59.919306
 20
12.812886
 30
0.0
 10
60.721875
 20
12.812886
 30
0.0
 10
61.524444
 20
12.812886
 30
0.0
 10
62.327014
 20
12.812886
 30
0.0
 10
63.129583
 20
12.812886
 30
0.0
 10
63.923333
 20
12.812886
 30
0.0
 10
64.725903
 20
12.812886
 30
0.0
 10
64.725903
 20
13.236219
 30
0.0
 10
64.725903
 20
13.659553
 30
0.0
 10
64.690625
 20
14.470942
 30
0.0
 10
64.558333
 20
15.264692
 30
0.0
 10
64.329028
 20
16.014344
 30
0.0
 10
62.476944
 20
16.014344
 30
0.0
 10
62.644514
 20
15.776219
 30
0.0
 10
62.900278
 20
14.991289
 30
0.0
 10
62.988472
 20
14.171081
 30
0.0
 10
62.212361
 20
14.171081
 30
0.0
 10
61.436250
 20
14.171081
 30
0.0
 10
60.651319
 20
14.171081
 30
0.0
 10
59.875208
 20
14.171081
 30
0.0
 10
59.099097
 20
14.171081
 30
0.0
 10
58.322986
 20
14.171081
 30
0.0
 10
57.546875
 20
14.162261
 30
0.0
 10
56.770764
 20
14.162261
 30
0.0
 10
56.867778
 20
14.806081
 30
0.0
 10
57.061806
 20
15.423442
 30
0.0
 10
57.361667
 20
15.996706
 30
0.0
 10
57.379306
 20
16.014344
 30
0.0
 10
55.474306
 20
16.014344
 30
0.0
 10
55.474306
 20
16.014344
 30
0.0
 10
57.379306
 20
16.014344
 30
0.0
 10
57.776181
 20
16.490594
 30
0.0
 10
58.287708
 20
16.869831
 30
0.0
 10
58.860972
 20
17.125594
 30
0.0
 10
59.478333
 20
17.266706
 30
0.0
 10
60.113333
 20
17.310803
 30
0.0
 10
60.880625
 20
17.222608
 30
0.0
 10
61.586181
 20
16.940386
 30
0.0
 10
62.177083
 20
16.455317
 30
0.0
 10
62.476944
 20
16.014344
 30
0.0
 10
64.329028
 20
16.014344
 30
0.0
 10
64.320208
 20
16.040803
 30
0.0
 10
63.967431
 20
16.763997
 30
0.0
 10
63.482361
 20
17.407817
 30
0.0
 10
62.926736
 20
17.919344
 30
0.0
 10
62.291736
 20
18.316219
 30
0.0
 10
61.586181
 20
18.589622
 30
0.0
 10
60.845347
 20
18.739553
 30
0.0
 10
60.095694
 20
18.792469
 30
0.0
 10
59.249028
 20
18.739553
 30
0.0
 10
58.428819
 20
18.571983
 30
0.0
 10
57.635069
 20
18.263303
 30
0.0
 10
56.920694
 20
17.822331
 30
0.0
 10
56.294514
 20
17.257886
 30
0.0
 10
55.835903
 20
16.666983
 30
0.0
 10
55.474306
 20
16.023164
 30
0.0
 10
55.474306
 20
16.014344
 30
0.0
 10
55.474306
 20
16.014344
 30
0.0
  0
LWPOLYLINE
  5
107
100
AcDbEntity
  8
0
 62
7
100
AcDbPolyline
 90
60
 70
0
 10
73.184470
 20
18.125410
 30
0.0
 10
73.184470
 20
17.310688
 30
0.0
 10
73.184470
 20
16.495966
 30
0.0
 10
72.459138
 20
16.844679
 30
0.0
 10
71.697130
 20
17.102270
 30
0.0
 10
70.955647
 20
17.258271
 30
0.0
 10
70.200314
 20
17.310688
 30
0.0
 10
69.467847
 20
17.254768
 30
0.0
 10
68.758407
 20
17.066269
 30
0.0
 10
68.110462
 20
16.722699
 30
0.0
 10
67.566678
 20
16.230707
 30
0.0
 10
67.115943
 20
15.564736
 30
0.0
 10
66.825384
 20
14.813712
 30
0.0
 10
66.673263
 20
14.022528
 30
0.0
 10
66.628800
 20
13.218129
 30
0.0
 10
66.673477
 20
12.411436
 30
0.0
 10
66.826000
 20
11.618333
 30
0.0
 10
67.116629
 20
10.865257
 30
0.0
 10
67.566678
 20
10.196079
 30
0.0
 10
68.111728
 20
9.707519
 30
0.0
 10
68.760240
 20
9.367141
 30
0.0
 10
69.469245
 20
9.180772
 30
0.0
 10
70.200314
 20
9.125571
 30
0.0
 10
70.955281
 20
9.175550
 30
0.0
 10
71.697130
 20
9.324515
 30
0.0
 10
72.458412
 20
9.589003
 30
0.0
 10
73.184470
 20
9.940293
 30
0.0
 10
73.184470
 20
9.135045
 30
0.0
 10
73.184470
 20
8.329797
 30
0.0
 10
72.440794
 20
8.031381
 30
0.0
 10
71.668708
 20
7.818227
 30
0.0
 10
70.844353
 20
7.688156
 30
0.0
 10
70.010844
 20
7.647703
 30
0.0
 10
69.168847
 20
7.697869
 30
0.0
 10
68.342102
 20
7.862234
 30
0.0
 10
67.553072
 20
8.158699
 30
0.0
 10
66.831540
 20
8.593120
 30
0.0
 10
66.202492
 20
9.153991
 30
0.0
 10
65.742769
 20
9.726369
 30
0.0
 10
65.375161
 20
10.362217
 30
0.0
 10
65.103295
 20
11.044340
 30
0.0
 10
64.922175
 20
11.756029
 30
0.0
 10
64.821852
 20
12.484075
 30
0.0
 10
64.790938
 20
13.218129
 30
0.0
 10
64.821556
 20
13.956299
 30
0.0
 10
64.921145
 20
14.688048
 30
0.0
 10
65.101956
 20
15.404290
 30
0.0
 10
65.374851
 20
16.090532
 30
0.0
 10
65.745584
 20
16.728624
 30
0.0
 10
66.211964
 20
17.301214
 30
0.0
 10
66.747365
 20
17.778146
 30
0.0
 10
67.350973
 20
18.164889
 30
0.0
 10
68.007328
 20
18.454214
 30
0.0
 10
68.698269
 20
18.648077
 30
0.0
 10
69.407482
 20
18.755461
 30
0.0
 10
70.124526
 20
18.788556
 30
0.0
 10
70.915688
 20
18.746415
 30
0.0
 10
71.697130
 20
18.618033
 30
0.0
 10
72.454814
 20
18.413622
 30
0.0
 10
73.184470
 20
18.125410
 30
0.0
  0
LWPOLYLINE
  5
108
100
AcDbEntity
  8
0
 62
7
100
AcDbPolyline
 90
77
 70
0
 10
74.449762
 20
12.109729
 30
0.0
 10
74.449762
 20
12.912654
 30
0.0
 10
74.449762
 20
13.715285
 30
0.0
 10
74.449762
 20
14.518456
 30
0.0
 10
74.449762
 20
15.321444
 30
0.0
 10
74.449762
 20
16.124093
 30
0.0
 10
74.449762
 20
16.927236
 30
0.0
 10
74.449762
 20
17.729761
 30
0.0
 10
74.449762
 20
18.532771
 30
0.0
 10
75.030804
 20
18.532771
 30
0.0
 10
75.611657
 20
18.532771
 30
0.0
 10
76.192888
 20
18.532771
 30
0.0
 10
76.192888
 20
17.738136
 30
0.0
 10
76.192888
 20
16.943792
 30
0.0
 10
76.192888
 20
16.148913
 30
0.0
 10
76.192888
 20
15.354215
 30
0.0
 10
76.192888
 20
14.559854
 30
0.0
 10
76.192888
 20
13.765002
 30
0.0
 10
76.192888
 20
12.970762
 30
0.0
 10
76.192888
 20
12.176043
 30
0.0
 10
76.239832
 20
11.384160
 30
0.0
 10
76.413336
 20
10.611318
 30
0.0
 10
76.780246
 20
9.911873
 30
0.0
 10
77.272034
 20
9.474368
 30
0.0
 10
77.884855
 20
9.232063
 30
0.0
 10
78.542320
 20
9.163465
 30
0.0
 10
79.361464
 20
9.250259
 30
0.0
 10
80.129075
 20
9.545942
 30
0.0
 10
80.768596
 20
10.063449
 30
0.0
 10
81.155065
 20
10.599763
 30
0.0
 10
81.413145
 20
11.208877
 30
0.0
 10
81.551738
 20
11.856178
 30
0.0
 10
81.592793
 20
12.517089
 30
0.0
 10
81.592793
 20
13.269091
 30
0.0
 10
81.592793
 20
14.020818
 30
0.0
 10
81.592793
 20
14.773050
 30
0.0
 10
81.592793
 20
15.525111
 30
0.0
 10
81.592793
 20
16.276855
 30
0.0
 10
81.592793
 20
17.029062
 30
0.0
 10
81.592793
 20
17.781185
 30
0.0
 10
81.592793
 20
18.532771
 30
0.0
 10
82.173834
 20
18.532771
 30
0.0
 10
82.754687
 20
18.532771
 30
0.0
 10
83.335918
 20
18.532771
 30
0.0
 10
83.335918
 20
17.716717
 30
0.0
 10
83.335918
 20
16.900468
 30
0.0
 10
83.335918
 20
16.084562
 30
0.0
 10
83.335918
 20
15.268403
 30
0.0
 10
83.335918
 20
14.452292
 30
0.0
 10
83.335918
 20
13.635963
 30
0.0
 10
83.335918
 20
12.819643
 30
0.0
 10
83.335918
 20
12.003457
 30
0.0
 10
83.335918
 20
11.187096
 30
0.0
 10
83.335918
 20
10.371125
 30
0.0
 10
83.335918
 20
9.554775
 30
0.0
 10
83.335918
 20
8.738431
 30
0.0
 10
83.335918
 20
7.922435
 30
0.0
 10
82.754877
 20
7.922435
 30
0.0
 10
82.174024
 20
7.922435
 30
0.0
 10
81.592793
 20
7.922435
 30
0.0
 10
81.592793
 20
8.737157
 30
0.0
 10
81.592793
 20
9.551879
 30
0.0
 10
81.176414
 20
8.996843
 30
0.0
 10
80.684305
 20
8.507788
 30
0.0
 10
80.114925
 20
8.111905
 30
0.0
 10
79.498876
 20
7.844211
 30
0.0
 10
78.843540
 20
7.693715
 30
0.0
 10
78.172852
 20
7.647703
 30
0.0
 10
77.399934
 20
7.704433
 30
0.0
 10
76.649685
 20
7.898487
 30
0.0
 10
75.965126
 20
8.258984
 30
0.0
 10
75.397114
 20
8.784525
 30
0.0
 10
75.007208
 20
9.371123
 30
0.0
 10
74.735980
 20
10.021698
 30
0.0
 10
74.565975
 20
10.705775
 30
0.0
 10
74.476426
 20
11.405037
 30
0.0
 10
74.449762
 20
12.109729
 30
0.0
  0
LWPOLYLINE
  5
109
100
AcDbEntity
  8
0
 62
7
100
AcDbPolyline
 90
2
 70
0
 10
78.835998
 20
18.788556
 30
0.0
 10
78.835998
 20
18.788556
 30
0.0
  0
LWPOLYLINE
  5
10a
100
AcDbEntity
  8
0
 62
7
100
AcDbPolyline
 90
50
 70
0
 10
90.673719
 20
16.903327
 30
0.0
 10
90.029518
 20
17.149638
 30
0.0
 10
89.271639
 20
17.234900
 30
0.0
 10
88.634728
 20
17.184919
 30
0.0
 10
88.019211
 20
17.015937
 30
0.0
 10
87.460786
 20
16.707864
 30
0.0
 10
86.997994
 20
16.268601
 30
0.0
 10
86.611573
 20
15.650253
 30
0.0
 10
86.370960
 20
14.961214
 30
0.0
 10
86.247493
 20
14.241583
 30
0.0
 10
86.211692
 20
13.511809
 30
0.0
 10
86.211692
 20
12.713216
 30
0.0
 10
86.211692
 20
11.914854
 30
0.0
 10
86.211692
 20
11.116410
 30
0.0
 10
86.211692
 20
10.317733
 30
0.0
 10
86.211692
 20
9.519053
 30
0.0
 10
86.211692
 20
8.720625
 30
0.0
 10
86.211692
 20
7.922435
 30
0.0
 10
85.627493
 20
7.922435
 30
0.0
 10
85.043483
 20
7.922435
 30
0.0
 10
84.459092
 20
7.922435
 30
0.0
 10
84.459092
 20
8.738489
 30
0.0
 10
84.459092
 20
9.554738
 30
0.0
 10
84.459092
 20
10.370644
 30
0.0
 10
84.459092
 20
11.186803
 30
0.0
 10
84.459092
 20
12.002914
 30
0.0
 10
84.459092
 20
12.819243
 30
0.0
 10
84.459092
 20
13.635563
 30
0.0
 10
84.459092
 20
14.451749
 30
0.0
 10
84.459092
 20
15.268110
 30
0.0
 10
84.459092
 20
16.084081
 30
0.0
 10
84.459092
 20
16.900431
 30
0.0
 10
84.459092
 20
17.716775
 30
0.0
 10
84.459092
 20
18.532771
 30
0.0
 10
85.043292
 20
18.532771
 30
0.0
 10
85.627302
 20
18.532771
 30
0.0
 10
86.211692
 20
18.532771
 30
0.0
 10
86.211692
 20
17.708575
 30
0.0
 10
86.211692
 20
16.884380
 30
0.0
 10
86.595470
 20
17.449139
 30
0.0
 10
87.074726
 20
17.935630
 30
0.0
 10
87.642195
 20
18.314880
 30
0.0
 10
88.324376
 20
18.594152
 30
0.0
 10
89.046325
 20
18.744037
 30
0.0
 10
89.783209
 20
18.788556
 30
0.0
 10
90.181097
 20
18.760135
 30
0.0
 10
90.664244
 20
18.693821
 30
0.0
 10
90.667405
 20
18.096990
 30
0.0
 10
90.670565
 20
17.500353
 30
0.0
 10
90.673727
 20
16.903327
 30
0.0
  0
LWPOLYLINE
  5
10b
100
AcDbEntity
  8
0
 62
7
100
AcDbPolyline
 90
100
 70
0
 10
91.722222
 20
17.107956
 30
0.0
 10
91.378264
 20
16.666983
 30
0.0
 10
91.007847
 20
16.023164
 30
0.0
 10
90.743264
 20
15.326428
 30
0.0
 10
90.558056
 20
14.603233
 30
0.0
 10
90.461042
 20
13.871219
 30
0.0
 10
90.434583
 20
13.121567
 30
0.0
 10
90.469861
 20
12.398372
 30
0.0
 10
90.575694
 20
11.675178
 30
0.0
 10
90.760903
 20
10.969622
 30
0.0
 10
91.051944
 20
10.299344
 30
0.0
 10
91.431181
 20
9.681983
 30
0.0
 10
91.907431
 20
9.126358
 30
0.0
 10
92.471875
 20
8.650108
 30
0.0
 10
93.089236
 20
8.262053
 30
0.0
 10
93.768333
 20
7.979831
 30
0.0
 10
94.473889
 20
7.785803
 30
0.0
 10
95.205903
 20
7.679969
 30
0.0
 10
95.937917
 20
7.644692
 30
0.0
 10
96.608194
 20
7.671150
 30
0.0
 10
97.278472
 20
7.741706
 30
0.0
 10
97.939931
 20
7.856358
 30
0.0
 10
98.592569
 20
8.015108
 30
0.0
 10
99.227569
 20
8.217956
 30
0.0
 10
99.862569
 20
8.464900
 30
0.0
 10
99.862569
 20
9.285108
 30
0.0
 10
99.862569
 20
10.114136
 30
0.0
 10
99.254028
 20
9.814275
 30
0.0
 10
98.627847
 20
9.567331
 30
0.0
 10
97.984028
 20
9.373303
 30
0.0
 10
97.340208
 20
9.232192
 30
0.0
 10
96.696389
 20
9.152817
 30
0.0
 10
96.043750
 20
9.126358
 30
0.0
 10
95.311736
 20
9.170456
 30
0.0
 10
94.588542
 20
9.329206
 30
0.0
 10
93.918264
 20
9.620247
 30
0.0
 10
93.327361
 20
10.061219
 30
0.0
 10
92.859931
 20
10.652122
 30
0.0
 10
92.533611
 20
11.331219
 30
0.0
 10
92.339583
 20
12.063233
 30
0.0
 10
92.251389
 20
12.812886
 30
0.0
 10
93.053958
 20
12.812886
 30
0.0
 10
93.856528
 20
12.812886
 30
0.0
 10
94.659097
 20
12.812886
 30
0.0
 10
95.461667
 20
12.812886
 30
0.0
 10
96.255417
 20
12.812886
 30
0.0
 10
97.057986
 20
12.812886
 30
0.0
 10
97.860556
 20
12.812886
 30
0.0
 10
98.663125
 20
12.812886
 30
0.0
 10
99.465694
 20
12.812886
 30
0.0
 10
100.268264
 20
12.812886
 30
0.0
 10
100.268264
 20
13.236219
 30
0.0
 10
100.268264
 20
13.659553
 30
0.0
 10
100.224167
 20
14.470942
 30
0.0
 10
100.100694
 20
15.264692
 30
0.0
 10
99.862569
 20
16.040803
 30
0.0
 10
99.500972
 20
16.763997
 30
0.0
 10
99.245208
 20
17.107956
 30
0.0
 10
96.705208
 20
17.107956
 30
0.0
 10
97.128542
 20
16.940386
 30
0.0
 10
97.719444
 20
16.455317
 30
0.0
 10
98.178056
 20
15.776219
 30
0.0
 10
98.442639
 20
14.991289
 30
0.0
 10
98.522014
 20
14.171081
 30
0.0
 10
97.745903
 20
14.171081
 30
0.0
 10
96.969792
 20
14.171081
 30
0.0
 10
96.193681
 20
14.171081
 30
0.0
 10
95.417569
 20
14.171081
 30
0.0
 10
94.641458
 20
14.171081
 30
0.0
 10
93.865347
 20
14.171081
 30
0.0
 10
93.089236
 20
14.162261
 30
0.0
 10
92.304306
 20
14.162261
 30
0.0
 10
92.401319
 20
14.806081
 30
0.0
 10
92.595347
 20
15.423442
 30
0.0
 10
92.895208
 20
15.996706
 30
0.0
 10
93.309722
 20
16.490594
 30
0.0
 10
93.821250
 20
16.869831
 30
0.0
 10
94.359236
 20
17.107956
 30
0.0
 10
91.722222
 20
17.107956
 30
0.0
 10
91.722222
 20
17.107956
 30
0.0
 10
94.359236
 20
17.107956
 30
0.0
 10
94.403333
 20
17.125594
 30
0.0
 10
95.020694
 20
17.266706
 30
0.0
 10
95.655694
 20
17.310803
 30
0.0
 10
96.414167
 20
17.222608
 30
0.0
 10
96.705208
 20
17.107956
 30
0.0
 10
99.245208
 20
17.107956
 30
0.0
 10
99.015903
 20
17.407817
 30
0.0
 10
98.460278
 20
17.919344
 30
0.0
 10
97.825278
 20
18.316219
 30
0.0
 10
97.119722
 20
18.589622
 30
0.0
 10
96.387708
 20
18.739553
 30
0.0
 10
95.638056
 20
18.792469
 30
0.0
 10
94.791389
 20
18.739553
 30
0.0
 10
93.962361
 20
18.571983
 30
0.0
 10
93.177431
 20
18.263303
 30
0.0
 10
92.463056
 20
17.822331
 30
0.0
 10
91.836875
 20
17.257886
 30
0.0
 10
91.722222
 20
17.107956
 30
0.0
 10
91.722222
 20
17.107956
 30
0.0
  0
LWPOLYLINE
  5
10c
100
AcDbEntity
  8
0
 62
7
100
AcDbPolyline
 90
17
 70
0
 10
41.348536
 20
20.794141
 30
0.0
 10
41.348536
 20
19.957344
 30
0.0
 10
41.348536
 20
19.120614
 30
0.0
 10
41.348536
 20
18.283855
 30
0.0
 10
41.348536
 20
17.447163
 30
0.0
 10
41.348536
 20
16.610484
 30
0.0
 10
41.348536
 20
15.774022
 30
0.0
 10
41.348536
 20
14.937486
 30
0.0
 10
41.348536
 20
14.100780
 30
0.0
 10
41.348536
 20
13.264067
 30
0.0
 10
41.348536
 20
12.427167
 30
0.0
 10
41.348536
 20
11.590391
 30
0.0
 10
41.348536
 20
10.753659
 30
0.0
 10
41.348536
 20
9.917013
 30
0.0
 10
41.348536
 20
9.080212
 30
0.0
 10
41.348536
 20
8.243331
 30
0.0
 10
41.348536
 20
7.406931
 30
0.0
  0
LWPOLYLINE
  5
10d
100
AcDbEntity
  8
0
 62
7
100
AcDbPolyline
 90
40
 70
0
 10
40.463611
 20
20.794483
 30
0.0
 10
40.463611
 20
19.957642
 30
0.0
 10
40.463611
 20
19.120867
 30
0.0
 10
40.463611
 20
18.284065
 30
0.0
 10
40.463611
 20
17.447328
 30
0.0
 10
40.463611
 20
16.610606
 30
0.0
 10
40.463611
 20
15.774099
 30
0.0
 10
40.463611
 20
14.937519
 30
0.0
 10
40.463611
 20
14.100769
 30
0.0
 10
40.463611
 20
13.264012
 30
0.0
 10
40.463611
 20
12.427068
 30
0.0
 10
40.463611
 20
11.590247
 30
0.0
 10
40.463611
 20
10.753472
 30
0.0
 10
40.463611
 20
9.916782
 30
0.0
 10
40.463611
 20
9.079936
 30
0.0
 10
40.463611
 20
8.243011
 30
0.0
 10
40.463611
 20
7.406567
 30
0.0
 10
41.051573
 20
7.406567
 30
0.0
 10
41.639345
 20
7.406567
 30
0.0
 10
42.227500
 20
7.406567
 30
0.0
 10
42.227500
 20
8.243408
 30
0.0
 10
42.227500
 20
9.080183
 30
0.0
 10
42.227500
 20
9.916985
 30
0.0
 10
42.227500
 20
10.753722
 30
0.0
 10
42.227500
 20
11.590444
 30
0.0
 10
42.227500
 20
12.426951
 30
0.0
 10
42.227500
 20
13.263531
 30
0.0
 10
42.227500
 20
14.100281
 30
0.0
 10
42.227500
 20
14.937038
 30
0.0
 10
42.227500
 20
15.773982
 30
0.0
 10
42.227500
 20
16.610803
 30
0.0
 10
42.227500
 20
17.447578
 30
0.0
 10
42.227500
 20
18.284268
 30
0.0
 10
42.227500
 20
19.121114
 30
0.0
 10
42.227500
 20
19.958039
 30
0.0
 10
42.227500
 20
20.794483
 30
0.0
 10
41.639538
 20
20.794483
 30
0.0
 10
41.051766
 20
20.794483
 30
0.0
 10
40.463611
 20
20.794483
 30
0.0
 10
40.463611
 20
20.794483
 30
0.0
  0
ENDSEC
  0
SECTION
  2
OBJECTS
  0
DICTIONARY
  5
C
330
0
100
AcDbDictionary
  3
ACAD_GROUP
350
D
  3
ACAD_MLINESTYLE
350
17
  0
DICTIONARY
  5
D
330
C
100
AcDbDictionary
  0
DICTIONARY
  5
1A
330
C
100
AcDbDictionary
  0
DICTIONARY
  5
17
330
C
100
AcDbDictionary
  3
STANDARD
350
18
  0
DICTIONARY
  5
19
330
C
100
AcDbDictionary
  0
ENDSEC
  0
EOF
