  0
SECTION
  2
HEADER
  9
$ACADVER
  1
AC1014
  9
$HANDSEED
  5
FFFF
  9
$MEASUREMENT
 70
     1
  0
ENDSEC
  0
SECTION
  2
TABLES
  0
TABLE
  2
VPORT
  5
8
330
0
100
AcDbSymbolTable
 70
     4
  0
VPORT
  5
2E
330
8
100
AcDbSymbolTableRecord
100
AcDbViewportTableRecord
  2
*ACTIVE
 70
     0
 10
0.0
 20
0.0
 11
1.0
 21
1.0
 12
210.0
 22
148.5
 13
0.0
 23
0.0
 14
10.0
 24
10.0
 15
10.0
 25
10.0
 16
0.0
 26
0.0
 36
1.0
 17
0.0
 27
0.0
 37
0.0
 40
341.0
 41
1.24
 42
50.0
 43
0.0
 44
0.0
 50
0.0
 51
0.0
 71
     0
 72
   100
 73
     1
 74
     3
 75
     0
 76
     0
 77
     0
 78
     0
  0
ENDTAB
  0
TABLE
  2
LTYPE
  5
5
330
0
100
AcDbSymbolTable
 70
     1
  0
LTYPE
  5
14
330
5
100
AcDbSymbolTableRecord
100
AcDbLinetypeTableRecord
  2
BYBLOCK
 70
     0
  3

 72
    65
 73
     0
 40
0.0
  0
LTYPE
  5
15
330
5
100
AcDbSymbolTableRecord
100
AcDbLinetypeTableRecord
  2
BYLAYER
 70
     0
  3

 72
    65
 73
     0
 40
0.0
  0
LTYPE
  5
16
330
5
100
AcDbSymbolTableRecord
100
AcDbLinetypeTableRecord
  2
CONTINUOUS
 70
     0
  3
Solid line
 72
    65
 73
     0
 40
0.0
  0
ENDTAB
  0
TABLE
  2
LAYER
  5
2
100
AcDbSymbolTable
 70
2
  0
LAYER
  5
50
100
AcDbSymbolTableRecord
100
AcDbLayerTableRecord
  2
0
 70
0
  6
CONTINUOUS
  0
LAYER
  5
51
100
AcDbSymbolTableRecord
100
AcDbLayerTableRecord
  2
ink_ext_XXXXXX
 70
0
  6
CONTINUOUS
  0
ENDTAB
  0
TABLE
  2
STYLE
  5
3
330
0
100
AcDbSymbolTable
 70
     1
  0
STYLE
  5
11
330
3
100
AcDbSymbolTableRecord
100
AcDbTextStyleTableRecord
  2
STANDARD
 70
     0
 40
0.0
 41
1.0
 50
0.0
 71
     0
 42
2.5
  3
txt
  4

  0
ENDTAB
  0
TABLE
  2
VIEW
  5
6
330
0
100
AcDbSymbolTable
 70
     0
  0
ENDTAB
  0
TABLE
  2
UCS
  5
7
330
0
100
AcDbSymbolTable
 70
     0
  0
ENDTAB
  0
TABLE
  2
APPID
  5
9
330
0
100
AcDbSymbolTable
 70
     2
  0
APPID
  5
12
330
9
100
AcDbSymbolTableRecord
100
AcDbRegAppTableRecord
  2
ACAD
 70
     0
  0
ENDTAB
  0
TABLE
  2
DIMSTYLE
  5
A
330
0
100
AcDbSymbolTable
 70
     1
  0
DIMSTYLE
105
27
330
A
100
AcDbSymbolTableRecord
100
AcDbDimStyleTableRecord
  2
ISO-25
 70
     0
  3

  4

  5

  6

  7

 40
1.0
 41
2.5
 42
0.625
 43
3.75
 44
1.25
 45
0.0
 46
0.0
 47
0.0
 48
0.0
140
2.5
141
2.5
142
0.0
143
0.03937007874016
144
1.0
145
0.0
146
1.0
147
0.625
 71
     0
 72
     0
 73
     0
 74
     0
 75
     0
 76
     0
 77
     1
 78
     8
170
     0
171
     3
172
     1
173
     0
174
     0
175
     0
176
     0
177
     0
178
     0
270
     2
271
     2
272
     2
273
     2
274
     3
340
11
275
     0
280
     0
281
     0
282
     0
283
     0
284
     8
285
     0
286
     0
287
     3
288
     0
  0
ENDTAB
  0
TABLE
  2
BLOCK_RECORD
  5
1
330
0
100
AcDbSymbolTable
 70
     1
  0
BLOCK_RECORD
  5
1F
330
1
100
AcDbSymbolTableRecord
100
AcDbBlockTableRecord
  2
*MODEL_SPACE
  0
BLOCK_RECORD
  5
1B
330
1
100
AcDbSymbolTableRecord
100
AcDbBlockTableRecord
  2
*PAPER_SPACE
  0
ENDTAB
  0
ENDSEC
  0
SECTION
  2
BLOCKS
  0
BLOCK
  5
20
330
1F
100
AcDbEntity
  8
0
100
AcDbBlockBegin
  2
*MODEL_SPACE
 70
     0
 10
0.0
 20
0.0
 30
0.0
  3
*MODEL_SPACE
  1

  0
ENDBLK
  5
21
330
1F
100
AcDbEntity
  8
0
100
AcDbBlockEnd
  0
BLOCK
  5
1C
330
1B
100
AcDbEntity
 67
     1
  8
0
100
AcDbBlockBegin
  2
*PAPER_SPACE
  1

  0
ENDBLK
  5
1D
330
1B
100
AcDbEntity
 67
     1
  8
0
100
AcDbBlockEnd
  0
ENDSEC
  0
SECTION
  2
ENTITIES
  0
LWPOLYLINE
  5
100
100
AcDbEntity
  8
ink_ext_XXXXXX
 62
7
100
AcDbPolyline
 90
133
 70
0
 10
89.676111
 20
12.685889
 30
0.0
 10
89.676111
 20
12.341931
 30
0.0
 10
89.676111
 20
11.989153
 30
0.0
 10
89.676111
 20
11.645194
 30
0.0
 10
89.676111
 20
11.301236
 30
0.0
 10
89.676111
 20
10.957278
 30
0.0
 10
89.676111
 20
10.613319
 30
0.0
 10
89.676111
 20
10.269361
 30
0.0
 10
89.676111
 20
9.916583
 30
0.0
 10
89.676111
 20
9.572625
 30
0.0
 10
89.676111
 20
9.228667
 30
0.0
 10
89.676111
 20
8.884708
 30
0.0
 10
89.676111
 20
8.540750
 30
0.0
 10
89.676111
 20
8.196792
 30
0.0
 10
89.676111
 20
7.844014
 30
0.0
 10
89.676111
 20
7.500056
 30
0.0
 10
89.676111
 20
7.156097
 30
0.0
 10
89.676111
 20
6.812139
 30
0.0
 10
89.676111
 20
6.468181
 30
0.0
 10
89.676111
 20
6.115403
 30
0.0
 10
89.676111
 20
5.771444
 30
0.0
 10
89.676111
 20
5.427486
 30
0.0
 10
89.984792
 20
5.427486
 30
0.0
 10
90.302292
 20
5.427486
 30
0.0
 10
90.610972
 20
5.427486
 30
0.0
 10
90.610972
 20
5.771444
 30
0.0
 10
90.610972
 20
6.124222
 30
0.0
 10
90.610972
 20
6.468181
 30
0.0
 10
90.610972
 20
6.812139
 30
0.0
 10
90.610972
 20
7.156097
 30
0.0
 10
90.610972
 20
7.508875
 30
0.0
 10
90.610972
 20
7.852833
 30
0.0
 10
90.610972
 20
8.196792
 30
0.0
 10
90.610972
 20
8.540750
 30
0.0
 10
90.610972
 20
8.893528
 30
0.0
 10
90.610972
 20
9.237486
 30
0.0
 10
90.610972
 20
9.581444
 30
0.0
 10
90.610972
 20
9.925403
 30
0.0
 10
90.610972
 20
10.269361
 30
0.0
 10
90.610972
 20
10.622139
 30
0.0
 10
90.610972
 20
10.966097
 30
0.0
 10
90.610972
 20
11.310056
 30
0.0
 10
90.734444
 20
11.036653
 30
0.0
 10
90.884375
 20
10.780889
 30
0.0
 10
91.069583
 20
10.498667
 30
0.0
 10
91.245972
 20
10.216444
 30
0.0
 10
91.431181
 20
9.934222
 30
0.0
 10
91.616389
 20
9.652000
 30
0.0
 10
91.792778
 20
9.369778
 30
0.0
 10
91.977986
 20
9.087556
 30
0.0
 10
92.163194
 20
8.805333
 30
0.0
 10
92.339583
 20
8.523111
 30
0.0
 10
92.524792
 20
8.240889
 30
0.0
 10
92.701181
 20
7.958667
 30
0.0
 10
92.886389
 20
7.676444
 30
0.0
 10
93.071597
 20
7.403042
 30
0.0
 10
93.247986
 20
7.120819
 30
0.0
 10
93.433194
 20
6.838597
 30
0.0
 10
93.618403
 20
6.556375
 30
0.0
 10
93.794792
 20
6.274153
 30
0.0
 10
93.980000
 20
5.991931
 30
0.0
 10
94.165208
 20
5.709708
 30
0.0
 10
94.341597
 20
5.427486
 30
0.0
 10
94.615000
 20
5.427486
 30
0.0
 10
94.879583
 20
5.427486
 30
0.0
 10
95.144167
 20
5.427486
 30
0.0
 10
95.417569
 20
5.427486
 30
0.0
 10
95.417569
 20
5.771444
 30
0.0
 10
95.417569
 20
6.115403
 30
0.0
 10
95.417569
 20
6.468181
 30
0.0
 10
95.417569
 20
6.812139
 30
0.0
 10
95.417569
 20
7.156097
 30
0.0
 10
95.417569
 20
7.500056
 30
0.0
 10
95.417569
 20
7.844014
 30
0.0
 10
95.417569
 20
8.196792
 30
0.0
 10
95.417569
 20
8.540750
 30
0.0
 10
95.417569
 20
8.884708
 30
0.0
 10
95.417569
 20
9.228667
 30
0.0
 10
95.417569
 20
9.572625
 30
0.0
 10
95.417569
 20
9.916583
 30
0.0
 10
95.417569
 20
10.269361
 30
0.0
 10
95.417569
 20
10.613319
 30
0.0
 10
95.417569
 20
10.957278
 30
0.0
 10
95.417569
 20
11.301236
 30
0.0
 10
95.417569
 20
11.645194
 30
0.0
 10
95.417569
 20
11.989153
 30
0.0
 10
95.417569
 20
12.341931
 30
0.0
 10
95.417569
 20
12.685889
 30
0.0
 10
95.100069
 20
12.685889
 30
0.0
 10
94.791389
 20
12.685889
 30
0.0
 10
94.473889
 20
12.685889
 30
0.0
 10
94.473889
 20
12.341931
 30
0.0
 10
94.473889
 20
11.989153
 30
0.0
 10
94.473889
 20
11.645194
 30
0.0
 10
94.473889
 20
11.301236
 30
0.0
 10
94.473889
 20
10.957278
 30
0.0
 10
94.473889
 20
10.604500
 30
0.0
 10
94.473889
 20
10.260542
 30
0.0
 10
94.473889
 20
9.916583
 30
0.0
 10
94.473889
 20
9.572625
 30
0.0
 10
94.473889
 20
9.219847
 30
0.0
 10
94.473889
 20
8.875889
 30
0.0
 10
94.473889
 20
8.531931
 30
0.0
 10
94.473889
 20
8.187972
 30
0.0
 10
94.473889
 20
7.835194
 30
0.0
 10
94.473889
 20
7.491236
 30
0.0
 10
94.473889
 20
7.147278
 30
0.0
 10
94.473889
 20
6.803319
 30
0.0
 10
94.323958
 20
7.120819
 30
0.0
 10
94.138750
 20
7.411861
 30
0.0
 10
93.953542
 20
7.711722
 30
0.0
 10
93.768333
 20
8.002764
 30
0.0
 10
93.574306
 20
8.293806
 30
0.0
 10
93.389097
 20
8.584847
 30
0.0
 10
93.203889
 20
8.875889
 30
0.0
 10
93.009861
 20
9.175750
 30
0.0
 10
92.824653
 20
9.466792
 30
0.0
 10
92.639444
 20
9.757833
 30
0.0
 10
92.445417
 20
10.048875
 30
0.0
 10
92.260208
 20
10.339917
 30
0.0
 10
92.066181
 20
10.630958
 30
0.0
 10
91.880972
 20
10.930819
 30
0.0
 10
91.695764
 20
11.221861
 30
0.0
 10
91.501736
 20
11.512903
 30
0.0
 10
91.316528
 20
11.803944
 30
0.0
 10
91.131319
 20
12.094986
 30
0.0
 10
90.937292
 20
12.394847
 30
0.0
 10
90.752083
 20
12.685889
 30
0.0
 10
90.478681
 20
12.685889
 30
0.0
 10
90.214097
 20
12.685889
 30
0.0
 10
89.940694
 20
12.685889
 30
0.0
 10
89.676111
 20
12.685889
 30
0.0
 10
89.676111
 20
12.685889
 30
0.0
  0
LWPOLYLINE
  5
101
100
AcDbEntity
  8
ink_ext_XXXXXX
 62
7
100
AcDbPolyline
 90
133
 70
0
 10
79.807153
 20
12.685889
 30
0.0
 10
79.807153
 20
12.341931
 30
0.0
 10
79.807153
 20
11.989153
 30
0.0
 10
79.807153
 20
11.645194
 30
0.0
 10
79.807153
 20
11.301236
 30
0.0
 10
79.807153
 20
10.957278
 30
0.0
 10
79.807153
 20
10.613319
 30
0.0
 10
79.807153
 20
10.269361
 30
0.0
 10
79.807153
 20
9.916583
 30
0.0
 10
79.807153
 20
9.572625
 30
0.0
 10
79.807153
 20
9.228667
 30
0.0
 10
79.807153
 20
8.884708
 30
0.0
 10
79.807153
 20
8.540750
 30
0.0
 10
79.807153
 20
8.196792
 30
0.0
 10
79.807153
 20
7.844014
 30
0.0
 10
79.807153
 20
7.500056
 30
0.0
 10
79.807153
 20
7.156097
 30
0.0
 10
79.807153
 20
6.812139
 30
0.0
 10
79.807153
 20
6.468181
 30
0.0
 10
79.807153
 20
6.115403
 30
0.0
 10
79.807153
 20
5.771444
 30
0.0
 10
79.807153
 20
5.427486
 30
0.0
 10
80.115833
 20
5.427486
 30
0.0
 10
80.433333
 20
5.427486
 30
0.0
 10
80.742014
 20
5.427486
 30
0.0
 10
80.742014
 20
5.771444
 30
0.0
 10
80.742014
 20
6.124222
 30
0.0
 10
80.742014
 20
6.468181
 30
0.0
 10
80.742014
 20
6.812139
 30
0.0
 10
80.742014
 20
7.156097
 30
0.0
 10
80.742014
 20
7.508875
 30
0.0
 10
80.742014
 20
7.852833
 30
0.0
 10
80.742014
 20
8.196792
 30
0.0
 10
80.742014
 20
8.540750
 30
0.0
 10
80.742014
 20
8.893528
 30
0.0
 10
80.742014
 20
9.237486
 30
0.0
 10
80.742014
 20
9.581444
 30
0.0
 10
80.742014
 20
9.925403
 30
0.0
 10
80.742014
 20
10.269361
 30
0.0
 10
80.742014
 20
10.622139
 30
0.0
 10
80.742014
 20
10.966097
 30
0.0
 10
80.742014
 20
11.310056
 30
0.0
 10
80.865486
 20
11.036653
 30
0.0
 10
81.015417
 20
10.780889
 30
0.0
 10
81.200625
 20
10.498667
 30
0.0
 10
81.377014
 20
10.216444
 30
0.0
 10
81.562222
 20
9.934222
 30
0.0
 10
81.747431
 20
9.652000
 30
0.0
 10
81.923819
 20
9.369778
 30
0.0
 10
82.109028
 20
9.087556
 30
0.0
 10
82.294236
 20
8.805333
 30
0.0
 10
82.470625
 20
8.523111
 30
0.0
 10
82.655833
 20
8.240889
 30
0.0
 10
82.841042
 20
7.958667
 30
0.0
 10
83.017431
 20
7.676444
 30
0.0
 10
83.202639
 20
7.403042
 30
0.0
 10
83.387847
 20
7.120819
 30
0.0
 10
83.564236
 20
6.838597
 30
0.0
 10
83.749444
 20
6.556375
 30
0.0
 10
83.934653
 20
6.274153
 30
0.0
 10
84.111042
 20
5.991931
 30
0.0
 10
84.296250
 20
5.709708
 30
0.0
 10
84.472639
 20
5.427486
 30
0.0
 10
84.746042
 20
5.427486
 30
0.0
 10
85.010625
 20
5.427486
 30
0.0
 10
85.275208
 20
5.427486
 30
0.0
 10
85.548611
 20
5.427486
 30
0.0
 10
85.548611
 20
5.771444
 30
0.0
 10
85.548611
 20
6.115403
 30
0.0
 10
85.548611
 20
6.468181
 30
0.0
 10
85.548611
 20
6.812139
 30
0.0
 10
85.548611
 20
7.156097
 30
0.0
 10
85.548611
 20
7.500056
 30
0.0
 10
85.548611
 20
7.844014
 30
0.0
 10
85.548611
 20
8.196792
 30
0.0
 10
85.548611
 20
8.540750
 30
0.0
 10
85.548611
 20
8.884708
 30
0.0
 10
85.548611
 20
9.228667
 30
0.0
 10
85.548611
 20
9.572625
 30
0.0
 10
85.548611
 20
9.916583
 30
0.0
 10
85.548611
 20
10.269361
 30
0.0
 10
85.548611
 20
10.613319
 30
0.0
 10
85.548611
 20
10.957278
 30
0.0
 10
85.548611
 20
11.301236
 30
0.0
 10
85.548611
 20
11.645194
 30
0.0
 10
85.548611
 20
11.989153
 30
0.0
 10
85.548611
 20
12.341931
 30
0.0
 10
85.548611
 20
12.685889
 30
0.0
 10
85.231111
 20
12.685889
 30
0.0
 10
84.922431
 20
12.685889
 30
0.0
 10
84.604931
 20
12.685889
 30
0.0
 10
84.604931
 20
12.341931
 30
0.0
 10
84.604931
 20
11.989153
 30
0.0
 10
84.604931
 20
11.645194
 30
0.0
 10
84.604931
 20
11.301236
 30
0.0
 10
84.604931
 20
10.957278
 30
0.0
 10
84.604931
 20
10.604500
 30
0.0
 10
84.604931
 20
10.260542
 30
0.0
 10
84.604931
 20
9.916583
 30
0.0
 10
84.604931
 20
9.572625
 30
0.0
 10
84.604931
 20
9.219847
 30
0.0
 10
84.604931
 20
8.875889
 30
0.0
 10
84.604931
 20
8.531931
 30
0.0
 10
84.604931
 20
8.187972
 30
0.0
 10
84.604931
 20
7.835194
 30
0.0
 10
84.604931
 20
7.491236
 30
0.0
 10
84.604931
 20
7.147278
 30
0.0
 10
84.604931
 20
6.803319
 30
0.0
 10
84.455000
 20
7.112000
 30
0.0
 10
84.278611
 20
7.411861
 30
0.0
 10
84.084583
 20
7.711722
 30
0.0
 10
83.899375
 20
8.002764
 30
0.0
 10
83.714167
 20
8.293806
 30
0.0
 10
83.520139
 20
8.584847
 30
0.0
 10
83.334931
 20
8.875889
 30
0.0
 10
83.140903
 20
9.175750
 30
0.0
 10
82.955694
 20
9.466792
 30
0.0
 10
82.770486
 20
9.757833
 30
0.0
 10
82.576458
 20
10.048875
 30
0.0
 10
82.391250
 20
10.339917
 30
0.0
 10
82.206042
 20
10.630958
 30
0.0
 10
82.012014
 20
10.930819
 30
0.0
 10
81.826806
 20
11.221861
 30
0.0
 10
81.641597
 20
11.512903
 30
0.0
 10
81.447569
 20
11.803944
 30
0.0
 10
81.262361
 20
12.094986
 30
0.0
 10
81.077153
 20
12.394847
 30
0.0
 10
80.883125
 20
12.685889
 30
0.0
 10
80.618542
 20
12.685889
 30
0.0
 10
80.345139
 20
12.685889
 30
0.0
 10
80.071736
 20
12.685889
 30
0.0
 10
79.807153
 20
12.685889
 30
0.0
 10
79.807153
 20
12.685889
 30
0.0
  0
LWPOLYLINE
  5
102
100
AcDbEntity
  8
ink_ext_XXXXXX
 62
7
100
AcDbPolyline
 90
50
 70
0
 10
87.109653
 20
12.685889
 30
0.0
 10
87.109653
 20
12.341931
 30
0.0
 10
87.109653
 20
11.989153
 30
0.0
 10
87.109653
 20
11.645194
 30
0.0
 10
87.109653
 20
11.301236
 30
0.0
 10
87.109653
 20
10.957278
 30
0.0
 10
87.109653
 20
10.613319
 30
0.0
 10
87.109653
 20
10.269361
 30
0.0
 10
87.109653
 20
9.916583
 30
0.0
 10
87.109653
 20
9.572625
 30
0.0
 10
87.109653
 20
9.228667
 30
0.0
 10
87.109653
 20
8.884708
 30
0.0
 10
87.109653
 20
8.540750
 30
0.0
 10
87.109653
 20
8.196792
 30
0.0
 10
87.109653
 20
7.844014
 30
0.0
 10
87.109653
 20
7.500056
 30
0.0
 10
87.109653
 20
7.156097
 30
0.0
 10
87.109653
 20
6.812139
 30
0.0
 10
87.109653
 20
6.468181
 30
0.0
 10
87.109653
 20
6.115403
 30
0.0
 10
87.109653
 20
5.771444
 30
0.0
 10
87.109653
 20
5.427486
 30
0.0
 10
87.435972
 20
5.427486
 30
0.0
 10
87.771111
 20
5.427486
 30
0.0
 10
88.097431
 20
5.427486
 30
0.0
 10
88.097431
 20
5.771444
 30
0.0
 10
88.097431
 20
6.115403
 30
0.0
 10
88.097431
 20
6.468181
 30
0.0
 10
88.097431
 20
6.812139
 30
0.0
 10
88.097431
 20
7.156097
 30
0.0
 10
88.097431
 20
7.500056
 30
0.0
 10
88.097431
 20
7.844014
 30
0.0
 10
88.097431
 20
8.196792
 30
0.0
 10
88.097431
 20
8.540750
 30
0.0
 10
88.097431
 20
8.884708
 30
0.0
 10
88.097431
 20
9.228667
 30
0.0
 10
88.097431
 20
9.572625
 30
0.0
 10
88.097431
 20
9.916583
 30
0.0
 10
88.097431
 20
10.269361
 30
0.0
 10
88.097431
 20
10.613319
 30
0.0
 10
88.097431
 20
10.957278
 30
0.0
 10
88.097431
 20
11.301236
 30
0.0
 10
88.097431
 20
11.645194
 30
0.0
 10
88.097431
 20
11.989153
 30
0.0
 10
88.097431
 20
12.341931
 30
0.0
 10
88.097431
 20
12.685889
 30
0.0
 10
87.771111
 20
12.685889
 30
0.0
 10
87.435972
 20
12.685889
 30
0.0
 10
87.109653
 20
12.685889
 30
0.0
 10
87.109653
 20
12.685889
 30
0.0
  0
LWPOLYLINE
  5
103
100
AcDbEntity
  8
ink_ext_XXXXXX
 62
7
100
AcDbPolyline
 90
75
 70
0
 10
43.744444
 20
12.685889
 30
0.0
 10
43.744444
 20
12.341931
 30
0.0
 10
43.744444
 20
11.989153
 30
0.0
 10
43.744444
 20
11.645194
 30
0.0
 10
43.744444
 20
11.301236
 30
0.0
 10
43.744444
 20
10.957278
 30
0.0
 10
43.744444
 20
10.613319
 30
0.0
 10
43.744444
 20
10.269361
 30
0.0
 10
43.744444
 20
9.916583
 30
0.0
 10
43.744444
 20
9.572625
 30
0.0
 10
43.744444
 20
9.228667
 30
0.0
 10
43.744444
 20
8.884708
 30
0.0
 10
43.744444
 20
8.540750
 30
0.0
 10
43.744444
 20
8.196792
 30
0.0
 10
43.744444
 20
7.844014
 30
0.0
 10
43.744444
 20
7.500056
 30
0.0
 10
43.744444
 20
7.156097
 30
0.0
 10
43.744444
 20
6.812139
 30
0.0
 10
43.744444
 20
6.468181
 30
0.0
 10
43.744444
 20
6.115403
 30
0.0
 10
43.744444
 20
5.771444
 30
0.0
 10
43.744444
 20
5.427486
 30
0.0
 10
44.079583
 20
5.427486
 30
0.0
 10
44.414722
 20
5.427486
 30
0.0
 10
44.749861
 20
5.427486
 30
0.0
 10
45.085000
 20
5.427486
 30
0.0
 10
45.420139
 20
5.427486
 30
0.0
 10
45.764097
 20
5.427486
 30
0.0
 10
46.099236
 20
5.427486
 30
0.0
 10
46.434375
 20
5.427486
 30
0.0
 10
46.769514
 20
5.427486
 30
0.0
 10
47.104653
 20
5.427486
 30
0.0
 10
47.439792
 20
5.427486
 30
0.0
 10
47.774931
 20
5.427486
 30
0.0
 10
48.110069
 20
5.427486
 30
0.0
 10
48.445208
 20
5.427486
 30
0.0
 10
48.780347
 20
5.427486
 30
0.0
 10
48.780347
 20
5.762625
 30
0.0
 10
48.780347
 20
6.097764
 30
0.0
 10
48.780347
 20
6.432903
 30
0.0
 10
48.780347
 20
6.768042
 30
0.0
 10
48.462847
 20
6.768042
 30
0.0
 10
48.136528
 20
6.768042
 30
0.0
 10
47.819028
 20
6.768042
 30
0.0
 10
47.492708
 20
6.768042
 30
0.0
 10
47.175208
 20
6.768042
 30
0.0
 10
46.848889
 20
6.768042
 30
0.0
 10
46.531389
 20
6.768042
 30
0.0
 10
46.205069
 20
6.768042
 30
0.0
 10
45.887569
 20
6.768042
 30
0.0
 10
45.561250
 20
6.768042
 30
0.0
 10
45.243750
 20
6.768042
 30
0.0
 10
45.243750
 20
7.120819
 30
0.0
 10
45.243750
 20
7.464778
 30
0.0
 10
45.243750
 20
7.817556
 30
0.0
 10
45.243750
 20
8.161514
 30
0.0
 10
45.243750
 20
8.505472
 30
0.0
 10
45.243750
 20
8.858250
 30
0.0
 10
45.243750
 20
9.202208
 30
0.0
 10
45.243750
 20
9.554986
 30
0.0
 10
45.243750
 20
9.898944
 30
0.0
 10
45.243750
 20
10.251722
 30
0.0
 10
45.243750
 20
10.595681
 30
0.0
 10
45.243750
 20
10.948458
 30
0.0
 10
45.243750
 20
11.292417
 30
0.0
 10
45.243750
 20
11.636375
 30
0.0
 10
45.243750
 20
11.989153
 30
0.0
 10
45.243750
 20
12.333111
 30
0.0
 10
45.243750
 20
12.685889
 30
0.0
 10
44.943889
 20
12.685889
 30
0.0
 10
44.644028
 20
12.685889
 30
0.0
 10
44.344167
 20
12.685889
 30
0.0
 10
44.044306
 20
12.685889
 30
0.0
 10
43.744444
 20
12.685889
 30
0.0
 10
43.744444
 20
12.685889
 30
0.0
  0
LWPOLYLINE
  5
104
100
AcDbEntity
  8
ink_ext_XXXXXX
 62
7
100
AcDbPolyline
 90
84
 70
0
 10
47.598542
 20
12.685889
 30
0.0
 10
47.774931
 20
12.377208
 30
0.0
 10
47.951319
 20
12.077347
 30
0.0
 10
48.127708
 20
11.777486
 30
0.0
 10
48.295278
 20
11.468806
 30
0.0
 10
48.471667
 20
11.168944
 30
0.0
 10
48.648056
 20
10.860264
 30
0.0
 10
48.824444
 20
10.560403
 30
0.0
 10
49.000833
 20
10.260542
 30
0.0
 10
49.177222
 20
9.951861
 30
0.0
 10
49.353611
 20
9.652000
 30
0.0
 10
49.530000
 20
9.343319
 30
0.0
 10
49.706389
 20
9.043458
 30
0.0
 10
49.882778
 20
8.743597
 30
0.0
 10
50.050347
 20
8.434917
 30
0.0
 10
50.226736
 20
8.135056
 30
0.0
 10
50.226736
 20
7.791097
 30
0.0
 10
50.226736
 20
7.455958
 30
0.0
 10
50.226736
 20
7.120819
 30
0.0
 10
50.226736
 20
6.776861
 30
0.0
 10
50.226736
 20
6.441722
 30
0.0
 10
50.226736
 20
6.106583
 30
0.0
 10
50.226736
 20
5.762625
 30
0.0
 10
50.226736
 20
5.427486
 30
0.0
 10
50.526597
 20
5.427486
 30
0.0
 10
50.826458
 20
5.427486
 30
0.0
 10
51.126319
 20
5.427486
 30
0.0
 10
51.426181
 20
5.427486
 30
0.0
 10
51.726042
 20
5.427486
 30
0.0
 10
51.726042
 20
5.762625
 30
0.0
 10
51.726042
 20
6.106583
 30
0.0
 10
51.726042
 20
6.441722
 30
0.0
 10
51.726042
 20
6.776861
 30
0.0
 10
51.726042
 20
7.120819
 30
0.0
 10
51.726042
 20
7.455958
 30
0.0
 10
51.726042
 20
7.791097
 30
0.0
 10
51.726042
 20
8.135056
 30
0.0
 10
51.884792
 20
8.434917
 30
0.0
 10
52.043542
 20
8.743597
 30
0.0
 10
52.202292
 20
9.043458
 30
0.0
 10
52.361042
 20
9.343319
 30
0.0
 10
52.519792
 20
9.652000
 30
0.0
 10
52.678542
 20
9.951861
 30
0.0
 10
52.837292
 20
10.260542
 30
0.0
 10
52.996042
 20
10.560403
 30
0.0
 10
53.154792
 20
10.860264
 30
0.0
 10
53.313542
 20
11.168944
 30
0.0
 10
53.481111
 20
11.468806
 30
0.0
 10
53.639861
 20
11.777486
 30
0.0
 10
53.798611
 20
12.077347
 30
0.0
 10
53.957361
 20
12.377208
 30
0.0
 10
54.116111
 20
12.685889
 30
0.0
 10
53.772153
 20
12.685889
 30
0.0
 10
53.437014
 20
12.685889
 30
0.0
 10
53.093056
 20
12.685889
 30
0.0
 10
52.749097
 20
12.685889
 30
0.0
 10
52.413958
 20
12.685889
 30
0.0
 10
52.264028
 20
12.368389
 30
0.0
 10
52.122917
 20
12.059708
 30
0.0
 10
51.981806
 20
11.742208
 30
0.0
 10
51.840694
 20
11.433528
 30
0.0
 10
51.690764
 20
11.116028
 30
0.0
 10
51.549653
 20
10.807347
 30
0.0
 10
51.408542
 20
10.498667
 30
0.0
 10
51.267431
 20
10.181167
 30
0.0
 10
51.117500
 20
9.872486
 30
0.0
 10
50.976389
 20
9.554986
 30
0.0
 10
50.826458
 20
9.872486
 30
0.0
 10
50.667708
 20
10.181167
 30
0.0
 10
50.508958
 20
10.498667
 30
0.0
 10
50.359028
 20
10.807347
 30
0.0
 10
50.200278
 20
11.116028
 30
0.0
 10
50.041528
 20
11.433528
 30
0.0
 10
49.891597
 20
11.742208
 30
0.0
 10
49.732847
 20
12.059708
 30
0.0
 10
49.582917
 20
12.368389
 30
0.0
 10
49.424167
 20
12.685889
 30
0.0
 10
49.115486
 20
12.685889
 30
0.0
 10
48.815625
 20
12.685889
 30
0.0
 10
48.506944
 20
12.685889
 30
0.0
 10
48.207083
 20
12.685889
 30
0.0
 10
47.898403
 20
12.685889
 30
0.0
 10
47.598542
 20
12.685889
 30
0.0
 10
47.598542
 20
12.685889
 30
0.0
  0
LWPOLYLINE
  5
105
100
AcDbEntity
  8
ink_ext_XXXXXX
 62
7
100
AcDbPolyline
 90
142
 70
0
 10
100.153611
 20
12.879917
 30
0.0
 10
99.809653
 20
12.862278
 30
0.0
 10
99.465694
 20
12.827000
 30
0.0
 10
99.130556
 20
12.756444
 30
0.0
 10
98.795417
 20
12.650611
 30
0.0
 10
98.477917
 20
12.518319
 30
0.0
 10
98.178056
 20
12.341931
 30
0.0
 10
97.895833
 20
12.139083
 30
0.0
 10
97.648889
 20
11.909778
 30
0.0
 10
97.419583
 20
11.645194
 30
0.0
 10
97.225556
 20
11.362972
 30
0.0
 10
97.057986
 20
11.054292
 30
0.0
 10
96.925694
 20
10.736792
 30
0.0
 10
96.819861
 20
10.410472
 30
0.0
 10
96.740486
 20
10.075333
 30
0.0
 10
96.687569
 20
9.731375
 30
0.0
 10
96.652292
 20
9.387417
 30
0.0
 10
96.643472
 20
9.043458
 30
0.0
 10
96.652292
 20
8.708319
 30
0.0
 10
96.687569
 20
8.373181
 30
0.0
 10
96.731667
 20
8.046861
 30
0.0
 10
96.811042
 20
7.720542
 30
0.0
 10
96.908056
 20
7.403042
 30
0.0
 10
97.031528
 20
7.094361
 30
0.0
 10
97.190278
 20
6.803319
 30
0.0
 10
97.366667
 20
6.521097
 30
0.0
 10
97.578333
 20
6.256514
 30
0.0
 10
97.807639
 20
6.018389
 30
0.0
 10
98.063403
 20
5.815542
 30
0.0
 10
98.345625
 20
5.630333
 30
0.0
 10
98.645486
 20
5.480403
 30
0.0
 10
98.954167
 20
5.365750
 30
0.0
 10
99.280486
 20
5.286375
 30
0.0
 10
99.606806
 20
5.242278
 30
0.0
 10
99.941944
 20
5.224639
 30
0.0
 10
100.294722
 20
5.242278
 30
0.0
 10
100.647500
 20
5.295194
 30
0.0
 10
100.982639
 20
5.383389
 30
0.0
 10
101.308958
 20
5.506861
 30
0.0
 10
101.617639
 20
5.674431
 30
0.0
 10
101.899861
 20
5.886097
 30
0.0
 10
102.155625
 20
6.124222
 30
0.0
 10
102.384931
 20
6.397625
 30
0.0
 10
102.455486
 20
6.071306
 30
0.0
 10
102.526042
 20
5.753806
 30
0.0
 10
102.596597
 20
5.427486
 30
0.0
 10
102.922917
 20
5.427486
 30
0.0
 10
103.240417
 20
5.427486
 30
0.0
 10
103.240417
 20
5.753806
 30
0.0
 10
103.240417
 20
6.080125
 30
0.0
 10
103.240417
 20
6.406444
 30
0.0
 10
103.240417
 20
6.732764
 30
0.0
 10
103.240417
 20
7.059083
 30
0.0
 10
103.240417
 20
7.385403
 30
0.0
 10
103.240417
 20
7.711722
 30
0.0
 10
103.240417
 20
8.038042
 30
0.0
 10
103.240417
 20
8.364361
 30
0.0
 10
103.240417
 20
8.690681
 30
0.0
 10
103.240417
 20
9.017000
 30
0.0
 10
103.240417
 20
9.343319
 30
0.0
 10
102.922917
 20
9.343319
 30
0.0
 10
102.605417
 20
9.343319
 30
0.0
 10
102.287917
 20
9.343319
 30
0.0
 10
101.970417
 20
9.343319
 30
0.0
 10
101.652917
 20
9.343319
 30
0.0
 10
101.335417
 20
9.343319
 30
0.0
 10
101.017917
 20
9.343319
 30
0.0
 10
100.700417
 20
9.343319
 30
0.0
 10
100.382917
 20
9.343319
 30
0.0
 10
100.065417
 20
9.343319
 30
0.0
 10
100.065417
 20
9.069917
 30
0.0
 10
100.065417
 20
8.796514
 30
0.0
 10
100.065417
 20
8.523111
 30
0.0
 10
100.391736
 20
8.523111
 30
0.0
 10
100.718056
 20
8.523111
 30
0.0
 10
101.035556
 20
8.523111
 30
0.0
 10
101.361875
 20
8.523111
 30
0.0
 10
101.688194
 20
8.523111
 30
0.0
 10
102.014514
 20
8.523111
 30
0.0
 10
102.332014
 20
8.523111
 30
0.0
 10
102.332014
 20
8.434917
 30
0.0
 10
102.314375
 20
8.108597
 30
0.0
 10
102.261458
 20
7.782278
 30
0.0
 10
102.173264
 20
7.464778
 30
0.0
 10
102.032153
 20
7.164917
 30
0.0
 10
101.846944
 20
6.891514
 30
0.0
 10
101.617639
 20
6.644569
 30
0.0
 10
101.353056
 20
6.450542
 30
0.0
 10
101.053194
 20
6.300611
 30
0.0
 10
100.744514
 20
6.203597
 30
0.0
 10
100.418194
 20
6.141861
 30
0.0
 10
100.083056
 20
6.124222
 30
0.0
 10
99.756736
 20
6.141861
 30
0.0
 10
99.430417
 20
6.203597
 30
0.0
 10
99.112917
 20
6.309431
 30
0.0
 10
98.813056
 20
6.459361
 30
0.0
 10
98.548472
 20
6.662208
 30
0.0
 10
98.319167
 20
6.900333
 30
0.0
 10
98.125139
 20
7.164917
 30
0.0
 10
97.966389
 20
7.455958
 30
0.0
 10
97.851736
 20
7.773458
 30
0.0
 10
97.763542
 20
8.090958
 30
0.0
 10
97.701806
 20
8.417278
 30
0.0
 10
97.675347
 20
8.752417
 30
0.0
 10
97.666528
 20
9.078736
 30
0.0
 10
97.675347
 20
9.413875
 30
0.0
 10
97.701806
 20
9.757833
 30
0.0
 10
97.763542
 20
10.084153
 30
0.0
 10
97.851736
 20
10.410472
 30
0.0
 10
97.975208
 20
10.719153
 30
0.0
 10
98.142778
 20
11.019014
 30
0.0
 10
98.345625
 20
11.283597
 30
0.0
 10
98.583750
 20
11.521722
 30
0.0
 10
98.857153
 20
11.715750
 30
0.0
 10
99.165833
 20
11.856861
 30
0.0
 10
99.483333
 20
11.953875
 30
0.0
 10
99.818472
 20
12.015611
 30
0.0
 10
100.153611
 20
12.033250
 30
0.0
 10
100.497569
 20
12.006792
 30
0.0
 10
100.841528
 20
11.945056
 30
0.0
 10
101.167847
 20
11.830403
 30
0.0
 10
101.467708
 20
11.654014
 30
0.0
 10
101.723472
 20
11.424708
 30
0.0
 10
101.926319
 20
11.142486
 30
0.0
 10
102.076250
 20
10.824986
 30
0.0
 10
102.164444
 20
10.489847
 30
0.0
 10
102.481944
 20
10.489847
 30
0.0
 10
102.799444
 20
10.489847
 30
0.0
 10
103.125764
 20
10.489847
 30
0.0
 10
103.055208
 20
10.833806
 30
0.0
 10
102.949375
 20
11.168944
 30
0.0
 10
102.808264
 20
11.486444
 30
0.0
 10
102.623056
 20
11.786306
 30
0.0
 10
102.393750
 20
12.050889
 30
0.0
 10
102.129167
 20
12.280194
 30
0.0
 10
101.838125
 20
12.474222
 30
0.0
 10
101.520625
 20
12.632972
 30
0.0
 10
101.194306
 20
12.738806
 30
0.0
 10
100.850347
 20
12.818181
 30
0.0
 10
100.506389
 20
12.862278
 30
0.0
 10
100.153611
 20
12.879917
 30
0.0
 10
100.153611
 20
12.879917
 30
0.0
  0
LWPOLYLINE
  5
106
100
AcDbEntity
  8
ink_ext_XXXXXX
 62
7
100
AcDbPolyline
 90
183
 70
0
 10
56.038750
 20
13.329708
 30
0.0
 10
56.126944
 20
12.994569
 30
0.0
 10
56.206319
 20
12.668250
 30
0.0
 10
56.294514
 20
12.341931
 30
0.0
 10
56.382708
 20
12.006792
 30
0.0
 10
56.462083
 20
11.680472
 30
0.0
 10
56.550278
 20
11.354153
 30
0.0
 10
56.638472
 20
11.019014
 30
0.0
 10
56.726667
 20
10.692694
 30
0.0
 10
56.806042
 20
10.366375
 30
0.0
 10
56.894236
 20
10.031236
 30
0.0
 10
56.982431
 20
9.704917
 30
0.0
 10
57.061806
 20
9.378597
 30
0.0
 10
57.150000
 20
9.052278
 30
0.0
 10
57.238194
 20
8.717139
 30
0.0
 10
57.317569
 20
8.390819
 30
0.0
 10
57.405764
 20
8.064500
 30
0.0
 10
57.493958
 20
7.729361
 30
0.0
 10
57.582153
 20
7.403042
 30
0.0
 10
57.661528
 20
7.076722
 30
0.0
 10
57.749722
 20
6.741583
 30
0.0
 10
57.837917
 20
6.415264
 30
0.0
 10
57.917292
 20
6.088944
 30
0.0
 10
58.005486
 20
5.753806
 30
0.0
 10
58.093681
 20
5.427486
 30
0.0
 10
58.367083
 20
5.427486
 30
0.0
 10
58.640486
 20
5.427486
 30
0.0
 10
58.913889
 20
5.427486
 30
0.0
 10
59.187292
 20
5.427486
 30
0.0
 10
59.275486
 20
5.753806
 30
0.0
 10
59.363681
 20
6.080125
 30
0.0
 10
59.451875
 20
6.406444
 30
0.0
 10
59.531250
 20
6.732764
 30
0.0
 10
59.619444
 20
7.059083
 30
0.0
 10
59.707639
 20
7.385403
 30
0.0
 10
59.795833
 20
7.711722
 30
0.0
 10
59.884028
 20
8.038042
 30
0.0
 10
59.963403
 20
8.355542
 30
0.0
 10
60.051597
 20
8.681861
 30
0.0
 10
60.139792
 20
9.008181
 30
0.0
 10
60.227986
 20
9.334500
 30
0.0
 10
60.307361
 20
9.660819
 30
0.0
 10
60.395556
 20
9.987139
 30
0.0
 10
60.483750
 20
10.313458
 30
0.0
 10
60.571944
 20
10.639778
 30
0.0
 10
60.660139
 20
10.966097
 30
0.0
 10
60.739514
 20
11.292417
 30
0.0
 10
60.827708
 20
11.618736
 30
0.0
 10
60.915903
 20
11.945056
 30
0.0
 10
61.004097
 20
11.618736
 30
0.0
 10
61.092292
 20
11.292417
 30
0.0
 10
61.189306
 20
10.966097
 30
0.0
 10
61.277500
 20
10.639778
 30
0.0
 10
61.365694
 20
10.313458
 30
0.0
 10
61.453889
 20
9.987139
 30
0.0
 10
61.542083
 20
9.660819
 30
0.0
 10
61.639097
 20
9.334500
 30
0.0
 10
61.727292
 20
9.008181
 30
0.0
 10
61.815486
 20
8.681861
 30
0.0
 10
61.903681
 20
8.355542
 30
0.0
 10
61.991875
 20
8.038042
 30
0.0
 10
62.088889
 20
7.711722
 30
0.0
 10
62.177083
 20
7.385403
 30
0.0
 10
62.265278
 20
7.059083
 30
0.0
 10
62.353472
 20
6.732764
 30
0.0
 10
62.441667
 20
6.406444
 30
0.0
 10
62.538681
 20
6.080125
 30
0.0
 10
62.626875
 20
5.753806
 30
0.0
 10
62.715069
 20
5.427486
 30
0.0
 10
63.067847
 20
5.427486
 30
0.0
 10
63.420625
 20
5.427486
 30
0.0
 10
63.773403
 20
5.427486
 30
0.0
 10
63.861597
 20
5.753806
 30
0.0
 10
63.940972
 20
6.088944
 30
0.0
 10
64.029167
 20
6.415264
 30
0.0
 10
64.117361
 20
6.741583
 30
0.0
 10
64.205556
 20
7.076722
 30
0.0
 10
64.293750
 20
7.403042
 30
0.0
 10
64.381944
 20
7.729361
 30
0.0
 10
64.470139
 20
8.064500
 30
0.0
 10
64.558333
 20
8.390819
 30
0.0
 10
64.646528
 20
8.717139
 30
0.0
 10
64.734722
 20
9.052278
 30
0.0
 10
64.822917
 20
9.378597
 30
0.0
 10
64.902292
 20
9.704917
 30
0.0
 10
64.990486
 20
10.031236
 30
0.0
 10
65.078681
 20
10.366375
 30
0.0
 10
65.166875
 20
10.692694
 30
0.0
 10
65.255069
 20
11.019014
 30
0.0
 10
65.343264
 20
11.354153
 30
0.0
 10
65.431458
 20
11.680472
 30
0.0
 10
65.519653
 20
12.006792
 30
0.0
 10
65.607847
 20
12.341931
 30
0.0
 10
65.696042
 20
12.668250
 30
0.0
 10
65.784236
 20
12.994569
 30
0.0
 10
65.863611
 20
13.329708
 30
0.0
 10
65.528472
 20
13.329708
 30
0.0
 10
65.184514
 20
13.329708
 30
0.0
 10
64.849375
 20
13.329708
 30
0.0
 10
64.761181
 20
12.994569
 30
0.0
 10
64.672986
 20
12.668250
 30
0.0
 10
64.584792
 20
12.333111
 30
0.0
 10
64.505417
 20
12.006792
 30
0.0
 10
64.417222
 20
11.671653
 30
0.0
 10
64.329028
 20
11.345333
 30
0.0
 10
64.240833
 20
11.019014
 30
0.0
 10
64.161458
 20
10.683875
 30
0.0
 10
64.073264
 20
10.357556
 30
0.0
 10
63.985069
 20
10.022417
 30
0.0
 10
63.896875
 20
9.696097
 30
0.0
 10
63.817500
 20
9.360958
 30
0.0
 10
63.729306
 20
9.034639
 30
0.0
 10
63.641111
 20
8.708319
 30
0.0
 10
63.552917
 20
8.373181
 30
0.0
 10
63.464722
 20
8.046861
 30
0.0
 10
63.385347
 20
7.711722
 30
0.0
 10
63.297153
 20
7.385403
 30
0.0
 10
63.208958
 20
7.050264
 30
0.0
 10
63.120764
 20
7.385403
 30
0.0
 10
63.032569
 20
7.711722
 30
0.0
 10
62.935556
 20
8.046861
 30
0.0
 10
62.847361
 20
8.373181
 30
0.0
 10
62.759167
 20
8.708319
 30
0.0
 10
62.662153
 20
9.034639
 30
0.0
 10
62.573958
 20
9.360958
 30
0.0
 10
62.485764
 20
9.696097
 30
0.0
 10
62.397569
 20
10.022417
 30
0.0
 10
62.300556
 20
10.357556
 30
0.0
 10
62.212361
 20
10.683875
 30
0.0
 10
62.124167
 20
11.019014
 30
0.0
 10
62.027153
 20
11.345333
 30
0.0
 10
61.938958
 20
11.671653
 30
0.0
 10
61.850764
 20
12.006792
 30
0.0
 10
61.753750
 20
12.333111
 30
0.0
 10
61.665556
 20
12.668250
 30
0.0
 10
61.577361
 20
12.994569
 30
0.0
 10
61.489167
 20
13.329708
 30
0.0
 10
61.206944
 20
13.329708
 30
0.0
 10
60.924722
 20
13.329708
 30
0.0
 10
60.642500
 20
13.329708
 30
0.0
 10
60.369097
 20
13.329708
 30
0.0
 10
60.280903
 20
12.994569
 30
0.0
 10
60.192708
 20
12.659431
 30
0.0
 10
60.104514
 20
12.333111
 30
0.0
 10
60.016319
 20
11.997972
 30
0.0
 10
59.928125
 20
11.662833
 30
0.0
 10
59.839931
 20
11.327694
 30
0.0
 10
59.751736
 20
11.001375
 30
0.0
 10
59.663542
 20
10.666236
 30
0.0
 10
59.575347
 20
10.331097
 30
0.0
 10
59.487153
 20
10.004778
 30
0.0
 10
59.398958
 20
9.669639
 30
0.0
 10
59.310764
 20
9.334500
 30
0.0
 10
59.222569
 20
9.008181
 30
0.0
 10
59.134375
 20
8.673042
 30
0.0
 10
59.046181
 20
8.337903
 30
0.0
 10
58.957986
 20
8.011583
 30
0.0
 10
58.869792
 20
7.676444
 30
0.0
 10
58.781597
 20
7.341306
 30
0.0
 10
58.693403
 20
7.006167
 30
0.0
 10
58.614028
 20
7.341306
 30
0.0
 10
58.525833
 20
7.676444
 30
0.0
 10
58.437639
 20
8.011583
 30
0.0
 10
58.358264
 20
8.337903
 30
0.0
 10
58.270069
 20
8.673042
 30
0.0
 10
58.190694
 20
9.008181
 30
0.0
 10
58.102500
 20
9.334500
 30
0.0
 10
58.014306
 20
9.669639
 30
0.0
 10
57.934931
 20
10.004778
 30
0.0
 10
57.846736
 20
10.331097
 30
0.0
 10
57.758542
 20
10.666236
 30
0.0
 10
57.679167
 20
11.001375
 30
0.0
 10
57.590972
 20
11.327694
 30
0.0
 10
57.511597
 20
11.662833
 30
0.0
 10
57.423403
 20
11.997972
 30
0.0
 10
57.335208
 20
12.324292
 30
0.0
 10
57.255833
 20
12.659431
 30
0.0
 10
57.167639
 20
12.994569
 30
0.0
 10
57.079444
 20
13.329708
 30
0.0
 10
56.735486
 20
13.329708
 30
0.0
 10
56.382708
 20
13.329708
 30
0.0
 10
56.038750
 20
13.329708
 30
0.0
 10
56.038750
 20
13.329708
 30
0.0
  0
LWPOLYLINE
  5
107
100
AcDbEntity
  8
ink_ext_XXXXXX
 62
7
100
AcDbPolyline
 90
34
 70
0
 10
104.801458
 20
13.841236
 30
0.0
 10
104.536875
 20
13.788319
 30
0.0
 10
104.325208
 20
13.638389
 30
0.0
 10
104.245833
 20
13.391444
 30
0.0
 10
104.342847
 20
13.144500
 30
0.0
 10
104.580972
 20
13.012208
 30
0.0
 10
104.810278
 20
12.950472
 30
0.0
 10
105.030764
 20
12.888736
 30
0.0
 10
105.154236
 20
12.703528
 30
0.0
 10
105.048403
 20
12.518319
 30
0.0
 10
104.836736
 20
12.474222
 30
0.0
 10
104.563333
 20
12.544778
 30
0.0
 10
104.448681
 20
12.791722
 30
0.0
 10
104.192917
 20
12.791722
 30
0.0
 10
104.272292
 20
12.500681
 30
0.0
 10
104.510417
 20
12.306653
 30
0.0
 10
104.819097
 20
12.253736
 30
0.0
 10
105.101319
 20
12.297833
 30
0.0
 10
105.330625
 20
12.456583
 30
0.0
 10
105.418819
 20
12.729986
 30
0.0
 10
105.339444
 20
12.968111
 30
0.0
 10
105.127778
 20
13.118042
 30
0.0
 10
104.907292
 20
13.170958
 30
0.0
 10
104.686806
 20
13.232694
 30
0.0
 10
104.510417
 20
13.426722
 30
0.0
 10
104.598611
 20
13.576653
 30
0.0
 10
104.783819
 20
13.620750
 30
0.0
 10
105.013125
 20
13.559014
 30
0.0
 10
105.110139
 20
13.356167
 30
0.0
 10
105.374722
 20
13.356167
 30
0.0
 10
105.295347
 20
13.620750
 30
0.0
 10
105.074861
 20
13.788319
 30
0.0
 10
104.801458
 20
13.841236
 30
0.0
 10
104.801458
 20
13.841236
 30
0.0
  0
LWPOLYLINE
  5
108
100
AcDbEntity
  8
ink_ext_XXXXXX
 62
7
100
AcDbPolyline
 90
45
 70
0
 10
105.648125
 20
13.805958
 30
0.0
 10
105.648125
 20
13.497278
 30
0.0
 10
105.648125
 20
13.197417
 30
0.0
 10
105.648125
 20
12.897556
 30
0.0
 10
105.648125
 20
12.588875
 30
0.0
 10
105.648125
 20
12.289014
 30
0.0
 10
105.895069
 20
12.289014
 30
0.0
 10
105.895069
 20
12.580056
 30
0.0
 10
105.895069
 20
12.871097
 30
0.0
 10
105.895069
 20
13.162139
 30
0.0
 10
105.895069
 20
13.453181
 30
0.0
 10
105.903889
 20
13.453181
 30
0.0
 10
106.009722
 20
13.162139
 30
0.0
 10
106.115556
 20
12.871097
 30
0.0
 10
106.212569
 20
12.580056
 30
0.0
 10
106.318403
 20
12.289014
 30
0.0
 10
106.538889
 20
12.289014
 30
0.0
 10
106.644722
 20
12.580056
 30
0.0
 10
106.750556
 20
12.871097
 30
0.0
 10
106.856389
 20
13.162139
 30
0.0
 10
106.962222
 20
13.453181
 30
0.0
 10
106.962222
 20
13.162139
 30
0.0
 10
106.962222
 20
12.871097
 30
0.0
 10
106.962222
 20
12.580056
 30
0.0
 10
106.962222
 20
12.289014
 30
0.0
 10
107.217986
 20
12.289014
 30
0.0
 10
107.217986
 20
12.588875
 30
0.0
 10
107.217986
 20
12.897556
 30
0.0
 10
107.217986
 20
13.197417
 30
0.0
 10
107.217986
 20
13.497278
 30
0.0
 10
107.217986
 20
13.805958
 30
0.0
 10
107.032778
 20
13.805958
 30
0.0
 10
106.847569
 20
13.805958
 30
0.0
 10
106.741736
 20
13.506097
 30
0.0
 10
106.644722
 20
13.206236
 30
0.0
 10
106.538889
 20
12.915194
 30
0.0
 10
106.441875
 20
12.615333
 30
0.0
 10
106.433056
 20
12.615333
 30
0.0
 10
106.327222
 20
12.915194
 30
0.0
 10
106.230208
 20
13.206236
 30
0.0
 10
106.124375
 20
13.506097
 30
0.0
 10
106.018542
 20
13.805958
 30
0.0
 10
105.833333
 20
13.805958
 30
0.0
 10
105.648125
 20
13.805958
 30
0.0
 10
105.648125
 20
13.805958
 30
0.0
  0
LWPOLYLINE
  5
109
100
AcDbEntity
  8
ink_ext_XXXXXX
 62
7
100
AcDbPolyline
 90
108
 70
0
 10
2.989792
 20
16.495889
 30
0.0
 10
2.645833
 20
16.487069
 30
0.0
 10
2.301875
 20
16.460611
 30
0.0
 10
1.957917
 20
16.416514
 30
0.0
 10
1.622778
 20
16.354778
 30
0.0
 10
1.287639
 20
16.275403
 30
0.0
 10
0.961319
 20
16.187208
 30
0.0
 10
0.635000
 20
16.081375
 30
0.0
 10
0.317500
 20
15.957903
 30
0.0
 10
0.000000
 20
15.816792
 30
0.0
 10
0.035278
 20
15.464014
 30
0.0
 10
0.070556
 20
15.120056
 30
0.0
 10
0.114653
 20
14.776097
 30
0.0
 10
0.167569
 20
14.432139
 30
0.0
 10
0.220486
 20
14.079361
 30
0.0
 10
0.282222
 20
13.735403
 30
0.0
 10
0.352778
 20
13.391444
 30
0.0
 10
0.423333
 20
13.056306
 30
0.0
 10
0.502708
 20
12.712347
 30
0.0
 10
0.582083
 20
12.377208
 30
0.0
 10
0.670278
 20
12.033250
 30
0.0
 10
0.767292
 20
11.698111
 30
0.0
 10
0.864306
 20
11.362972
 30
0.0
 10
0.970139
 20
11.027833
 30
0.0
 10
1.084792
 20
10.701514
 30
0.0
 10
1.199444
 20
10.366375
 30
0.0
 10
1.322917
 20
10.040056
 30
0.0
 10
1.446389
 20
9.713736
 30
0.0
 10
1.578681
 20
9.396236
 30
0.0
 10
1.710972
 20
9.069917
 30
0.0
 10
1.860903
 20
8.752417
 30
0.0
 10
2.002014
 20
8.434917
 30
0.0
 10
2.160764
 20
8.117417
 30
0.0
 10
2.310694
 20
7.808736
 30
0.0
 10
2.478264
 20
7.500056
 30
0.0
 10
2.645833
 20
7.191375
 30
0.0
 10
2.813403
 20
6.891514
 30
0.0
 10
2.989792
 20
6.600472
 30
0.0
 10
3.166181
 20
6.309431
 30
0.0
 10
3.342569
 20
6.018389
 30
0.0
 10
3.527778
 20
5.736167
 30
0.0
 10
3.721806
 20
5.453944
 30
0.0
 10
3.915833
 20
5.171722
 30
0.0
 10
4.118681
 20
4.898319
 30
0.0
 10
4.321528
 20
4.624917
 30
0.0
 10
4.524375
 20
4.360333
 30
0.0
 10
4.736042
 20
4.095750
 30
0.0
 10
4.956528
 20
3.831167
 30
0.0
 10
5.177014
 20
3.575403
 30
0.0
 10
5.397500
 20
3.319639
 30
0.0
 10
5.626806
 20
3.063875
 30
0.0
 10
5.856111
 20
2.816931
 30
0.0
 10
6.094236
 20
2.569986
 30
0.0
 10
6.332361
 20
2.331861
 30
0.0
 10
6.111875
 20
2.605264
 30
0.0
 10
5.909028
 20
2.887486
 30
0.0
 10
5.706181
 20
3.169708
 30
0.0
 10
5.520972
 20
3.460750
 30
0.0
 10
5.344583
 20
3.760611
 30
0.0
 10
5.177014
 20
4.069292
 30
0.0
 10
5.018264
 20
4.377972
 30
0.0
 10
4.868333
 20
4.695472
 30
0.0
 10
4.736042
 20
5.012972
 30
0.0
 10
4.612569
 20
5.339292
 30
0.0
 10
4.497917
 20
5.674431
 30
0.0
 10
4.400903
 20
6.000750
 30
0.0
 10
4.312708
 20
6.335889
 30
0.0
 10
4.233333
 20
6.679847
 30
0.0
 10
4.162778
 20
7.023806
 30
0.0
 10
4.109861
 20
7.367764
 30
0.0
 10
4.065764
 20
7.711722
 30
0.0
 10
4.030486
 20
8.055681
 30
0.0
 10
4.012847
 20
8.408458
 30
0.0
 10
4.004028
 20
8.752417
 30
0.0
 10
4.012847
 20
9.096375
 30
0.0
 10
4.030486
 20
9.449153
 30
0.0
 10
4.056944
 20
9.793111
 30
0.0
 10
4.101042
 20
10.137069
 30
0.0
 10
4.153958
 20
10.489847
 30
0.0
 10
4.215694
 20
10.824986
 30
0.0
 10
4.295069
 20
11.168944
 30
0.0
 10
4.383264
 20
11.504083
 30
0.0
 10
4.480278
 20
11.839222
 30
0.0
 10
4.594931
 20
12.165542
 30
0.0
 10
4.709583
 20
12.491861
 30
0.0
 10
4.850694
 20
12.818181
 30
0.0
 10
4.991806
 20
13.126861
 30
0.0
 10
5.150556
 20
13.444361
 30
0.0
 10
5.318125
 20
13.753042
 30
0.0
 10
5.468056
 20
14.017625
 30
0.0
 10
5.635625
 20
14.282208
 30
0.0
 10
5.812014
 20
14.537972
 30
0.0
 10
5.997222
 20
14.793736
 30
0.0
 10
6.182431
 20
15.040681
 30
0.0
 10
6.385278
 20
15.278806
 30
0.0
 10
6.588125
 20
15.516931
 30
0.0
 10
6.288264
 20
15.684500
 30
0.0
 10
5.979583
 20
15.834431
 30
0.0
 10
5.662083
 20
15.975542
 30
0.0
 10
5.344583
 20
16.099014
 30
0.0
 10
5.018264
 20
16.196028
 30
0.0
 10
4.683125
 20
16.293042
 30
0.0
 10
4.347986
 20
16.363597
 30
0.0
 10
4.012847
 20
16.425333
 30
0.0
 10
3.668889
 20
16.460611
 30
0.0
 10
3.333750
 20
16.487069
 30
0.0
 10
2.989792
 20
16.495889
 30
0.0
 10
2.989792
 20
16.495889
 30
0.0
  0
LWPOLYLINE
  5
10a
100
AcDbEntity
  8
ink_ext_XXXXXX
 62
7
100
AcDbPolyline
 90
135
 70
0
 10
73.113194
 20
9.995958
 30
0.0
 10
73.113194
 20
9.916583
 30
0.0
 10
73.113194
 20
9.572625
 30
0.0
 10
73.113194
 20
9.228667
 30
0.0
 10
73.113194
 20
8.884708
 30
0.0
 10
73.113194
 20
8.540750
 30
0.0
 10
73.113194
 20
8.196792
 30
0.0
 10
73.113194
 20
7.844014
 30
0.0
 10
73.113194
 20
7.500056
 30
0.0
 10
73.113194
 20
7.156097
 30
0.0
 10
73.113194
 20
6.812139
 30
0.0
 10
73.113194
 20
6.468181
 30
0.0
 10
73.113194
 20
6.115403
 30
0.0
 10
73.113194
 20
5.771444
 30
0.0
 10
73.113194
 20
5.427486
 30
0.0
 10
73.439514
 20
5.427486
 30
0.0
 10
73.765833
 20
5.427486
 30
0.0
 10
74.092153
 20
5.427486
 30
0.0
 10
74.092153
 20
5.771444
 30
0.0
 10
74.092153
 20
6.115403
 30
0.0
 10
74.092153
 20
6.468181
 30
0.0
 10
74.092153
 20
6.812139
 30
0.0
 10
74.092153
 20
7.156097
 30
0.0
 10
74.092153
 20
7.500056
 30
0.0
 10
74.092153
 20
7.844014
 30
0.0
 10
74.092153
 20
8.187972
 30
0.0
 10
74.092153
 20
8.540750
 30
0.0
 10
74.409653
 20
8.540750
 30
0.0
 10
74.735972
 20
8.540750
 30
0.0
 10
75.053472
 20
8.540750
 30
0.0
 10
75.370972
 20
8.540750
 30
0.0
 10
75.688472
 20
8.540750
 30
0.0
 10
76.023611
 20
8.531931
 30
0.0
 10
76.367569
 20
8.514292
 30
0.0
 10
76.693889
 20
8.461375
 30
0.0
 10
77.002569
 20
8.320264
 30
0.0
 10
77.187778
 20
8.038042
 30
0.0
 10
77.267153
 20
7.711722
 30
0.0
 10
77.302431
 20
7.376583
 30
0.0
 10
77.320069
 20
7.059083
 30
0.0
 10
77.346528
 20
6.741583
 30
0.0
 10
77.364167
 20
6.424083
 30
0.0
 10
77.390625
 20
6.088944
 30
0.0
 10
77.434722
 20
5.744986
 30
0.0
 10
77.558194
 20
5.427486
 30
0.0
 10
77.840417
 20
5.427486
 30
0.0
 10
78.122639
 20
5.427486
 30
0.0
 10
78.413681
 20
5.427486
 30
0.0
 10
78.695903
 20
5.427486
 30
0.0
 10
78.695903
 20
5.630333
 30
0.0
 10
78.484236
 20
5.859639
 30
0.0
 10
78.396042
 20
6.159500
 30
0.0
 10
78.360764
 20
6.477000
 30
0.0
 10
78.343125
 20
6.776861
 30
0.0
 10
78.325486
 20
7.076722
 30
0.0
 10
78.299028
 20
7.367764
 30
0.0
 10
78.281389
 20
7.667625
 30
0.0
 10
78.246111
 20
8.011583
 30
0.0
 10
78.175556
 20
8.346722
 30
0.0
 10
78.025625
 20
8.664222
 30
0.0
 10
77.769861
 20
8.893528
 30
0.0
 10
77.452361
 20
9.017000
 30
0.0
 10
77.752222
 20
9.193389
 30
0.0
 10
78.007986
 20
9.413875
 30
0.0
 10
78.210833
 20
9.687278
 30
0.0
 10
78.351944
 20
9.995958
 30
0.0
 10
77.311250
 20
9.995958
 30
0.0
 10
77.302431
 20
9.978319
 30
0.0
 10
77.090764
 20
9.704917
 30
0.0
 10
76.799722
 20
9.519708
 30
0.0
 10
76.464583
 20
9.431514
 30
0.0
 10
76.120625
 20
9.387417
 30
0.0
 10
75.767847
 20
9.369778
 30
0.0
 10
75.432708
 20
9.369778
 30
0.0
 10
75.097569
 20
9.369778
 30
0.0
 10
74.762431
 20
9.369778
 30
0.0
 10
74.418472
 20
9.369778
 30
0.0
 10
74.083333
 20
9.369778
 30
0.0
 10
74.083333
 20
9.722556
 30
0.0
 10
74.083333
 20
9.995958
 30
0.0
 10
73.113194
 20
9.995958
 30
0.0
 10
73.113194
 20
9.995958
 30
0.0
 10
74.083333
 20
9.995958
 30
0.0
 10
74.083333
 20
10.075333
 30
0.0
 10
74.083333
 20
10.428111
 30
0.0
 10
74.083333
 20
10.780889
 30
0.0
 10
74.083333
 20
11.133667
 30
0.0
 10
74.083333
 20
11.486444
 30
0.0
 10
74.083333
 20
11.839222
 30
0.0
 10
74.418472
 20
11.839222
 30
0.0
 10
74.762431
 20
11.839222
 30
0.0
 10
75.097569
 20
11.839222
 30
0.0
 10
75.432708
 20
11.839222
 30
0.0
 10
75.767847
 20
11.839222
 30
0.0
 10
76.111806
 20
11.830403
 30
0.0
 10
76.446944
 20
11.795125
 30
0.0
 10
76.773264
 20
11.724569
 30
0.0
 10
77.081944
 20
11.565819
 30
0.0
 10
77.302431
 20
11.310056
 30
0.0
 10
77.408264
 20
10.992556
 30
0.0
 10
77.434722
 20
10.657417
 30
0.0
 10
77.408264
 20
10.313458
 30
0.0
 10
77.311250
 20
9.995958
 30
0.0
 10
78.351944
 20
9.995958
 30
0.0
 10
78.351944
 20
10.004778
 30
0.0
 10
78.431319
 20
10.331097
 30
0.0
 10
78.457778
 20
10.675056
 30
0.0
 10
78.431319
 20
11.027833
 30
0.0
 10
78.360764
 20
11.362972
 30
0.0
 10
78.237292
 20
11.689292
 30
0.0
 10
78.052083
 20
11.989153
 30
0.0
 10
77.805139
 20
12.236097
 30
0.0
 10
77.514097
 20
12.430125
 30
0.0
 10
77.214236
 20
12.553597
 30
0.0
 10
76.905556
 20
12.632972
 30
0.0
 10
76.579236
 20
12.668250
 30
0.0
 10
76.252917
 20
12.685889
 30
0.0
 10
75.935417
 20
12.685889
 30
0.0
 10
75.582639
 20
12.685889
 30
0.0
 10
75.229861
 20
12.685889
 30
0.0
 10
74.877083
 20
12.685889
 30
0.0
 10
74.524306
 20
12.685889
 30
0.0
 10
74.171528
 20
12.685889
 30
0.0
 10
73.818750
 20
12.685889
 30
0.0
 10
73.465972
 20
12.685889
 30
0.0
 10
73.113194
 20
12.685889
 30
0.0
 10
73.113194
 20
12.341931
 30
0.0
 10
73.113194
 20
11.989153
 30
0.0
 10
73.113194
 20
11.645194
 30
0.0
 10
73.113194
 20
11.301236
 30
0.0
 10
73.113194
 20
10.957278
 30
0.0
 10
73.113194
 20
10.613319
 30
0.0
 10
73.113194
 20
10.269361
 30
0.0
 10
73.113194
 20
9.995958
 30
0.0
 10
73.113194
 20
9.995958
 30
0.0
  0
LWPOLYLINE
  5
10b
100
AcDbEntity
  8
ink_ext_XXXXXX
 62
7
100
AcDbPolyline
 90
116
 70
0
 10
67.574583
 20
9.995958
 30
0.0
 10
67.477569
 20
9.713736
 30
0.0
 10
67.354097
 20
9.387417
 30
0.0
 10
67.230625
 20
9.052278
 30
0.0
 10
67.107153
 20
8.725958
 30
0.0
 10
66.983681
 20
8.399639
 30
0.0
 10
66.860208
 20
8.064500
 30
0.0
 10
66.736736
 20
7.738181
 30
0.0
 10
66.613264
 20
7.403042
 30
0.0
 10
66.489792
 20
7.076722
 30
0.0
 10
66.375139
 20
6.750403
 30
0.0
 10
66.251667
 20
6.415264
 30
0.0
 10
66.128194
 20
6.088944
 30
0.0
 10
66.004722
 20
5.762625
 30
0.0
 10
65.881250
 20
5.427486
 30
0.0
 10
66.225208
 20
5.427486
 30
0.0
 10
66.560347
 20
5.427486
 30
0.0
 10
66.904306
 20
5.427486
 30
0.0
 10
67.010139
 20
5.736167
 30
0.0
 10
67.124792
 20
6.044847
 30
0.0
 10
67.230625
 20
6.362347
 30
0.0
 10
67.345278
 20
6.671028
 30
0.0
 10
67.459931
 20
6.979708
 30
0.0
 10
67.565764
 20
7.288389
 30
0.0
 10
67.680417
 20
7.597069
 30
0.0
 10
67.997917
 20
7.597069
 30
0.0
 10
68.315417
 20
7.597069
 30
0.0
 10
68.632917
 20
7.597069
 30
0.0
 10
68.950417
 20
7.597069
 30
0.0
 10
69.267917
 20
7.597069
 30
0.0
 10
69.585417
 20
7.597069
 30
0.0
 10
69.902917
 20
7.597069
 30
0.0
 10
70.220417
 20
7.597069
 30
0.0
 10
70.537917
 20
7.597069
 30
0.0
 10
70.643750
 20
7.288389
 30
0.0
 10
70.749583
 20
6.979708
 30
0.0
 10
70.864236
 20
6.671028
 30
0.0
 10
70.970069
 20
6.362347
 30
0.0
 10
71.084722
 20
6.044847
 30
0.0
 10
71.190556
 20
5.736167
 30
0.0
 10
71.296389
 20
5.427486
 30
0.0
 10
71.569792
 20
5.427486
 30
0.0
 10
71.834375
 20
5.427486
 30
0.0
 10
72.098958
 20
5.427486
 30
0.0
 10
72.372361
 20
5.427486
 30
0.0
 10
72.248889
 20
5.762625
 30
0.0
 10
72.125417
 20
6.088944
 30
0.0
 10
72.001944
 20
6.415264
 30
0.0
 10
71.878472
 20
6.750403
 30
0.0
 10
71.755000
 20
7.076722
 30
0.0
 10
71.631528
 20
7.403042
 30
0.0
 10
71.508056
 20
7.738181
 30
0.0
 10
71.384583
 20
8.064500
 30
0.0
 10
71.261111
 20
8.399639
 30
0.0
 10
71.137639
 20
8.725958
 30
0.0
 10
71.014167
 20
9.052278
 30
0.0
 10
70.890694
 20
9.387417
 30
0.0
 10
70.776042
 20
9.713736
 30
0.0
 10
70.670208
 20
9.995958
 30
0.0
 10
69.700069
 20
9.995958
 30
0.0
 10
69.788264
 20
9.722556
 30
0.0
 10
69.902917
 20
9.405056
 30
0.0
 10
70.017569
 20
9.087556
 30
0.0
 10
70.132222
 20
8.770056
 30
0.0
 10
70.238056
 20
8.443736
 30
0.0
 10
69.920556
 20
8.443736
 30
0.0
 10
69.594236
 20
8.443736
 30
0.0
 10
69.267917
 20
8.443736
 30
0.0
 10
68.950417
 20
8.443736
 30
0.0
 10
68.624097
 20
8.443736
 30
0.0
 10
68.306597
 20
8.443736
 30
0.0
 10
67.980278
 20
8.443736
 30
0.0
 10
68.094931
 20
8.770056
 30
0.0
 10
68.209583
 20
9.087556
 30
0.0
 10
68.324236
 20
9.405056
 30
0.0
 10
68.438889
 20
9.722556
 30
0.0
 10
68.535903
 20
9.995958
 30
0.0
 10
67.574583
 20
9.995958
 30
0.0
 10
67.574583
 20
9.995958
 30
0.0
 10
68.535903
 20
9.995958
 30
0.0
 10
68.553542
 20
10.048875
 30
0.0
 10
68.668194
 20
10.366375
 30
0.0
 10
68.782847
 20
10.683875
 30
0.0
 10
68.888681
 20
11.001375
 30
0.0
 10
69.003333
 20
11.327694
 30
0.0
 10
69.117986
 20
11.645194
 30
0.0
 10
69.232639
 20
11.327694
 30
0.0
 10
69.347292
 20
11.001375
 30
0.0
 10
69.453125
 20
10.683875
 30
0.0
 10
69.567778
 20
10.366375
 30
0.0
 10
69.682431
 20
10.048875
 30
0.0
 10
69.700069
 20
9.995958
 30
0.0
 10
70.670208
 20
9.995958
 30
0.0
 10
70.652569
 20
10.048875
 30
0.0
 10
70.529097
 20
10.375194
 30
0.0
 10
70.405625
 20
10.701514
 30
0.0
 10
70.282153
 20
11.036653
 30
0.0
 10
70.158681
 20
11.362972
 30
0.0
 10
70.035208
 20
11.698111
 30
0.0
 10
69.911736
 20
12.024431
 30
0.0
 10
69.788264
 20
12.350750
 30
0.0
 10
69.664792
 20
12.685889
 30
0.0
 10
69.391389
 20
12.685889
 30
0.0
 10
69.117986
 20
12.685889
 30
0.0
 10
68.844583
 20
12.685889
 30
0.0
 10
68.571181
 20
12.685889
 30
0.0
 10
68.456528
 20
12.350750
 30
0.0
 10
68.333056
 20
12.024431
 30
0.0
 10
68.209583
 20
11.698111
 30
0.0
 10
68.086111
 20
11.362972
 30
0.0
 10
67.962639
 20
11.036653
 30
0.0
 10
67.839167
 20
10.701514
 30
0.0
 10
67.715694
 20
10.375194
 30
0.0
 10
67.592222
 20
10.048875
 30
0.0
 10
67.574583
 20
9.995958
 30
0.0
 10
67.574583
 20
9.995958
 30
0.0
  0
LWPOLYLINE
  5
10c
100
AcDbEntity
  8
ink_ext_XXXXXX
 62
7
100
AcDbPolyline
 90
136
 70
0
 10
36.538958
 20
9.995958
 30
0.0
 10
36.538958
 20
9.916583
 30
0.0
 10
36.538958
 20
9.572625
 30
0.0
 10
36.538958
 20
9.228667
 30
0.0
 10
36.538958
 20
8.884708
 30
0.0
 10
36.538958
 20
8.540750
 30
0.0
 10
36.538958
 20
8.196792
 30
0.0
 10
36.538958
 20
7.844014
 30
0.0
 10
36.538958
 20
7.500056
 30
0.0
 10
36.538958
 20
7.156097
 30
0.0
 10
36.538958
 20
6.812139
 30
0.0
 10
36.538958
 20
6.468181
 30
0.0
 10
36.538958
 20
6.115403
 30
0.0
 10
36.538958
 20
5.771444
 30
0.0
 10
36.538958
 20
5.427486
 30
0.0
 10
36.838819
 20
5.427486
 30
0.0
 10
37.138681
 20
5.427486
 30
0.0
 10
37.438542
 20
5.427486
 30
0.0
 10
37.738403
 20
5.427486
 30
0.0
 10
38.038264
 20
5.427486
 30
0.0
 10
38.038264
 20
5.744986
 30
0.0
 10
38.038264
 20
6.053667
 30
0.0
 10
38.038264
 20
6.371167
 30
0.0
 10
38.038264
 20
6.688667
 30
0.0
 10
38.038264
 20
6.997347
 30
0.0
 10
38.038264
 20
7.314847
 30
0.0
 10
38.038264
 20
7.623528
 30
0.0
 10
38.038264
 20
7.941028
 30
0.0
 10
38.038264
 20
8.249708
 30
0.0
 10
38.355764
 20
8.249708
 30
0.0
 10
38.673264
 20
8.249708
 30
0.0
 10
38.990764
 20
8.249708
 30
0.0
 10
39.299444
 20
8.249708
 30
0.0
 10
39.616944
 20
8.249708
 30
0.0
 10
39.925625
 20
8.240889
 30
0.0
 10
40.225486
 20
8.161514
 30
0.0
 10
40.472431
 20
7.985125
 30
0.0
 10
40.613542
 20
7.711722
 30
0.0
 10
40.675278
 20
7.411861
 30
0.0
 10
40.701736
 20
7.103181
 30
0.0
 10
40.701736
 20
6.847417
 30
0.0
 10
40.710556
 20
6.591653
 30
0.0
 10
40.719375
 20
6.335889
 30
0.0
 10
40.737014
 20
6.027208
 30
0.0
 10
40.789931
 20
5.718528
 30
0.0
 10
40.895764
 20
5.427486
 30
0.0
 10
41.222083
 20
5.427486
 30
0.0
 10
41.548403
 20
5.427486
 30
0.0
 10
41.874722
 20
5.427486
 30
0.0
 10
42.201042
 20
5.427486
 30
0.0
 10
42.527361
 20
5.427486
 30
0.0
 10
42.527361
 20
5.647972
 30
0.0
 10
42.315694
 20
5.868458
 30
0.0
 10
42.253958
 20
6.159500
 30
0.0
 10
42.245139
 20
6.468181
 30
0.0
 10
42.236319
 20
6.750403
 30
0.0
 10
42.218681
 20
7.041444
 30
0.0
 10
42.209861
 20
7.323667
 30
0.0
 10
42.192222
 20
7.649986
 30
0.0
 10
42.139306
 20
7.976306
 30
0.0
 10
42.042292
 20
8.293806
 30
0.0
 10
41.865903
 20
8.567208
 30
0.0
 10
41.610139
 20
8.770056
 30
0.0
 10
41.319097
 20
8.911167
 30
0.0
 10
41.601319
 20
9.034639
 30
0.0
 10
41.857083
 20
9.211028
 30
0.0
 10
42.068750
 20
9.440333
 30
0.0
 10
42.218681
 20
9.713736
 30
0.0
 10
42.324514
 20
9.995958
 30
0.0
 10
40.789931
 20
9.995958
 30
0.0
 10
40.719375
 20
9.837208
 30
0.0
 10
40.454792
 20
9.634361
 30
0.0
 10
40.128472
 20
9.537347
 30
0.0
 10
39.793333
 20
9.510889
 30
0.0
 10
39.440556
 20
9.510889
 30
0.0
 10
39.087778
 20
9.510889
 30
0.0
 10
38.735000
 20
9.510889
 30
0.0
 10
38.391042
 20
9.510889
 30
0.0
 10
38.038264
 20
9.510889
 30
0.0
 10
38.038264
 20
9.837208
 30
0.0
 10
38.038264
 20
9.995958
 30
0.0
 10
36.538958
 20
9.995958
 30
0.0
 10
36.538958
 20
9.995958
 30
0.0
 10
38.038264
 20
9.995958
 30
0.0
 10
38.038264
 20
10.154708
 30
0.0
 10
38.038264
 20
10.472208
 30
0.0
 10
38.038264
 20
10.789708
 30
0.0
 10
38.038264
 20
11.116028
 30
0.0
 10
38.038264
 20
11.433528
 30
0.0
 10
38.338125
 20
11.433528
 30
0.0
 10
38.646806
 20
11.433528
 30
0.0
 10
38.946667
 20
11.433528
 30
0.0
 10
39.255347
 20
11.433528
 30
0.0
 10
39.555208
 20
11.433528
 30
0.0
 10
39.863889
 20
11.433528
 30
0.0
 10
40.181389
 20
11.407069
 30
0.0
 10
40.490069
 20
11.301236
 30
0.0
 10
40.728194
 20
11.089569
 30
0.0
 10
40.860486
 20
10.798528
 30
0.0
 10
40.904583
 20
10.472208
 30
0.0
 10
40.860486
 20
10.137069
 30
0.0
 10
40.789931
 20
9.995958
 30
0.0
 10
42.324514
 20
9.995958
 30
0.0
 10
42.324514
 20
10.004778
 30
0.0
 10
42.377431
 20
10.313458
 30
0.0
 10
42.395069
 20
10.622139
 30
0.0
 10
42.377431
 20
10.948458
 30
0.0
 10
42.333333
 20
11.274778
 30
0.0
 10
42.236319
 20
11.583458
 30
0.0
 10
42.086389
 20
11.874500
 30
0.0
 10
41.883542
 20
12.121444
 30
0.0
 10
41.627778
 20
12.324292
 30
0.0
 10
41.336736
 20
12.474222
 30
0.0
 10
41.028056
 20
12.580056
 30
0.0
 10
40.710556
 20
12.641792
 30
0.0
 10
40.393056
 20
12.677069
 30
0.0
 10
40.066736
 20
12.685889
 30
0.0
 10
39.713958
 20
12.685889
 30
0.0
 10
39.361181
 20
12.685889
 30
0.0
 10
39.008403
 20
12.685889
 30
0.0
 10
38.655625
 20
12.685889
 30
0.0
 10
38.302847
 20
12.685889
 30
0.0
 10
37.950069
 20
12.685889
 30
0.0
 10
37.597292
 20
12.685889
 30
0.0
 10
37.244514
 20
12.685889
 30
0.0
 10
36.891736
 20
12.685889
 30
0.0
 10
36.538958
 20
12.685889
 30
0.0
 10
36.538958
 20
12.341931
 30
0.0
 10
36.538958
 20
11.989153
 30
0.0
 10
36.538958
 20
11.645194
 30
0.0
 10
36.538958
 20
11.301236
 30
0.0
 10
36.538958
 20
10.957278
 30
0.0
 10
36.538958
 20
10.613319
 30
0.0
 10
36.538958
 20
10.269361
 30
0.0
 10
36.538958
 20
9.995958
 30
0.0
 10
36.538958
 20
9.995958
 30
0.0
  0
LWPOLYLINE
  5
10d
100
AcDbEntity
  8
ink_ext_XXXXXX
 62
7
100
AcDbPolyline
 90
112
 70
0
 10
30.497639
 20
9.995958
 30
0.0
 10
30.400625
 20
9.713736
 30
0.0
 10
30.285972
 20
9.387417
 30
0.0
 10
30.162500
 20
9.052278
 30
0.0
 10
30.047847
 20
8.725958
 30
0.0
 10
29.933194
 20
8.399639
 30
0.0
 10
29.809722
 20
8.064500
 30
0.0
 10
29.695069
 20
7.738181
 30
0.0
 10
29.580417
 20
7.403042
 30
0.0
 10
29.465764
 20
7.076722
 30
0.0
 10
29.342292
 20
6.750403
 30
0.0
 10
29.227639
 20
6.415264
 30
0.0
 10
29.112986
 20
6.088944
 30
0.0
 10
28.989514
 20
5.762625
 30
0.0
 10
28.874861
 20
5.427486
 30
0.0
 10
29.192361
 20
5.427486
 30
0.0
 10
29.501042
 20
5.427486
 30
0.0
 10
29.818542
 20
5.427486
 30
0.0
 10
30.136042
 20
5.427486
 30
0.0
 10
30.444722
 20
5.427486
 30
0.0
 10
30.541736
 20
5.727347
 30
0.0
 10
30.638750
 20
6.027208
 30
0.0
 10
30.735764
 20
6.327069
 30
0.0
 10
30.823958
 20
6.626931
 30
0.0
 10
30.920972
 20
6.917972
 30
0.0
 10
31.273750
 20
6.917972
 30
0.0
 10
31.626528
 20
6.917972
 30
0.0
 10
31.979306
 20
6.917972
 30
0.0
 10
32.332083
 20
6.917972
 30
0.0
 10
32.684861
 20
6.917972
 30
0.0
 10
33.037639
 20
6.917972
 30
0.0
 10
33.381597
 20
6.917972
 30
0.0
 10
33.734375
 20
6.917972
 30
0.0
 10
33.840208
 20
6.626931
 30
0.0
 10
33.937222
 20
6.327069
 30
0.0
 10
34.034236
 20
6.027208
 30
0.0
 10
34.131250
 20
5.727347
 30
0.0
 10
34.228264
 20
5.427486
 30
0.0
 10
34.545764
 20
5.427486
 30
0.0
 10
34.854444
 20
5.427486
 30
0.0
 10
35.171944
 20
5.427486
 30
0.0
 10
35.480625
 20
5.427486
 30
0.0
 10
35.798125
 20
5.427486
 30
0.0
 10
35.674653
 20
5.762625
 30
0.0
 10
35.560000
 20
6.088944
 30
0.0
 10
35.436528
 20
6.415264
 30
0.0
 10
35.321875
 20
6.750403
 30
0.0
 10
35.198403
 20
7.076722
 30
0.0
 10
35.083750
 20
7.411861
 30
0.0
 10
34.969097
 20
7.738181
 30
0.0
 10
34.845625
 20
8.064500
 30
0.0
 10
34.730972
 20
8.399639
 30
0.0
 10
34.607500
 20
8.725958
 30
0.0
 10
34.492847
 20
9.052278
 30
0.0
 10
34.369375
 20
9.387417
 30
0.0
 10
34.254722
 20
9.713736
 30
0.0
 10
34.148889
 20
9.995958
 30
0.0
 10
32.728958
 20
9.995958
 30
0.0
 10
32.825972
 20
9.687278
 30
0.0
 10
32.931806
 20
9.378597
 30
0.0
 10
33.028819
 20
9.069917
 30
0.0
 10
33.134653
 20
8.761236
 30
0.0
 10
33.231667
 20
8.452556
 30
0.0
 10
33.337500
 20
8.143875
 30
0.0
 10
33.002361
 20
8.143875
 30
0.0
 10
32.658403
 20
8.143875
 30
0.0
 10
32.323264
 20
8.143875
 30
0.0
 10
31.988125
 20
8.143875
 30
0.0
 10
31.652986
 20
8.143875
 30
0.0
 10
31.317847
 20
8.143875
 30
0.0
 10
31.414861
 20
8.452556
 30
0.0
 10
31.520694
 20
8.761236
 30
0.0
 10
31.617708
 20
9.069917
 30
0.0
 10
31.723542
 20
9.378597
 30
0.0
 10
31.820556
 20
9.687278
 30
0.0
 10
31.926389
 20
9.995958
 30
0.0
 10
30.497639
 20
9.995958
 30
0.0
 10
30.497639
 20
9.995958
 30
0.0
 10
31.926389
 20
9.995958
 30
0.0
 10
32.023403
 20
10.304639
 30
0.0
 10
32.120417
 20
10.613319
 30
0.0
 10
32.226250
 20
10.922000
 30
0.0
 10
32.323264
 20
11.230681
 30
0.0
 10
32.429097
 20
10.922000
 30
0.0
 10
32.526111
 20
10.613319
 30
0.0
 10
32.631944
 20
10.304639
 30
0.0
 10
32.728958
 20
9.995958
 30
0.0
 10
34.148889
 20
9.995958
 30
0.0
 10
34.131250
 20
10.048875
 30
0.0
 10
34.016597
 20
10.375194
 30
0.0
 10
33.893125
 20
10.701514
 30
0.0
 10
33.778472
 20
11.036653
 30
0.0
 10
33.655000
 20
11.362972
 30
0.0
 10
33.540347
 20
11.698111
 30
0.0
 10
33.416875
 20
12.024431
 30
0.0
 10
33.302222
 20
12.350750
 30
0.0
 10
33.178750
 20
12.685889
 30
0.0
 10
32.834792
 20
12.685889
 30
0.0
 10
32.490833
 20
12.685889
 30
0.0
 10
32.146875
 20
12.685889
 30
0.0
 10
31.802917
 20
12.685889
 30
0.0
 10
31.458958
 20
12.685889
 30
0.0
 10
31.344306
 20
12.350750
 30
0.0
 10
31.220833
 20
12.024431
 30
0.0
 10
31.106181
 20
11.698111
 30
0.0
 10
30.991528
 20
11.362972
 30
0.0
 10
30.868056
 20
11.036653
 30
0.0
 10
30.753403
 20
10.701514
 30
0.0
 10
30.638750
 20
10.375194
 30
0.0
 10
30.515278
 20
10.048875
 30
0.0
 10
30.497639
 20
9.995958
 30
0.0
 10
30.497639
 20
9.995958
 30
0.0
  0
LWPOLYLINE
  5
10e
100
AcDbEntity
  8
ink_ext_XXXXXX
 62
7
100
AcDbPolyline
 90
108
 70
0
 10
8.792986
 20
17.854083
 30
0.0
 10
8.457847
 20
17.845264
 30
0.0
 10
8.113889
 20
17.827625
 30
0.0
 10
7.778750
 20
17.809986
 30
0.0
 10
7.434792
 20
17.792347
 30
0.0
 10
7.099653
 20
17.757069
 30
0.0
 10
6.764514
 20
17.721792
 30
0.0
 10
6.420556
 20
17.686514
 30
0.0
 10
6.085417
 20
17.642417
 30
0.0
 10
5.750278
 20
17.589500
 30
0.0
 10
5.415139
 20
17.536583
 30
0.0
 10
5.080000
 20
17.474847
 30
0.0
 10
4.744861
 20
17.404292
 30
0.0
 10
4.418542
 20
17.333736
 30
0.0
 10
4.083403
 20
17.254361
 30
0.0
 10
3.757083
 20
17.174986
 30
0.0
 10
3.430764
 20
17.086792
 30
0.0
 10
3.774722
 20
17.139708
 30
0.0
 10
4.118681
 20
17.183806
 30
0.0
 10
4.462639
 20
17.210264
 30
0.0
 10
4.815417
 20
17.227903
 30
0.0
 10
5.159375
 20
17.227903
 30
0.0
 10
5.512153
 20
17.219083
 30
0.0
 10
5.856111
 20
17.201444
 30
0.0
 10
6.200069
 20
17.174986
 30
0.0
 10
6.552847
 20
17.130889
 30
0.0
 10
6.896806
 20
17.069153
 30
0.0
 10
7.231944
 20
17.007417
 30
0.0
 10
7.575903
 20
16.928042
 30
0.0
 10
7.911042
 20
16.839847
 30
0.0
 10
8.246181
 20
16.734014
 30
0.0
 10
8.572500
 20
16.619361
 30
0.0
 10
8.898819
 20
16.495889
 30
0.0
 10
9.216319
 20
16.363597
 30
0.0
 10
9.533819
 20
16.213667
 30
0.0
 10
9.842500
 20
16.063736
 30
0.0
 10
10.151181
 20
15.896167
 30
0.0
 10
10.451042
 20
15.710958
 30
0.0
 10
10.742083
 20
15.525750
 30
0.0
 10
11.024306
 20
15.331722
 30
0.0
 10
11.306528
 20
15.120056
 30
0.0
 10
11.579931
 20
14.899569
 30
0.0
 10
11.844514
 20
14.679083
 30
0.0
 10
12.100278
 20
14.440958
 30
0.0
 10
12.347222
 20
14.194014
 30
0.0
 10
12.585347
 20
13.938250
 30
0.0
 10
12.814653
 20
13.682486
 30
0.0
 10
13.035139
 20
13.409083
 30
0.0
 10
13.246806
 20
13.135681
 30
0.0
 10
13.449653
 20
12.853458
 30
0.0
 10
13.643681
 20
12.562417
 30
0.0
 10
13.820069
 20
12.262556
 30
0.0
 10
13.978819
 20
11.989153
 30
0.0
 10
14.119931
 20
11.715750
 30
0.0
 10
14.261042
 20
11.433528
 30
0.0
 10
14.384514
 20
11.151306
 30
0.0
 10
14.507986
 20
10.860264
 30
0.0
 10
14.613819
 20
10.569222
 30
0.0
 10
14.719653
 20
10.278181
 30
0.0
 10
15.010694
 20
10.454569
 30
0.0
 10
15.301736
 20
10.639778
 30
0.0
 10
15.575139
 20
10.842625
 30
0.0
 10
15.839722
 20
11.063111
 30
0.0
 10
16.095486
 20
11.292417
 30
0.0
 10
16.342431
 20
11.530542
 30
0.0
 10
16.571736
 20
11.786306
 30
0.0
 10
16.792222
 20
12.050889
 30
0.0
 10
16.995069
 20
12.324292
 30
0.0
 10
17.189097
 20
12.606514
 30
0.0
 10
17.365486
 20
12.906375
 30
0.0
 10
17.524236
 20
13.206236
 30
0.0
 10
17.674167
 20
13.514917
 30
0.0
 10
17.806458
 20
13.832417
 30
0.0
 10
17.929931
 20
14.149917
 30
0.0
 10
18.026944
 20
14.485056
 30
0.0
 10
18.115139
 20
14.811375
 30
0.0
 10
18.185694
 20
15.146514
 30
0.0
 10
18.238611
 20
15.490472
 30
0.0
 10
18.273889
 20
15.825611
 30
0.0
 10
17.956389
 20
15.975542
 30
0.0
 10
17.630069
 20
16.116653
 30
0.0
 10
17.312569
 20
16.248944
 30
0.0
 10
16.986250
 20
16.381236
 30
0.0
 10
16.659931
 20
16.504708
 30
0.0
 10
16.333611
 20
16.619361
 30
0.0
 10
15.998472
 20
16.734014
 30
0.0
 10
15.672153
 20
16.848667
 30
0.0
 10
15.337014
 20
16.945681
 30
0.0
 10
15.001875
 20
17.042694
 30
0.0
 10
14.657917
 20
17.139708
 30
0.0
 10
14.322778
 20
17.227903
 30
0.0
 10
13.987639
 20
17.307278
 30
0.0
 10
13.643681
 20
17.377833
 30
0.0
 10
13.299722
 20
17.448389
 30
0.0
 10
12.955764
 20
17.518944
 30
0.0
 10
12.611806
 20
17.571861
 30
0.0
 10
12.267847
 20
17.624778
 30
0.0
 10
11.923889
 20
17.677694
 30
0.0
 10
11.571111
 20
17.721792
 30
0.0
 10
11.227153
 20
17.757069
 30
0.0
 10
10.874375
 20
17.783528
 30
0.0
 10
10.530417
 20
17.809986
 30
0.0
 10
10.177639
 20
17.827625
 30
0.0
 10
9.833681
 20
17.845264
 30
0.0
 10
9.480903
 20
17.854083
 30
0.0
 10
9.136944
 20
17.854083
 30
0.0
 10
8.792986
 20
17.854083
 30
0.0
 10
8.792986
 20
17.854083
 30
0.0
  0
LWPOLYLINE
  5
10f
100
AcDbEntity
  8
ink_ext_XXXXXX
 62
7
100
AcDbPolyline
 90
130
 70
0
 10
22.516042
 20
13.329708
 30
0.0
 10
22.516042
 20
12.985750
 30
0.0
 10
22.516042
 20
12.641792
 30
0.0
 10
22.516042
 20
12.297833
 30
0.0
 10
22.516042
 20
11.953875
 30
0.0
 10
22.516042
 20
11.609917
 30
0.0
 10
22.516042
 20
11.265958
 30
0.0
 10
22.516042
 20
10.922000
 30
0.0
 10
22.516042
 20
10.578042
 30
0.0
 10
22.516042
 20
10.234083
 30
0.0
 10
22.516042
 20
9.890125
 30
0.0
 10
22.516042
 20
9.546167
 30
0.0
 10
22.516042
 20
9.202208
 30
0.0
 10
22.516042
 20
8.858250
 30
0.0
 10
22.516042
 20
8.523111
 30
0.0
 10
22.516042
 20
8.179153
 30
0.0
 10
22.516042
 20
7.835194
 30
0.0
 10
22.516042
 20
7.491236
 30
0.0
 10
22.516042
 20
7.147278
 30
0.0
 10
22.516042
 20
6.803319
 30
0.0
 10
22.516042
 20
6.459361
 30
0.0
 10
22.516042
 20
6.115403
 30
0.0
 10
22.516042
 20
5.771444
 30
0.0
 10
22.516042
 20
5.427486
 30
0.0
 10
22.868819
 20
5.427486
 30
0.0
 10
23.212778
 20
5.427486
 30
0.0
 10
23.565556
 20
5.427486
 30
0.0
 10
23.909514
 20
5.427486
 30
0.0
 10
24.262292
 20
5.427486
 30
0.0
 10
24.606250
 20
5.427486
 30
0.0
 10
24.959028
 20
5.427486
 30
0.0
 10
25.302986
 20
5.427486
 30
0.0
 10
25.655764
 20
5.427486
 30
0.0
 10
26.008542
 20
5.427486
 30
0.0
 10
26.352500
 20
5.427486
 30
0.0
 10
26.705278
 20
5.427486
 30
0.0
 10
27.049236
 20
5.427486
 30
0.0
 10
27.402014
 20
5.427486
 30
0.0
 10
27.745972
 20
5.427486
 30
0.0
 10
28.098750
 20
5.427486
 30
0.0
 10
28.442708
 20
5.427486
 30
0.0
 10
28.442708
 20
5.718528
 30
0.0
 10
28.442708
 20
6.009569
 30
0.0
 10
28.442708
 20
6.309431
 30
0.0
 10
28.442708
 20
6.600472
 30
0.0
 10
28.442708
 20
6.891514
 30
0.0
 10
28.116389
 20
6.891514
 30
0.0
 10
27.781250
 20
6.891514
 30
0.0
 10
27.446111
 20
6.891514
 30
0.0
 10
27.110972
 20
6.891514
 30
0.0
 10
26.784653
 20
6.891514
 30
0.0
 10
26.449514
 20
6.891514
 30
0.0
 10
26.114375
 20
6.891514
 30
0.0
 10
25.779236
 20
6.891514
 30
0.0
 10
25.452917
 20
6.891514
 30
0.0
 10
25.117778
 20
6.891514
 30
0.0
 10
24.782639
 20
6.891514
 30
0.0
 10
24.456319
 20
6.891514
 30
0.0
 10
24.121181
 20
6.891514
 30
0.0
 10
24.121181
 20
7.226653
 30
0.0
 10
24.121181
 20
7.570611
 30
0.0
 10
24.121181
 20
7.905750
 30
0.0
 10
24.121181
 20
8.240889
 30
0.0
 10
24.121181
 20
8.584847
 30
0.0
 10
24.121181
 20
8.919986
 30
0.0
 10
24.465139
 20
8.919986
 30
0.0
 10
24.809097
 20
8.919986
 30
0.0
 10
25.153056
 20
8.919986
 30
0.0
 10
25.497014
 20
8.919986
 30
0.0
 10
25.840972
 20
8.919986
 30
0.0
 10
26.176111
 20
8.919986
 30
0.0
 10
26.520069
 20
8.919986
 30
0.0
 10
26.864028
 20
8.919986
 30
0.0
 10
27.207986
 20
8.919986
 30
0.0
 10
27.551944
 20
8.919986
 30
0.0
 10
27.895903
 20
8.919986
 30
0.0
 10
27.895903
 20
9.255125
 30
0.0
 10
27.895903
 20
9.599083
 30
0.0
 10
27.895903
 20
9.934222
 30
0.0
 10
27.895903
 20
10.269361
 30
0.0
 10
27.551944
 20
10.269361
 30
0.0
 10
27.207986
 20
10.269361
 30
0.0
 10
26.864028
 20
10.269361
 30
0.0
 10
26.520069
 20
10.269361
 30
0.0
 10
26.176111
 20
10.269361
 30
0.0
 10
25.840972
 20
10.269361
 30
0.0
 10
25.497014
 20
10.269361
 30
0.0
 10
25.153056
 20
10.269361
 30
0.0
 10
24.809097
 20
10.269361
 30
0.0
 10
24.465139
 20
10.269361
 30
0.0
 10
24.121181
 20
10.269361
 30
0.0
 10
24.121181
 20
10.604500
 30
0.0
 10
24.121181
 20
10.948458
 30
0.0
 10
24.121181
 20
11.283597
 30
0.0
 10
24.121181
 20
11.618736
 30
0.0
 10
24.121181
 20
11.953875
 30
0.0
 10
24.465139
 20
11.953875
 30
0.0
 10
24.809097
 20
11.953875
 30
0.0
 10
25.153056
 20
11.953875
 30
0.0
 10
25.497014
 20
11.953875
 30
0.0
 10
25.840972
 20
11.953875
 30
0.0
 10
26.184931
 20
11.953875
 30
0.0
 10
26.528889
 20
11.953875
 30
0.0
 10
26.872847
 20
11.953875
 30
0.0
 10
27.216806
 20
11.953875
 30
0.0
 10
27.560764
 20
11.953875
 30
0.0
 10
27.904722
 20
11.953875
 30
0.0
 10
28.248681
 20
11.953875
 30
0.0
 10
28.248681
 20
12.297833
 30
0.0
 10
28.248681
 20
12.641792
 30
0.0
 10
28.248681
 20
12.985750
 30
0.0
 10
28.248681
 20
13.329708
 30
0.0
 10
27.913542
 20
13.329708
 30
0.0
 10
27.569583
 20
13.329708
 30
0.0
 10
27.234444
 20
13.329708
 30
0.0
 10
26.899306
 20
13.329708
 30
0.0
 10
26.564167
 20
13.329708
 30
0.0
 10
26.229028
 20
13.329708
 30
0.0
 10
25.885069
 20
13.329708
 30
0.0
 10
25.549931
 20
13.329708
 30
0.0
 10
25.214792
 20
13.329708
 30
0.0
 10
24.879653
 20
13.329708
 30
0.0
 10
24.535694
 20
13.329708
 30
0.0
 10
24.200556
 20
13.329708
 30
0.0
 10
23.865417
 20
13.329708
 30
0.0
 10
23.530278
 20
13.329708
 30
0.0
 10
23.186319
 20
13.329708
 30
0.0
 10
22.851181
 20
13.329708
 30
0.0
 10
22.516042
 20
13.329708
 30
0.0
 10
22.516042
 20
13.329708
 30
0.0
  0
LWPOLYLINE
  5
110
100
AcDbEntity
  8
ink_ext_XXXXXX
 62
7
100
AcDbPolyline
 90
108
 70
0
 10
17.656528
 20
12.227278
 30
0.0
 10
17.533056
 20
11.900958
 30
0.0
 10
17.391944
 20
11.583458
 30
0.0
 10
17.242014
 20
11.265958
 30
0.0
 10
17.083264
 20
10.957278
 30
0.0
 10
16.915694
 20
10.657417
 30
0.0
 10
16.730486
 20
10.357556
 30
0.0
 10
16.545278
 20
10.066514
 30
0.0
 10
16.342431
 20
9.784292
 30
0.0
 10
16.130764
 20
9.502069
 30
0.0
 10
15.910278
 20
9.228667
 30
0.0
 10
15.680972
 20
8.972903
 30
0.0
 10
15.442847
 20
8.717139
 30
0.0
 10
15.195903
 20
8.470194
 30
0.0
 10
14.948958
 20
8.232069
 30
0.0
 10
14.684375
 20
8.002764
 30
0.0
 10
14.410972
 20
7.782278
 30
0.0
 10
14.137569
 20
7.570611
 30
0.0
 10
13.855347
 20
7.376583
 30
0.0
 10
13.555486
 20
7.182556
 30
0.0
 10
13.264444
 20
6.997347
 30
0.0
 10
12.955764
 20
6.829778
 30
0.0
 10
12.647083
 20
6.671028
 30
0.0
 10
12.338403
 20
6.521097
 30
0.0
 10
12.012083
 20
6.388806
 30
0.0
 10
11.685764
 20
6.256514
 30
0.0
 10
11.359444
 20
6.141861
 30
0.0
 10
11.033125
 20
6.044847
 30
0.0
 10
10.689167
 20
5.947833
 30
0.0
 10
10.354028
 20
5.868458
 30
0.0
 10
10.010069
 20
5.797903
 30
0.0
 10
9.666111
 20
5.744986
 30
0.0
 10
9.322153
 20
5.700889
 30
0.0
 10
8.978194
 20
5.665611
 30
0.0
 10
8.634236
 20
5.647972
 30
0.0
 10
8.281458
 20
5.639153
 30
0.0
 10
7.972778
 20
5.639153
 30
0.0
 10
7.655278
 20
5.647972
 30
0.0
 10
7.346597
 20
5.674431
 30
0.0
 10
7.037917
 20
5.700889
 30
0.0
 10
6.729236
 20
5.744986
 30
0.0
 10
6.420556
 20
5.797903
 30
0.0
 10
6.111875
 20
5.850819
 30
0.0
 10
6.120694
 20
5.506861
 30
0.0
 10
6.138333
 20
5.171722
 30
0.0
 10
6.182431
 20
4.827764
 30
0.0
 10
6.235347
 20
4.483806
 30
0.0
 10
6.305903
 20
4.148667
 30
0.0
 10
6.394097
 20
3.822347
 30
0.0
 10
6.499931
 20
3.496028
 30
0.0
 10
6.614583
 20
3.169708
 30
0.0
 10
6.755694
 20
2.861028
 30
0.0
 10
6.905625
 20
2.552347
 30
0.0
 10
7.064375
 20
2.243667
 30
0.0
 10
7.249583
 20
1.952625
 30
0.0
 10
7.443611
 20
1.670403
 30
0.0
 10
7.646458
 20
1.397000
 30
0.0
 10
7.866944
 20
1.132417
 30
0.0
 10
8.105069
 20
0.885472
 30
0.0
 10
8.343194
 20
0.647347
 30
0.0
 10
8.607778
 20
0.418042
 30
0.0
 10
8.872361
 20
0.197556
 30
0.0
 10
9.145764
 20
0.003528
 30
0.0
 10
9.436806
 20
0.206375
 30
0.0
 10
9.710208
 20
0.409222
 30
0.0
 10
9.992431
 20
0.620889
 30
0.0
 10
10.265833
 20
0.841375
 30
0.0
 10
10.539236
 20
1.061861
 30
0.0
 10
10.803819
 20
1.282347
 30
0.0
 10
11.068403
 20
1.511653
 30
0.0
 10
11.332986
 20
1.749778
 30
0.0
 10
11.588750
 20
1.987903
 30
0.0
 10
11.835694
 20
2.226028
 30
0.0
 10
12.082639
 20
2.472972
 30
0.0
 10
12.329583
 20
2.719917
 30
0.0
 10
12.567708
 20
2.975681
 30
0.0
 10
12.805833
 20
3.231444
 30
0.0
 10
13.035139
 20
3.496028
 30
0.0
 10
13.264444
 20
3.760611
 30
0.0
 10
13.484931
 20
4.025194
 30
0.0
 10
13.705417
 20
4.298597
 30
0.0
 10
13.917083
 20
4.580819
 30
0.0
 10
14.128750
 20
4.854222
 30
0.0
 10
14.340417
 20
5.136444
 30
0.0
 10
14.534444
 20
5.427486
 30
0.0
 10
14.737292
 20
5.718528
 30
0.0
 10
14.922500
 20
6.009569
 30
0.0
 10
15.107708
 20
6.300611
 30
0.0
 10
15.292917
 20
6.600472
 30
0.0
 10
15.469306
 20
6.900333
 30
0.0
 10
15.636875
 20
7.200194
 30
0.0
 10
15.804444
 20
7.491236
 30
0.0
 10
15.954375
 20
7.791097
 30
0.0
 10
16.113125
 20
8.099778
 30
0.0
 10
16.263056
 20
8.399639
 30
0.0
 10
16.404167
 20
8.708319
 30
0.0
 10
16.545278
 20
9.017000
 30
0.0
 10
16.677569
 20
9.334500
 30
0.0
 10
16.809861
 20
9.643181
 30
0.0
 10
16.933333
 20
9.960681
 30
0.0
 10
17.047986
 20
10.278181
 30
0.0
 10
17.162639
 20
10.604500
 30
0.0
 10
17.268472
 20
10.922000
 30
0.0
 10
17.374306
 20
11.248319
 30
0.0
 10
17.471319
 20
11.574639
 30
0.0
 10
17.568333
 20
11.900958
 30
0.0
 10
17.656528
 20
12.227278
 30
0.0
 10
17.656528
 20
12.227278
 30
0.0
  0
ENDSEC
  0
SECTION
  2
OBJECTS
  0
DICTIONARY
  5
C
330
0
100
AcDbDictionary
  3
ACAD_GROUP
350
D
  3
ACAD_MLINESTYLE
350
17
  0
DICTIONARY
  5
D
330
C
100
AcDbDictionary
  0
DICTIONARY
  5
1A
330
C
100
AcDbDictionary
  0
DICTIONARY
  5
17
330
C
100
AcDbDictionary
  3
STANDARD
350
18
  0
DICTIONARY
  5
19
330
C
100
AcDbDictionary
  0
ENDSEC
  0
EOF
