  0
SECTION
  2
HEADER
  9
$ACADVER
  1
AC1014
  9
$HANDSEED
  5
FFFF
  9
$MEASUREMENT
 70
     1
  0
ENDSEC
  0
SECTION
  2
TABLES
  0
TABLE
  2
VPORT
  5
8
330
0
100
AcDbSymbolTable
 70
     4
  0
VPORT
  5
2E
330
8
100
AcDbSymbolTableRecord
100
AcDbViewportTableRecord
  2
*ACTIVE
 70
     0
 10
0.0
 20
0.0
 11
1.0
 21
1.0
 12
210.0
 22
148.5
 13
0.0
 23
0.0
 14
10.0
 24
10.0
 15
10.0
 25
10.0
 16
0.0
 26
0.0
 36
1.0
 17
0.0
 27
0.0
 37
0.0
 40
341.0
 41
1.24
 42
50.0
 43
0.0
 44
0.0
 50
0.0
 51
0.0
 71
     0
 72
   100
 73
     1
 74
     3
 75
     0
 76
     0
 77
     0
 78
     0
  0
ENDTAB
  0
TABLE
  2
LTYPE
  5
5
330
0
100
AcDbSymbolTable
 70
     1
  0
LTYPE
  5
14
330
5
100
AcDbSymbolTableRecord
100
AcDbLinetypeTableRecord
  2
BYBLOCK
 70
     0
  3

 72
    65
 73
     0
 40
0.0
  0
LTYPE
  5
15
330
5
100
AcDbSymbolTableRecord
100
AcDbLinetypeTableRecord
  2
BYLAYER
 70
     0
  3

 72
    65
 73
     0
 40
0.0
  0
LTYPE
  5
16
330
5
100
AcDbSymbolTableRecord
100
AcDbLinetypeTableRecord
  2
CONTINUOUS
 70
     0
  3
Solid line
 72
    65
 73
     0
 40
0.0
  0
ENDTAB
  0
TABLE
  2
LAYER
  5
2
100
AcDbSymbolTable
 70
2
  0
LAYER
  5
50
100
AcDbSymbolTableRecord
100
AcDbLayerTableRecord
  2
0
 70
0
  6
CONTINUOUS
  0
LAYER
  5
51
100
AcDbSymbolTableRecord
100
AcDbLayerTableRecord
  2
ink_ext_XXXXXX
 70
0
  6
CONTINUOUS
  0
ENDTAB
  0
TABLE
  2
STYLE
  5
3
330
0
100
AcDbSymbolTable
 70
     1
  0
STYLE
  5
11
330
3
100
AcDbSymbolTableRecord
100
AcDbTextStyleTableRecord
  2
STANDARD
 70
     0
 40
0.0
 41
1.0
 50
0.0
 71
     0
 42
2.5
  3
txt
  4

  0
ENDTAB
  0
TABLE
  2
VIEW
  5
6
330
0
100
AcDbSymbolTable
 70
     0
  0
ENDTAB
  0
TABLE
  2
UCS
  5
7
330
0
100
AcDbSymbolTable
 70
     0
  0
ENDTAB
  0
TABLE
  2
APPID
  5
9
330
0
100
AcDbSymbolTable
 70
     2
  0
APPID
  5
12
330
9
100
AcDbSymbolTableRecord
100
AcDbRegAppTableRecord
  2
ACAD
 70
     0
  0
ENDTAB
  0
TABLE
  2
DIMSTYLE
  5
A
330
0
100
AcDbSymbolTable
 70
     1
  0
DIMSTYLE
105
27
330
A
100
AcDbSymbolTableRecord
100
AcDbDimStyleTableRecord
  2
ISO-25
 70
     0
  3

  4

  5

  6

  7

 40
1.0
 41
2.5
 42
0.625
 43
3.75
 44
1.25
 45
0.0
 46
0.0
 47
0.0
 48
0.0
140
2.5
141
2.5
142
0.0
143
0.03937007874016
144
1.0
145
0.0
146
1.0
147
0.625
 71
     0
 72
     0
 73
     0
 74
     0
 75
     0
 76
     0
 77
     1
 78
     8
170
     0
171
     3
172
     1
173
     0
174
     0
175
     0
176
     0
177
     0
178
     0
270
     2
271
     2
272
     2
273
     2
274
     3
340
11
275
     0
280
     0
281
     0
282
     0
283
     0
284
     8
285
     0
286
     0
287
     3
288
     0
  0
ENDTAB
  0
TABLE
  2
BLOCK_RECORD
  5
1
330
0
100
AcDbSymbolTable
 70
     1
  0
BLOCK_RECORD
  5
1F
330
1
100
AcDbSymbolTableRecord
100
AcDbBlockTableRecord
  2
*MODEL_SPACE
  0
BLOCK_RECORD
  5
1B
330
1
100
AcDbSymbolTableRecord
100
AcDbBlockTableRecord
  2
*PAPER_SPACE
  0
ENDTAB
  0
ENDSEC
  0
SECTION
  2
BLOCKS
  0
BLOCK
  5
20
330
1F
100
AcDbEntity
  8
0
100
AcDbBlockBegin
  2
*MODEL_SPACE
 70
     0
 10
0.0
 20
0.0
 30
0.0
  3
*MODEL_SPACE
  1

  0
ENDBLK
  5
21
330
1F
100
AcDbEntity
  8
0
100
AcDbBlockEnd
  0
BLOCK
  5
1C
330
1B
100
AcDbEntity
 67
     1
  8
0
100
AcDbBlockBegin
  2
*PAPER_SPACE
  1

  0
ENDBLK
  5
1D
330
1B
100
AcDbEntity
 67
     1
  8
0
100
AcDbBlockEnd
  0
ENDSEC
  0
SECTION
  2
ENTITIES
  0
LWPOLYLINE
  5
100
100
AcDbEntity
  8
ink_ext_XXXXXX
 62
7
100
AcDbPolyline
 90
41
 70
0
 10
17.418403
 20
6.773333
 30
0.0
 10
17.074444
 20
6.738056
 30
0.0
 10
16.739306
 20
6.676319
 30
0.0
 10
16.421806
 20
6.570486
 30
0.0
 10
16.121944
 20
6.402917
 30
0.0
 10
15.901458
 20
6.235347
 30
0.0
 10
15.777986
 20
6.014861
 30
0.0
 10
16.016111
 20
5.891389
 30
0.0
 10
16.280694
 20
5.803194
 30
0.0
 10
16.580556
 20
5.670903
 30
0.0
 10
16.871597
 20
5.494514
 30
0.0
 10
17.145000
 20
5.300486
 30
0.0
 10
17.400764
 20
5.088819
 30
0.0
 10
17.656528
 20
4.868333
 30
0.0
 10
17.894653
 20
4.639028
 30
0.0
 10
18.150417
 20
4.400903
 30
0.0
 10
18.415000
 20
4.180417
 30
0.0
 10
18.706042
 20
3.986389
 30
0.0
 10
19.014722
 20
3.836458
 30
0.0
 10
19.349861
 20
3.730625
 30
0.0
 10
19.693819
 20
3.704167
 30
0.0
 10
20.037778
 20
3.765903
 30
0.0
 10
20.346458
 20
3.915833
 30
0.0
 10
20.619861
 20
4.136319
 30
0.0
 10
20.822708
 20
4.347986
 30
0.0
 10
20.999097
 20
4.586111
 30
0.0
 10
21.007917
 20
4.885972
 30
0.0
 10
20.893264
 20
5.159375
 30
0.0
 10
20.752153
 20
5.423958
 30
0.0
 10
20.558125
 20
5.697361
 30
0.0
 10
20.311181
 20
5.935486
 30
0.0
 10
20.028958
 20
6.120694
 30
0.0
 10
19.729097
 20
6.288264
 30
0.0
 10
19.411597
 20
6.420556
 30
0.0
 10
19.094097
 20
6.535208
 30
0.0
 10
18.767778
 20
6.623403
 30
0.0
 10
18.432639
 20
6.693958
 30
0.0
 10
18.097500
 20
6.738056
 30
0.0
 10
17.753542
 20
6.764514
 30
0.0
 10
17.418403
 20
6.773333
 30
0.0
 10
17.418403
 20
6.773333
 30
0.0
  0
LWPOLYLINE
  5
101
100
AcDbEntity
  8
ink_ext_XXXXXX
 62
7
100
AcDbPolyline
 90
18
 70
0
 10
6.932083
 20
12.797014
 30
0.0
 10
6.596944
 20
12.744097
 30
0.0
 10
6.411736
 20
12.488333
 30
0.0
 10
6.561667
 20
12.197292
 30
0.0
 10
6.817431
 20
11.967986
 30
0.0
 10
7.099653
 20
11.782778
 30
0.0
 10
7.408333
 20
11.650486
 30
0.0
 10
7.734653
 20
11.615208
 30
0.0
 10
8.060972
 20
11.703403
 30
0.0
 10
8.352014
 20
11.862153
 30
0.0
 10
8.607778
 20
12.065000
 30
0.0
 10
8.493125
 20
12.311944
 30
0.0
 10
8.202083
 20
12.444236
 30
0.0
 10
7.893403
 20
12.558889
 30
0.0
 10
7.593542
 20
12.664722
 30
0.0
 10
7.267222
 20
12.752917
 30
0.0
 10
6.932083
 20
12.797014
 30
0.0
 10
6.932083
 20
12.797014
 30
0.0
  0
LWPOLYLINE
  5
102
100
AcDbEntity
  8
ink_ext_XXXXXX
 62
7
100
AcDbPolyline
 90
56
 70
0
 10
4.974167
 20
19.147014
 30
0.0
 10
4.639028
 20
19.138194
 30
0.0
 10
4.312708
 20
19.094097
 30
0.0
 10
3.986389
 20
19.014722
 30
0.0
 10
3.668889
 20
18.891250
 30
0.0
 10
3.369028
 20
18.732500
 30
0.0
 10
3.095625
 20
18.529653
 30
0.0
 10
2.848681
 20
18.300347
 30
0.0
 10
2.619375
 20
18.044583
 30
0.0
 10
2.407708
 20
17.780000
 30
0.0
 10
2.213681
 20
17.506597
 30
0.0
 10
2.028472
 20
17.224375
 30
0.0
 10
1.843264
 20
16.933333
 30
0.0
 10
1.666875
 20
16.642292
 30
0.0
 10
1.499306
 20
16.351250
 30
0.0
 10
1.331736
 20
16.077847
 30
0.0
 10
1.164167
 20
15.813264
 30
0.0
 10
0.978958
 20
15.548681
 30
0.0
 10
0.776111
 20
15.301736
 30
0.0
 10
0.564444
 20
15.063611
 30
0.0
 10
0.308681
 20
14.869583
 30
0.0
 10
0.061736
 20
14.702014
 30
0.0
 10
0.035278
 20
14.410972
 30
0.0
 10
0.308681
 20
14.208125
 30
0.0
 10
0.643819
 20
14.119931
 30
0.0
 10
0.987778
 20
14.093472
 30
0.0
 10
1.340556
 20
14.102292
 30
0.0
 10
1.684514
 20
14.128750
 30
0.0
 10
2.028472
 20
14.172847
 30
0.0
 10
2.372431
 20
14.234583
 30
0.0
 10
2.716389
 20
14.305139
 30
0.0
 10
3.051528
 20
14.393333
 30
0.0
 10
3.386667
 20
14.490347
 30
0.0
 10
3.721806
 20
14.587361
 30
0.0
 10
4.048125
 20
14.710833
 30
0.0
 10
4.365625
 20
14.834306
 30
0.0
 10
4.691944
 20
14.975417
 30
0.0
 10
5.000625
 20
15.134167
 30
0.0
 10
5.300486
 20
15.301736
 30
0.0
 10
5.591528
 20
15.495764
 30
0.0
 10
5.856111
 20
15.716250
 30
0.0
 10
6.085417
 20
15.963194
 30
0.0
 10
6.288264
 20
16.227778
 30
0.0
 10
6.455833
 20
16.510000
 30
0.0
 10
6.579306
 20
16.818681
 30
0.0
 10
6.658681
 20
17.136181
 30
0.0
 10
6.685139
 20
17.471319
 30
0.0
 10
6.649861
 20
17.797639
 30
0.0
 10
6.552847
 20
18.115139
 30
0.0
 10
6.394097
 20
18.406181
 30
0.0
 10
6.173611
 20
18.653125
 30
0.0
 10
5.917847
 20
18.855972
 30
0.0
 10
5.617986
 20
19.005903
 30
0.0
 10
5.300486
 20
19.102917
 30
0.0
 10
4.974167
 20
19.147014
 30
0.0
 10
4.974167
 20
19.147014
 30
0.0
  0
LWPOLYLINE
  5
103
100
AcDbEntity
  8
ink_ext_XXXXXX
 62
7
100
AcDbPolyline
 90
16
 70
0
 10
7.990417
 20
19.349861
 30
0.0
 10
7.717014
 20
19.235208
 30
0.0
 10
7.540625
 20
18.979444
 30
0.0
 10
7.417153
 20
18.653125
 30
0.0
 10
7.364236
 20
18.309167
 30
0.0
 10
7.399514
 20
17.965208
 30
0.0
 10
7.540625
 20
17.691806
 30
0.0
 10
7.778750
 20
17.533056
 30
0.0
 10
8.025694
 20
17.691806
 30
0.0
 10
8.157986
 20
17.956389
 30
0.0
 10
8.246181
 20
18.247431
 30
0.0
 10
8.299097
 20
18.547292
 30
0.0
 10
8.299097
 20
18.855972
 30
0.0
 10
8.219722
 20
19.155833
 30
0.0
 10
7.990417
 20
19.349861
 30
0.0
 10
7.990417
 20
19.349861
 30
0.0
  0
LWPOLYLINE
  5
104
100
AcDbEntity
  8
ink_ext_XXXXXX
 62
7
100
AcDbPolyline
 90
43
 70
0
 10
62.521042
 20
50.253194
 30
0.0
 10
62.194722
 20
50.244375
 30
0.0
 10
61.868403
 20
50.209097
 30
0.0
 10
61.542083
 20
50.156181
 30
0.0
 10
61.224583
 20
50.094444
 30
0.0
 10
60.907083
 20
50.015069
 30
0.0
 10
60.589583
 20
49.926875
 30
0.0
 10
60.280903
 20
49.812222
 30
0.0
 10
59.981042
 20
49.679931
 30
0.0
 10
59.681181
 20
49.503542
 30
0.0
 10
59.398958
 20
49.309514
 30
0.0
 10
59.134375
 20
49.089028
 30
0.0
 10
58.878611
 20
48.850903
 30
0.0
 10
58.640486
 20
48.595139
 30
0.0
 10
58.420000
 20
48.330556
 30
0.0
 10
58.217153
 20
48.057153
 30
0.0
 10
58.031944
 20
47.757292
 30
0.0
 10
57.908472
 20
47.439792
 30
0.0
 10
57.926111
 20
47.104653
 30
0.0
 10
58.208333
 20
46.945903
 30
0.0
 10
58.534653
 20
46.884167
 30
0.0
 10
58.869792
 20
46.866528
 30
0.0
 10
59.213750
 20
46.910625
 30
0.0
 10
59.531250
 20
47.025278
 30
0.0
 10
59.831111
 20
47.201667
 30
0.0
 10
60.113333
 20
47.404514
 30
0.0
 10
60.369097
 20
47.633819
 30
0.0
 10
60.624861
 20
47.871944
 30
0.0
 10
60.862986
 20
48.118889
 30
0.0
 10
61.101111
 20
48.357014
 30
0.0
 10
61.348056
 20
48.586319
 30
0.0
 10
61.595000
 20
48.806806
 30
0.0
 10
61.859583
 20
49.018472
 30
0.0
 10
62.132986
 20
49.221319
 30
0.0
 10
62.415208
 20
49.397708
 30
0.0
 10
62.723889
 20
49.530000
 30
0.0
 10
62.988472
 20
49.627014
 30
0.0
 10
63.235417
 20
49.759306
 30
0.0
 10
63.394167
 20
49.979792
 30
0.0
 10
63.164861
 20
50.191458
 30
0.0
 10
62.847361
 20
50.244375
 30
0.0
 10
62.521042
 20
50.253194
 30
0.0
 10
62.521042
 20
50.253194
 30
0.0
  0
LWPOLYLINE
  5
105
100
AcDbEntity
  8
ink_ext_XXXXXX
 62
7
100
AcDbPolyline
 90
21
 70
0
 10
17.638889
 20
60.130972
 30
0.0
 10
17.339028
 20
60.104514
 30
0.0
 10
17.145000
 20
59.910486
 30
0.0
 10
17.162639
 20
59.619444
 30
0.0
 10
17.233194
 20
59.328403
 30
0.0
 10
17.321389
 20
59.046181
 30
0.0
 10
17.418403
 20
58.763958
 30
0.0
 10
17.541875
 20
58.455278
 30
0.0
 10
17.691806
 20
58.164236
 30
0.0
 10
17.921111
 20
57.934931
 30
0.0
 10
18.220972
 20
58.014306
 30
0.0
 10
18.415000
 20
58.278889
 30
0.0
 10
18.564931
 20
58.569931
 30
0.0
 10
18.670764
 20
58.869792
 30
0.0
 10
18.697222
 20
59.187292
 30
0.0
 10
18.644306
 20
59.495972
 30
0.0
 10
18.485556
 20
59.778194
 30
0.0
 10
18.247431
 20
59.981042
 30
0.0
 10
17.956389
 20
60.095694
 30
0.0
 10
17.638889
 20
60.130972
 30
0.0
 10
17.638889
 20
60.130972
 30
0.0
  0
LWPOLYLINE
  5
106
100
AcDbEntity
  8
ink_ext_XXXXXX
 62
7
100
AcDbPolyline
 90
456
 70
0
 10
14.640278
 20
9.454444
 30
0.0
 10
17.841736
 20
13.052778
 30
0.0
 10
17.753542
 20
13.088056
 30
0.0
 10
17.674167
 20
13.282083
 30
0.0
 10
17.753542
 20
13.484931
 30
0.0
 10
17.956389
 20
13.564306
 30
0.0
 10
18.150417
 20
13.484931
 30
0.0
 10
18.176875
 20
13.432014
 30
0.0
 10
19.376319
 20
14.781389
 30
0.0
 10
19.085278
 20
14.860764
 30
0.0
 10
18.758958
 20
14.975417
 30
0.0
 10
18.423819
 20
15.090069
 30
0.0
 10
18.097500
 20
15.204722
 30
0.0
 10
17.771181
 20
15.337014
 30
0.0
 10
17.444861
 20
15.469306
 30
0.0
 10
17.127361
 20
15.601597
 30
0.0
 10
16.801042
 20
15.751528
 30
0.0
 10
16.492361
 20
15.901458
 30
0.0
 10
16.174861
 20
16.051389
 30
0.0
 10
15.866181
 20
16.210139
 30
0.0
 10
15.557500
 20
16.377708
 30
0.0
 10
15.248819
 20
16.545278
 30
0.0
 10
14.940139
 20
16.721667
 30
0.0
 10
14.640278
 20
16.898056
 30
0.0
 10
14.349236
 20
17.083264
 30
0.0
 10
14.049375
 20
17.268472
 30
0.0
 10
13.758333
 20
17.471319
 30
0.0
 10
13.476111
 20
17.665347
 30
0.0
 10
13.185069
 20
17.868194
 30
0.0
 10
12.911667
 20
18.079861
 30
0.0
 10
12.629444
 20
18.291528
 30
0.0
 10
12.356042
 20
18.512014
 30
0.0
 10
12.082639
 20
18.732500
 30
0.0
 10
11.818056
 20
18.952986
 30
0.0
 10
11.553472
 20
19.182292
 30
0.0
 10
11.297708
 20
19.420417
 30
0.0
 10
11.041944
 20
19.658542
 30
0.0
 10
10.786181
 20
19.905486
 30
0.0
 10
10.539236
 20
20.152431
 30
0.0
 10
10.292292
 20
20.399375
 30
0.0
 10
10.054167
 20
20.655139
 30
0.0
 10
9.816042
 20
20.910903
 30
0.0
 10
9.586736
 20
21.175486
 30
0.0
 10
9.357431
 20
21.440069
 30
0.0
 10
9.136944
 20
21.713472
 30
0.0
 10
8.916458
 20
21.986875
 30
0.0
 10
8.704792
 20
22.260278
 30
0.0
 10
8.501944
 20
22.542500
 30
0.0
 10
8.290278
 20
22.833542
 30
0.0
 10
8.096250
 20
23.115764
 30
0.0
 10
7.902222
 20
23.406806
 30
0.0
 10
7.708194
 20
23.697847
 30
0.0
 10
7.522986
 20
23.997708
 30
0.0
 10
7.346597
 20
24.297569
 30
0.0
 10
7.170208
 20
24.606250
 30
0.0
 10
7.002639
 20
24.906111
 30
0.0
 10
6.835069
 20
25.214792
 30
0.0
 10
6.676319
 20
25.532292
 30
0.0
 10
6.526389
 20
25.840972
 30
0.0
 10
6.376458
 20
26.149653
 30
0.0
 10
6.235347
 20
26.458333
 30
0.0
 10
6.094236
 20
26.775833
 30
0.0
 10
5.961944
 20
27.084514
 30
0.0
 10
5.829653
 20
27.402014
 30
0.0
 10
5.706181
 20
27.719514
 30
0.0
 10
5.591528
 20
28.037014
 30
0.0
 10
5.476875
 20
28.354514
 30
0.0
 10
5.371042
 20
28.680833
 30
0.0
 10
5.274028
 20
29.007153
 30
0.0
 10
5.177014
 20
29.333472
 30
0.0
 10
5.088819
 20
29.659792
 30
0.0
 10
5.018264
 20
29.994931
 30
0.0
 10
4.947708
 20
30.330069
 30
0.0
 10
4.877153
 20
30.665208
 30
0.0
 10
4.824236
 20
31.000347
 30
0.0
 10
4.780139
 20
31.335486
 30
0.0
 10
4.736042
 20
31.670625
 30
0.0
 10
4.700764
 20
32.014583
 30
0.0
 10
4.665486
 20
32.349722
 30
0.0
 10
4.639028
 20
32.693681
 30
0.0
 10
4.621389
 20
33.028819
 30
0.0
 10
4.603750
 20
33.372778
 30
0.0
 10
4.594931
 20
33.716736
 30
0.0
 10
4.586111
 20
34.051875
 30
0.0
 10
4.577292
 20
34.395833
 30
0.0
 10
4.577292
 20
34.730972
 30
0.0
 10
4.577292
 20
35.083750
 30
0.0
 10
4.586111
 20
35.427708
 30
0.0
 10
4.594931
 20
35.780486
 30
0.0
 10
4.612569
 20
36.124444
 30
0.0
 10
4.630208
 20
36.468403
 30
0.0
 10
4.647847
 20
36.821181
 30
0.0
 10
4.683125
 20
37.165139
 30
0.0
 10
4.718403
 20
37.509097
 30
0.0
 10
4.753681
 20
37.861875
 30
0.0
 10
4.797778
 20
38.205833
 30
0.0
 10
4.850694
 20
38.549792
 30
0.0
 10
4.912431
 20
38.884931
 30
0.0
 10
4.974167
 20
39.228889
 30
0.0
 10
5.044722
 20
39.572847
 30
0.0
 10
5.124097
 20
39.907986
 30
0.0
 10
5.203472
 20
40.251944
 30
0.0
 10
5.291667
 20
40.587083
 30
0.0
 10
5.388681
 20
40.922222
 30
0.0
 10
5.494514
 20
41.248542
 30
0.0
 10
5.609167
 20
41.583681
 30
0.0
 10
5.723819
 20
41.910000
 30
0.0
 10
5.847292
 20
42.236319
 30
0.0
 10
5.979583
 20
42.553819
 30
0.0
 10
6.111875
 20
42.871319
 30
0.0
 10
6.252986
 20
43.188819
 30
0.0
 10
6.402917
 20
43.506319
 30
0.0
 10
6.561667
 20
43.815000
 30
0.0
 10
6.720417
 20
44.132500
 30
0.0
 10
6.879167
 20
44.432361
 30
0.0
 10
7.046736
 20
44.741042
 30
0.0
 10
7.223125
 20
45.040903
 30
0.0
 10
7.399514
 20
45.340764
 30
0.0
 10
7.584722
 20
45.631806
 30
0.0
 10
7.769931
 20
45.931667
 30
0.0
 10
7.963958
 20
46.222708
 30
0.0
 10
8.149167
 20
46.513750
 30
0.0
 10
8.352014
 20
46.795972
 30
0.0
 10
8.546042
 20
47.078194
 30
0.0
 10
8.731250
 20
47.342778
 30
0.0
 10
8.925278
 20
47.598542
 30
0.0
 10
9.110486
 20
47.863125
 30
0.0
 10
9.304514
 20
48.118889
 30
0.0
 10
9.498542
 20
48.365833
 30
0.0
 10
9.701389
 20
48.621597
 30
0.0
 10
9.921875
 20
48.842083
 30
0.0
 10
10.098264
 20
48.595139
 30
0.0
 10
10.018889
 20
48.251181
 30
0.0
 10
9.886597
 20
47.924861
 30
0.0
 10
9.727847
 20
47.607361
 30
0.0
 10
9.560278
 20
47.307500
 30
0.0
 10
9.366250
 20
47.007639
 30
0.0
 10
9.172222
 20
46.716597
 30
0.0
 10
8.969375
 20
46.425556
 30
0.0
 10
8.757708
 20
46.143333
 30
0.0
 10
8.537222
 20
45.869931
 30
0.0
 10
8.325556
 20
45.587708
 30
0.0
 10
8.105069
 20
45.314306
 30
0.0
 10
7.893403
 20
45.032083
 30
0.0
 10
7.672917
 20
44.749861
 30
0.0
 10
7.461250
 20
44.476458
 30
0.0
 10
7.699375
 20
44.273611
 30
0.0
 10
7.928681
 20
44.070764
 30
0.0
 10
8.166806
 20
43.876736
 30
0.0
 10
8.404931
 20
43.673889
 30
0.0
 10
8.660694
 20
43.462222
 30
0.0
 10
8.916458
 20
43.250556
 30
0.0
 10
9.181042
 20
43.038889
 30
0.0
 10
9.445625
 20
42.836042
 30
0.0
 10
9.710208
 20
42.633194
 30
0.0
 10
9.983611
 20
42.430347
 30
0.0
 10
10.248194
 20
42.236319
 30
0.0
 10
10.521597
 20
42.033472
 30
0.0
 10
10.786181
 20
41.839444
 30
0.0
 10
11.059583
 20
41.645417
 30
0.0
 10
11.341806
 20
41.460208
 30
0.0
 10
11.615208
 20
41.275000
 30
0.0
 10
11.897431
 20
41.089792
 30
0.0
 10
12.170833
 20
40.904583
 30
0.0
 10
12.461875
 20
40.728194
 30
0.0
 10
12.744097
 20
40.551806
 30
0.0
 10
13.035139
 20
40.393056
 30
0.0
 10
13.343819
 20
40.260764
 30
0.0
 10
13.652500
 20
40.199028
 30
0.0
 10
13.881806
 20
40.393056
 30
0.0
 10
13.970000
 20
40.701736
 30
0.0
 10
14.014097
 20
41.010417
 30
0.0
 10
14.058194
 20
41.327917
 30
0.0
 10
14.084653
 20
41.636597
 30
0.0
 10
14.111111
 20
41.954097
 30
0.0
 10
14.137569
 20
42.271597
 30
0.0
 10
14.172847
 20
42.606736
 30
0.0
 10
14.208125
 20
42.950694
 30
0.0
 10
14.252222
 20
43.285833
 30
0.0
 10
14.296319
 20
43.620972
 30
0.0
 10
14.349236
 20
43.964931
 30
0.0
 10
14.402153
 20
44.300069
 30
0.0
 10
14.472708
 20
44.635208
 30
0.0
 10
14.534444
 20
44.961528
 30
0.0
 10
14.613819
 20
45.296667
 30
0.0
 10
14.693194
 20
45.631806
 30
0.0
 10
14.772569
 20
45.958125
 30
0.0
 10
14.869583
 20
46.284444
 30
0.0
 10
14.966597
 20
46.610764
 30
0.0
 10
15.063611
 20
46.937083
 30
0.0
 10
15.178264
 20
47.254583
 30
0.0
 10
15.292917
 20
47.580903
 30
0.0
 10
15.416389
 20
47.898403
 30
0.0
 10
15.539861
 20
48.207083
 30
0.0
 10
15.672153
 20
48.524583
 30
0.0
 10
15.813264
 20
48.833264
 30
0.0
 10
15.963194
 20
49.141944
 30
0.0
 10
16.113125
 20
49.441806
 30
0.0
 10
16.280694
 20
49.741667
 30
0.0
 10
16.439444
 20
50.041528
 30
0.0
 10
16.615833
 20
50.332569
 30
0.0
 10
16.801042
 20
50.623611
 30
0.0
 10
16.986250
 20
50.905833
 30
0.0
 10
17.180278
 20
51.188056
 30
0.0
 10
17.365486
 20
51.479097
 30
0.0
 10
17.533056
 20
51.787778
 30
0.0
 10
17.594792
 20
52.114097
 30
0.0
 10
17.321389
 20
52.122917
 30
0.0
 10
17.039167
 20
52.061181
 30
0.0
 10
16.765764
 20
51.990625
 30
0.0
 10
16.501181
 20
51.911250
 30
0.0
 10
16.227778
 20
51.823056
 30
0.0
 10
15.927917
 20
51.717222
 30
0.0
 10
15.628056
 20
51.620208
 30
0.0
 10
15.328194
 20
51.523194
 30
0.0
 10
15.028333
 20
51.452639
 30
0.0
 10
14.719653
 20
51.443819
 30
0.0
 10
14.587361
 20
51.708403
 30
0.0
 10
14.622639
 20
52.017083
 30
0.0
 10
14.728472
 20
52.316944
 30
0.0
 10
14.931319
 20
52.555069
 30
0.0
 10
15.178264
 20
52.757917
 30
0.0
 10
15.434028
 20
52.943125
 30
0.0
 10
15.707431
 20
53.101875
 30
0.0
 10
15.980833
 20
53.260625
 30
0.0
 10
16.263056
 20
53.410556
 30
0.0
 10
16.545278
 20
53.551667
 30
0.0
 10
16.827500
 20
53.692778
 30
0.0
 10
17.145000
 20
53.842708
 30
0.0
 10
17.462500
 20
53.992639
 30
0.0
 10
17.621250
 20
54.054375
 30
0.0
 10
16.968611
 20
55.130347
 30
0.0
 10
16.933333
 20
55.112708
 30
0.0
 10
16.686389
 20
54.998056
 30
0.0
 10
16.386528
 20
54.865764
 30
0.0
 10
16.412986
 20
54.971597
 30
0.0
 10
16.668750
 20
55.174444
 30
0.0
 10
16.853958
 20
55.306736
 30
0.0
 10
15.927917
 20
56.841319
 30
0.0
 10
15.866181
 20
56.832500
 30
0.0
 10
15.531042
 20
56.735486
 30
0.0
 10
15.195903
 20
56.620833
 30
0.0
 10
14.878403
 20
56.479722
 30
0.0
 10
14.578542
 20
56.303333
 30
0.0
 10
14.287500
 20
56.118125
 30
0.0
 10
14.014097
 20
55.906458
 30
0.0
 10
13.749514
 20
55.694792
 30
0.0
 10
13.493750
 20
55.465486
 30
0.0
 10
13.246806
 20
55.227361
 30
0.0
 10
12.999861
 20
54.989236
 30
0.0
 10
12.761736
 20
54.742292
 30
0.0
 10
12.532431
 20
54.486528
 30
0.0
 10
12.311944
 20
54.221944
 30
0.0
 10
12.091458
 20
53.957361
 30
0.0
 10
11.879792
 20
53.692778
 30
0.0
 10
11.676944
 20
53.410556
 30
0.0
 10
11.482917
 20
53.137153
 30
0.0
 10
11.288889
 20
52.846111
 30
0.0
 10
11.112500
 20
52.555069
 30
0.0
 10
10.944931
 20
52.255208
 30
0.0
 10
10.795000
 20
51.946528
 30
0.0
 10
10.636250
 20
51.646667
 30
0.0
 10
10.468681
 20
51.355625
 30
0.0
 10
10.292292
 20
51.064583
 30
0.0
 10
10.115903
 20
50.782361
 30
0.0
 10
9.930694
 20
50.500139
 30
0.0
 10
9.745486
 20
50.217917
 30
0.0
 10
9.551458
 20
49.944514
 30
0.0
 10
9.357431
 20
49.662292
 30
0.0
 10
9.163403
 20
49.388889
 30
0.0
 10
8.960556
 20
49.115486
 30
0.0
 10
8.766528
 20
48.850903
 30
0.0
 10
8.554861
 20
48.586319
 30
0.0
 10
8.352014
 20
48.312917
 30
0.0
 10
8.140347
 20
48.039514
 30
0.0
 10
7.946319
 20
47.757292
 30
0.0
 10
7.752292
 20
47.475069
 30
0.0
 10
7.558264
 20
47.192847
 30
0.0
 10
7.373056
 20
46.910625
 30
0.0
 10
7.187847
 20
46.619583
 30
0.0
 10
7.011458
 20
46.328542
 30
0.0
 10
6.835069
 20
46.028681
 30
0.0
 10
6.658681
 20
45.737639
 30
0.0
 10
6.491111
 20
45.437778
 30
0.0
 10
6.323542
 20
45.137917
 30
0.0
 10
6.164792
 20
44.838056
 30
0.0
 10
6.006042
 20
44.538194
 30
0.0
 10
5.856111
 20
44.229514
 30
0.0
 10
5.706181
 20
43.920833
 30
0.0
 10
5.556250
 20
43.612153
 30
0.0
 10
5.415139
 20
43.303472
 30
0.0
 10
5.274028
 20
42.985972
 30
0.0
 10
5.132917
 20
42.677292
 30
0.0
 10
5.000625
 20
42.359792
 30
0.0
 10
4.877153
 20
42.042292
 30
0.0
 10
4.753681
 20
41.724792
 30
0.0
 10
4.639028
 20
41.398472
 30
0.0
 10
4.524375
 20
41.080972
 30
0.0
 10
4.418542
 20
40.754653
 30
0.0
 10
4.312708
 20
40.428333
 30
0.0
 10
4.224514
 20
40.093194
 30
0.0
 10
4.136319
 20
39.766875
 30
0.0
 10
4.065764
 20
39.431736
 30
0.0
 10
4.004028
 20
39.087778
 30
0.0
 10
3.942292
 20
38.752639
 30
0.0
 10
3.898194
 20
38.408681
 30
0.0
 10
3.854097
 20
38.073542
 30
0.0
 10
3.818819
 20
37.729583
 30
0.0
 10
3.783542
 20
37.385625
 30
0.0
 10
3.757083
 20
37.050486
 30
0.0
 10
3.730625
 20
36.706528
 30
0.0
 10
3.712986
 20
36.362569
 30
0.0
 10
3.695347
 20
36.018611
 30
0.0
 10
3.686528
 20
35.674653
 30
0.0
 10
3.677708
 20
35.330694
 30
0.0
 10
3.677708
 20
34.986736
 30
0.0
 10
3.668889
 20
34.642778
 30
0.0
 10
3.677708
 20
34.298819
 30
0.0
 10
3.677708
 20
33.954861
 30
0.0
 10
3.686528
 20
33.619722
 30
0.0
 10
3.704167
 20
33.275764
 30
0.0
 10
3.721806
 20
32.931806
 30
0.0
 10
3.739444
 20
32.587847
 30
0.0
 10
3.765903
 20
32.243889
 30
0.0
 10
3.792361
 20
31.899931
 30
0.0
 10
3.818819
 20
31.555972
 30
0.0
 10
3.854097
 20
31.220833
 30
0.0
 10
3.898194
 20
30.876875
 30
0.0
 10
3.942292
 20
30.541736
 30
0.0
 10
3.995208
 20
30.197778
 30
0.0
 10
4.056944
 20
29.862639
 30
0.0
 10
4.118681
 20
29.518681
 30
0.0
 10
4.189236
 20
29.183542
 30
0.0
 10
4.277431
 20
28.857222
 30
0.0
 10
4.374444
 20
28.522083
 30
0.0
 10
4.480278
 20
28.195764
 30
0.0
 10
4.586111
 20
27.869444
 30
0.0
 10
4.691944
 20
27.534306
 30
0.0
 10
4.806597
 20
27.207986
 30
0.0
 10
4.930069
 20
26.881667
 30
0.0
 10
5.044722
 20
26.564167
 30
0.0
 10
5.168194
 20
26.237847
 30
0.0
 10
5.300486
 20
25.920347
 30
0.0
 10
5.450417
 20
25.602847
 30
0.0
 10
5.582708
 20
25.338264
 30
0.0
 10
5.723819
 20
25.064861
 30
0.0
 10
5.864931
 20
24.800278
 30
0.0
 10
5.591528
 20
24.862014
 30
0.0
 10
5.318125
 20
24.923750
 30
0.0
 10
5.035903
 20
24.985486
 30
0.0
 10
4.727222
 20
25.029583
 30
0.0
 10
4.409722
 20
25.011944
 30
0.0
 10
4.109861
 20
24.923750
 30
0.0
 10
3.827639
 20
24.782639
 30
0.0
 10
3.563056
 20
24.615069
 30
0.0
 10
3.307292
 20
24.429861
 30
0.0
 10
3.060347
 20
24.235833
 30
0.0
 10
2.804583
 20
24.024167
 30
0.0
 10
2.557639
 20
23.812500
 30
0.0
 10
2.310694
 20
23.600833
 30
0.0
 10
2.081389
 20
23.371528
 30
0.0
 10
1.887361
 20
23.115764
 30
0.0
 10
2.099028
 20
22.921736
 30
0.0
 10
2.372431
 20
22.798264
 30
0.0
 10
2.645833
 20
22.683611
 30
0.0
 10
2.928056
 20
22.586597
 30
0.0
 10
3.227917
 20
22.489583
 30
0.0
 10
3.527778
 20
22.374931
 30
0.0
 10
3.818819
 20
22.251458
 30
0.0
 10
4.109861
 20
22.119167
 30
0.0
 10
4.392083
 20
21.986875
 30
0.0
 10
4.683125
 20
21.845764
 30
0.0
 10
4.956528
 20
21.695833
 30
0.0
 10
5.238750
 20
21.545903
 30
0.0
 10
5.529792
 20
21.431250
 30
0.0
 10
5.829653
 20
21.334236
 30
0.0
 10
6.138333
 20
21.281319
 30
0.0
 10
6.447014
 20
21.263681
 30
0.0
 10
6.764514
 20
21.307778
 30
0.0
 10
7.082014
 20
21.351875
 30
0.0
 10
7.399514
 20
21.316597
 30
0.0
 10
7.690556
 20
21.184306
 30
0.0
 10
7.946319
 20
20.990278
 30
0.0
 10
8.184444
 20
20.778611
 30
0.0
 10
8.413750
 20
20.549306
 30
0.0
 10
8.634236
 20
20.320000
 30
0.0
 10
8.854722
 20
20.081875
 30
0.0
 10
9.075208
 20
19.843750
 30
0.0
 10
9.286875
 20
19.614444
 30
0.0
 10
9.507361
 20
19.376319
 30
0.0
 10
9.719028
 20
19.129375
 30
0.0
 10
9.921875
 20
18.891250
 30
0.0
 10
10.115903
 20
18.635486
 30
0.0
 10
10.283472
 20
18.362083
 30
0.0
 10
10.362847
 20
18.062222
 30
0.0
 10
10.301111
 20
17.744722
 30
0.0
 10
10.160000
 20
17.462500
 30
0.0
 10
10.036528
 20
17.136181
 30
0.0
 10
9.957153
 20
16.792222
 30
0.0
 10
9.895417
 20
16.448264
 30
0.0
 10
9.851319
 20
16.104306
 30
0.0
 10
9.824861
 20
15.760347
 30
0.0
 10
9.807222
 20
15.407569
 30
0.0
 10
9.807222
 20
15.063611
 30
0.0
 10
9.816042
 20
14.710833
 30
0.0
 10
9.807222
 20
14.366875
 30
0.0
 10
9.798403
 20
14.022917
 30
0.0
 10
9.771944
 20
13.678958
 30
0.0
 10
9.745486
 20
13.335000
 30
0.0
 10
9.701389
 20
12.991042
 30
0.0
 10
9.639653
 20
12.647083
 30
0.0
 10
9.560278
 20
12.364861
 30
0.0
 10
9.542639
 20
12.073819
 30
0.0
 10
9.771944
 20
11.915069
 30
0.0
 10
10.062986
 20
11.879792
 30
0.0
 10
10.362847
 20
11.879792
 30
0.0
 10
10.653889
 20
11.870972
 30
0.0
 10
10.997847
 20
11.888611
 30
0.0
 10
11.341806
 20
11.923889
 30
0.0
 10
11.676944
 20
11.994444
 30
0.0
 10
12.012083
 20
12.082639
 30
0.0
 10
12.329583
 20
12.206111
 30
0.0
 10
12.647083
 20
12.356042
 30
0.0
 10
12.938125
 20
12.541250
 30
0.0
 10
13.211528
 20
12.744097
 30
0.0
 10
13.467292
 20
12.973403
 30
0.0
 10
13.696597
 20
13.237986
 30
0.0
 10
13.899444
 20
13.511389
 30
0.0
 10
14.067014
 20
13.811250
 30
0.0
 10
14.208125
 20
14.128750
 30
0.0
 10
14.340417
 20
14.446250
 30
0.0
 10
14.481528
 20
14.763750
 30
0.0
 10
14.693194
 20
15.028333
 30
0.0
 10
15.019514
 20
14.966597
 30
0.0
 10
15.310556
 20
14.781389
 30
0.0
 10
15.539861
 20
14.640278
 30
0.0
 10
15.760347
 20
14.490347
 30
0.0
 10
15.980833
 20
14.349236
 30
0.0
 10
15.839722
 20
14.119931
 30
0.0
 10
15.698611
 20
13.890625
 30
0.0
 10
15.557500
 20
13.661319
 30
0.0
 10
15.416389
 20
13.432014
 30
0.0
 10
15.266458
 20
13.158611
 30
0.0
 10
15.142986
 20
12.876389
 30
0.0
 10
15.045972
 20
12.585347
 30
0.0
 10
14.975417
 20
12.285486
 30
0.0
 10
14.913681
 20
11.976806
 30
0.0
 10
14.878403
 20
11.668125
 30
0.0
 10
14.860764
 20
11.359444
 30
0.0
 10
14.851944
 20
11.050764
 30
0.0
 10
14.843125
 20
10.724444
 30
0.0
 10
14.816667
 20
10.389306
 30
0.0
 10
14.772569
 20
10.062986
 30
0.0
 10
14.710833
 20
9.745486
 30
0.0
 10
14.640278
 20
9.454444
 30
0.0
 10
14.640278
 20
9.454444
 30
0.0
  0
LWPOLYLINE
  5
107
100
AcDbEntity
  8
ink_ext_XXXXXX
 62
7
100
AcDbPolyline
 90
1293
 70
0
 10
34.554583
 20
62.962014
 30
0.0
 10
34.210625
 20
62.917917
 30
0.0
 10
33.875486
 20
62.856181
 30
0.0
 10
33.540347
 20
62.776806
 30
0.0
 10
33.214028
 20
62.662153
 30
0.0
 10
32.905347
 20
62.529861
 30
0.0
 10
32.605486
 20
62.362292
 30
0.0
 10
32.332083
 20
62.159444
 30
0.0
 10
32.076319
 20
61.930139
 30
0.0
 10
31.864653
 20
61.665556
 30
0.0
 10
31.697083
 20
61.365694
 30
0.0
 10
31.564792
 20
61.057014
 30
0.0
 10
31.467778
 20
60.730694
 30
0.0
 10
31.406042
 20
60.395556
 30
0.0
 10
31.370764
 20
60.051597
 30
0.0
 10
31.353125
 20
59.716458
 30
0.0
 10
31.353125
 20
59.372500
 30
0.0
 10
31.361944
 20
59.028542
 30
0.0
 10
31.379583
 20
58.693403
 30
0.0
 10
31.397222
 20
58.349444
 30
0.0
 10
31.432500
 20
57.996667
 30
0.0
 10
31.458958
 20
57.643889
 30
0.0
 10
31.494236
 20
57.299931
 30
0.0
 10
31.520694
 20
56.947153
 30
0.0
 10
31.547153
 20
56.594375
 30
0.0
 10
31.582431
 20
56.241597
 30
0.0
 10
31.335486
 20
56.294514
 30
0.0
 10
31.079722
 20
56.338611
 30
0.0
 10
30.832778
 20
56.391528
 30
0.0
 10
30.532917
 20
56.479722
 30
0.0
 10
30.259514
 20
56.629653
 30
0.0
 10
30.091944
 20
56.885417
 30
0.0
 10
30.003750
 20
57.176458
 30
0.0
 10
29.871458
 20
57.449861
 30
0.0
 10
29.703889
 20
57.705625
 30
0.0
 10
29.527500
 20
57.952569
 30
0.0
 10
29.351111
 20
58.208333
 30
0.0
 10
29.201181
 20
58.490556
 30
0.0
 10
29.086528
 20
58.772778
 30
0.0
 10
28.998333
 20
59.072639
 30
0.0
 10
28.963056
 20
59.390139
 30
0.0
 10
28.945417
 20
59.707639
 30
0.0
 10
28.874861
 20
60.025139
 30
0.0
 10
28.636736
 20
60.236806
 30
0.0
 10
28.336875
 20
60.139792
 30
0.0
 10
28.072292
 20
59.945764
 30
0.0
 10
27.842986
 20
59.716458
 30
0.0
 10
27.648958
 20
59.487153
 30
0.0
 10
27.481389
 20
59.240208
 30
0.0
 10
27.366736
 20
58.957986
 30
0.0
 10
27.305000
 20
58.658125
 30
0.0
 10
27.296181
 20
58.358264
 30
0.0
 10
27.322639
 20
58.058403
 30
0.0
 10
27.357917
 20
57.732083
 30
0.0
 10
27.393194
 20
57.396944
 30
0.0
 10
27.428472
 20
57.070625
 30
0.0
 10
27.102153
 20
57.052986
 30
0.0
 10
26.775833
 20
57.035347
 30
0.0
 10
26.449514
 20
57.017708
 30
0.0
 10
26.123194
 20
57.000069
 30
0.0
 10
25.796875
 20
56.982431
 30
0.0
 10
25.470556
 20
56.964792
 30
0.0
 10
25.144236
 20
56.947153
 30
0.0
 10
24.817917
 20
56.947153
 30
0.0
 10
24.491597
 20
56.982431
 30
0.0
 10
24.218194
 20
57.141181
 30
0.0
 10
24.165278
 20
57.458681
 30
0.0
 10
24.121181
 20
57.793819
 30
0.0
 10
24.015347
 20
58.120139
 30
0.0
 10
23.865417
 20
58.420000
 30
0.0
 10
23.680208
 20
58.702222
 30
0.0
 10
23.459722
 20
58.966806
 30
0.0
 10
23.195139
 20
59.178472
 30
0.0
 10
22.886458
 20
59.284306
 30
0.0
 10
22.577778
 20
59.169653
 30
0.0
 10
22.304375
 20
58.984444
 30
0.0
 10
22.048611
 20
58.772778
 30
0.0
 10
21.810486
 20
58.543472
 30
0.0
 10
21.581181
 20
58.305347
 30
0.0
 10
21.360694
 20
58.058403
 30
0.0
 10
21.149028
 20
57.811458
 30
0.0
 10
20.946181
 20
57.546875
 30
0.0
 10
20.760972
 20
57.273472
 30
0.0
 10
20.593403
 20
56.982431
 30
0.0
 10
20.505208
 20
56.673750
 30
0.0
 10
20.461111
 20
56.373889
 30
0.0
 10
20.196528
 20
56.347431
 30
0.0
 10
19.931944
 20
56.462083
 30
0.0
 10
19.667361
 20
56.594375
 30
0.0
 10
19.341042
 20
56.735486
 30
0.0
 10
19.005903
 20
56.841319
 30
0.0
 10
18.661944
 20
56.920694
 30
0.0
 10
18.309167
 20
56.973611
 30
0.0
 10
17.965208
 20
57.000069
 30
0.0
 10
17.612431
 20
57.017708
 30
0.0
 10
17.259653
 20
57.017708
 30
0.0
 10
16.906875
 20
56.991250
 30
0.0
 10
16.562917
 20
56.955972
 30
0.0
 10
16.210139
 20
56.903056
 30
0.0
 10
15.927917
 20
56.841319
 30
0.0
 10
16.853958
 20
55.306736
 30
0.0
 10
16.889236
 20
55.333194
 30
0.0
 10
17.136181
 20
55.456667
 30
0.0
 10
17.391944
 20
55.553681
 30
0.0
 10
17.656528
 20
55.597778
 30
0.0
 10
17.947569
 20
55.544861
 30
0.0
 10
17.674167
 20
55.421389
 30
0.0
 10
17.427222
 20
55.315556
 30
0.0
 10
17.180278
 20
55.218542
 30
0.0
 10
16.968611
 20
55.130347
 30
0.0
 10
17.621250
 20
54.054375
 30
0.0
 10
17.788819
 20
54.124931
 30
0.0
 10
18.115139
 20
54.266042
 30
0.0
 10
18.441458
 20
54.389514
 30
0.0
 10
18.767778
 20
54.504167
 30
0.0
 10
19.102917
 20
54.618819
 30
0.0
 10
19.438056
 20
54.733472
 30
0.0
 10
19.773194
 20
54.830486
 30
0.0
 10
20.108333
 20
54.927500
 30
0.0
 10
20.452292
 20
55.015694
 30
0.0
 10
20.796250
 20
55.095069
 30
0.0
 10
21.140208
 20
55.174444
 30
0.0
 10
21.484167
 20
55.245000
 30
0.0
 10
21.828125
 20
55.306736
 30
0.0
 10
22.172083
 20
55.359653
 30
0.0
 10
22.524861
 20
55.412569
 30
0.0
 10
22.868819
 20
55.456667
 30
0.0
 10
23.221597
 20
55.491944
 30
0.0
 10
23.565556
 20
55.527222
 30
0.0
 10
23.918333
 20
55.553681
 30
0.0
 10
24.271111
 20
55.571319
 30
0.0
 10
24.623889
 20
55.588958
 30
0.0
 10
24.976667
 20
55.588958
 30
0.0
 10
25.329444
 20
55.597778
 30
0.0
 10
25.673403
 20
55.588958
 30
0.0
 10
26.026181
 20
55.580139
 30
0.0
 10
26.378958
 20
55.562500
 30
0.0
 10
26.731736
 20
55.536042
 30
0.0
 10
27.084514
 20
55.509583
 30
0.0
 10
27.428472
 20
55.474306
 30
0.0
 10
27.781250
 20
55.430208
 30
0.0
 10
28.125208
 20
55.386111
 30
0.0
 10
28.477986
 20
55.333194
 30
0.0
 10
28.821944
 20
55.280278
 30
0.0
 10
29.165903
 20
55.209722
 30
0.0
 10
29.509861
 20
55.139167
 30
0.0
 10
29.853819
 20
55.068611
 30
0.0
 10
30.197778
 20
54.980417
 30
0.0
 10
30.532917
 20
54.901042
 30
0.0
 10
30.876875
 20
54.804028
 30
0.0
 10
31.212014
 20
54.707014
 30
0.0
 10
31.547153
 20
54.601181
 30
0.0
 10
31.882292
 20
54.486528
 30
0.0
 10
32.217431
 20
54.371875
 30
0.0
 10
32.543750
 20
54.257222
 30
0.0
 10
32.870069
 20
54.124931
 30
0.0
 10
33.196389
 20
53.992639
 30
0.0
 10
33.522708
 20
53.851528
 30
0.0
 10
33.840208
 20
53.710417
 30
0.0
 10
34.157708
 20
53.569306
 30
0.0
 10
34.466389
 20
53.419375
 30
0.0
 10
34.775069
 20
53.269444
 30
0.0
 10
35.083750
 20
53.110694
 30
0.0
 10
35.383611
 20
52.934306
 30
0.0
 10
35.674653
 20
52.740278
 30
0.0
 10
35.921597
 20
52.510972
 30
0.0
 10
36.115625
 20
52.219931
 30
0.0
 10
36.212639
 20
51.893611
 30
0.0
 10
36.300833
 20
51.576111
 30
0.0
 10
36.450764
 20
51.276250
 30
0.0
 10
36.653611
 20
51.020486
 30
0.0
 10
36.918194
 20
50.817639
 30
0.0
 10
37.218056
 20
50.676528
 30
0.0
 10
37.544375
 20
50.597153
 30
0.0
 10
37.870694
 20
50.553056
 30
0.0
 10
38.205833
 20
50.535417
 30
0.0
 10
38.523333
 20
50.491319
 30
0.0
 10
38.840833
 20
50.394306
 30
0.0
 10
39.131875
 20
50.253194
 30
0.0
 10
39.405278
 20
50.076806
 30
0.0
 10
39.669861
 20
49.873958
 30
0.0
 10
39.907986
 20
49.653472
 30
0.0
 10
40.128472
 20
49.415347
 30
0.0
 10
40.304861
 20
49.141944
 30
0.0
 10
40.393056
 20
48.824444
 30
0.0
 10
40.243125
 20
48.551042
 30
0.0
 10
39.978542
 20
48.418750
 30
0.0
 10
39.696319
 20
48.321736
 30
0.0
 10
39.405278
 20
48.277639
 30
0.0
 10
39.184792
 20
48.118889
 30
0.0
 10
39.405278
 20
47.871944
 30
0.0
 10
39.669861
 20
47.686736
 30
0.0
 10
39.960903
 20
47.527986
 30
0.0
 10
40.251944
 20
47.386875
 30
0.0
 10
40.560625
 20
47.272222
 30
0.0
 10
40.878125
 20
47.192847
 30
0.0
 10
41.204444
 20
47.148750
 30
0.0
 10
41.495486
 20
47.131111
 30
0.0
 10
41.786528
 20
47.069375
 30
0.0
 10
42.059931
 20
46.954722
 30
0.0
 10
42.298056
 20
46.769514
 30
0.0
 10
42.474444
 20
46.531389
 30
0.0
 10
42.642014
 20
46.240347
 30
0.0
 10
42.694931
 20
45.922847
 30
0.0
 10
42.509722
 20
45.649444
 30
0.0
 10
42.262778
 20
45.428958
 30
0.0
 10
42.033472
 20
45.252569
 30
0.0
 10
41.804167
 20
45.093819
 30
0.0
 10
41.557222
 20
44.935069
 30
0.0
 10
41.301458
 20
44.811597
 30
0.0
 10
41.098611
 20
44.626389
 30
0.0
 10
41.169167
 20
44.344167
 30
0.0
 10
41.310278
 20
44.088403
 30
0.0
 10
41.433750
 20
43.788542
 30
0.0
 10
41.521944
 20
43.479861
 30
0.0
 10
41.583681
 20
43.162361
 30
0.0
 10
41.627778
 20
42.836042
 30
0.0
 10
41.654236
 20
42.518542
 30
0.0
 10
41.663056
 20
42.192222
 30
0.0
 10
41.680694
 20
41.848264
 30
0.0
 10
41.724792
 20
41.495486
 30
0.0
 10
41.804167
 20
41.160347
 30
0.0
 10
41.927639
 20
40.834028
 30
0.0
 10
42.086389
 20
40.516528
 30
0.0
 10
42.280417
 20
40.234306
 30
0.0
 10
42.518542
 20
39.969722
 30
0.0
 10
42.783125
 20
39.749236
 30
0.0
 10
43.082986
 20
39.564028
 30
0.0
 10
43.400486
 20
39.422917
 30
0.0
 10
43.735625
 20
39.325903
 30
0.0
 10
44.079583
 20
39.264167
 30
0.0
 10
44.432361
 20
39.246528
 30
0.0
 10
44.749861
 20
39.237708
 30
0.0
 10
45.067361
 20
39.202431
 30
0.0
 10
45.367222
 20
39.105417
 30
0.0
 10
45.622986
 20
38.920208
 30
0.0
 10
45.781736
 20
38.646806
 30
0.0
 10
45.861111
 20
38.338125
 30
0.0
 10
45.887569
 20
38.020625
 30
0.0
 10
45.896389
 20
37.703125
 30
0.0
 10
45.861111
 20
37.394444
 30
0.0
 10
45.693542
 20
37.138681
 30
0.0
 10
45.420139
 20
36.988750
 30
0.0
 10
45.120278
 20
36.909375
 30
0.0
 10
44.802778
 20
36.838819
 30
0.0
 10
44.485278
 20
36.750625
 30
0.0
 10
44.176597
 20
36.662431
 30
0.0
 10
43.867917
 20
36.565417
 30
0.0
 10
43.559236
 20
36.459583
 30
0.0
 10
43.250556
 20
36.353750
 30
0.0
 10
42.950694
 20
36.239097
 30
0.0
 10
42.624375
 20
36.115625
 30
0.0
 10
42.306875
 20
35.974514
 30
0.0
 10
41.998194
 20
35.815764
 30
0.0
 10
41.724792
 20
35.604097
 30
0.0
 10
41.521944
 20
35.321875
 30
0.0
 10
41.372014
 20
35.013194
 30
0.0
 10
41.248542
 20
34.686875
 30
0.0
 10
41.142708
 20
34.351736
 30
0.0
 10
41.045694
 20
34.016597
 30
0.0
 10
40.948681
 20
33.699097
 30
0.0
 10
40.860486
 20
33.381597
 30
0.0
 10
40.772292
 20
33.055278
 30
0.0
 10
40.692917
 20
32.728958
 30
0.0
 10
40.631181
 20
32.402639
 30
0.0
 10
40.587083
 20
32.076319
 30
0.0
 10
40.595903
 20
31.741181
 30
0.0
 10
40.666458
 20
31.414861
 30
0.0
 10
40.816389
 20
31.115000
 30
0.0
 10
41.010417
 20
30.841597
 30
0.0
 10
41.230903
 20
30.594653
 30
0.0
 10
41.469028
 20
30.356528
 30
0.0
 10
41.698333
 20
30.136042
 30
0.0
 10
41.954097
 20
29.933194
 30
0.0
 10
42.218681
 20
29.747986
 30
0.0
 10
42.492083
 20
29.589236
 30
0.0
 10
42.791944
 20
29.456944
 30
0.0
 10
43.100625
 20
29.359931
 30
0.0
 10
43.409306
 20
29.280556
 30
0.0
 10
43.726806
 20
29.227639
 30
0.0
 10
44.026667
 20
29.174722
 30
0.0
 10
44.317708
 20
29.121806
 30
0.0
 10
44.608750
 20
29.051250
 30
0.0
 10
44.899792
 20
28.971875
 30
0.0
 10
45.164375
 20
28.848403
 30
0.0
 10
45.146736
 20
28.530903
 30
0.0
 10
45.058542
 20
28.213403
 30
0.0
 10
44.961528
 20
27.904722
 30
0.0
 10
44.846875
 20
27.604861
 30
0.0
 10
44.723403
 20
27.296181
 30
0.0
 10
44.582292
 20
27.005139
 30
0.0
 10
44.370625
 20
26.749375
 30
0.0
 10
44.070764
 20
26.608264
 30
0.0
 10
43.744444
 20
26.564167
 30
0.0
 10
43.409306
 20
26.555347
 30
0.0
 10
43.074167
 20
26.546528
 30
0.0
 10
42.747847
 20
26.546528
 30
0.0
 10
42.403889
 20
26.546528
 30
0.0
 10
42.068750
 20
26.528889
 30
0.0
 10
41.724792
 20
26.502431
 30
0.0
 10
41.389653
 20
26.458333
 30
0.0
 10
41.054514
 20
26.387778
 30
0.0
 10
40.728194
 20
26.299583
 30
0.0
 10
40.410694
 20
26.184931
 30
0.0
 10
40.110833
 20
26.026181
 30
0.0
 10
39.837431
 20
25.823333
 30
0.0
 10
39.599306
 20
25.576389
 30
0.0
 10
39.405278
 20
25.294167
 30
0.0
 10
39.255347
 20
24.994306
 30
0.0
 10
39.149514
 20
24.667986
 30
0.0
 10
39.070139
 20
24.368125
 30
0.0
 10
39.008403
 20
24.068264
 30
0.0
 10
38.973125
 20
23.768403
 30
0.0
 10
39.017222
 20
23.468542
 30
0.0
 10
39.228889
 20
23.248056
 30
0.0
 10
39.528750
 20
23.177500
 30
0.0
 10
39.837431
 20
23.159861
 30
0.0
 10
40.119653
 20
23.124583
 30
0.0
 10
40.384236
 20
23.009931
 30
0.0
 10
40.604722
 20
22.833542
 30
0.0
 10
40.789931
 20
22.604236
 30
0.0
 10
40.931042
 20
22.357292
 30
0.0
 10
41.072153
 20
22.083889
 30
0.0
 10
41.177986
 20
21.792847
 30
0.0
 10
41.204444
 20
21.492986
 30
0.0
 10
41.089792
 20
21.201944
 30
0.0
 10
40.922222
 20
20.946181
 30
0.0
 10
40.710556
 20
20.681597
 30
0.0
 10
40.454792
 20
20.469931
 30
0.0
 10
40.128472
 20
20.372917
 30
0.0
 10
39.810972
 20
20.461111
 30
0.0
 10
39.555208
 20
20.681597
 30
0.0
 10
39.343542
 20
20.955000
 30
0.0
 10
39.140694
 20
21.210764
 30
0.0
 10
38.876111
 20
21.395972
 30
0.0
 10
38.567431
 20
21.501806
 30
0.0
 10
38.241111
 20
21.554722
 30
0.0
 10
37.914792
 20
21.581181
 30
0.0
 10
37.588472
 20
21.590000
 30
0.0
 10
37.253333
 20
21.581181
 30
0.0
 10
36.918194
 20
21.554722
 30
0.0
 10
36.591875
 20
21.501806
 30
0.0
 10
36.274375
 20
21.404792
 30
0.0
 10
35.992153
 20
21.237222
 30
0.0
 10
35.789306
 20
20.972639
 30
0.0
 10
35.736389
 20
20.646319
 30
0.0
 10
35.815764
 20
20.328819
 30
0.0
 10
35.965694
 20
20.028958
 30
0.0
 10
36.097986
 20
19.808472
 30
0.0
 10
36.195000
 20
19.570347
 30
0.0
 10
36.221458
 20
19.314583
 30
0.0
 10
35.895139
 20
19.358681
 30
0.0
 10
35.568819
 20
19.464514
 30
0.0
 10
35.260139
 20
19.587986
 30
0.0
 10
34.942639
 20
19.711458
 30
0.0
 10
34.633958
 20
19.834931
 30
0.0
 10
34.325278
 20
19.967222
 30
0.0
 10
34.016597
 20
20.099514
 30
0.0
 10
33.707917
 20
20.231806
 30
0.0
 10
33.399236
 20
20.372917
 30
0.0
 10
33.090556
 20
20.514028
 30
0.0
 10
32.781875
 20
20.655139
 30
0.0
 10
32.482014
 20
20.796250
 30
0.0
 10
32.182153
 20
20.937361
 30
0.0
 10
31.873472
 20
21.087292
 30
0.0
 10
31.573611
 20
21.237222
 30
0.0
 10
31.273750
 20
21.387153
 30
0.0
 10
30.973889
 20
21.537083
 30
0.0
 10
30.674028
 20
21.695833
 30
0.0
 10
30.382986
 20
21.863403
 30
0.0
 10
30.091944
 20
22.030972
 30
0.0
 10
29.800903
 20
22.207361
 30
0.0
 10
29.509861
 20
22.392569
 30
0.0
 10
29.218819
 20
22.577778
 30
0.0
 10
28.936597
 20
22.771806
 30
0.0
 10
28.654375
 20
22.974653
 30
0.0
 10
28.380972
 20
23.168681
 30
0.0
 10
28.098750
 20
23.371528
 30
0.0
 10
27.825347
 20
23.583194
 30
0.0
 10
27.551944
 20
23.786042
 30
0.0
 10
27.278542
 20
23.997708
 30
0.0
 10
27.013958
 20
24.209375
 30
0.0
 10
26.740556
 20
24.429861
 30
0.0
 10
26.475972
 20
24.641528
 30
0.0
 10
26.211389
 20
24.862014
 30
0.0
 10
25.955625
 20
25.082500
 30
0.0
 10
25.691042
 20
25.311806
 30
0.0
 10
25.435278
 20
25.532292
 30
0.0
 10
25.170694
 20
25.761597
 30
0.0
 10
24.923750
 20
25.990903
 30
0.0
 10
24.667986
 20
26.229028
 30
0.0
 10
24.412222
 20
26.458333
 30
0.0
 10
24.165278
 20
26.696458
 30
0.0
 10
23.918333
 20
26.934583
 30
0.0
 10
23.680208
 20
27.181528
 30
0.0
 10
23.442083
 20
27.428472
 30
0.0
 10
23.212778
 20
27.684236
 30
0.0
 10
22.992292
 20
27.940000
 30
0.0
 10
22.771806
 20
28.213403
 30
0.0
 10
22.586597
 20
28.495625
 30
0.0
 10
22.471944
 20
28.821944
 30
0.0
 10
22.613056
 20
29.104167
 30
0.0
 10
22.798264
 20
29.359931
 30
0.0
 10
22.992292
 20
29.615694
 30
0.0
 10
23.186319
 20
29.871458
 30
0.0
 10
23.389167
 20
30.118403
 30
0.0
 10
23.600833
 20
30.356528
 30
0.0
 10
23.812500
 20
30.612292
 30
0.0
 10
24.032986
 20
30.868056
 30
0.0
 10
24.244653
 20
31.132639
 30
0.0
 10
24.456319
 20
31.397222
 30
0.0
 10
24.650347
 20
31.670625
 30
0.0
 10
24.844375
 20
31.944028
 30
0.0
 10
25.020764
 20
32.235069
 30
0.0
 10
25.144236
 20
32.543750
 30
0.0
 10
25.082500
 20
32.843611
 30
0.0
 10
24.773819
 20
32.967083
 30
0.0
 10
24.456319
 20
33.072917
 30
0.0
 10
24.138819
 20
33.169931
 30
0.0
 10
23.812500
 20
33.266944
 30
0.0
 10
23.495000
 20
33.355139
 30
0.0
 10
23.177500
 20
33.452153
 30
0.0
 10
22.851181
 20
33.549167
 30
0.0
 10
22.524861
 20
33.655000
 30
0.0
 10
22.207361
 20
33.769653
 30
0.0
 10
21.889861
 20
33.893125
 30
0.0
 10
21.572361
 20
34.016597
 30
0.0
 10
21.263681
 20
34.157708
 30
0.0
 10
20.955000
 20
34.298819
 30
0.0
 10
20.646319
 20
34.448750
 30
0.0
 10
20.346458
 20
34.598681
 30
0.0
 10
20.046597
 20
34.757431
 30
0.0
 10
19.746736
 20
34.925000
 30
0.0
 10
19.455694
 20
35.092569
 30
0.0
 10
19.164653
 20
35.268958
 30
0.0
 10
18.873611
 20
35.445347
 30
0.0
 10
18.591389
 20
35.630556
 30
0.0
 10
18.309167
 20
35.815764
 30
0.0
 10
18.026944
 20
36.009792
 30
0.0
 10
17.744722
 20
36.203819
 30
0.0
 10
17.471319
 20
36.406667
 30
0.0
 10
17.206736
 20
36.618333
 30
0.0
 10
16.933333
 20
36.821181
 30
0.0
 10
16.668750
 20
37.041667
 30
0.0
 10
16.412986
 20
37.253333
 30
0.0
 10
16.174861
 20
37.465000
 30
0.0
 10
15.927917
 20
37.667847
 30
0.0
 10
15.689792
 20
37.870694
 30
0.0
 10
15.451667
 20
38.073542
 30
0.0
 10
15.213542
 20
38.276389
 30
0.0
 10
14.966597
 20
38.488056
 30
0.0
 10
14.728472
 20
38.690903
 30
0.0
 10
14.605000
 20
38.452778
 30
0.0
 10
14.481528
 20
38.214653
 30
0.0
 10
14.358056
 20
37.976528
 30
0.0
 10
14.208125
 20
37.659028
 30
0.0
 10
14.093472
 20
37.323889
 30
0.0
 10
13.996458
 20
36.988750
 30
0.0
 10
13.917083
 20
36.653611
 30
0.0
 10
13.846528
 20
36.309653
 30
0.0
 10
13.784792
 20
35.956875
 30
0.0
 10
13.740694
 20
35.612917
 30
0.0
 10
13.696597
 20
35.260139
 30
0.0
 10
13.661319
 20
34.916181
 30
0.0
 10
13.634861
 20
34.563403
 30
0.0
 10
13.608403
 20
34.210625
 30
0.0
 10
13.590764
 20
33.866667
 30
0.0
 10
13.581944
 20
33.513889
 30
0.0
 10
13.573125
 20
33.161111
 30
0.0
 10
13.564306
 20
32.808333
 30
0.0
 10
13.564306
 20
32.455556
 30
0.0
 10
13.573125
 20
32.111597
 30
0.0
 10
13.573125
 20
31.758819
 30
0.0
 10
13.590764
 20
31.406042
 30
0.0
 10
13.608403
 20
31.053264
 30
0.0
 10
13.626042
 20
30.709306
 30
0.0
 10
13.643681
 20
30.356528
 30
0.0
 10
13.678958
 20
30.003750
 30
0.0
 10
13.705417
 20
29.659792
 30
0.0
 10
13.740694
 20
29.307014
 30
0.0
 10
13.784792
 20
28.954236
 30
0.0
 10
13.828889
 20
28.610278
 30
0.0
 10
13.881806
 20
28.266319
 30
0.0
 10
13.934722
 20
27.913542
 30
0.0
 10
13.996458
 20
27.569583
 30
0.0
 10
14.067014
 20
27.225625
 30
0.0
 10
14.146389
 20
26.881667
 30
0.0
 10
14.234583
 20
26.546528
 30
0.0
 10
14.331597
 20
26.211389
 30
0.0
 10
14.446250
 20
25.876250
 30
0.0
 10
14.587361
 20
25.558750
 30
0.0
 10
14.754931
 20
25.250069
 30
0.0
 10
14.984236
 20
24.985486
 30
0.0
 10
15.301736
 20
24.853194
 30
0.0
 10
15.610417
 20
24.923750
 30
0.0
 10
15.901458
 20
25.029583
 30
0.0
 10
16.192500
 20
25.144236
 30
0.0
 10
16.474722
 20
25.285347
 30
0.0
 10
16.748125
 20
25.426458
 30
0.0
 10
17.021528
 20
25.576389
 30
0.0
 10
17.268472
 20
25.726319
 30
0.0
 10
17.515417
 20
25.867431
 30
0.0
 10
17.762361
 20
26.017361
 30
0.0
 10
18.009306
 20
26.158472
 30
0.0
 10
18.256250
 20
26.308403
 30
0.0
 10
18.503194
 20
26.061458
 30
0.0
 10
18.750139
 20
25.814514
 30
0.0
 10
18.988264
 20
25.567569
 30
0.0
 10
19.235208
 20
25.320625
 30
0.0
 10
19.473333
 20
25.073681
 30
0.0
 10
19.720278
 20
24.826736
 30
0.0
 10
19.967222
 20
24.588611
 30
0.0
 10
20.205347
 20
24.341667
 30
0.0
 10
20.452292
 20
24.094722
 30
0.0
 10
20.690417
 20
23.847778
 30
0.0
 10
20.937361
 20
23.600833
 30
0.0
 10
21.184306
 20
23.353889
 30
0.0
 10
21.422431
 20
23.106944
 30
0.0
 10
21.669375
 20
22.868819
 30
0.0
 10
21.907500
 20
22.630694
 30
0.0
 10
22.154444
 20
22.383750
 30
0.0
 10
22.392569
 20
22.145625
 30
0.0
 10
22.639514
 20
21.916319
 30
0.0
 10
22.886458
 20
21.678194
 30
0.0
 10
23.142222
 20
21.440069
 30
0.0
 10
23.389167
 20
21.210764
 30
0.0
 10
23.644931
 20
20.981458
 30
0.0
 10
23.900694
 20
20.760972
 30
0.0
 10
24.165278
 20
20.540486
 30
0.0
 10
24.421042
 20
20.320000
 30
0.0
 10
24.685625
 20
20.099514
 30
0.0
 10
24.959028
 20
19.887847
 30
0.0
 10
25.232431
 20
19.685000
 30
0.0
 10
25.505833
 20
19.482153
 30
0.0
 10
25.788056
 20
19.288125
 30
0.0
 10
26.070278
 20
19.094097
 30
0.0
 10
26.352500
 20
18.908889
 30
0.0
 10
26.643542
 20
18.732500
 30
0.0
 10
26.943403
 20
18.556111
 30
0.0
 10
27.243264
 20
18.397361
 30
0.0
 10
27.543125
 20
18.229792
 30
0.0
 10
27.842986
 20
18.079861
 30
0.0
 10
28.151667
 20
17.929931
 30
0.0
 10
28.460347
 20
17.788819
 30
0.0
 10
28.777847
 20
17.647708
 30
0.0
 10
29.086528
 20
17.506597
 30
0.0
 10
29.404028
 20
17.383125
 30
0.0
 10
29.703889
 20
17.259653
 30
0.0
 10
30.003750
 20
17.127361
 30
0.0
 10
30.303611
 20
16.995069
 30
0.0
 10
30.594653
 20
16.845139
 30
0.0
 10
30.682847
 20
16.589375
 30
0.0
 10
30.409444
 20
16.404167
 30
0.0
 10
30.136042
 20
16.210139
 30
0.0
 10
29.942014
 20
15.927917
 30
0.0
 10
29.836181
 20
15.610417
 30
0.0
 10
29.809722
 20
15.266458
 30
0.0
 10
29.774444
 20
14.940139
 30
0.0
 10
29.650972
 20
14.631458
 30
0.0
 10
29.430486
 20
14.384514
 30
0.0
 10
29.130625
 20
14.234583
 30
0.0
 10
28.804306
 20
14.190486
 30
0.0
 10
28.469167
 20
14.225764
 30
0.0
 10
28.142847
 20
14.296319
 30
0.0
 10
27.834167
 20
14.410972
 30
0.0
 10
27.507847
 20
14.525625
 30
0.0
 10
27.172708
 20
14.587361
 30
0.0
 10
26.828750
 20
14.587361
 30
0.0
 10
26.484792
 20
14.543264
 30
0.0
 10
26.149653
 20
14.472708
 30
0.0
 10
25.814514
 20
14.393333
 30
0.0
 10
25.479375
 20
14.296319
 30
0.0
 10
25.153056
 20
14.208125
 30
0.0
 10
24.826736
 20
14.111111
 30
0.0
 10
24.500417
 20
14.022917
 30
0.0
 10
24.174097
 20
13.943542
 30
0.0
 10
23.838958
 20
13.881806
 30
0.0
 10
23.503819
 20
13.943542
 30
0.0
 10
23.168681
 20
13.996458
 30
0.0
 10
22.824722
 20
14.049375
 30
0.0
 10
22.489583
 20
14.102292
 30
0.0
 10
22.154444
 20
14.155208
 30
0.0
 10
21.810486
 20
14.208125
 30
0.0
 10
21.457708
 20
14.269861
 30
0.0
 10
21.113750
 20
14.331597
 30
0.0
 10
20.778611
 20
14.402153
 30
0.0
 10
20.434653
 20
14.481528
 30
0.0
 10
20.099514
 20
14.569722
 30
0.0
 10
19.755556
 20
14.666736
 30
0.0
 10
19.420417
 20
14.763750
 30
0.0
 10
19.376319
 20
14.781389
 30
0.0
 10
18.176875
 20
13.432014
 30
0.0
 10
18.238611
 20
13.282083
 30
0.0
 10
18.150417
 20
13.088056
 30
0.0
 10
17.956389
 20
12.999861
 30
0.0
 10
17.841736
 20
13.052778
 30
0.0
 10
14.640278
 20
9.454444
 30
0.0
 10
14.631458
 20
9.419167
 30
0.0
 10
14.543264
 20
9.101667
 30
0.0
 10
14.428611
 20
8.792986
 30
0.0
 10
14.287500
 20
8.493125
 30
0.0
 10
14.146389
 20
8.210903
 30
0.0
 10
14.005278
 20
7.928681
 30
0.0
 10
13.890625
 20
7.628819
 30
0.0
 10
13.961181
 20
7.346597
 30
0.0
 10
14.261042
 20
7.223125
 30
0.0
 10
14.552083
 20
7.187847
 30
0.0
 10
14.843125
 20
7.187847
 30
0.0
 10
15.142986
 20
7.214306
 30
0.0
 10
15.434028
 20
7.249583
 30
0.0
 10
15.725069
 20
7.302500
 30
0.0
 10
16.016111
 20
7.373056
 30
0.0
 10
16.324792
 20
7.443611
 30
0.0
 10
16.624653
 20
7.514167
 30
0.0
 10
16.933333
 20
7.584722
 30
0.0
 10
17.242014
 20
7.637639
 30
0.0
 10
17.550694
 20
7.690556
 30
0.0
 10
17.859375
 20
7.734653
 30
0.0
 10
18.203333
 20
7.814028
 30
0.0
 10
18.512014
 20
7.963958
 30
0.0
 10
18.794236
 20
8.166806
 30
0.0
 10
19.067639
 20
8.387292
 30
0.0
 10
19.314583
 20
8.634236
 30
0.0
 10
19.543889
 20
8.898819
 30
0.0
 10
19.764375
 20
9.163403
 30
0.0
 10
19.967222
 20
9.445625
 30
0.0
 10
20.161250
 20
9.736667
 30
0.0
 10
20.337639
 20
10.036528
 30
0.0
 10
20.514028
 20
10.336389
 30
0.0
 10
20.672778
 20
10.645069
 30
0.0
 10
20.813889
 20
10.962569
 30
0.0
 10
20.946181
 20
11.288889
 30
0.0
 10
21.069653
 20
11.615208
 30
0.0
 10
21.175486
 20
11.941528
 30
0.0
 10
21.290139
 20
12.170833
 30
0.0
 10
21.475347
 20
12.356042
 30
0.0
 10
21.713472
 20
12.435417
 30
0.0
 10
21.951597
 20
12.285486
 30
0.0
 10
22.022153
 20
11.994444
 30
0.0
 10
22.030972
 20
11.694583
 30
0.0
 10
22.022153
 20
11.394722
 30
0.0
 10
21.995694
 20
11.094861
 30
0.0
 10
21.978056
 20
10.768542
 30
0.0
 10
21.969236
 20
10.442222
 30
0.0
 10
21.986875
 20
10.107083
 30
0.0
 10
22.057431
 20
9.780764
 30
0.0
 10
22.189722
 20
9.480903
 30
0.0
 10
22.374931
 20
9.216319
 30
0.0
 10
22.613056
 20
8.978194
 30
0.0
 10
22.868819
 20
8.775347
 30
0.0
 10
23.142222
 20
8.581319
 30
0.0
 10
23.415625
 20
8.396111
 30
0.0
 10
23.697847
 20
8.228542
 30
0.0
 10
23.988889
 20
8.043333
 30
0.0
 10
24.271111
 20
7.849306
 30
0.0
 10
24.544514
 20
7.646458
 30
0.0
 10
24.809097
 20
7.425972
 30
0.0
 10
25.064861
 20
7.196667
 30
0.0
 10
25.294167
 20
6.949722
 30
0.0
 10
25.497014
 20
6.667500
 30
0.0
 10
25.664583
 20
6.376458
 30
0.0
 10
25.788056
 20
6.050139
 30
0.0
 10
25.849792
 20
5.715000
 30
0.0
 10
25.858611
 20
5.379861
 30
0.0
 10
25.814514
 20
5.035903
 30
0.0
 10
25.717500
 20
4.709583
 30
0.0
 10
25.594028
 20
4.392083
 30
0.0
 10
25.435278
 20
4.083403
 30
0.0
 10
25.267708
 20
3.783542
 30
0.0
 10
25.091319
 20
3.492500
 30
0.0
 10
24.950208
 20
3.175000
 30
0.0
 10
24.853194
 20
2.848681
 30
0.0
 10
24.853194
 20
2.504722
 30
0.0
 10
24.994306
 20
2.196042
 30
0.0
 10
25.241250
 20
1.966736
 30
0.0
 10
25.541111
 20
1.799167
 30
0.0
 10
25.858611
 20
1.666875
 30
0.0
 10
26.132014
 20
1.552222
 30
0.0
 10
26.396597
 20
1.402292
 30
0.0
 10
26.634722
 20
1.225903
 30
0.0
 10
26.855208
 20
1.023056
 30
0.0
 10
27.031597
 20
0.784931
 30
0.0
 10
27.190347
 20
0.493889
 30
0.0
 10
27.454931
 20
0.388056
 30
0.0
 10
27.684236
 20
0.617361
 30
0.0
 10
27.895903
 20
0.873125
 30
0.0
 10
28.089931
 20
1.146528
 30
0.0
 10
28.231042
 20
1.455208
 30
0.0
 10
28.310417
 20
1.781528
 30
0.0
 10
28.310417
 20
2.125486
 30
0.0
 10
28.266319
 20
2.460625
 30
0.0
 10
28.222222
 20
2.813403
 30
0.0
 10
28.239861
 20
3.157361
 30
0.0
 10
28.336875
 20
3.501319
 30
0.0
 10
28.495625
 20
3.818819
 30
0.0
 10
28.680833
 20
4.109861
 30
0.0
 10
28.883681
 20
4.400903
 30
0.0
 10
29.095347
 20
4.683125
 30
0.0
 10
29.298194
 20
4.956528
 30
0.0
 10
29.483403
 20
5.229931
 30
0.0
 10
29.668611
 20
5.512153
 30
0.0
 10
29.827361
 20
5.812014
 30
0.0
 10
29.950833
 20
6.120694
 30
0.0
 10
30.030208
 20
6.447014
 30
0.0
 10
30.039028
 20
6.782153
 30
0.0
 10
29.977292
 20
7.117292
 30
0.0
 10
29.862639
 20
7.434792
 30
0.0
 10
29.712708
 20
7.734653
 30
0.0
 10
29.545139
 20
8.025694
 30
0.0
 10
29.359931
 20
8.307917
 30
0.0
 10
29.174722
 20
8.581319
 30
0.0
 10
29.015972
 20
8.872361
 30
0.0
 10
28.874861
 20
9.163403
 30
0.0
 10
28.786667
 20
9.480903
 30
0.0
 10
28.760208
 20
9.807222
 30
0.0
 10
28.813125
 20
10.133542
 30
0.0
 10
28.883681
 20
10.442222
 30
0.0
 10
28.954236
 20
10.742083
 30
0.0
 10
29.024792
 20
11.050764
 30
0.0
 10
29.086528
 20
11.359444
 30
0.0
 10
29.148264
 20
11.659306
 30
0.0
 10
29.254097
 20
11.967986
 30
0.0
 10
29.448125
 20
12.223750
 30
0.0
 10
29.730347
 20
12.382500
 30
0.0
 10
30.047847
 20
12.444236
 30
0.0
 10
30.365347
 20
12.417778
 30
0.0
 10
30.682847
 20
12.347222
 30
0.0
 10
30.991528
 20
12.241389
 30
0.0
 10
31.282569
 20
12.109097
 30
0.0
 10
31.573611
 20
11.967986
 30
0.0
 10
31.847014
 20
11.800417
 30
0.0
 10
32.120417
 20
11.624028
 30
0.0
 10
32.402639
 20
11.447639
 30
0.0
 10
32.684861
 20
11.288889
 30
0.0
 10
32.975903
 20
11.130139
 30
0.0
 10
33.275764
 20
10.980208
 30
0.0
 10
33.566806
 20
10.830278
 30
0.0
 10
33.866667
 20
10.689167
 30
0.0
 10
34.166528
 20
10.556875
 30
0.0
 10
34.475208
 20
10.424583
 30
0.0
 10
34.775069
 20
10.301111
 30
0.0
 10
35.083750
 20
10.186458
 30
0.0
 10
35.392431
 20
10.071806
 30
0.0
 10
35.701111
 20
9.948333
 30
0.0
 10
36.009792
 20
9.816042
 30
0.0
 10
36.309653
 20
9.674931
 30
0.0
 10
36.600694
 20
9.516181
 30
0.0
 10
36.874097
 20
9.348611
 30
0.0
 10
37.138681
 20
9.145764
 30
0.0
 10
37.376806
 20
8.907639
 30
0.0
 10
37.570833
 20
8.651875
 30
0.0
 10
37.738403
 20
8.360833
 30
0.0
 10
37.861875
 20
8.060972
 30
0.0
 10
37.958889
 20
7.743472
 30
0.0
 10
38.055903
 20
7.443611
 30
0.0
 10
38.205833
 20
7.161389
 30
0.0
 10
38.435139
 20
6.967361
 30
0.0
 10
38.664444
 20
7.187847
 30
0.0
 10
38.814375
 20
7.487708
 30
0.0
 10
38.937847
 20
7.796389
 30
0.0
 10
39.043681
 20
8.105069
 30
0.0
 10
39.140694
 20
8.422569
 30
0.0
 10
39.228889
 20
8.740069
 30
0.0
 10
39.308264
 20
9.066389
 30
0.0
 10
39.378819
 20
9.383889
 30
0.0
 10
39.440556
 20
9.710208
 30
0.0
 10
39.502292
 20
10.036528
 30
0.0
 10
39.555208
 20
10.362847
 30
0.0
 10
39.599306
 20
10.689167
 30
0.0
 10
39.634583
 20
11.015486
 30
0.0
 10
39.661042
 20
11.341806
 30
0.0
 10
39.669861
 20
11.676944
 30
0.0
 10
39.669861
 20
11.985625
 30
0.0
 10
39.661042
 20
12.294306
 30
0.0
 10
39.643403
 20
12.602986
 30
0.0
 10
39.608125
 20
12.911667
 30
0.0
 10
39.528750
 20
13.202708
 30
0.0
 10
39.405278
 20
13.484931
 30
0.0
 10
39.228889
 20
13.740694
 30
0.0
 10
39.026042
 20
13.970000
 30
0.0
 10
38.805556
 20
14.190486
 30
0.0
 10
38.585069
 20
14.410972
 30
0.0
 10
38.364583
 20
14.631458
 30
0.0
 10
38.708542
 20
14.666736
 30
0.0
 10
39.052500
 20
14.702014
 30
0.0
 10
39.396458
 20
14.728472
 30
0.0
 10
39.740417
 20
14.763750
 30
0.0
 10
40.057917
 20
14.807847
 30
0.0
 10
40.375417
 20
14.869583
 30
0.0
 10
40.684097
 20
14.948958
 30
0.0
 10
40.992778
 20
15.045972
 30
0.0
 10
41.292639
 20
15.160625
 30
0.0
 10
41.592500
 20
15.301736
 30
0.0
 10
41.874722
 20
15.451667
 30
0.0
 10
42.139306
 20
15.628056
 30
0.0
 10
42.421528
 20
15.830903
 30
0.0
 10
42.712569
 20
16.016111
 30
0.0
 10
43.012431
 20
16.174861
 30
0.0
 10
43.329931
 20
16.104306
 30
0.0
 10
43.541597
 20
15.839722
 30
0.0
 10
43.700347
 20
15.592778
 30
0.0
 10
43.841458
 20
15.345833
 30
0.0
 10
43.973750
 20
15.090069
 30
0.0
 10
44.088403
 20
14.825486
 30
0.0
 10
44.203056
 20
14.560903
 30
0.0
 10
44.300069
 20
14.269861
 30
0.0
 10
44.335347
 20
13.970000
 30
0.0
 10
44.247153
 20
13.678958
 30
0.0
 10
44.070764
 20
13.432014
 30
0.0
 10
43.859097
 20
13.211528
 30
0.0
 10
43.638611
 20
13.008681
 30
0.0
 10
43.409306
 20
12.788194
 30
0.0
 10
43.188819
 20
12.567708
 30
0.0
 10
42.985972
 20
12.329583
 30
0.0
 10
42.836042
 20
12.056181
 30
0.0
 10
43.074167
 20
11.906250
 30
0.0
 10
43.382847
 20
11.932708
 30
0.0
 10
43.691528
 20
11.985625
 30
0.0
 10
44.026667
 20
12.065000
 30
0.0
 10
44.352986
 20
12.162014
 30
0.0
 10
44.679306
 20
12.294306
 30
0.0
 10
44.979167
 20
12.453056
 30
0.0
 10
45.270208
 20
12.638264
 30
0.0
 10
45.534792
 20
12.858750
 30
0.0
 10
45.781736
 20
13.105694
 30
0.0
 10
45.984583
 20
13.379097
 30
0.0
 10
46.152153
 20
13.678958
 30
0.0
 10
46.275625
 20
14.005278
 30
0.0
 10
46.355000
 20
14.331597
 30
0.0
 10
46.390278
 20
14.675556
 30
0.0
 10
46.381458
 20
15.019514
 30
0.0
 10
46.337361
 20
15.363472
 30
0.0
 10
46.249167
 20
15.698611
 30
0.0
 10
46.134514
 20
16.024931
 30
0.0
 10
45.993403
 20
16.333611
 30
0.0
 10
45.825833
 20
16.633472
 30
0.0
 10
45.640625
 20
16.924514
 30
0.0
 10
45.437778
 20
17.197917
 30
0.0
 10
45.217292
 20
17.462500
 30
0.0
 10
44.996806
 20
17.718264
 30
0.0
 10
44.802778
 20
17.974028
 30
0.0
 10
44.617569
 20
18.256250
 30
0.0
 10
44.467639
 20
18.547292
 30
0.0
 10
44.344167
 20
18.847153
 30
0.0
 10
44.247153
 20
19.164653
 30
0.0
 10
44.185417
 20
19.490972
 30
0.0
 10
44.141319
 20
19.817292
 30
0.0
 10
44.106042
 20
20.143611
 30
0.0
 10
44.070764
 20
20.469931
 30
0.0
 10
44.035486
 20
20.796250
 30
0.0
 10
44.000208
 20
21.122569
 30
0.0
 10
44.291250
 20
21.043194
 30
0.0
 10
44.582292
 20
20.963819
 30
0.0
 10
44.873333
 20
20.875625
 30
0.0
 10
45.155556
 20
20.778611
 30
0.0
 10
45.420139
 20
20.637500
 30
0.0
 10
45.675903
 20
20.487569
 30
0.0
 10
45.914028
 20
20.311181
 30
0.0
 10
46.143333
 20
20.117153
 30
0.0
 10
46.346181
 20
19.896667
 30
0.0
 10
46.575486
 20
19.640903
 30
0.0
 10
46.822431
 20
19.402778
 30
0.0
 10
47.078194
 20
19.173472
 30
0.0
 10
47.333958
 20
18.952986
 30
0.0
 10
47.607361
 20
18.741319
 30
0.0
 10
47.889583
 20
18.538472
 30
0.0
 10
48.171806
 20
18.353264
 30
0.0
 10
48.471667
 20
18.185694
 30
0.0
 10
48.797986
 20
18.088681
 30
0.0
 10
48.850903
 20
18.344444
 30
0.0
 10
48.727431
 20
18.626667
 30
0.0
 10
48.612778
 20
18.935347
 30
0.0
 10
48.542222
 20
19.261667
 30
0.0
 10
48.498125
 20
19.587986
 30
0.0
 10
48.471667
 20
19.914306
 30
0.0
 10
48.454028
 20
20.249444
 30
0.0
 10
48.445208
 20
20.575764
 30
0.0
 10
48.445208
 20
20.910903
 30
0.0
 10
48.462847
 20
21.237222
 30
0.0
 10
48.506944
 20
21.563542
 30
0.0
 10
48.568681
 20
21.889861
 30
0.0
 10
48.718611
 20
22.172083
 30
0.0
 10
48.983194
 20
22.101528
 30
0.0
 10
49.186042
 20
21.898681
 30
0.0
 10
49.353611
 20
21.660556
 30
0.0
 10
49.494722
 20
21.413611
 30
0.0
 10
49.662292
 20
21.140208
 30
0.0
 10
49.838681
 20
20.875625
 30
0.0
 10
50.032708
 20
20.611042
 30
0.0
 10
50.226736
 20
20.355278
 30
0.0
 10
50.429583
 20
20.108333
 30
0.0
 10
50.641250
 20
19.861389
 30
0.0
 10
50.852917
 20
19.614444
 30
0.0
 10
51.064583
 20
19.376319
 30
0.0
 10
51.285069
 20
19.138194
 30
0.0
 10
51.523194
 20
18.908889
 30
0.0
 10
51.761319
 20
18.679583
 30
0.0
 10
52.017083
 20
18.467917
 30
0.0
 10
52.281667
 20
18.265069
 30
0.0
 10
52.563889
 20
18.088681
 30
0.0
 10
52.854931
 20
17.938750
 30
0.0
 10
53.172431
 20
17.832917
 30
0.0
 10
53.498750
 20
17.788819
 30
0.0
 10
53.825069
 20
17.806458
 30
0.0
 10
54.142569
 20
17.903472
 30
0.0
 10
54.433611
 20
18.062222
 30
0.0
 10
54.689375
 20
18.265069
 30
0.0
 10
54.909861
 20
18.485556
 30
0.0
 10
55.095069
 20
18.732500
 30
0.0
 10
55.209722
 20
19.014722
 30
0.0
 10
55.112708
 20
19.296944
 30
0.0
 10
54.821667
 20
19.376319
 30
0.0
 10
54.521806
 20
19.332222
 30
0.0
 10
54.213125
 20
19.270486
 30
0.0
 10
53.922083
 20
19.358681
 30
0.0
 10
53.780972
 20
19.632083
 30
0.0
 10
53.710417
 20
19.931944
 30
0.0
 10
53.657500
 20
20.240625
 30
0.0
 10
53.604583
 20
20.575764
 30
0.0
 10
53.542847
 20
20.910903
 30
0.0
 10
53.489931
 20
21.246042
 30
0.0
 10
53.428194
 20
21.572361
 30
0.0
 10
53.366458
 20
21.907500
 30
0.0
 10
53.269444
 20
22.233819
 30
0.0
 10
53.137153
 20
22.542500
 30
0.0
 10
52.978403
 20
22.842361
 30
0.0
 10
52.810833
 20
23.133403
 30
0.0
 10
52.616806
 20
23.406806
 30
0.0
 10
52.413958
 20
23.680208
 30
0.0
 10
52.202292
 20
23.944792
 30
0.0
 10
51.981806
 20
24.191736
 30
0.0
 10
51.743681
 20
24.438681
 30
0.0
 10
51.496736
 20
24.667986
 30
0.0
 10
51.240972
 20
24.879653
 30
0.0
 10
50.967569
 20
25.082500
 30
0.0
 10
50.702986
 20
25.258889
 30
0.0
 10
50.429583
 20
25.417639
 30
0.0
 10
50.129722
 20
25.532292
 30
0.0
 10
49.821042
 20
25.611667
 30
0.0
 10
49.512361
 20
25.638125
 30
0.0
 10
49.194861
 20
25.638125
 30
0.0
 10
48.877361
 20
25.620486
 30
0.0
 10
48.559861
 20
25.594028
 30
0.0
 10
48.242361
 20
25.567569
 30
0.0
 10
47.889583
 20
25.523472
 30
0.0
 10
47.545625
 20
25.488194
 30
0.0
 10
47.192847
 20
25.452917
 30
0.0
 10
46.848889
 20
25.417639
 30
0.0
 10
46.496111
 20
25.382361
 30
0.0
 10
46.601944
 20
25.691042
 30
0.0
 10
46.698958
 20
25.999722
 30
0.0
 10
46.804792
 20
26.317222
 30
0.0
 10
46.901806
 20
26.625903
 30
0.0
 10
47.007639
 20
26.943403
 30
0.0
 10
47.104653
 20
27.252083
 30
0.0
 10
47.201667
 20
27.551944
 30
0.0
 10
47.307500
 20
27.851806
 30
0.0
 10
47.422153
 20
28.151667
 30
0.0
 10
47.545625
 20
28.442708
 30
0.0
 10
47.686736
 20
28.724931
 30
0.0
 10
47.907222
 20
28.954236
 30
0.0
 10
48.215903
 20
28.963056
 30
0.0
 10
48.551042
 20
28.857222
 30
0.0
 10
48.877361
 20
28.760208
 30
0.0
 10
49.212500
 20
28.654375
 30
0.0
 10
49.547639
 20
28.566181
 30
0.0
 10
49.829861
 20
28.645556
 30
0.0
 10
49.724028
 20
28.971875
 30
0.0
 10
49.600556
 20
29.280556
 30
0.0
 10
49.485903
 20
29.589236
 30
0.0
 10
49.388889
 20
29.897917
 30
0.0
 10
49.397708
 20
30.224236
 30
0.0
 10
49.635833
 20
30.435903
 30
0.0
 10
49.944514
 20
30.524097
 30
0.0
 10
50.270833
 20
30.585833
 30
0.0
 10
50.597153
 20
30.656389
 30
0.0
 10
50.914653
 20
30.735764
 30
0.0
 10
51.240972
 20
30.832778
 30
0.0
 10
51.549653
 20
30.929792
 30
0.0
 10
51.867153
 20
31.044444
 30
0.0
 10
52.175833
 20
31.167917
 30
0.0
 10
52.475694
 20
31.300208
 30
0.0
 10
52.757917
 20
31.423681
 30
0.0
 10
53.040139
 20
31.547153
 30
0.0
 10
53.313542
 20
31.670625
 30
0.0
 10
53.595764
 20
31.794097
 30
0.0
 10
53.877986
 20
31.908750
 30
0.0
 10
54.160208
 20
32.014583
 30
0.0
 10
54.442431
 20
32.208611
 30
0.0
 10
54.662917
 20
32.473194
 30
0.0
 10
54.856944
 20
32.755417
 30
0.0
 10
55.042153
 20
33.046458
 30
0.0
 10
55.200903
 20
33.355139
 30
0.0
 10
55.359653
 20
33.663819
 30
0.0
 10
55.500764
 20
33.972500
 30
0.0
 10
55.641875
 20
34.290000
 30
0.0
 10
55.774167
 20
34.607500
 30
0.0
 10
55.897639
 20
34.925000
 30
0.0
 10
56.012292
 20
35.251319
 30
0.0
 10
56.126944
 20
35.577639
 30
0.0
 10
56.223958
 20
35.903958
 30
0.0
 10
56.320972
 20
36.230278
 30
0.0
 10
56.400347
 20
36.565417
 30
0.0
 10
56.470903
 20
36.900556
 30
0.0
 10
56.532639
 20
37.244514
 30
0.0
 10
56.567917
 20
37.588472
 30
0.0
 10
56.585556
 20
37.905972
 30
0.0
 10
56.594375
 20
38.232292
 30
0.0
 10
56.585556
 20
38.549792
 30
0.0
 10
56.550278
 20
38.867292
 30
0.0
 10
56.470903
 20
39.184792
 30
0.0
 10
56.250417
 20
39.361181
 30
0.0
 10
56.029931
 20
39.140694
 30
0.0
 10
55.888819
 20
38.849653
 30
0.0
 10
55.774167
 20
38.549792
 30
0.0
 10
55.659514
 20
38.232292
 30
0.0
 10
55.527222
 20
37.923611
 30
0.0
 10
55.359653
 20
37.641389
 30
0.0
 10
55.147986
 20
37.376806
 30
0.0
 10
54.892222
 20
37.156319
 30
0.0
 10
54.601181
 20
36.988750
 30
0.0
 10
54.292500
 20
36.874097
 30
0.0
 10
53.966181
 20
36.803542
 30
0.0
 10
53.631042
 20
36.768264
 30
0.0
 10
53.295903
 20
36.750625
 30
0.0
 10
52.960764
 20
36.750625
 30
0.0
 10
52.625625
 20
36.759444
 30
0.0
 10
52.290486
 20
36.785903
 30
0.0
 10
51.964167
 20
36.812361
 30
0.0
 10
51.629028
 20
36.847639
 30
0.0
 10
51.293889
 20
36.882917
 30
0.0
 10
50.967569
 20
36.927014
 30
0.0
 10
50.632431
 20
36.971111
 30
0.0
 10
50.297292
 20
37.024028
 30
0.0
 10
49.997431
 20
37.068125
 30
0.0
 10
49.697569
 20
37.112222
 30
0.0
 10
49.397708
 20
37.156319
 30
0.0
 10
49.097847
 20
37.200417
 30
0.0
 10
48.797986
 20
37.244514
 30
0.0
 10
48.498125
 20
37.288611
 30
0.0
 10
48.189444
 20
37.332708
 30
0.0
 10
48.145347
 20
37.614931
 30
0.0
 10
48.101250
 20
37.897153
 30
0.0
 10
48.048333
 20
38.170556
 30
0.0
 10
48.004236
 20
38.452778
 30
0.0
 10
47.951319
 20
38.796736
 30
0.0
 10
47.924861
 20
39.140694
 30
0.0
 10
47.986597
 20
39.484653
 30
0.0
 10
48.154167
 20
39.784514
 30
0.0
 10
48.392292
 20
40.040278
 30
0.0
 10
48.648056
 20
40.278403
 30
0.0
 10
48.912639
 20
40.507708
 30
0.0
 10
49.168403
 20
40.745833
 30
0.0
 10
49.406528
 20
40.992778
 30
0.0
 10
49.635833
 20
41.257361
 30
0.0
 10
49.856319
 20
41.521944
 30
0.0
 10
50.067986
 20
41.795347
 30
0.0
 10
50.279653
 20
42.077569
 30
0.0
 10
50.473681
 20
42.368611
 30
0.0
 10
50.658889
 20
42.659653
 30
0.0
 10
50.835278
 20
42.959514
 30
0.0
 10
50.994028
 20
43.259375
 30
0.0
 10
51.152778
 20
43.559236
 30
0.0
 10
51.293889
 20
43.867917
 30
0.0
 10
51.408542
 20
44.194236
 30
0.0
 10
51.496736
 20
44.520556
 30
0.0
 10
51.567292
 20
44.855694
 30
0.0
 10
51.611389
 20
45.190833
 30
0.0
 10
51.646667
 20
45.525972
 30
0.0
 10
51.681944
 20
45.869931
 30
0.0
 10
51.699583
 20
46.205069
 30
0.0
 10
51.717222
 20
46.549028
 30
0.0
 10
51.734861
 20
46.884167
 30
0.0
 10
51.752500
 20
47.228125
 30
0.0
 10
51.770139
 20
47.563264
 30
0.0
 10
51.778958
 20
47.907222
 30
0.0
 10
51.796597
 20
48.251181
 30
0.0
 10
51.805417
 20
48.586319
 30
0.0
 10
51.814236
 20
48.930278
 30
0.0
 10
51.831875
 20
49.265417
 30
0.0
 10
51.840694
 20
49.609375
 30
0.0
 10
51.849514
 20
49.953333
 30
0.0
 10
51.867153
 20
50.297292
 30
0.0
 10
51.875972
 20
50.641250
 30
0.0
 10
51.893611
 20
50.985208
 30
0.0
 10
51.911250
 20
51.337986
 30
0.0
 10
51.928889
 20
51.681944
 30
0.0
 10
51.946528
 20
52.017083
 30
0.0
 10
51.972986
 20
52.361042
 30
0.0
 10
51.999444
 20
52.705000
 30
0.0
 10
52.034722
 20
53.048958
 30
0.0
 10
52.078819
 20
53.392917
 30
0.0
 10
52.131736
 20
53.736875
 30
0.0
 10
52.193472
 20
54.072014
 30
0.0
 10
52.281667
 20
54.407153
 30
0.0
 10
52.396319
 20
54.733472
 30
0.0
 10
52.537431
 20
55.042153
 30
0.0
 10
52.722639
 20
55.333194
 30
0.0
 10
52.951944
 20
55.597778
 30
0.0
 10
53.207708
 20
55.818264
 30
0.0
 10
53.489931
 20
56.021111
 30
0.0
 10
53.780972
 20
56.206319
 30
0.0
 10
54.080833
 20
56.365069
 30
0.0
 10
54.389514
 20
56.523819
 30
0.0
 10
54.698194
 20
56.673750
 30
0.0
 10
54.998056
 20
56.814861
 30
0.0
 10
55.289097
 20
56.964792
 30
0.0
 10
55.588958
 20
57.105903
 30
0.0
 10
55.888819
 20
57.247014
 30
0.0
 10
56.179861
 20
57.388125
 30
0.0
 10
56.479722
 20
57.538056
 30
0.0
 10
56.206319
 20
57.643889
 30
0.0
 10
55.924097
 20
57.749722
 30
0.0
 10
55.650694
 20
57.855556
 30
0.0
 10
55.324375
 20
57.952569
 30
0.0
 10
54.989236
 20
58.005486
 30
0.0
 10
54.654097
 20
58.031944
 30
0.0
 10
54.318958
 20
58.040764
 30
0.0
 10
53.983819
 20
58.040764
 30
0.0
 10
53.648681
 20
58.023125
 30
0.0
 10
53.313542
 20
57.996667
 30
0.0
 10
52.978403
 20
57.961389
 30
0.0
 10
52.643264
 20
57.908472
 30
0.0
 10
52.316944
 20
57.855556
 30
0.0
 10
51.981806
 20
57.793819
 30
0.0
 10
51.655486
 20
57.714444
 30
0.0
 10
51.329167
 20
57.626250
 30
0.0
 10
51.011667
 20
57.520417
 30
0.0
 10
50.694167
 20
57.405764
 30
0.0
 10
50.385486
 20
57.264653
 30
0.0
 10
50.076806
 20
57.114722
 30
0.0
 10
49.785764
 20
56.938333
 30
0.0
 10
49.503542
 20
56.744306
 30
0.0
 10
49.238958
 20
56.523819
 30
0.0
 10
48.992014
 20
56.276875
 30
0.0
 10
48.771528
 20
56.021111
 30
0.0
 10
48.568681
 20
55.738889
 30
0.0
 10
48.392292
 20
55.447847
 30
0.0
 10
48.224722
 20
55.147986
 30
0.0
 10
48.083611
 20
54.839306
 30
0.0
 10
47.960139
 20
54.512986
 30
0.0
 10
47.836667
 20
54.221944
 30
0.0
 10
47.713194
 20
53.930903
 30
0.0
 10
47.580903
 20
53.648681
 30
0.0
 10
47.439792
 20
53.366458
 30
0.0
 10
47.298681
 20
53.084236
 30
0.0
 10
47.148750
 20
52.802014
 30
0.0
 10
46.990000
 20
52.528611
 30
0.0
 10
46.822431
 20
52.264028
 30
0.0
 10
46.663681
 20
51.999444
 30
0.0
 10
46.522569
 20
51.717222
 30
0.0
 10
46.407917
 20
51.426181
 30
0.0
 10
46.310903
 20
51.135139
 30
0.0
 10
46.240347
 20
50.826458
 30
0.0
 10
46.196250
 20
50.517778
 30
0.0
 10
46.178611
 20
50.209097
 30
0.0
 10
46.169792
 20
49.918056
 30
0.0
 10
46.143333
 20
49.627014
 30
0.0
 10
46.072778
 20
49.353611
 30
0.0
 10
45.931667
 20
49.106667
 30
0.0
 10
45.684722
 20
48.956736
 30
0.0
 10
45.420139
 20
48.859722
 30
0.0
 10
45.155556
 20
48.745069
 30
0.0
 10
44.899792
 20
48.621597
 30
0.0
 10
44.644028
 20
48.498125
 30
0.0
 10
44.388264
 20
48.365833
 30
0.0
 10
44.123681
 20
48.224722
 30
0.0
 10
43.859097
 20
48.083611
 30
0.0
 10
43.594514
 20
47.942500
 30
0.0
 10
43.620972
 20
48.251181
 30
0.0
 10
43.656250
 20
48.568681
 30
0.0
 10
43.682708
 20
48.886181
 30
0.0
 10
43.709167
 20
49.168403
 30
0.0
 10
43.709167
 20
49.459444
 30
0.0
 10
43.612153
 20
49.715208
 30
0.0
 10
43.338750
 20
49.776944
 30
0.0
 10
43.056528
 20
49.759306
 30
0.0
 10
42.765486
 20
49.768125
 30
0.0
 10
42.474444
 20
49.838681
 30
0.0
 10
42.209861
 20
49.962153
 30
0.0
 10
41.971736
 20
50.129722
 30
0.0
 10
41.742431
 20
50.323750
 30
0.0
 10
41.530764
 20
50.526597
 30
0.0
 10
41.327917
 20
50.738264
 30
0.0
 10
41.125069
 20
50.949931
 30
0.0
 10
40.931042
 20
51.161597
 30
0.0
 10
40.728194
 20
51.364444
 30
0.0
 10
41.028056
 20
51.505556
 30
0.0
 10
41.336736
 20
51.646667
 30
0.0
 10
41.645417
 20
51.778958
 30
0.0
 10
41.945278
 20
51.920069
 30
0.0
 10
42.253958
 20
52.052361
 30
0.0
 10
42.562639
 20
52.193472
 30
0.0
 10
42.880139
 20
52.334583
 30
0.0
 10
43.197639
 20
52.484514
 30
0.0
 10
43.515139
 20
52.643264
 30
0.0
 10
43.815000
 20
52.819653
 30
0.0
 10
44.106042
 20
53.022500
 30
0.0
 10
44.352986
 20
53.269444
 30
0.0
 10
44.564653
 20
53.551667
 30
0.0
 10
44.723403
 20
53.860347
 30
0.0
 10
44.864514
 20
54.177847
 30
0.0
 10
44.987986
 20
54.495347
 30
0.0
 10
45.102639
 20
54.821667
 30
0.0
 10
45.190833
 20
55.147986
 30
0.0
 10
45.261389
 20
55.483125
 30
0.0
 10
45.296667
 20
55.827083
 30
0.0
 10
45.296667
 20
56.162222
 30
0.0
 10
45.270208
 20
56.506181
 30
0.0
 10
45.208472
 20
56.841319
 30
0.0
 10
45.137917
 20
57.176458
 30
0.0
 10
45.058542
 20
57.502778
 30
0.0
 10
44.970347
 20
57.829097
 30
0.0
 10
44.873333
 20
58.164236
 30
0.0
 10
44.767500
 20
58.481736
 30
0.0
 10
44.670486
 20
58.808056
 30
0.0
 10
44.582292
 20
59.143194
 30
0.0
 10
44.502917
 20
59.469514
 30
0.0
 10
44.432361
 20
59.804653
 30
0.0
 10
44.370625
 20
60.139792
 30
0.0
 10
44.308889
 20
60.474931
 30
0.0
 10
44.255972
 20
60.810069
 30
0.0
 10
44.220694
 20
61.145208
 30
0.0
 10
44.203056
 20
61.480347
 30
0.0
 10
44.203056
 20
61.789028
 30
0.0
 10
44.194236
 20
62.097708
 30
0.0
 10
44.150139
 20
62.397569
 30
0.0
 10
43.912014
 20
62.512222
 30
0.0
 10
43.638611
 20
62.388750
 30
0.0
 10
43.400486
 20
62.185903
 30
0.0
 10
43.197639
 20
61.947778
 30
0.0
 10
43.012431
 20
61.692014
 30
0.0
 10
42.836042
 20
61.427431
 30
0.0
 10
42.668472
 20
61.162847
 30
0.0
 10
42.500903
 20
60.898264
 30
0.0
 10
42.350972
 20
60.624861
 30
0.0
 10
42.201042
 20
60.351458
 30
0.0
 10
42.051111
 20
60.069236
 30
0.0
 10
41.901181
 20
59.778194
 30
0.0
 10
41.751250
 20
59.487153
 30
0.0
 10
41.601319
 20
59.204931
 30
0.0
 10
41.442569
 20
58.913889
 30
0.0
 10
41.283819
 20
58.622847
 30
0.0
 10
41.125069
 20
58.340625
 30
0.0
 10
40.957500
 20
58.058403
 30
0.0
 10
40.789931
 20
57.776181
 30
0.0
 10
40.613542
 20
57.502778
 30
0.0
 10
40.437153
 20
57.229375
 30
0.0
 10
40.207847
 20
56.973611
 30
0.0
 10
39.969722
 20
56.744306
 30
0.0
 10
39.722778
 20
56.515000
 30
0.0
 10
39.458194
 20
56.303333
 30
0.0
 10
39.202431
 20
56.091667
 30
0.0
 10
38.929028
 20
55.880000
 30
0.0
 10
38.664444
 20
55.685972
 30
0.0
 10
38.391042
 20
55.483125
 30
0.0
 10
38.117639
 20
55.289097
 30
0.0
 10
37.835417
 20
55.103889
 30
0.0
 10
37.553194
 20
54.918681
 30
0.0
 10
37.262153
 20
54.751111
 30
0.0
 10
36.962292
 20
54.592361
 30
0.0
 10
36.644792
 20
54.486528
 30
0.0
 10
36.547778
 20
54.786389
 30
0.0
 10
36.521319
 20
55.121528
 30
0.0
 10
36.512500
 20
55.447847
 30
0.0
 10
36.521319
 20
55.782986
 30
0.0
 10
36.530139
 20
56.109306
 30
0.0
 10
36.547778
 20
56.444444
 30
0.0
 10
36.556597
 20
56.779583
 30
0.0
 10
36.556597
 20
57.114722
 30
0.0
 10
36.512500
 20
57.441042
 30
0.0
 10
36.424306
 20
57.758542
 30
0.0
 10
36.265556
 20
58.058403
 30
0.0
 10
36.071528
 20
58.331806
 30
0.0
 10
35.859861
 20
58.587569
 30
0.0
 10
35.639375
 20
58.834514
 30
0.0
 10
35.427708
 20
59.081458
 30
0.0
 10
35.224861
 20
59.337222
 30
0.0
 10
35.039653
 20
59.601806
 30
0.0
 10
34.863264
 20
59.875208
 30
0.0
 10
34.713333
 20
60.166250
 30
0.0
 10
34.598681
 20
60.466111
 30
0.0
 10
34.519306
 20
60.783611
 30
0.0
 10
34.492847
 20
61.109931
 30
0.0
 10
34.519306
 20
61.427431
 30
0.0
 10
34.616319
 20
61.744931
 30
0.0
 10
34.766250
 20
62.027153
 30
0.0
 10
34.925000
 20
62.274097
 30
0.0
 10
35.066111
 20
62.529861
 30
0.0
 10
35.171944
 20
62.803264
 30
0.0
 10
34.889722
 20
62.953194
 30
0.0
 10
34.554583
 20
62.962014
 30
0.0
 10
34.554583
 20
62.962014
 30
0.0
  0
LWPOLYLINE
  5
108
100
AcDbEntity
  8
ink_ext_XXXXXX
 62
7
100
AcDbPolyline
 90
70
 70
0
 10
57.414583
 20
51.920069
 30
0.0
 10
57.079444
 20
51.911250
 30
0.0
 10
56.753125
 20
51.867153
 30
0.0
 10
56.426806
 20
51.778958
 30
0.0
 10
56.109306
 20
51.664306
 30
0.0
 10
55.800625
 20
51.532014
 30
0.0
 10
55.500764
 20
51.390903
 30
0.0
 10
55.183264
 20
51.223333
 30
0.0
 10
54.883403
 20
51.038125
 30
0.0
 10
54.601181
 20
50.835278
 30
0.0
 10
54.336597
 20
50.605972
 30
0.0
 10
54.098472
 20
50.341389
 30
0.0
 10
53.904444
 20
50.050347
 30
0.0
 10
53.754514
 20
49.732847
 30
0.0
 10
53.648681
 20
49.397708
 30
0.0
 10
53.578125
 20
49.044931
 30
0.0
 10
53.542847
 20
48.700972
 30
0.0
 10
53.516389
 20
48.348194
 30
0.0
 10
53.516389
 20
47.995417
 30
0.0
 10
53.507569
 20
47.651458
 30
0.0
 10
53.481111
 20
47.316319
 30
0.0
 10
53.445833
 20
46.972361
 30
0.0
 10
53.384097
 20
46.637222
 30
0.0
 10
53.313542
 20
46.302083
 30
0.0
 10
53.225347
 20
45.975764
 30
0.0
 10
53.101875
 20
45.658264
 30
0.0
 10
52.960764
 20
45.340764
 30
0.0
 10
52.828472
 20
45.076181
 30
0.0
 10
52.687361
 20
44.802778
 30
0.0
 10
52.555069
 20
44.538194
 30
0.0
 10
52.413958
 20
44.264792
 30
0.0
 10
52.713819
 20
44.326528
 30
0.0
 10
53.004861
 20
44.379444
 30
0.0
 10
53.304722
 20
44.441181
 30
0.0
 10
53.622222
 20
44.511736
 30
0.0
 10
53.939722
 20
44.599931
 30
0.0
 10
54.248403
 20
44.714583
 30
0.0
 10
54.539444
 20
44.855694
 30
0.0
 10
54.812847
 20
45.040903
 30
0.0
 10
55.050972
 20
45.270208
 30
0.0
 10
55.245000
 20
45.534792
 30
0.0
 10
55.403750
 20
45.817014
 30
0.0
 10
55.536042
 20
46.125694
 30
0.0
 10
55.641875
 20
46.434375
 30
0.0
 10
55.721250
 20
46.751875
 30
0.0
 10
55.800625
 20
47.069375
 30
0.0
 10
55.871181
 20
47.404514
 30
0.0
 10
55.950556
 20
47.730833
 30
0.0
 10
56.029931
 20
48.057153
 30
0.0
 10
56.126944
 20
48.383472
 30
0.0
 10
56.232778
 20
48.700972
 30
0.0
 10
56.347431
 20
49.018472
 30
0.0
 10
56.479722
 20
49.327153
 30
0.0
 10
56.638472
 20
49.627014
 30
0.0
 10
56.841319
 20
49.900417
 30
0.0
 10
57.079444
 20
50.129722
 30
0.0
 10
57.361667
 20
50.306111
 30
0.0
 10
57.679167
 20
50.411944
 30
0.0
 10
57.987847
 20
50.482500
 30
0.0
 10
58.296528
 20
50.553056
 30
0.0
 10
58.596389
 20
50.632431
 30
0.0
 10
58.896250
 20
50.738264
 30
0.0
 10
59.063819
 20
50.958750
 30
0.0
 10
58.869792
 20
51.205694
 30
0.0
 10
58.631667
 20
51.408542
 30
0.0
 10
58.358264
 20
51.602569
 30
0.0
 10
58.067222
 20
51.761319
 30
0.0
 10
57.749722
 20
51.867153
 30
0.0
 10
57.414583
 20
51.920069
 30
0.0
 10
57.414583
 20
51.920069
 30
0.0
  0
LWPOLYLINE
  5
109
100
AcDbEntity
  8
ink_ext_XXXXXX
 62
7
100
AcDbPolyline
 90
42
 70
0
 10
54.027917
 20
28.513264
 30
0.0
 10
53.692778
 20
28.451528
 30
0.0
 10
53.392917
 20
28.319236
 30
0.0
 10
53.154792
 20
28.081111
 30
0.0
 10
53.022500
 20
27.772431
 30
0.0
 10
53.004861
 20
27.437292
 30
0.0
 10
53.075417
 20
27.110972
 30
0.0
 10
53.207708
 20
26.802292
 30
0.0
 10
53.384097
 20
26.520069
 30
0.0
 10
53.595764
 20
26.255486
 30
0.0
 10
53.816250
 20
26.008542
 30
0.0
 10
54.054375
 20
25.788056
 30
0.0
 10
54.318958
 20
25.594028
 30
0.0
 10
54.592361
 20
25.426458
 30
0.0
 10
54.892222
 20
25.285347
 30
0.0
 10
55.200903
 20
25.188333
 30
0.0
 10
55.518403
 20
25.135417
 30
0.0
 10
55.844722
 20
25.135417
 30
0.0
 10
56.162222
 20
25.179514
 30
0.0
 10
56.470903
 20
25.267708
 30
0.0
 10
56.770764
 20
25.400000
 30
0.0
 10
57.044167
 20
25.567569
 30
0.0
 10
57.299931
 20
25.770417
 30
0.0
 10
57.529236
 20
25.982083
 30
0.0
 10
57.740903
 20
26.211389
 30
0.0
 10
57.926111
 20
26.458333
 30
0.0
 10
58.040764
 20
26.749375
 30
0.0
 10
57.970208
 20
27.040417
 30
0.0
 10
57.740903
 20
27.252083
 30
0.0
 10
57.467500
 20
27.402014
 30
0.0
 10
57.185278
 20
27.525486
 30
0.0
 10
56.876597
 20
27.640139
 30
0.0
 10
56.567917
 20
27.763611
 30
0.0
 10
56.259236
 20
27.887083
 30
0.0
 10
55.950556
 20
28.010556
 30
0.0
 10
55.641875
 20
28.134028
 30
0.0
 10
55.333194
 20
28.257500
 30
0.0
 10
55.015694
 20
28.372153
 30
0.0
 10
54.689375
 20
28.460347
 30
0.0
 10
54.363056
 20
28.513264
 30
0.0
 10
54.027917
 20
28.513264
 30
0.0
 10
54.027917
 20
28.513264
 30
0.0
  0
LWPOLYLINE
  5
10a
100
AcDbEntity
  8
ink_ext_XXXXXX
 62
7
100
AcDbPolyline
 90
67
 70
0
 10
30.691667
 20
65.210972
 30
0.0
 10
30.347708
 20
65.202153
 30
0.0
 10
30.003750
 20
65.184514
 30
0.0
 10
29.659792
 20
65.140417
 30
0.0
 10
29.324653
 20
65.078681
 30
0.0
 10
28.989514
 20
64.990486
 30
0.0
 10
28.663194
 20
64.884653
 30
0.0
 10
28.345694
 20
64.743542
 30
0.0
 10
28.037014
 20
64.584792
 30
0.0
 10
27.754792
 20
64.390764
 30
0.0
 10
27.490208
 20
64.170278
 30
0.0
 10
27.252083
 20
63.914514
 30
0.0
 10
27.040417
 20
63.641111
 30
0.0
 10
26.864028
 20
63.350069
 30
0.0
 10
26.705278
 20
63.041389
 30
0.0
 10
26.555347
 20
62.723889
 30
0.0
 10
26.396597
 20
62.415208
 30
0.0
 10
26.229028
 20
62.106528
 30
0.0
 10
26.043819
 20
61.797847
 30
0.0
 10
25.858611
 20
61.506806
 30
0.0
 10
25.655764
 20
61.215764
 30
0.0
 10
25.444097
 20
60.933542
 30
0.0
 10
25.250069
 20
60.686597
 30
0.0
 10
25.082500
 20
60.413194
 30
0.0
 10
24.932569
 20
60.130972
 30
0.0
 10
24.826736
 20
59.831111
 30
0.0
 10
24.747361
 20
59.522431
 30
0.0
 10
24.720903
 20
59.204931
 30
0.0
 10
24.773819
 20
58.887431
 30
0.0
 10
24.932569
 20
58.614028
 30
0.0
 10
25.205972
 20
58.693403
 30
0.0
 10
25.444097
 20
58.887431
 30
0.0
 10
25.664583
 20
59.099097
 30
0.0
 10
25.858611
 20
59.337222
 30
0.0
 10
26.026181
 20
59.592986
 30
0.0
 10
26.132014
 20
59.875208
 30
0.0
 10
26.343681
 20
60.095694
 30
0.0
 10
26.608264
 20
60.254444
 30
0.0
 10
26.890486
 20
60.377917
 30
0.0
 10
27.181528
 20
60.492569
 30
0.0
 10
27.481389
 20
60.589583
 30
0.0
 10
27.781250
 20
60.660139
 30
0.0
 10
28.089931
 20
60.695417
 30
0.0
 10
28.425069
 20
60.739514
 30
0.0
 10
28.751389
 20
60.862986
 30
0.0
 10
29.042431
 20
61.030556
 30
0.0
 10
29.315833
 20
61.242222
 30
0.0
 10
29.553958
 20
61.489167
 30
0.0
 10
29.765625
 20
61.762569
 30
0.0
 10
29.933194
 20
62.062431
 30
0.0
 10
30.047847
 20
62.379931
 30
0.0
 10
30.091944
 20
62.723889
 30
0.0
 10
30.118403
 20
63.041389
 30
0.0
 10
30.206597
 20
63.358889
 30
0.0
 10
30.347708
 20
63.649931
 30
0.0
 10
30.524097
 20
63.914514
 30
0.0
 10
30.735764
 20
64.161458
 30
0.0
 10
30.965069
 20
64.390764
 30
0.0
 10
31.185556
 20
64.602431
 30
0.0
 10
31.406042
 20
64.805278
 30
0.0
 10
31.626528
 20
65.008125
 30
0.0
 10
31.847014
 20
65.210972
 30
0.0
 10
31.555972
 20
65.210972
 30
0.0
 10
31.264931
 20
65.210972
 30
0.0
 10
30.982708
 20
65.210972
 30
0.0
 10
30.691667
 20
65.210972
 30
0.0
 10
30.691667
 20
65.210972
 30
0.0
  0
LWPOLYLINE
  5
10b
100
AcDbEntity
  8
ink_ext_XXXXXX
 62
7
100
AcDbPolyline
 90
24
 70
0
 10
39.705139
 20
64.055625
 30
0.0
 10
39.449375
 20
63.888056
 30
0.0
 10
39.237708
 20
63.676389
 30
0.0
 10
39.061319
 20
63.438264
 30
0.0
 10
38.911389
 20
63.173681
 30
0.0
 10
38.787917
 20
62.891458
 30
0.0
 10
38.717361
 20
62.600417
 30
0.0
 10
38.699722
 20
62.300556
 30
0.0
 10
38.743819
 20
62.000694
 30
0.0
 10
38.832014
 20
61.709653
 30
0.0
 10
38.973125
 20
61.392153
 30
0.0
 10
39.167153
 20
61.101111
 30
0.0
 10
39.475833
 20
61.065833
 30
0.0
 10
39.616944
 20
61.383333
 30
0.0
 10
39.669861
 20
61.736111
 30
0.0
 10
39.687500
 20
62.088889
 30
0.0
 10
39.696319
 20
62.406389
 30
0.0
 10
39.713958
 20
62.723889
 30
0.0
 10
39.749236
 20
63.050208
 30
0.0
 10
39.793333
 20
63.367708
 30
0.0
 10
39.872708
 20
63.676389
 30
0.0
 10
39.934444
 20
63.967431
 30
0.0
 10
39.705139
 20
64.055625
 30
0.0
 10
39.705139
 20
64.055625
 30
0.0
  0
ENDSEC
  0
SECTION
  2
OBJECTS
  0
DICTIONARY
  5
C
330
0
100
AcDbDictionary
  3
ACAD_GROUP
350
D
  3
ACAD_MLINESTYLE
350
17
  0
DICTIONARY
  5
D
330
C
100
AcDbDictionary
  0
DICTIONARY
  5
1A
330
C
100
AcDbDictionary
  0
DICTIONARY
  5
17
330
C
100
AcDbDictionary
  3
STANDARD
350
18
  0
DICTIONARY
  5
19
330
C
100
AcDbDictionary
  0
ENDSEC
  0
EOF
