  0
SECTION
  2
HEADER
  9
$ACADVER
  1
AC1014
  9
$HANDSEED
  5
FFFF
  9
$MEASUREMENT
 70
     1
  0
ENDSEC
  0
SECTION
  2
TABLES
  0
TABLE
  2
VPORT
  5
8
330
0
100
AcDbSymbolTable
 70
     4
  0
VPORT
  5
2E
330
8
100
AcDbSymbolTableRecord
100
AcDbViewportTableRecord
  2
*ACTIVE
 70
     0
 10
0.0
 20
0.0
 11
1.0
 21
1.0
 12
210.0
 22
148.5
 13
0.0
 23
0.0
 14
10.0
 24
10.0
 15
10.0
 25
10.0
 16
0.0
 26
0.0
 36
1.0
 17
0.0
 27
0.0
 37
0.0
 40
341.0
 41
1.24
 42
50.0
 43
0.0
 44
0.0
 50
0.0
 51
0.0
 71
     0
 72
   100
 73
     1
 74
     3
 75
     0
 76
     0
 77
     0
 78
     0
  0
ENDTAB
  0
TABLE
  2
LTYPE
  5
5
330
0
100
AcDbSymbolTable
 70
     1
  0
LTYPE
  5
14
330
5
100
AcDbSymbolTableRecord
100
AcDbLinetypeTableRecord
  2
BYBLOCK
 70
     0
  3

 72
    65
 73
     0
 40
0.0
  0
LTYPE
  5
15
330
5
100
AcDbSymbolTableRecord
100
AcDbLinetypeTableRecord
  2
BYLAYER
 70
     0
  3

 72
    65
 73
     0
 40
0.0
  0
LTYPE
  5
16
330
5
100
AcDbSymbolTableRecord
100
AcDbLinetypeTableRecord
  2
CONTINUOUS
 70
     0
  3
Solid line
 72
    65
 73
     0
 40
0.0
  0
ENDTAB
  0
TABLE
  2
LAYER
  5
2
100
AcDbSymbolTable
 70
2
  0
LAYER
  5
50
100
AcDbSymbolTableRecord
100
AcDbLayerTableRecord
  2
0
 70
0
  6
CONTINUOUS
  0
LAYER
  5
51
100
AcDbSymbolTableRecord
100
AcDbLayerTableRecord
  2
ink_ext_XXXXXX
 70
0
  6
CONTINUOUS
  0
ENDTAB
  0
TABLE
  2
STYLE
  5
3
330
0
100
AcDbSymbolTable
 70
     1
  0
STYLE
  5
11
330
3
100
AcDbSymbolTableRecord
100
AcDbTextStyleTableRecord
  2
STANDARD
 70
     0
 40
0.0
 41
1.0
 50
0.0
 71
     0
 42
2.5
  3
txt
  4

  0
ENDTAB
  0
TABLE
  2
VIEW
  5
6
330
0
100
AcDbSymbolTable
 70
     0
  0
ENDTAB
  0
TABLE
  2
UCS
  5
7
330
0
100
AcDbSymbolTable
 70
     0
  0
ENDTAB
  0
TABLE
  2
APPID
  5
9
330
0
100
AcDbSymbolTable
 70
     2
  0
APPID
  5
12
330
9
100
AcDbSymbolTableRecord
100
AcDbRegAppTableRecord
  2
ACAD
 70
     0
  0
ENDTAB
  0
TABLE
  2
DIMSTYLE
  5
A
330
0
100
AcDbSymbolTable
 70
     1
  0
DIMSTYLE
105
27
330
A
100
AcDbSymbolTableRecord
100
AcDbDimStyleTableRecord
  2
ISO-25
 70
     0
  3

  4

  5

  6

  7

 40
1.0
 41
2.5
 42
0.625
 43
3.75
 44
1.25
 45
0.0
 46
0.0
 47
0.0
 48
0.0
140
2.5
141
2.5
142
0.0
143
0.03937007874016
144
1.0
145
0.0
146
1.0
147
0.625
 71
     0
 72
     0
 73
     0
 74
     0
 75
     0
 76
     0
 77
     1
 78
     8
170
     0
171
     3
172
     1
173
     0
174
     0
175
     0
176
     0
177
     0
178
     0
270
     2
271
     2
272
     2
273
     2
274
     3
340
11
275
     0
280
     0
281
     0
282
     0
283
     0
284
     8
285
     0
286
     0
287
     3
288
     0
  0
ENDTAB
  0
TABLE
  2
BLOCK_RECORD
  5
1
330
0
100
AcDbSymbolTable
 70
     1
  0
BLOCK_RECORD
  5
1F
330
1
100
AcDbSymbolTableRecord
100
AcDbBlockTableRecord
  2
*MODEL_SPACE
  0
BLOCK_RECORD
  5
1B
330
1
100
AcDbSymbolTableRecord
100
AcDbBlockTableRecord
  2
*PAPER_SPACE
  0
ENDTAB
  0
ENDSEC
  0
SECTION
  2
BLOCKS
  0
BLOCK
  5
20
330
1F
100
AcDbEntity
  8
0
100
AcDbBlockBegin
  2
*MODEL_SPACE
 70
     0
 10
0.0
 20
0.0
 30
0.0
  3
*MODEL_SPACE
  1

  0
ENDBLK
  5
21
330
1F
100
AcDbEntity
  8
0
100
AcDbBlockEnd
  0
BLOCK
  5
1C
330
1B
100
AcDbEntity
 67
     1
  8
0
100
AcDbBlockBegin
  2
*PAPER_SPACE
  1

  0
ENDBLK
  5
1D
330
1B
100
AcDbEntity
 67
     1
  8
0
100
AcDbBlockEnd
  0
ENDSEC
  0
SECTION
  2
ENTITIES
  0
LWPOLYLINE
  5
100
100
AcDbEntity
  8
ink_ext_XXXXXX
 62
7
100
AcDbPolyline
 90
478
 70
0
 10
10.779498
 20
18.286878
 30
0.0
 10
16.292735
 20
18.276587
 30
0.0
 10
16.292735
 20
18.284301
 30
0.0
 10
16.292735
 20
18.384635
 30
0.0
 10
16.292735
 20
18.487542
 30
0.0
 10
16.292735
 20
18.590449
 30
0.0
 10
16.295304
 20
18.693356
 30
0.0
 10
16.295304
 20
18.793690
 30
0.0
 10
16.295304
 20
18.896597
 30
0.0
 10
16.295304
 20
18.999504
 30
0.0
 10
16.297872
 20
19.102411
 30
0.0
 10
16.297872
 20
19.202745
 30
0.0
 10
16.297872
 20
19.305652
 30
0.0
 10
16.297872
 20
19.408559
 30
0.0
 10
16.300441
 20
19.508893
 30
0.0
 10
16.300441
 20
19.611800
 30
0.0
 10
16.300441
 20
19.714707
 30
0.0
 10
16.303009
 20
19.817614
 30
0.0
 10
16.303009
 20
19.917948
 30
0.0
 10
16.303009
 20
20.020855
 30
0.0
 10
16.305578
 20
20.123762
 30
0.0
 10
16.305578
 20
20.224096
 30
0.0
 10
16.305578
 20
20.327003
 30
0.0
 10
16.308146
 20
20.429910
 30
0.0
 10
16.308146
 20
20.532817
 30
0.0
 10
16.308146
 20
20.633151
 30
0.0
 10
16.310715
 20
20.736058
 30
0.0
 10
16.310715
 20
20.838965
 30
0.0
 10
16.313283
 20
20.941872
 30
0.0
 10
16.313283
 20
21.042206
 30
0.0
 10
16.313283
 20
21.145113
 30
0.0
 10
16.315852
 20
21.248020
 30
0.0
 10
16.315852
 20
21.348354
 30
0.0
 10
16.318421
 20
21.451261
 30
0.0
 10
16.318421
 20
21.554168
 30
0.0
 10
16.318421
 20
21.657075
 30
0.0
 10
16.320989
 20
21.757409
 30
0.0
 10
16.320989
 20
21.860316
 30
0.0
 10
16.323558
 20
21.963223
 30
0.0
 10
16.323558
 20
22.063557
 30
0.0
 10
16.326126
 20
22.166464
 30
0.0
 10
16.326126
 20
22.269371
 30
0.0
 10
16.328695
 20
22.372278
 30
0.0
 10
16.331263
 20
22.472612
 30
0.0
 10
16.331263
 20
22.575519
 30
0.0
 10
16.333832
 20
22.678426
 30
0.0
 10
16.333832
 20
22.778760
 30
0.0
 10
16.336400
 20
22.881667
 30
0.0
 10
16.338969
 20
22.984574
 30
0.0
 10
16.338969
 20
23.087481
 30
0.0
 10
16.341538
 20
23.187815
 30
0.0
 10
16.344106
 20
23.290722
 30
0.0
 10
16.346675
 20
23.393629
 30
0.0
 10
16.349243
 20
23.493963
 30
0.0
 10
16.351812
 20
23.596870
 30
0.0
 10
16.354380
 20
23.699777
 30
0.0
 10
16.356949
 20
23.802684
 30
0.0
 10
16.362094
 20
23.903018
 30
0.0
 10
16.364663
 20
24.005925
 30
0.0
 10
16.374954
 20
24.108832
 30
0.0
 10
16.387817
 20
24.209166
 30
0.0
 10
16.403253
 20
24.306927
 30
0.0
 10
16.421262
 20
24.407262
 30
0.0
 10
16.439270
 20
24.507596
 30
0.0
 10
16.457279
 20
24.607930
 30
0.0
 10
16.477860
 20
24.705692
 30
0.0
 10
16.501014
 20
24.806026
 30
0.0
 10
16.524169
 20
24.903787
 30
0.0
 10
16.547323
 20
25.001549
 30
0.0
 10
16.575622
 20
25.099311
 30
0.0
 10
16.603921
 20
25.197072
 30
0.0
 10
16.634793
 20
25.292261
 30
0.0
 10
16.665666
 20
25.390023
 30
0.0
 10
16.701683
 20
25.485211
 30
0.0
 10
16.737700
 20
25.577828
 30
0.0
 10
16.776290
 20
25.670444
 30
0.0
 10
16.820026
 20
25.763060
 30
0.0
 10
16.863761
 20
25.855676
 30
0.0
 10
16.910069
 20
25.943147
 30
0.0
 10
16.961523
 20
26.033191
 30
0.0
 10
17.015549
 20
26.118089
 30
0.0
 10
17.072148
 20
26.200414
 30
0.0
 10
17.131319
 20
26.282740
 30
0.0
 10
17.195636
 20
26.359920
 30
0.0
 10
17.265098
 20
26.437100
 30
0.0
 10
17.334560
 20
26.506562
 30
0.0
 10
17.411741
 20
26.576025
 30
0.0
 10
17.488921
 20
26.637769
 30
0.0
 10
17.571246
 20
26.696940
 30
0.0
 10
17.658717
 20
26.750966
 30
0.0
 10
17.741043
 20
26.799847
 30
0.0
 10
17.825941
 20
26.843583
 30
0.0
 10
17.913412
 20
26.884745
 30
0.0
 10
18.003455
 20
26.918190
 30
0.0
 10
18.098644
 20
26.943917
 30
0.0
 10
18.191260
 20
26.961925
 30
0.0
 10
18.289022
 20
26.972216
 30
0.0
 10
18.384211
 20
26.977361
 30
0.0
 10
18.479400
 20
26.982507
 30
0.0
 10
18.577161
 20
26.982507
 30
0.0
 10
18.672350
 20
26.982507
 30
0.0
 10
18.772684
 20
26.982507
 30
0.0
 10
18.870446
 20
26.977361
 30
0.0
 10
18.968207
 20
26.972216
 30
0.0
 10
19.065969
 20
26.961925
 30
0.0
 10
19.163731
 20
26.949062
 30
0.0
 10
19.261492
 20
26.931053
 30
0.0
 10
19.359254
 20
26.910472
 30
0.0
 10
19.454443
 20
26.882173
 30
0.0
 10
19.547059
 20
26.853873
 30
0.0
 10
19.639675
 20
26.817856
 30
0.0
 10
19.729718
 20
26.776693
 30
0.0
 10
19.817189
 20
26.730385
 30
0.0
 10
19.902088
 20
26.681504
 30
0.0
 10
19.986986
 20
26.630051
 30
0.0
 10
20.066739
 20
26.573452
 30
0.0
 10
20.146491
 20
26.511708
 30
0.0
 10
20.221099
 20
26.449964
 30
0.0
 10
20.295706
 20
26.385647
 30
0.0
 10
20.367741
 20
26.318757
 30
0.0
 10
20.439776
 20
26.249295
 30
0.0
 10
20.509238
 20
26.179833
 30
0.0
 10
20.578700
 20
26.107798
 30
0.0
 10
20.645590
 20
26.030618
 30
0.0
 10
20.712479
 20
25.956011
 30
0.0
 10
20.776796
 20
25.878830
 30
0.0
 10
20.838540
 20
25.799077
 30
0.0
 10
20.897712
 20
25.719325
 30
0.0
 10
20.956883
 20
25.636999
 30
0.0
 10
21.016055
 20
25.554674
 30
0.0
 10
21.072654
 20
25.472348
 30
0.0
 10
21.126680
 20
25.387450
 30
0.0
 10
21.180706
 20
25.302552
 30
0.0
 10
21.232159
 20
25.215081
 30
0.0
 10
21.281040
 20
25.130183
 30
0.0
 10
21.329921
 20
25.042712
 30
0.0
 10
21.378802
 20
24.952668
 30
0.0
 10
21.425110
 20
24.865197
 30
0.0
 10
21.471418
 20
24.775154
 30
0.0
 10
21.515153
 20
24.682538
 30
0.0
 10
21.558889
 20
24.592494
 30
0.0
 10
21.600051
 20
24.502451
 30
0.0
 10
21.641214
 20
24.409834
 30
0.0
 10
21.679804
 20
24.317218
 30
0.0
 10
21.718394
 20
24.224602
 30
0.0
 10
21.754412
 20
24.129413
 30
0.0
 10
21.790429
 20
24.036797
 30
0.0
 10
21.826447
 20
23.941608
 30
0.0
 10
21.859891
 20
23.846419
 30
0.0
 10
21.893336
 20
23.751230
 30
0.0
 10
21.924208
 20
23.656041
 30
0.0
 10
21.955080
 20
23.560852
 30
0.0
 10
21.985952
 20
23.465664
 30
0.0
 10
22.014252
 20
23.367902
 30
0.0
 10
22.039978
 20
23.272713
 30
0.0
 10
22.068278
 20
23.174952
 30
0.0
 10
22.094005
 20
23.077190
 30
0.0
 10
22.119731
 20
22.979428
 30
0.0
 10
22.142885
 20
22.881667
 30
0.0
 10
22.166039
 20
22.783905
 30
0.0
 10
22.186621
 20
22.686144
 30
0.0
 10
22.207202
 20
22.588382
 30
0.0
 10
22.227783
 20
22.490621
 30
0.0
 10
22.248365
 20
22.390286
 30
0.0
 10
22.266374
 20
22.292525
 30
0.0
 10
22.281810
 20
22.192191
 30
0.0
 10
22.297246
 20
22.089284
 30
0.0
 10
22.312682
 20
21.988949
 30
0.0
 10
22.325545
 20
21.888615
 30
0.0
 10
22.338408
 20
21.785708
 30
0.0
 10
22.348699
 20
21.685374
 30
0.0
 10
22.358990
 20
21.582467
 30
0.0
 10
22.366704
 20
21.479560
 30
0.0
 10
22.374418
 20
21.379226
 30
0.0
 10
22.382131
 20
21.276319
 30
0.0
 10
22.389845
 20
21.173412
 30
0.0
 10
22.394991
 20
21.073078
 30
0.0
 10
22.400136
 20
20.970171
 30
0.0
 10
22.405281
 20
20.867264
 30
0.0
 10
22.410427
 20
20.766930
 30
0.0
 10
22.412995
 20
20.664023
 30
0.0
 10
22.415564
 20
20.561116
 30
0.0
 10
22.418132
 20
20.458209
 30
0.0
 10
22.420701
 20
20.357875
 30
0.0
 10
22.420701
 20
20.254968
 30
0.0
 10
22.423270
 20
20.152061
 30
0.0
 10
22.423270
 20
20.049154
 30
0.0
 10
22.423270
 20
19.948820
 30
0.0
 10
22.420701
 20
19.845913
 30
0.0
 10
22.420701
 20
19.743006
 30
0.0
 10
22.418132
 20
19.640099
 30
0.0
 10
22.415564
 20
19.539765
 30
0.0
 10
22.412995
 20
19.436858
 30
0.0
 10
22.410427
 20
19.333951
 30
0.0
 10
22.405281
 20
19.231045
 30
0.0
 10
22.402713
 20
19.130710
 30
0.0
 10
22.397568
 20
19.027803
 30
0.0
 10
22.392422
 20
18.924897
 30
0.0
 10
22.384708
 20
18.824562
 30
0.0
 10
22.376994
 20
18.721655
 30
0.0
 10
22.371849
 20
18.618748
 30
0.0
 10
22.361558
 20
18.518414
 30
0.0
 10
22.353844
 20
18.415507
 30
0.0
 10
22.343554
 20
18.312600
 30
0.0
 10
22.338408
 20
18.266292
 30
0.0
 10
23.784250
 20
18.263724
 30
0.0
 10
23.791964
 20
18.348622
 30
0.0
 10
23.802255
 20
18.451529
 30
0.0
 10
23.812546
 20
18.554436
 30
0.0
 10
23.820260
 20
18.654770
 30
0.0
 10
23.827973
 20
18.757677
 30
0.0
 10
23.835687
 20
18.860584
 30
0.0
 10
23.843401
 20
18.963491
 30
0.0
 10
23.851115
 20
19.066398
 30
0.0
 10
23.856261
 20
19.169305
 30
0.0
 10
23.861406
 20
19.272211
 30
0.0
 10
23.866551
 20
19.375118
 30
0.0
 10
23.871697
 20
19.475453
 30
0.0
 10
23.874265
 20
19.578359
 30
0.0
 10
23.879410
 20
19.681266
 30
0.0
 10
23.881979
 20
19.784173
 30
0.0
 10
23.884548
 20
19.887080
 30
0.0
 10
23.884548
 20
19.989987
 30
0.0
 10
23.887116
 20
20.092894
 30
0.0
 10
23.887116
 20
20.195801
 30
0.0
 10
23.887116
 20
20.298708
 30
0.0
 10
23.887116
 20
20.401615
 30
0.0
 10
23.887116
 20
20.504522
 30
0.0
 10
23.884548
 20
20.607428
 30
0.0
 10
23.881979
 20
20.707763
 30
0.0
 10
23.879410
 20
20.810670
 30
0.0
 10
23.876842
 20
20.913576
 30
0.0
 10
23.871697
 20
21.016483
 30
0.0
 10
23.866551
 20
21.119390
 30
0.0
 10
23.861406
 20
21.222297
 30
0.0
 10
23.853692
 20
21.325204
 30
0.0
 10
23.848547
 20
21.428111
 30
0.0
 10
23.840833
 20
21.531018
 30
0.0
 10
23.833119
 20
21.631352
 30
0.0
 10
23.822828
 20
21.734259
 30
0.0
 10
23.812537
 20
21.837166
 30
0.0
 10
23.802247
 20
21.940073
 30
0.0
 10
23.791956
 20
22.040407
 30
0.0
 10
23.779093
 20
22.143314
 30
0.0
 10
23.766229
 20
22.246221
 30
0.0
 10
23.753366
 20
22.346555
 30
0.0
 10
23.737930
 20
22.449462
 30
0.0
 10
23.722494
 20
22.549796
 30
0.0
 10
23.707058
 20
22.652703
 30
0.0
 10
23.691622
 20
22.753037
 30
0.0
 10
23.673613
 20
22.853372
 30
0.0
 10
23.653032
 20
22.956278
 30
0.0
 10
23.635023
 20
23.056613
 30
0.0
 10
23.614442
 20
23.156947
 30
0.0
 10
23.593860
 20
23.257281
 30
0.0
 10
23.570706
 20
23.357615
 30
0.0
 10
23.547552
 20
23.457950
 30
0.0
 10
23.521825
 20
23.558284
 30
0.0
 10
23.498671
 20
23.656045
 30
0.0
 10
23.470372
 20
23.756380
 30
0.0
 10
23.444645
 20
23.854141
 30
0.0
 10
23.416346
 20
23.954475
 30
0.0
 10
23.385474
 20
24.052237
 30
0.0
 10
23.354602
 20
24.149999
 30
0.0
 10
23.323730
 20
24.247760
 30
0.0
 10
23.290285
 20
24.345522
 30
0.0
 10
23.256840
 20
24.443283
 30
0.0
 10
23.223395
 20
24.538472
 30
0.0
 10
23.187378
 20
24.636234
 30
0.0
 10
23.148788
 20
24.731423
 30
0.0
 10
23.110198
 20
24.826611
 30
0.0
 10
23.071608
 20
24.921800
 30
0.0
 10
23.030445
 20
25.014416
 30
0.0
 10
22.986710
 20
25.109605
 30
0.0
 10
22.945547
 20
25.202222
 30
0.0
 10
22.899239
 20
25.294838
 30
0.0
 10
22.852931
 20
25.387454
 30
0.0
 10
22.806622
 20
25.477498
 30
0.0
 10
22.757742
 20
25.567541
 30
0.0
 10
22.706288
 20
25.657585
 30
0.0
 10
22.654835
 20
25.747628
 30
0.0
 10
22.603381
 20
25.835099
 30
0.0
 10
22.549355
 20
25.922570
 30
0.0
 10
22.492756
 20
26.007468
 30
0.0
 10
22.436158
 20
26.094939
 30
0.0
 10
22.379559
 20
26.179837
 30
0.0
 10
22.317815
 20
26.262163
 30
0.0
 10
22.258643
 20
26.344488
 30
0.0
 10
22.196899
 20
26.426814
 30
0.0
 10
22.132582
 20
26.506567
 30
0.0
 10
22.070838
 20
26.586319
 30
0.0
 10
22.003949
 20
26.663500
 30
0.0
 10
21.939751
 20
26.740680
 30
0.0
 10
21.870289
 20
26.817860
 30
0.0
 10
21.803400
 20
26.892467
 30
0.0
 10
21.733937
 20
26.967075
 30
0.0
 10
21.661903
 20
27.041682
 30
0.0
 10
21.589868
 20
27.113717
 30
0.0
 10
21.517833
 20
27.183179
 30
0.0
 10
21.443225
 20
27.252642
 30
0.0
 10
21.366045
 20
27.322104
 30
0.0
 10
21.291438
 20
27.388993
 30
0.0
 10
21.211685
 20
27.453310
 30
0.0
 10
21.131932
 20
27.517627
 30
0.0
 10
21.052179
 20
27.579371
 30
0.0
 10
20.969854
 20
27.641115
 30
0.0
 10
20.887528
 20
27.697714
 30
0.0
 10
20.802630
 20
27.756885
 30
0.0
 10
20.717732
 20
27.810912
 30
0.0
 10
20.632834
 20
27.864938
 30
0.0
 10
20.542790
 20
27.916391
 30
0.0
 10
20.455319
 20
27.967845
 30
0.0
 10
20.365276
 20
28.016725
 30
0.0
 10
20.275232
 20
28.063033
 30
0.0
 10
20.182616
 20
28.106769
 30
0.0
 10
20.090000
 20
28.147932
 30
0.0
 10
19.997383
 20
28.189094
 30
0.0
 10
19.902195
 20
28.227684
 30
0.0
 10
19.807006
 20
28.263702
 30
0.0
 10
19.711817
 20
28.297147
 30
0.0
 10
19.614055
 20
28.328019
 30
0.0
 10
19.516294
 20
28.358891
 30
0.0
 10
19.418532
 20
28.387190
 30
0.0
 10
19.320771
 20
28.412917
 30
0.0
 10
19.223009
 20
28.436071
 30
0.0
 10
19.122675
 20
28.456652
 30
0.0
 10
19.022341
 20
28.477234
 30
0.0
 10
18.922006
 20
28.495242
 30
0.0
 10
18.821672
 20
28.510678
 30
0.0
 10
18.721338
 20
28.523542
 30
0.0
 10
18.618431
 20
28.536405
 30
0.0
 10
18.518097
 20
28.546696
 30
0.0
 10
18.417763
 20
28.554414
 30
0.0
 10
18.314856
 20
28.562132
 30
0.0
 10
18.214521
 20
28.567277
 30
0.0
 10
18.111614
 20
28.569850
 30
0.0
 10
18.008708
 20
28.572423
 30
0.0
 10
17.908373
 20
28.569850
 30
0.0
 10
17.805466
 20
28.569850
 30
0.0
 10
17.705132
 20
28.567277
 30
0.0
 10
17.602225
 20
28.562132
 30
0.0
 10
17.501891
 20
28.556987
 30
0.0
 10
17.401557
 20
28.549269
 30
0.0
 10
17.301223
 20
28.541550
 30
0.0
 10
17.198316
 20
28.531260
 30
0.0
 10
17.097982
 20
28.520969
 30
0.0
 10
16.997647
 20
28.510678
 30
0.0
 10
16.897313
 20
28.497815
 30
0.0
 10
16.796979
 20
28.482379
 30
0.0
 10
16.696645
 20
28.466943
 30
0.0
 10
16.598883
 20
28.451507
 30
0.0
 10
16.498549
 20
28.430926
 30
0.0
 10
16.398215
 20
28.412917
 30
0.0
 10
16.300453
 20
28.389763
 30
0.0
 10
16.202691
 20
28.366609
 30
0.0
 10
16.104930
 20
28.343455
 30
0.0
 10
16.007168
 20
28.317728
 30
0.0
 10
15.909407
 20
28.289429
 30
0.0
 10
15.811645
 20
28.258557
 30
0.0
 10
15.716456
 20
28.227684
 30
0.0
 10
15.621268
 20
28.194240
 30
0.0
 10
15.526079
 20
28.160795
 30
0.0
 10
15.430890
 20
28.124778
 30
0.0
 10
15.338274
 20
28.086187
 30
0.0
 10
15.243085
 20
28.047597
 30
0.0
 10
15.153041
 20
28.003862
 30
0.0
 10
15.060425
 20
27.962699
 30
0.0
 10
14.970381
 20
27.916391
 30
0.0
 10
14.880338
 20
27.870083
 30
0.0
 10
14.790294
 20
27.821202
 30
0.0
 10
14.702823
 20
27.772321
 30
0.0
 10
14.615353
 20
27.720868
 30
0.0
 10
14.530454
 20
27.666842
 30
0.0
 10
14.445556
 20
27.612816
 30
0.0
 10
14.360658
 20
27.558790
 30
0.0
 10
14.275760
 20
27.499618
 30
0.0
 10
14.193434
 20
27.443019
 30
0.0
 10
14.111109
 20
27.383848
 30
0.0
 10
14.031356
 20
27.322104
 30
0.0
 10
13.951603
 20
27.260360
 30
0.0
 10
13.871850
 20
27.196043
 30
0.0
 10
13.794670
 20
27.131726
 30
0.0
 10
13.717490
 20
27.067409
 30
0.0
 10
13.640310
 20
27.000520
 30
0.0
 10
13.565702
 20
26.933630
 30
0.0
 10
13.491095
 20
26.864168
 30
0.0
 10
13.416487
 20
26.797279
 30
0.0
 10
13.344452
 20
26.725244
 30
0.0
 10
13.269845
 20
26.655782
 30
0.0
 10
13.197810
 20
26.583747
 30
0.0
 10
13.125775
 20
26.509139
 30
0.0
 10
13.056313
 20
26.437104
 30
0.0
 10
12.986851
 20
26.359924
 30
0.0
 10
12.917389
 20
26.285317
 30
0.0
 10
12.850499
 20
26.208137
 30
0.0
 10
12.783610
 20
26.130956
 30
0.0
 10
12.716720
 20
26.051204
 30
0.0
 10
12.652403
 20
25.971451
 30
0.0
 10
12.590659
 20
25.891698
 30
0.0
 10
12.528915
 20
25.809372
 30
0.0
 10
12.467171
 20
25.727047
 30
0.0
 10
12.408000
 20
25.642149
 30
0.0
 10
12.348828
 20
25.557250
 30
0.0
 10
12.292229
 20
25.472352
 30
0.0
 10
12.238203
 20
25.387454
 30
0.0
 10
12.184177
 20
25.299983
 30
0.0
 10
12.130151
 20
25.212512
 30
0.0
 10
12.078697
 20
25.125041
 30
0.0
 10
12.027244
 20
25.034998
 30
0.0
 10
11.978363
 20
24.944954
 30
0.0
 10
11.929482
 20
24.854911
 30
0.0
 10
11.883174
 20
24.762295
 30
0.0
 10
11.839439
 20
24.669678
 30
0.0
 10
11.795703
 20
24.577062
 30
0.0
 10
11.751968
 20
24.484446
 30
0.0
 10
11.710805
 20
24.391830
 30
0.0
 10
11.669643
 20
24.296641
 30
0.0
 10
11.631052
 20
24.201452
 30
0.0
 10
11.592462
 20
24.106263
 30
0.0
 10
11.556445
 20
24.011074
 30
0.0
 10
11.520428
 20
23.915885
 30
0.0
 10
11.484410
 20
23.818124
 30
0.0
 10
11.450965
 20
23.722935
 30
0.0
 10
11.417521
 20
23.625173
 30
0.0
 10
11.386649
 20
23.527412
 30
0.0
 10
11.355776
 20
23.429650
 30
0.0
 10
11.327477
 20
23.331889
 30
0.0
 10
11.296605
 20
23.234127
 30
0.0
 10
11.268306
 20
23.133793
 30
0.0
 10
11.242579
 20
23.036031
 30
0.0
 10
11.216852
 20
22.935697
 30
0.0
 10
11.191125
 20
22.837936
 30
0.0
 10
11.165399
 20
22.737601
 30
0.0
 10
11.142245
 20
22.637267
 30
0.0
 10
11.119091
 20
22.539506
 30
0.0
 10
11.095937
 20
22.439171
 30
0.0
 10
11.072782
 20
22.338837
 30
0.0
 10
11.052201
 20
22.238503
 30
0.0
 10
11.031620
 20
22.135596
 30
0.0
 10
11.011038
 20
22.035262
 30
0.0
 10
10.993030
 20
21.934927
 30
0.0
 10
10.975021
 20
21.834593
 30
0.0
 10
10.959585
 20
21.731686
 30
0.0
 10
10.944149
 20
21.631352
 30
0.0
 10
10.928713
 20
21.528445
 30
0.0
 10
10.915849
 20
21.428111
 30
0.0
 10
10.905559
 20
21.325204
 30
0.0
 10
10.892695
 20
21.222297
 30
0.0
 10
10.882405
 20
21.119390
 30
0.0
 10
10.874691
 20
21.019056
 30
0.0
 10
10.866977
 20
20.916149
 30
0.0
 10
10.856686
 20
20.813242
 30
0.0
 10
10.851541
 20
20.710335
 30
0.0
 10
10.843827
 20
20.607428
 30
0.0
 10
10.838682
 20
20.504522
 30
0.0
 10
10.833536
 20
20.404187
 30
0.0
 10
10.828391
 20
20.301280
 30
0.0
 10
10.823246
 20
20.198374
 30
0.0
 10
10.818100
 20
20.095467
 30
0.0
 10
10.815532
 20
19.992560
 30
0.0
 10
10.810386
 20
19.889653
 30
0.0
 10
10.807818
 20
19.786746
 30
0.0
 10
10.805249
 20
19.683839
 30
0.0
 10
10.802681
 20
19.580932
 30
0.0
 10
10.800112
 20
19.478025
 30
0.0
 10
10.797544
 20
19.375118
 30
0.0
 10
10.794975
 20
19.272211
 30
0.0
 10
10.792406
 20
19.169305
 30
0.0
 10
10.789838
 20
19.068970
 30
0.0
 10
10.789838
 20
18.966063
 30
0.0
 10
10.787269
 20
18.863156
 30
0.0
 10
10.784701
 20
18.760250
 30
0.0
 10
10.784701
 20
18.657343
 30
0.0
 10
10.782132
 20
18.554436
 30
0.0
 10
10.782132
 20
18.451529
 30
0.0
 10
10.779564
 20
18.348622
 30
0.0
 10
10.779564
 20
18.286878
 30
0.0
 10
10.779498
 20
18.286878
 30
0.0
  0
LWPOLYLINE
  5
101
100
AcDbEntity
  8
ink_ext_XXXXXX
 62
7
100
AcDbPolyline
 90
1178
 70
0
 10
6.755838
 20
28.574995
 30
0.0
 10
6.652931
 20
28.572423
 30
0.0
 10
6.550024
 20
28.567277
 30
0.0
 10
6.447117
 20
28.559559
 30
0.0
 10
6.346783
 20
28.551841
 30
0.0
 10
6.243876
 20
28.541550
 30
0.0
 10
6.143542
 20
28.528687
 30
0.0
 10
6.040635
 20
28.515824
 30
0.0
 10
5.940301
 20
28.500388
 30
0.0
 10
5.839967
 20
28.482379
 30
0.0
 10
5.737060
 20
28.461798
 30
0.0
 10
5.636725
 20
28.441216
 30
0.0
 10
5.538964
 20
28.418062
 30
0.0
 10
5.438630
 20
28.394908
 30
0.0
 10
5.340868
 20
28.366609
 30
0.0
 10
5.240534
 20
28.338309
 30
0.0
 10
5.142772
 20
28.310010
 30
0.0
 10
5.045011
 20
28.276565
 30
0.0
 10
4.949822
 20
28.245693
 30
0.0
 10
4.852060
 20
28.209676
 30
0.0
 10
4.756871
 20
28.173658
 30
0.0
 10
4.661683
 20
28.135068
 30
0.0
 10
4.569066
 20
28.093905
 30
0.0
 10
4.473878
 20
28.052743
 30
0.0
 10
4.381261
 20
28.009007
 30
0.0
 10
4.288645
 20
27.962699
 30
0.0
 10
4.198602
 20
27.916391
 30
0.0
 10
4.108558
 20
27.867510
 30
0.0
 10
4.018514
 20
27.818630
 30
0.0
 10
3.931044
 20
27.767176
 30
0.0
 10
3.843573
 20
27.713150
 30
0.0
 10
3.756102
 20
27.659124
 30
0.0
 10
3.671204
 20
27.602525
 30
0.0
 10
3.586305
 20
27.543354
 30
0.0
 10
3.501407
 20
27.484182
 30
0.0
 10
3.419082
 20
27.425011
 30
0.0
 10
3.339329
 20
27.363266
 30
0.0
 10
3.257003
 20
27.298950
 30
0.0
 10
3.179823
 20
27.234633
 30
0.0
 10
3.100070
 20
27.167743
 30
0.0
 10
3.022890
 20
27.100854
 30
0.0
 10
2.945710
 20
27.031392
 30
0.0
 10
2.871103
 20
26.961930
 30
0.0
 10
2.796495
 20
26.892467
 30
0.0
 10
2.721888
 20
26.820433
 30
0.0
 10
2.649853
 20
26.748398
 30
0.0
 10
2.577818
 20
26.676363
 30
0.0
 10
2.505783
 20
26.601755
 30
0.0
 10
2.436321
 20
26.524575
 30
0.0
 10
2.366859
 20
26.449968
 30
0.0
 10
2.299969
 20
26.372788
 30
0.0
 10
2.230507
 20
26.295607
 30
0.0
 10
2.166190
 20
26.215855
 30
0.0
 10
2.099301
 20
26.138674
 30
0.0
 10
2.034984
 20
26.056349
 30
0.0
 10
1.973240
 20
25.976596
 30
0.0
 10
1.911496
 20
25.894270
 30
0.0
 10
1.849752
 20
25.811945
 30
0.0
 10
1.790580
 20
25.729619
 30
0.0
 10
1.731409
 20
25.644721
 30
0.0
 10
1.672237
 20
25.559823
 30
0.0
 10
1.615638
 20
25.474925
 30
0.0
 10
1.559040
 20
25.387454
 30
0.0
 10
1.505013
 20
25.302556
 30
0.0
 10
1.450987
 20
25.215085
 30
0.0
 10
1.396961
 20
25.127614
 30
0.0
 10
1.345508
 20
25.037571
 30
0.0
 10
1.294054
 20
24.947527
 30
0.0
 10
1.245173
 20
24.857483
 30
0.0
 10
1.196293
 20
24.767440
 30
0.0
 10
1.149985
 20
24.677396
 30
0.0
 10
1.101104
 20
24.584780
 30
0.0
 10
1.057368
 20
24.494737
 30
0.0
 10
1.011060
 20
24.402120
 30
0.0
 10
0.967325
 20
24.309504
 30
0.0
 10
0.926162
 20
24.214315
 30
0.0
 10
0.884999
 20
24.121699
 30
0.0
 10
0.843837
 20
24.026510
 30
0.0
 10
0.802674
 20
23.931321
 30
0.0
 10
0.766656
 20
23.836132
 30
0.0
 10
0.728066
 20
23.740944
 30
0.0
 10
0.692049
 20
23.645755
 30
0.0
 10
0.656031
 20
23.547993
 30
0.0
 10
0.622587
 20
23.452804
 30
0.0
 10
0.589142
 20
23.355043
 30
0.0
 10
0.555697
 20
23.257281
 30
0.0
 10
0.524825
 20
23.159520
 30
0.0
 10
0.493953
 20
23.061758
 30
0.0
 10
0.463081
 20
22.963996
 30
0.0
 10
0.434782
 20
22.863662
 30
0.0
 10
0.406482
 20
22.765901
 30
0.0
 10
0.380756
 20
22.668139
 30
0.0
 10
0.355029
 20
22.567805
 30
0.0
 10
0.329302
 20
22.467471
 30
0.0
 10
0.306148
 20
22.367136
 30
0.0
 10
0.282994
 20
22.266802
 30
0.0
 10
0.262413
 20
22.166468
 30
0.0
 10
0.239259
 20
22.066134
 30
0.0
 10
0.221250
 20
21.965800
 30
0.0
 10
0.200668
 20
21.865465
 30
0.0
 10
0.182660
 20
21.765131
 30
0.0
 10
0.164651
 20
21.662224
 30
0.0
 10
0.149215
 20
21.561890
 30
0.0
 10
0.133779
 20
21.458983
 30
0.0
 10
0.118343
 20
21.358649
 30
0.0
 10
0.105480
 20
21.255742
 30
0.0
 10
0.092616
 20
21.155408
 30
0.0
 10
0.079753
 20
21.052501
 30
0.0
 10
0.069462
 20
20.949594
 30
0.0
 10
0.059171
 20
20.849260
 30
0.0
 10
0.048881
 20
20.746353
 30
0.0
 10
0.041163
 20
20.643446
 30
0.0
 10
0.033445
 20
20.540539
 30
0.0
 10
0.025727
 20
20.440205
 30
0.0
 10
0.020581
 20
20.337298
 30
0.0
 10
0.012863
 20
20.234391
 30
0.0
 10
0.010291
 20
20.131484
 30
0.0
 10
0.005145
 20
20.028577
 30
0.0
 10
0.002573
 20
19.925670
 30
0.0
 10
0.000000
 20
19.825336
 30
0.0
 10
0.000000
 20
19.722429
 30
0.0
 10
0.000000
 20
19.619522
 30
0.0
 10
0.000000
 20
19.516615
 30
0.0
 10
0.002573
 20
19.413708
 30
0.0
 10
0.005145
 20
19.310802
 30
0.0
 10
0.007718
 20
19.207895
 30
0.0
 10
0.012863
 20
19.107560
 30
0.0
 10
0.018009
 20
19.004653
 30
0.0
 10
0.023154
 20
18.901747
 30
0.0
 10
0.030872
 20
18.798840
 30
0.0
 10
0.038590
 20
18.695933
 30
0.0
 10
0.048881
 20
18.595599
 30
0.0
 10
0.056599
 20
18.492692
 30
0.0
 10
0.069462
 20
18.389785
 30
0.0
 10
0.079753
 20
18.289451
 30
0.0
 10
0.092616
 20
18.186544
 30
0.0
 10
0.108052
 20
18.086209
 30
0.0
 10
0.120916
 20
17.983302
 30
0.0
 10
0.136352
 20
17.882968
 30
0.0
 10
0.154360
 20
17.780061
 30
0.0
 10
0.172369
 20
17.679727
 30
0.0
 10
0.190378
 20
17.579393
 30
0.0
 10
0.210959
 20
17.479059
 30
0.0
 10
0.231541
 20
17.378724
 30
0.0
 10
0.252122
 20
17.278390
 30
0.0
 10
0.275276
 20
17.178056
 30
0.0
 10
0.298430
 20
17.077722
 30
0.0
 10
0.324157
 20
16.977388
 30
0.0
 10
0.347311
 20
16.879626
 30
0.0
 10
0.375610
 20
16.779292
 30
0.0
 10
0.401337
 20
16.681530
 30
0.0
 10
0.432209
 20
16.583769
 30
0.0
 10
0.460508
 20
16.483434
 30
0.0
 10
0.491380
 20
16.385673
 30
0.0
 10
0.522253
 20
16.287911
 30
0.0
 10
0.555697
 20
16.192722
 30
0.0
 10
0.589142
 20
16.094961
 30
0.0
 10
0.622587
 20
15.997199
 30
0.0
 10
0.658604
 20
15.902010
 30
0.0
 10
0.694622
 20
15.806822
 30
0.0
 10
0.730639
 20
15.711633
 30
0.0
 10
0.769229
 20
15.613871
 30
0.0
 10
0.807819
 20
15.521255
 30
0.0
 10
0.848982
 20
15.426066
 30
0.0
 10
0.890145
 20
15.330877
 30
0.0
 10
0.931307
 20
15.238261
 30
0.0
 10
0.975043
 20
15.145645
 30
0.0
 10
1.018778
 20
15.053029
 30
0.0
 10
1.062514
 20
14.960412
 30
0.0
 10
1.108822
 20
14.867796
 30
0.0
 10
1.155130
 20
14.777753
 30
0.0
 10
1.204011
 20
14.685136
 30
0.0
 10
1.250319
 20
14.595093
 30
0.0
 10
1.299200
 20
14.505049
 30
0.0
 10
1.350653
 20
14.415006
 30
0.0
 10
1.399534
 20
14.327535
 30
0.0
 10
1.450987
 20
14.237491
 30
0.0
 10
1.505013
 20
14.150020
 30
0.0
 10
1.559040
 20
14.062550
 30
0.0
 10
1.610493
 20
13.975079
 30
0.0
 10
1.667092
 20
13.887608
 30
0.0
 10
1.721118
 20
13.802710
 30
0.0
 10
1.777717
 20
13.715239
 30
0.0
 10
1.834316
 20
13.630341
 30
0.0
 10
1.893487
 20
13.545442
 30
0.0
 10
1.952658
 20
13.460544
 30
0.0
 10
2.011830
 20
13.378219
 30
0.0
 10
2.071001
 20
13.295893
 30
0.0
 10
2.132746
 20
13.210995
 30
0.0
 10
2.194490
 20
13.131242
 30
0.0
 10
2.256234
 20
13.048917
 30
0.0
 10
2.317978
 20
12.966591
 30
0.0
 10
2.382295
 20
12.886838
 30
0.0
 10
2.446612
 20
12.807085
 30
0.0
 10
2.510928
 20
12.727333
 30
0.0
 10
2.575245
 20
12.647580
 30
0.0
 10
2.642135
 20
12.570400
 30
0.0
 10
2.709024
 20
12.490647
 30
0.0
 10
2.775914
 20
12.413467
 30
0.0
 10
2.842803
 20
12.336286
 30
0.0
 10
2.912265
 20
12.261679
 30
0.0
 10
2.981727
 20
12.184499
 30
0.0
 10
3.051190
 20
12.109891
 30
0.0
 10
3.120652
 20
12.035284
 30
0.0
 10
3.190114
 20
11.960676
 30
0.0
 10
3.262149
 20
11.886069
 30
0.0
 10
3.334184
 20
11.811461
 30
0.0
 10
3.406218
 20
11.739426
 30
0.0
 10
3.478253
 20
11.667391
 30
0.0
 10
3.550288
 20
11.595357
 30
0.0
 10
3.624896
 20
11.523322
 30
0.0
 10
3.699503
 20
11.453860
 30
0.0
 10
3.774111
 20
11.384397
 30
0.0
 10
3.848718
 20
11.314935
 30
0.0
 10
3.925898
 20
11.245473
 30
0.0
 10
4.003078
 20
11.178584
 30
0.0
 10
4.080259
 20
11.111694
 30
0.0
 10
4.157439
 20
11.044805
 30
0.0
 10
4.234619
 20
10.977915
 30
0.0
 10
4.314372
 20
10.913598
 30
0.0
 10
4.394125
 20
10.846709
 30
0.0
 10
4.473878
 20
10.784965
 30
0.0
 10
4.553630
 20
10.720648
 30
0.0
 10
4.635956
 20
10.658904
 30
0.0
 10
4.718281
 20
10.597160
 30
0.0
 10
4.800607
 20
10.535416
 30
0.0
 10
4.882932
 20
10.476244
 30
0.0
 10
4.965258
 20
10.414500
 30
0.0
 10
5.050156
 20
10.357901
 30
0.0
 10
5.135054
 20
10.298730
 30
0.0
 10
5.219953
 20
10.242131
 30
0.0
 10
5.304851
 20
10.185532
 30
0.0
 10
5.392322
 20
10.128933
 30
0.0
 10
5.477220
 20
10.074907
 30
0.0
 10
5.564691
 20
10.020881
 30
0.0
 10
5.652162
 20
9.969428
 30
0.0
 10
5.742205
 20
9.915401
 30
0.0
 10
5.829676
 20
9.863948
 30
0.0
 10
5.919719
 20
9.815067
 30
0.0
 10
6.007190
 20
9.766186
 30
0.0
 10
6.099807
 20
9.717306
 30
0.0
 10
6.189850
 20
9.668425
 30
0.0
 10
6.279894
 20
9.622117
 30
0.0
 10
6.372510
 20
9.575809
 30
0.0
 10
6.465126
 20
9.532073
 30
0.0
 10
6.555170
 20
9.485765
 30
0.0
 10
6.650358
 20
9.444602
 30
0.0
 10
6.742975
 20
9.400867
 30
0.0
 10
6.835591
 20
9.359704
 30
0.0
 10
6.930780
 20
9.321114
 30
0.0
 10
7.025969
 20
9.279951
 30
0.0
 10
7.121158
 20
9.243934
 30
0.0
 10
7.216346
 20
9.205344
 30
0.0
 10
7.311535
 20
9.169326
 30
0.0
 10
7.406724
 20
9.133309
 30
0.0
 10
7.504486
 20
9.099864
 30
0.0
 10
7.602247
 20
9.066420
 30
0.0
 10
7.700009
 20
9.035547
 30
0.0
 10
7.795198
 20
9.004675
 30
0.0
 10
7.895532
 20
8.973803
 30
0.0
 10
7.993294
 20
8.945504
 30
0.0
 10
8.091055
 20
8.917205
 30
0.0
 10
8.188817
 20
8.888905
 30
0.0
 10
8.289151
 20
8.863178
 30
0.0
 10
8.389485
 20
8.840024
 30
0.0
 10
8.487247
 20
8.816870
 30
0.0
 10
8.587581
 20
8.793716
 30
0.0
 10
8.687915
 20
8.773135
 30
0.0
 10
8.788249
 20
8.752554
 30
0.0
 10
8.888584
 20
8.731972
 30
0.0
 10
8.991490
 20
8.713963
 30
0.0
 10
9.091825
 20
8.698527
 30
0.0
 10
9.192159
 20
8.683091
 30
0.0
 10
9.295066
 20
8.667655
 30
0.0
 10
9.395400
 20
8.654792
 30
0.0
 10
9.498307
 20
8.641929
 30
0.0
 10
9.598641
 20
8.631638
 30
0.0
 10
9.701548
 20
8.621347
 30
0.0
 10
9.801882
 20
8.611057
 30
0.0
 10
9.904789
 20
8.603343
 30
0.0
 10
9.997405
 20
8.595629
 30
0.0
 10
10.087449
 20
8.590483
 30
0.0
 10
10.180065
 20
8.582769
 30
0.0
 10
10.270109
 20
8.577624
 30
0.0
 10
10.362725
 20
8.569910
 30
0.0
 10
10.452768
 20
8.564765
 30
0.0
 10
10.545385
 20
8.557051
 30
0.0
 10
10.638001
 20
8.551906
 30
0.0
 10
10.728044
 20
8.544192
 30
0.0
 10
10.728044
 20
8.441285
 30
0.0
 10
10.730613
 20
8.338378
 30
0.0
 10
10.730613
 20
8.238044
 30
0.0
 10
10.730613
 20
8.135137
 30
0.0
 10
10.730613
 20
8.032230
 30
0.0
 10
10.730613
 20
7.929323
 30
0.0
 10
10.733181
 20
7.826416
 30
0.0
 10
10.733181
 20
7.726082
 30
0.0
 10
10.733181
 20
7.623175
 30
0.0
 10
10.733181
 20
7.520268
 30
0.0
 10
10.733181
 20
7.417361
 30
0.0
 10
10.735750
 20
7.314454
 30
0.0
 10
10.735750
 20
7.214120
 30
0.0
 10
10.735750
 20
7.111213
 30
0.0
 10
10.735750
 20
7.008306
 30
0.0
 10
10.738319
 20
6.905399
 30
0.0
 10
10.738319
 20
6.802492
 30
0.0
 10
10.738319
 20
6.702158
 30
0.0
 10
10.738319
 20
6.599251
 30
0.0
 10
10.738319
 20
6.496344
 30
0.0
 10
10.740887
 20
6.393438
 30
0.0
 10
10.740887
 20
6.290531
 30
0.0
 10
10.740887
 20
6.190196
 30
0.0
 10
10.740887
 20
6.087289
 30
0.0
 10
10.740887
 20
5.984383
 30
0.0
 10
10.743456
 20
5.881476
 30
0.0
 10
10.743456
 20
5.778569
 30
0.0
 10
10.743456
 20
5.678235
 30
0.0
 10
10.743456
 20
5.575328
 30
0.0
 10
10.743456
 20
5.472421
 30
0.0
 10
10.746024
 20
5.369514
 30
0.0
 10
10.746024
 20
5.266607
 30
0.0
 10
10.746024
 20
5.166273
 30
0.0
 10
10.746024
 20
5.063366
 30
0.0
 10
10.748593
 20
4.960459
 30
0.0
 10
10.748593
 20
4.857552
 30
0.0
 10
10.748593
 20
4.754645
 30
0.0
 10
10.748593
 20
4.654311
 30
0.0
 10
10.748593
 20
4.551404
 30
0.0
 10
10.751161
 20
4.448497
 30
0.0
 10
10.751161
 20
4.345590
 30
0.0
 10
10.751161
 20
4.242683
 30
0.0
 10
10.751161
 20
4.142349
 30
0.0
 10
10.751161
 20
4.039442
 30
0.0
 10
10.753730
 20
3.936535
 30
0.0
 10
10.753730
 20
3.833628
 30
0.0
 10
10.753730
 20
3.730721
 30
0.0
 10
10.753730
 20
3.630387
 30
0.0
 10
10.753730
 20
3.527480
 30
0.0
 10
10.756299
 20
3.424573
 30
0.0
 10
10.756299
 20
3.321667
 30
0.0
 10
10.756299
 20
3.218760
 30
0.0
 10
10.756299
 20
3.118425
 30
0.0
 10
10.756299
 20
3.015519
 30
0.0
 10
10.758867
 20
2.912612
 30
0.0
 10
10.758867
 20
2.809705
 30
0.0
 10
10.758867
 20
2.706798
 30
0.0
 10
10.758867
 20
2.606464
 30
0.0
 10
10.761436
 20
2.503557
 30
0.0
 10
10.761436
 20
2.400650
 30
0.0
 10
10.761436
 20
2.297743
 30
0.0
 10
10.761436
 20
2.194836
 30
0.0
 10
10.761436
 20
2.094502
 30
0.0
 10
10.764004
 20
1.991595
 30
0.0
 10
10.764004
 20
1.888688
 30
0.0
 10
10.764004
 20
1.785781
 30
0.0
 10
10.764004
 20
1.682874
 30
0.0
 10
10.764004
 20
1.582540
 30
0.0
 10
10.766573
 20
1.479633
 30
0.0
 10
10.766573
 20
1.376726
 30
0.0
 10
10.766573
 20
1.273819
 30
0.0
 10
10.766573
 20
1.170912
 30
0.0
 10
10.766573
 20
1.070578
 30
0.0
 10
10.769141
 20
0.967671
 30
0.0
 10
10.769141
 20
0.864764
 30
0.0
 10
10.769141
 20
0.761857
 30
0.0
 10
10.769141
 20
0.658950
 30
0.0
 10
10.769141
 20
0.558616
 30
0.0
 10
10.771710
 20
0.455709
 30
0.0
 10
10.771710
 20
0.352802
 30
0.0
 10
10.874617
 20
0.352802
 30
0.0
 10
10.974951
 20
0.352802
 30
0.0
 10
11.077858
 20
0.352802
 30
0.0
 10
11.180765
 20
0.352802
 30
0.0
 10
11.281099
 20
0.352802
 30
0.0
 10
11.384006
 20
0.352802
 30
0.0
 10
11.486913
 20
0.352802
 30
0.0
 10
11.587247
 20
0.352802
 30
0.0
 10
11.690154
 20
0.352802
 30
0.0
 10
11.793061
 20
0.352802
 30
0.0
 10
11.893395
 20
0.352802
 30
0.0
 10
11.996302
 20
0.352802
 30
0.0
 10
12.099209
 20
0.352802
 30
0.0
 10
12.202116
 20
0.352802
 30
0.0
 10
12.302450
 20
0.352802
 30
0.0
 10
12.405357
 20
0.352802
 30
0.0
 10
12.508264
 20
0.352802
 30
0.0
 10
12.608598
 20
0.352802
 30
0.0
 10
12.711505
 20
0.352802
 30
0.0
 10
12.814412
 20
0.352802
 30
0.0
 10
12.914746
 20
0.352802
 30
0.0
 10
13.017653
 20
0.352802
 30
0.0
 10
13.120560
 20
0.352802
 30
0.0
 10
13.220894
 20
0.352802
 30
0.0
 10
13.323801
 20
0.352802
 30
0.0
 10
13.426708
 20
0.352802
 30
0.0
 10
13.529615
 20
0.352802
 30
0.0
 10
13.629949
 20
0.352802
 30
0.0
 10
13.732856
 20
0.352802
 30
0.0
 10
13.835763
 20
0.352802
 30
0.0
 10
13.936097
 20
0.352802
 30
0.0
 10
14.039004
 20
0.352802
 30
0.0
 10
14.141911
 20
0.352802
 30
0.0
 10
14.242245
 20
0.352802
 30
0.0
 10
14.345152
 20
0.352802
 30
0.0
 10
14.448059
 20
0.352802
 30
0.0
 10
14.548393
 20
0.352802
 30
0.0
 10
14.651300
 20
0.352802
 30
0.0
 10
14.754207
 20
0.352802
 30
0.0
 10
14.854541
 20
0.352802
 30
0.0
 10
14.957448
 20
0.352802
 30
0.0
 10
15.060355
 20
0.352802
 30
0.0
 10
15.163262
 20
0.352802
 30
0.0
 10
15.263596
 20
0.352802
 30
0.0
 10
15.366503
 20
0.352802
 30
0.0
 10
15.469410
 20
0.352802
 30
0.0
 10
15.569744
 20
0.352802
 30
0.0
 10
15.672651
 20
0.352802
 30
0.0
 10
15.775558
 20
0.352802
 30
0.0
 10
15.875892
 20
0.352802
 30
0.0
 10
15.978799
 20
0.352802
 30
0.0
 10
16.081706
 20
0.352802
 30
0.0
 10
16.182040
 20
0.352802
 30
0.0
 10
16.284947
 20
0.352802
 30
0.0
 10
16.284947
 20
0.453137
 30
0.0
 10
16.284947
 20
0.553471
 30
0.0
 10
16.284947
 20
0.656378
 30
0.0
 10
16.284947
 20
0.756712
 30
0.0
 10
16.284947
 20
0.857046
 30
0.0
 10
16.284947
 20
0.957380
 30
0.0
 10
16.284947
 20
1.060287
 30
0.0
 10
16.284947
 20
1.160622
 30
0.0
 10
16.284947
 20
1.260956
 30
0.0
 10
16.284947
 20
1.361290
 30
0.0
 10
16.284947
 20
1.464197
 30
0.0
 10
16.284947
 20
1.564531
 30
0.0
 10
16.284947
 20
1.664865
 30
0.0
 10
16.284947
 20
1.765200
 30
0.0
 10
16.284947
 20
1.868107
 30
0.0
 10
16.284947
 20
1.968441
 30
0.0
 10
16.284947
 20
2.068775
 30
0.0
 10
16.284947
 20
2.169109
 30
0.0
 10
16.284947
 20
2.269443
 30
0.0
 10
16.284947
 20
2.372350
 30
0.0
 10
16.284947
 20
2.472685
 30
0.0
 10
16.284947
 20
2.573019
 30
0.0
 10
16.284947
 20
2.673353
 30
0.0
 10
16.284947
 20
2.776260
 30
0.0
 10
16.284947
 20
2.876594
 30
0.0
 10
16.284947
 20
2.976928
 30
0.0
 10
16.284947
 20
3.077263
 30
0.0
 10
16.284947
 20
3.180170
 30
0.0
 10
16.284947
 20
3.280504
 30
0.0
 10
16.284947
 20
3.380838
 30
0.0
 10
16.284947
 20
3.481172
 30
0.0
 10
16.284947
 20
3.584079
 30
0.0
 10
16.284947
 20
3.684413
 30
0.0
 10
16.284947
 20
3.784748
 30
0.0
 10
16.284947
 20
3.885082
 30
0.0
 10
16.284947
 20
3.987989
 30
0.0
 10
16.284947
 20
4.088323
 30
0.0
 10
16.284947
 20
4.188657
 30
0.0
 10
16.284947
 20
4.288991
 30
0.0
 10
16.284947
 20
4.389326
 30
0.0
 10
16.284947
 20
4.492233
 30
0.0
 10
16.284947
 20
4.592567
 30
0.0
 10
16.284947
 20
4.692901
 30
0.0
 10
16.284947
 20
4.795808
 30
0.0
 10
16.284947
 20
4.896142
 30
0.0
 10
16.284947
 20
4.999049
 30
0.0
 10
16.284947
 20
5.099383
 30
0.0
 10
16.284947
 20
5.199717
 30
0.0
 10
16.284947
 20
5.302624
 30
0.0
 10
16.284947
 20
5.402959
 30
0.0
 10
16.284947
 20
5.505866
 30
0.0
 10
16.284947
 20
5.606200
 30
0.0
 10
16.284947
 20
5.706534
 30
0.0
 10
16.287516
 20
5.809441
 30
0.0
 10
16.287516
 20
5.909775
 30
0.0
 10
16.287516
 20
6.012682
 30
0.0
 10
16.287516
 20
6.113016
 30
0.0
 10
16.287516
 20
6.215923
 30
0.0
 10
16.287516
 20
6.316257
 30
0.0
 10
16.287516
 20
6.416592
 30
0.0
 10
16.287516
 20
6.519498
 30
0.0
 10
16.290084
 20
6.619833
 30
0.0
 10
16.290084
 20
6.722740
 30
0.0
 10
16.290084
 20
6.823074
 30
0.0
 10
16.290084
 20
6.923408
 30
0.0
 10
16.292653
 20
7.026315
 30
0.0
 10
16.292653
 20
7.126649
 30
0.0
 10
16.292653
 20
7.229556
 30
0.0
 10
16.295221
 20
7.329890
 30
0.0
 10
16.295221
 20
7.432797
 30
0.0
 10
16.297790
 20
7.533131
 30
0.0
 10
16.297790
 20
7.633466
 30
0.0
 10
16.300358
 20
7.736373
 30
0.0
 10
16.302927
 20
7.836707
 30
0.0
 10
16.302927
 20
7.939614
 30
0.0
 10
16.305495
 20
8.039948
 30
0.0
 10
16.310641
 20
8.140282
 30
0.0
 10
16.313209
 20
8.243189
 30
0.0
 10
16.318355
 20
8.343523
 30
0.0
 10
16.323500
 20
8.446430
 30
0.0
 10
16.328645
 20
8.546764
 30
0.0
 10
16.338936
 20
8.647099
 30
0.0
 10
16.354372
 20
8.747433
 30
0.0
 10
16.398108
 20
8.832331
 30
0.0
 10
16.498442
 20
8.845194
 30
0.0
 10
16.598776
 20
8.868348
 30
0.0
 10
16.696538
 20
8.896648
 30
0.0
 10
16.794299
 20
8.924947
 30
0.0
 10
16.892061
 20
8.955819
 30
0.0
 10
16.987250
 20
8.986691
 30
0.0
 10
17.085011
 20
9.020136
 30
0.0
 10
17.180200
 20
9.053581
 30
0.0
 10
17.277962
 20
9.087026
 30
0.0
 10
17.373150
 20
9.123043
 30
0.0
 10
17.468339
 20
9.159060
 30
0.0
 10
17.563528
 20
9.195078
 30
0.0
 10
17.658717
 20
9.231095
 30
0.0
 10
17.753906
 20
9.269685
 30
0.0
 10
17.846522
 20
9.305703
 30
0.0
 10
17.941711
 20
9.344293
 30
0.0
 10
18.034327
 20
9.385456
 30
0.0
 10
18.129516
 20
9.424046
 30
0.0
 10
18.222132
 20
9.465209
 30
0.0
 10
18.314749
 20
9.506371
 30
0.0
 10
18.407365
 20
9.550107
 30
0.0
 10
18.499981
 20
9.593842
 30
0.0
 10
18.592597
 20
9.640150
 30
0.0
 10
18.682641
 20
9.686458
 30
0.0
 10
18.775257
 20
9.735339
 30
0.0
 10
18.865301
 20
9.784220
 30
0.0
 10
18.955344
 20
9.833101
 30
0.0
 10
19.042815
 20
9.884554
 30
0.0
 10
19.130286
 20
9.938580
 30
0.0
 10
19.220329
 20
9.990034
 30
0.0
 10
19.305335
 20
10.046608
 30
0.0
 10
19.392805
 20
10.100634
 30
0.0
 10
19.477704
 20
10.159805
 30
0.0
 10
19.562602
 20
10.216404
 30
0.0
 10
19.647500
 20
10.275576
 30
0.0
 10
19.732398
 20
10.334747
 30
0.0
 10
19.814724
 20
10.396491
 30
0.0
 10
19.897049
 20
10.458235
 30
0.0
 10
19.976802
 20
10.522552
 30
0.0
 10
20.056555
 20
10.586869
 30
0.0
 10
20.136308
 20
10.651186
 30
0.0
 10
20.216061
 20
10.718075
 30
0.0
 10
20.293241
 20
10.784965
 30
0.0
 10
20.370421
 20
10.851854
 30
0.0
 10
20.447601
 20
10.921316
 30
0.0
 10
20.522209
 20
10.990779
 30
0.0
 10
20.596816
 20
11.060241
 30
0.0
 10
20.671424
 20
11.132276
 30
0.0
 10
20.743458
 20
11.204310
 30
0.0
 10
20.815493
 20
11.278918
 30
0.0
 10
20.887528
 20
11.353525
 30
0.0
 10
20.956990
 20
11.428133
 30
0.0
 10
21.026452
 20
11.505313
 30
0.0
 10
21.095915
 20
11.579921
 30
0.0
 10
21.162804
 20
11.657101
 30
0.0
 10
21.229694
 20
11.736854
 30
0.0
 10
21.296583
 20
11.816606
 30
0.0
 10
21.360900
 20
11.893787
 30
0.0
 10
21.425217
 20
11.976112
 30
0.0
 10
21.486961
 20
12.055865
 30
0.0
 10
21.551278
 20
12.138191
 30
0.0
 10
21.610449
 20
12.220516
 30
0.0
 10
21.672193
 20
12.305414
 30
0.0
 10
21.731365
 20
12.387740
 30
0.0
 10
21.790536
 20
12.472638
 30
0.0
 10
21.847135
 20
12.557536
 30
0.0
 10
21.903734
 20
12.642434
 30
0.0
 10
21.960333
 20
12.729905
 30
0.0
 10
22.016931
 20
12.817376
 30
0.0
 10
22.070957
 20
12.904847
 30
0.0
 10
22.122411
 20
12.992318
 30
0.0
 10
22.176437
 20
13.079789
 30
0.0
 10
22.227891
 20
13.169832
 30
0.0
 10
22.276771
 20
13.259876
 30
0.0
 10
22.328225
 20
13.349919
 30
0.0
 10
22.374533
 20
13.439963
 30
0.0
 10
22.423414
 20
13.530006
 30
0.0
 10
22.469722
 20
13.622623
 30
0.0
 10
22.516030
 20
13.712666
 30
0.0
 10
22.562338
 20
13.805282
 30
0.0
 10
22.606073
 20
13.897899
 30
0.0
 10
22.649809
 20
13.993087
 30
0.0
 10
22.693544
 20
14.085704
 30
0.0
 10
22.734707
 20
14.178320
 30
0.0
 10
22.775870
 20
14.273509
 30
0.0
 10
22.817033
 20
14.368698
 30
0.0
 10
22.855623
 20
14.463886
 30
0.0
 10
22.894213
 20
14.559075
 30
0.0
 10
22.930230
 20
14.654264
 30
0.0
 10
22.968820
 20
14.749453
 30
0.0
 10
23.004838
 20
14.847215
 30
0.0
 10
23.038282
 20
14.942404
 30
0.0
 10
23.074300
 20
15.040165
 30
0.0
 10
23.107745
 20
15.137927
 30
0.0
 10
23.141189
 20
15.235688
 30
0.0
 10
23.172061
 20
15.333450
 30
0.0
 10
23.202933
 20
15.431211
 30
0.0
 10
23.233805
 20
15.528973
 30
0.0
 10
23.264678
 20
15.626734
 30
0.0
 10
23.292977
 20
15.727069
 30
0.0
 10
23.321276
 20
15.824830
 30
0.0
 10
23.347003
 20
15.925164
 30
0.0
 10
23.375302
 20
16.022926
 30
0.0
 10
23.401029
 20
16.123260
 30
0.0
 10
23.426756
 20
16.223594
 30
0.0
 10
23.449910
 20
16.321356
 30
0.0
 10
23.473064
 20
16.421690
 30
0.0
 10
23.496218
 20
16.522025
 30
0.0
 10
23.519372
 20
16.622359
 30
0.0
 10
23.539954
 20
16.722693
 30
0.0
 10
23.560535
 20
16.825600
 30
0.0
 10
23.581116
 20
16.925934
 30
0.0
 10
23.601698
 20
17.026268
 30
0.0
 10
23.619706
 20
17.126603
 30
0.0
 10
23.637715
 20
17.229509
 30
0.0
 10
23.655724
 20
17.329844
 30
0.0
 10
23.671160
 20
17.430178
 30
0.0
 10
23.686596
 20
17.533085
 30
0.0
 10
23.702032
 20
17.633419
 30
0.0
 10
23.717468
 20
17.736326
 30
0.0
 10
23.730331
 20
17.839233
 30
0.0
 10
23.745767
 20
17.939567
 30
0.0
 10
23.758631
 20
18.042474
 30
0.0
 10
23.768921
 20
18.145381
 30
0.0
 10
23.781785
 20
18.245715
 30
0.0
 10
23.784353
 20
18.263724
 30
0.0
 10
22.338511
 20
18.266292
 30
0.0
 10
22.333366
 20
18.212266
 30
0.0
 10
22.323075
 20
18.109359
 30
0.0
 10
22.310212
 20
18.009025
 30
0.0
 10
22.297349
 20
17.908691
 30
0.0
 10
22.281913
 20
17.805784
 30
0.0
 10
22.266476
 20
17.705450
 30
0.0
 10
22.248468
 20
17.605116
 30
0.0
 10
22.227886
 20
17.504781
 30
0.0
 10
22.209878
 20
17.404447
 30
0.0
 10
22.186724
 20
17.301540
 30
0.0
 10
22.166142
 20
17.201206
 30
0.0
 10
22.142988
 20
17.100872
 30
0.0
 10
22.119834
 20
17.003110
 30
0.0
 10
22.096680
 20
16.902776
 30
0.0
 10
22.073526
 20
16.802442
 30
0.0
 10
22.047799
 20
16.702107
 30
0.0
 10
22.022073
 20
16.604346
 30
0.0
 10
21.996346
 20
16.504012
 30
0.0
 10
21.968046
 20
16.403677
 30
0.0
 10
21.942320
 20
16.305916
 30
0.0
 10
21.911448
 20
16.208154
 30
0.0
 10
21.883148
 20
16.107820
 30
0.0
 10
21.852276
 20
16.010059
 30
0.0
 10
21.821404
 20
15.912297
 30
0.0
 10
21.790532
 20
15.814535
 30
0.0
 10
21.759660
 20
15.716774
 30
0.0
 10
21.726215
 20
15.621585
 30
0.0
 10
21.690198
 20
15.523823
 30
0.0
 10
21.656753
 20
15.426062
 30
0.0
 10
21.620736
 20
15.330873
 30
0.0
 10
21.584718
 20
15.235684
 30
0.0
 10
21.546128
 20
15.137923
 30
0.0
 10
21.507538
 20
15.042734
 30
0.0
 10
21.468948
 20
14.947545
 30
0.0
 10
21.427785
 20
14.854929
 30
0.0
 10
21.386622
 20
14.759740
 30
0.0
 10
21.345460
 20
14.667124
 30
0.0
 10
21.301724
 20
14.571935
 30
0.0
 10
21.257989
 20
14.479318
 30
0.0
 10
21.214253
 20
14.386702
 30
0.0
 10
21.167945
 20
14.296659
 30
0.0
 10
21.121637
 20
14.204042
 30
0.0
 10
21.072756
 20
14.113999
 30
0.0
 10
21.023876
 20
14.023955
 30
0.0
 10
20.974995
 20
13.933912
 30
0.0
 10
20.923541
 20
13.843868
 30
0.0
 10
20.872088
 20
13.756397
 30
0.0
 10
20.820635
 20
13.666354
 30
0.0
 10
20.766608
 20
13.578883
 30
0.0
 10
20.710010
 20
13.493985
 30
0.0
 10
20.655983
 20
13.406514
 30
0.0
 10
20.596812
 20
13.321616
 30
0.0
 10
20.540213
 20
13.236718
 30
0.0
 10
20.481042
 20
13.154392
 30
0.0
 10
20.419298
 20
13.069494
 30
0.0
 10
20.357553
 20
12.987168
 30
0.0
 10
20.295809
 20
12.907416
 30
0.0
 10
20.231493
 20
12.825090
 30
0.0
 10
20.167176
 20
12.745337
 30
0.0
 10
20.102859
 20
12.665584
 30
0.0
 10
20.035969
 20
12.588404
 30
0.0
 10
19.966507
 20
12.511224
 30
0.0
 10
19.897045
 20
12.436616
 30
0.0
 10
19.827583
 20
12.359436
 30
0.0
 10
19.758121
 20
12.287401
 30
0.0
 10
19.686086
 20
12.212794
 30
0.0
 10
19.611478
 20
12.140759
 30
0.0
 10
19.536871
 20
12.071297
 30
0.0
 10
19.462263
 20
12.001835
 30
0.0
 10
19.385083
 20
11.932373
 30
0.0
 10
19.307903
 20
11.865483
 30
0.0
 10
19.230723
 20
11.798594
 30
0.0
 10
19.150970
 20
11.731704
 30
0.0
 10
19.071217
 20
11.667387
 30
0.0
 10
18.988892
 20
11.605643
 30
0.0
 10
18.906566
 20
11.543899
 30
0.0
 10
18.824241
 20
11.484728
 30
0.0
 10
18.739342
 20
11.422983
 30
0.0
 10
18.654444
 20
11.366385
 30
0.0
 10
18.569546
 20
11.309786
 30
0.0
 10
18.484648
 20
11.253187
 30
0.0
 10
18.397177
 20
11.199161
 30
0.0
 10
18.307133
 20
11.147708
 30
0.0
 10
18.219663
 20
11.096254
 30
0.0
 10
18.129619
 20
11.044801
 30
0.0
 10
18.039576
 20
10.995920
 30
0.0
 10
17.949532
 20
10.949612
 30
0.0
 10
17.856916
 20
10.903304
 30
0.0
 10
17.764300
 20
10.856996
 30
0.0
 10
17.671683
 20
10.813260
 30
0.0
 10
17.579067
 20
10.769525
 30
0.0
 10
17.483878
 20
10.728362
 30
0.0
 10
17.388689
 20
10.689772
 30
0.0
 10
17.293501
 20
10.651182
 30
0.0
 10
17.198312
 20
10.612592
 30
0.0
 10
17.103123
 20
10.576574
 30
0.0
 10
17.005361
 20
10.543129
 30
0.0
 10
16.910172
 20
10.507112
 30
0.0
 10
16.825274
 20
10.478813
 30
0.0
 10
16.740376
 20
10.450513
 30
0.0
 10
16.655478
 20
10.422214
 30
0.0
 10
16.568007
 20
10.393914
 30
0.0
 10
16.483109
 20
10.365615
 30
0.0
 10
16.398210
 20
10.339888
 30
0.0
 10
16.313312
 20
10.314162
 30
0.0
 10
16.300449
 20
10.414496
 30
0.0
 10
16.297880
 20
10.517403
 30
0.0
 10
16.295312
 20
10.620310
 30
0.0
 10
16.292743
 20
10.720644
 30
0.0
 10
16.290175
 20
10.823551
 30
0.0
 10
16.290175
 20
10.926458
 30
0.0
 10
16.287606
 20
11.029365
 30
0.0
 10
16.287606
 20
11.129699
 30
0.0
 10
16.285038
 20
11.232606
 30
0.0
 10
16.285038
 20
11.335513
 30
0.0
 10
16.285038
 20
11.435847
 30
0.0
 10
16.282469
 20
11.538754
 30
0.0
 10
16.282469
 20
11.641661
 30
0.0
 10
16.282469
 20
11.744568
 30
0.0
 10
16.279900
 20
11.844902
 30
0.0
 10
16.279900
 20
11.947809
 30
0.0
 10
16.279900
 20
12.050716
 30
0.0
 10
16.279900
 20
12.151050
 30
0.0
 10
16.279900
 20
12.253957
 30
0.0
 10
16.279900
 20
12.356864
 30
0.0
 10
16.279900
 20
12.459770
 30
0.0
 10
16.277332
 20
12.560105
 30
0.0
 10
16.277332
 20
12.663012
 30
0.0
 10
16.277332
 20
12.765919
 30
0.0
 10
16.277332
 20
12.866253
 30
0.0
 10
16.277332
 20
12.969160
 30
0.0
 10
16.277332
 20
13.072067
 30
0.0
 10
16.277332
 20
13.174973
 30
0.0
 10
16.277332
 20
13.275308
 30
0.0
 10
16.277332
 20
13.378215
 30
0.0
 10
16.277332
 20
13.481121
 30
0.0
 10
16.277332
 20
13.584028
 30
0.0
 10
16.277332
 20
13.684363
 30
0.0
 10
16.277332
 20
13.787270
 30
0.0
 10
16.277332
 20
13.890176
 30
0.0
 10
16.277332
 20
13.990511
 30
0.0
 10
16.277332
 20
14.093418
 30
0.0
 10
16.277332
 20
14.196324
 30
0.0
 10
16.277332
 20
14.299231
 30
0.0
 10
16.277332
 20
14.399566
 30
0.0
 10
16.277332
 20
14.502472
 30
0.0
 10
16.277332
 20
14.605379
 30
0.0
 10
16.277332
 20
14.708286
 30
0.0
 10
16.277332
 20
14.808620
 30
0.0
 10
16.277332
 20
14.911527
 30
0.0
 10
16.277332
 20
15.014434
 30
0.0
 10
16.279900
 20
15.114769
 30
0.0
 10
16.279900
 20
15.217675
 30
0.0
 10
16.279900
 20
15.320582
 30
0.0
 10
16.279900
 20
15.423489
 30
0.0
 10
16.279900
 20
15.523823
 30
0.0
 10
16.279900
 20
15.626730
 30
0.0
 10
16.279900
 20
15.729637
 30
0.0
 10
16.279900
 20
15.829971
 30
0.0
 10
16.279900
 20
15.932878
 30
0.0
 10
16.282469
 20
16.035785
 30
0.0
 10
16.282469
 20
16.138692
 30
0.0
 10
16.282469
 20
16.239026
 30
0.0
 10
16.282469
 20
16.341933
 30
0.0
 10
16.282469
 20
16.444840
 30
0.0
 10
16.282469
 20
16.545174
 30
0.0
 10
16.282469
 20
16.648081
 30
0.0
 10
16.285038
 20
16.750988
 30
0.0
 10
16.285038
 20
16.853895
 30
0.0
 10
16.285038
 20
16.954229
 30
0.0
 10
16.285038
 20
17.057136
 30
0.0
 10
16.285038
 20
17.160043
 30
0.0
 10
16.285038
 20
17.262950
 30
0.0
 10
16.287606
 20
17.363284
 30
0.0
 10
16.287606
 20
17.466191
 30
0.0
 10
16.287606
 20
17.569098
 30
0.0
 10
16.287606
 20
17.669432
 30
0.0
 10
16.287606
 20
17.772339
 30
0.0
 10
16.290175
 20
17.875246
 30
0.0
 10
16.290175
 20
17.978153
 30
0.0
 10
16.290175
 20
18.078487
 30
0.0
 10
16.290175
 20
18.181394
 30
0.0
 10
16.292743
 20
18.276583
 30
0.0
 10
10.779506
 20
18.286874
 30
0.0
 10
10.779506
 20
18.245711
 30
0.0
 10
10.779506
 20
18.142804
 30
0.0
 10
10.776938
 20
18.039897
 30
0.0
 10
10.776938
 20
17.936990
 30
0.0
 10
10.776938
 20
17.834083
 30
0.0
 10
10.776938
 20
17.731176
 30
0.0
 10
10.774369
 20
17.628270
 30
0.0
 10
10.774369
 20
17.525363
 30
0.0
 10
10.774369
 20
17.425028
 30
0.0
 10
10.774369
 20
17.322122
 30
0.0
 10
10.774369
 20
17.219215
 30
0.0
 10
10.771800
 20
17.116308
 30
0.0
 10
10.771800
 20
17.013401
 30
0.0
 10
10.771800
 20
16.910494
 30
0.0
 10
10.771800
 20
16.807587
 30
0.0
 10
10.771800
 20
16.704680
 30
0.0
 10
10.771800
 20
16.601773
 30
0.0
 10
10.771800
 20
16.498866
 30
0.0
 10
10.771800
 20
16.395959
 30
0.0
 10
10.771800
 20
16.293053
 30
0.0
 10
10.769232
 20
16.190146
 30
0.0
 10
10.769232
 20
16.087239
 30
0.0
 10
10.769232
 20
15.984332
 30
0.0
 10
10.769232
 20
15.881425
 30
0.0
 10
10.769232
 20
15.778518
 30
0.0
 10
10.769232
 20
15.678184
 30
0.0
 10
10.769232
 20
15.575277
 30
0.0
 10
10.769232
 20
15.472370
 30
0.0
 10
10.769232
 20
15.369463
 30
0.0
 10
10.769232
 20
15.266556
 30
0.0
 10
10.769232
 20
15.163649
 30
0.0
 10
10.769232
 20
15.060742
 30
0.0
 10
10.769232
 20
14.957836
 30
0.0
 10
10.769232
 20
14.854929
 30
0.0
 10
10.769232
 20
14.752022
 30
0.0
 10
10.769232
 20
14.649115
 30
0.0
 10
10.769232
 20
14.546208
 30
0.0
 10
10.769232
 20
14.443301
 30
0.0
 10
10.769232
 20
14.340394
 30
0.0
 10
10.769232
 20
14.237487
 30
0.0
 10
10.769232
 20
14.134580
 30
0.0
 10
10.769232
 20
14.031673
 30
0.0
 10
10.769232
 20
13.928766
 30
0.0
 10
10.769232
 20
13.825860
 30
0.0
 10
10.769232
 20
13.725525
 30
0.0
 10
10.769232
 20
13.622618
 30
0.0
 10
10.769232
 20
13.519712
 30
0.0
 10
10.769232
 20
13.416805
 30
0.0
 10
10.769232
 20
13.313898
 30
0.0
 10
10.769232
 20
13.210991
 30
0.0
 10
10.769232
 20
13.108084
 30
0.0
 10
10.769232
 20
13.005177
 30
0.0
 10
10.769232
 20
12.902270
 30
0.0
 10
10.769232
 20
12.799363
 30
0.0
 10
10.769232
 20
12.696456
 30
0.0
 10
10.769232
 20
12.593549
 30
0.0
 10
10.769232
 20
12.490643
 30
0.0
 10
10.769232
 20
12.387736
 30
0.0
 10
10.769232
 20
12.284829
 30
0.0
 10
10.769232
 20
12.181922
 30
0.0
 10
10.769232
 20
12.079015
 30
0.0
 10
10.769232
 20
11.976108
 30
0.0
 10
10.769232
 20
11.873201
 30
0.0
 10
10.769232
 20
11.770294
 30
0.0
 10
10.769232
 20
11.667387
 30
0.0
 10
10.769232
 20
11.564480
 30
0.0
 10
10.769232
 20
11.464146
 30
0.0
 10
10.769232
 20
11.361239
 30
0.0
 10
10.769232
 20
11.258332
 30
0.0
 10
10.769232
 20
11.155426
 30
0.0
 10
10.769232
 20
11.052519
 30
0.0
 10
10.769232
 20
10.949612
 30
0.0
 10
10.769232
 20
10.846705
 30
0.0
 10
10.769232
 20
10.743798
 30
0.0
 10
10.769232
 20
10.640891
 30
0.0
 10
10.769232
 20
10.537984
 30
0.0
 10
10.769232
 20
10.435077
 30
0.0
 10
10.769232
 20
10.332170
 30
0.0
 10
10.769232
 20
10.229263
 30
0.0
 10
10.769232
 20
10.126357
 30
0.0
 10
10.681761
 20
10.134070
 30
0.0
 10
10.591717
 20
10.141784
 30
0.0
 10
10.504247
 20
10.146930
 30
0.0
 10
10.416776
 20
10.154644
 30
0.0
 10
10.326732
 20
10.162357
 30
0.0
 10
10.239261
 20
10.170071
 30
0.0
 10
10.138927
 20
10.180362
 30
0.0
 10
10.036020
 20
10.193225
 30
0.0
 10
9.935686
 20
10.208661
 30
0.0
 10
9.837924
 20
10.229243
 30
0.0
 10
9.737590
 20
10.252397
 30
0.0
 10
9.639829
 20
10.278124
 30
0.0
 10
9.542067
 20
10.308996
 30
0.0
 10
9.446878
 20
10.342440
 30
0.0
 10
9.351689
 20
10.378458
 30
0.0
 10
9.259073
 20
10.417048
 30
0.0
 10
9.166457
 20
10.458211
 30
0.0
 10
9.073841
 20
10.504519
 30
0.0
 10
8.983797
 20
10.553400
 30
0.0
 10
8.896326
 20
10.602280
 30
0.0
 10
8.811428
 20
10.656306
 30
0.0
 10
8.726505
 20
10.712930
 30
0.0
 10
8.641607
 20
10.772101
 30
0.0
 10
8.561854
 20
10.831273
 30
0.0
 10
8.482101
 20
10.895590
 30
0.0
 10
8.404921
 20
10.962479
 30
0.0
 10
8.327741
 20
11.029369
 30
0.0
 10
8.253133
 20
11.098831
 30
0.0
 10
8.181099
 20
11.170866
 30
0.0
 10
8.111636
 20
11.242901
 30
0.0
 10
8.042174
 20
11.317508
 30
0.0
 10
7.975285
 20
11.394688
 30
0.0
 10
7.910968
 20
11.474441
 30
0.0
 10
7.849224
 20
11.554194
 30
0.0
 10
7.787480
 20
11.633947
 30
0.0
 10
7.728308
 20
11.718845
 30
0.0
 10
7.671709
 20
11.801170
 30
0.0
 10
7.615111
 20
11.886069
 30
0.0
 10
7.561085
 20
11.973540
 30
0.0
 10
7.509631
 20
12.061010
 30
0.0
 10
7.460750
 20
12.148481
 30
0.0
 10
7.411870
 20
12.238525
 30
0.0
 10
7.365561
 20
12.328568
 30
0.0
 10
7.319253
 20
12.421185
 30
0.0
 10
7.275518
 20
12.511228
 30
0.0
 10
7.234355
 20
12.603844
 30
0.0
 10
7.195765
 20
12.699033
 30
0.0
 10
7.157175
 20
12.791649
 30
0.0
 10
7.121158
 20
12.886838
 30
0.0
 10
7.085140
 20
12.982027
 30
0.0
 10
7.051695
 20
13.079789
 30
0.0
 10
7.020823
 20
13.174978
 30
0.0
 10
6.989951
 20
13.272739
 30
0.0
 10
6.961652
 20
13.370501
 30
0.0
 10
6.933352
 20
13.468262
 30
0.0
 10
6.907626
 20
13.566024
 30
0.0
 10
6.881899
 20
13.666358
 30
0.0
 10
6.858745
 20
13.764120
 30
0.0
 10
6.833018
 20
13.864454
 30
0.0
 10
6.809864
 20
13.964788
 30
0.0
 10
6.786710
 20
14.062550
 30
0.0
 10
6.766129
 20
14.162884
 30
0.0
 10
6.742975
 20
14.263218
 30
0.0
 10
6.722393
 20
14.363552
 30
0.0
 10
6.701812
 20
14.463886
 30
0.0
 10
6.683803
 20
14.564221
 30
0.0
 10
6.663222
 20
14.664555
 30
0.0
 10
6.645213
 20
14.764889
 30
0.0
 10
6.627204
 20
14.867796
 30
0.0
 10
6.611768
 20
14.968130
 30
0.0
 10
6.593760
 20
15.068465
 30
0.0
 10
6.578324
 20
15.168799
 30
0.0
 10
6.562888
 20
15.271706
 30
0.0
 10
6.550024
 20
15.372040
 30
0.0
 10
6.534588
 20
15.474947
 30
0.0
 10
6.521725
 20
15.575281
 30
0.0
 10
6.508861
 20
15.675615
 30
0.0
 10
6.495998
 20
15.778522
 30
0.0
 10
6.485707
 20
15.878856
 30
0.0
 10
6.475417
 20
15.981763
 30
0.0
 10
6.462553
 20
16.084670
 30
0.0
 10
6.454835
 20
16.185004
 30
0.0
 10
6.444545
 20
16.287911
 30
0.0
 10
6.434254
 20
16.388246
 30
0.0
 10
6.426536
 20
16.491152
 30
0.0
 10
6.418818
 20
16.594059
 30
0.0
 10
6.411100
 20
16.694394
 30
0.0
 10
6.403382
 20
16.797300
 30
0.0
 10
6.398237
 20
16.900207
 30
0.0
 10
6.390519
 20
17.003114
 30
0.0
 10
6.385373
 20
17.103448
 30
0.0
 10
6.380228
 20
17.206355
 30
0.0
 10
6.375082
 20
17.309262
 30
0.0
 10
6.369937
 20
17.409597
 30
0.0
 10
6.364792
 20
17.512503
 30
0.0
 10
6.359646
 20
17.615410
 30
0.0
 10
6.357074
 20
17.718317
 30
0.0
 10
6.351928
 20
17.818651
 30
0.0
 10
6.349356
 20
17.921558
 30
0.0
 10
6.346783
 20
18.024465
 30
0.0
 10
6.344210
 20
18.127372
 30
0.0
 10
6.341638
 20
18.230279
 30
0.0
 10
6.339065
 20
18.330613
 30
0.0
 10
6.336492
 20
18.433520
 30
0.0
 10
6.333920
 20
18.536427
 30
0.0
 10
6.333920
 20
18.639334
 30
0.0
 10
6.331347
 20
18.739668
 30
0.0
 10
6.328774
 20
18.842575
 30
0.0
 10
6.328774
 20
18.945482
 30
0.0
 10
6.328774
 20
19.048389
 30
0.0
 10
6.326202
 20
19.151296
 30
0.0
 10
6.326202
 20
19.251630
 30
0.0
 10
6.326202
 20
19.354537
 30
0.0
 10
6.323629
 20
19.457444
 30
0.0
 10
6.323629
 20
19.560351
 30
0.0
 10
6.323629
 20
19.660685
 30
0.0
 10
6.323629
 20
19.763592
 30
0.0
 10
6.323629
 20
19.866499
 30
0.0
 10
6.323629
 20
19.969406
 30
0.0
 10
6.326202
 20
20.069740
 30
0.0
 10
6.326202
 20
20.172647
 30
0.0
 10
6.326202
 20
20.272981
 30
0.0
 10
6.326202
 20
20.375888
 30
0.0
 10
6.328774
 20
20.478795
 30
0.0
 10
6.328774
 20
20.579129
 30
0.0
 10
6.331347
 20
20.682036
 30
0.0
 10
6.331347
 20
20.782370
 30
0.0
 10
6.333920
 20
20.885277
 30
0.0
 10
6.336492
 20
20.988184
 30
0.0
 10
6.339065
 20
21.088518
 30
0.0
 10
6.341638
 20
21.191425
 30
0.0
 10
6.344210
 20
21.291759
 30
0.0
 10
6.346783
 20
21.394666
 30
0.0
 10
6.349356
 20
21.497573
 30
0.0
 10
6.351928
 20
21.597907
 30
0.0
 10
6.357074
 20
21.700814
 30
0.0
 10
6.362219
 20
21.801149
 30
0.0
 10
6.364792
 20
21.904055
 30
0.0
 10
6.369937
 20
22.006962
 30
0.0
 10
6.375082
 20
22.107297
 30
0.0
 10
6.382801
 20
22.210203
 30
0.0
 10
6.387946
 20
22.310538
 30
0.0
 10
6.395664
 20
22.413445
 30
0.0
 10
6.400809
 20
22.513779
 30
0.0
 10
6.408527
 20
22.616686
 30
0.0
 10
6.418818
 20
22.717020
 30
0.0
 10
6.426536
 20
22.819927
 30
0.0
 10
6.436827
 20
22.920261
 30
0.0
 10
6.447117
 20
23.023168
 30
0.0
 10
6.457408
 20
23.123502
 30
0.0
 10
6.467699
 20
23.223836
 30
0.0
 10
6.480562
 20
23.326743
 30
0.0
 10
6.493425
 20
23.427078
 30
0.0
 10
6.506289
 20
23.527412
 30
0.0
 10
6.521725
 20
23.627746
 30
0.0
 10
6.537161
 20
23.730653
 30
0.0
 10
6.555170
 20
23.830987
 30
0.0
 10
6.573178
 20
23.931321
 30
0.0
 10
6.591187
 20
24.031656
 30
0.0
 10
6.611768
 20
24.129417
 30
0.0
 10
6.632350
 20
24.229751
 30
0.0
 10
6.655504
 20
24.330086
 30
0.0
 10
6.678658
 20
24.427847
 30
0.0
 10
6.704385
 20
24.528181
 30
0.0
 10
6.732684
 20
24.625943
 30
0.0
 10
6.760983
 20
24.723704
 30
0.0
 10
6.791855
 20
24.821466
 30
0.0
 10
6.822728
 20
24.916655
 30
0.0
 10
6.856172
 20
25.014416
 30
0.0
 10
6.892190
 20
25.109605
 30
0.0
 10
6.928207
 20
25.204794
 30
0.0
 10
6.966797
 20
25.297410
 30
0.0
 10
7.007960
 20
25.392599
 30
0.0
 10
7.049123
 20
25.485216
 30
0.0
 10
7.095431
 20
25.577832
 30
0.0
 10
7.144312
 20
25.667875
 30
0.0
 10
7.193192
 20
25.755346
 30
0.0
 10
7.247218
 20
25.842817
 30
0.0
 10
7.303817
 20
25.930288
 30
0.0
 10
7.362989
 20
26.012613
 30
0.0
 10
7.424733
 20
26.094939
 30
0.0
 10
7.489050
 20
26.172119
 30
0.0
 10
7.558512
 20
26.246727
 30
0.0
 10
7.630547
 20
26.321334
 30
0.0
 10
7.707727
 20
26.388224
 30
0.0
 10
7.787480
 20
26.452540
 30
0.0
 10
7.869805
 20
26.514285
 30
0.0
 10
7.954703
 20
26.568311
 30
0.0
 10
8.044747
 20
26.617191
 30
0.0
 10
8.137363
 20
26.660927
 30
0.0
 10
8.235125
 20
26.696944
 30
0.0
 10
8.332886
 20
26.725244
 30
0.0
 10
8.433221
 20
26.745825
 30
0.0
 10
8.533555
 20
26.758688
 30
0.0
 10
8.636462
 20
26.763834
 30
0.0
 10
8.739369
 20
26.761261
 30
0.0
 10
8.839703
 20
26.748398
 30
0.0
 10
8.940037
 20
26.730389
 30
0.0
 10
9.037799
 20
26.702090
 30
0.0
 10
9.135560
 20
26.668645
 30
0.0
 10
9.228176
 20
26.627482
 30
0.0
 10
9.320793
 20
26.578601
 30
0.0
 10
9.408263
 20
26.527148
 30
0.0
 10
9.493162
 20
26.470549
 30
0.0
 10
9.572914
 20
26.408805
 30
0.0
 10
9.652667
 20
26.341915
 30
0.0
 10
9.727275
 20
26.272453
 30
0.0
 10
9.799310
 20
26.200419
 30
0.0
 10
9.868772
 20
26.123238
 30
0.0
 10
9.933089
 20
26.046058
 30
0.0
 10
9.997405
 20
25.966305
 30
0.0
 10
10.056577
 20
25.881407
 30
0.0
 10
10.115748
 20
25.799082
 30
0.0
 10
10.156911
 20
25.734765
 30
0.0
 10
10.198074
 20
25.670448
 30
0.0
 10
10.241809
 20
25.606131
 30
0.0
 10
10.303553
 20
25.678166
 30
0.0
 10
10.367870
 20
25.750201
 30
0.0
 10
10.429614
 20
25.824808
 30
0.0
 10
10.493931
 20
25.896843
 30
0.0
 10
10.555675
 20
25.968878
 30
0.0
 10
10.619992
 20
26.040913
 30
0.0
 10
10.681736
 20
26.112948
 30
0.0
 10
10.746053
 20
26.187555
 30
0.0
 10
10.807797
 20
26.259590
 30
0.0
 10
10.869541
 20
26.331625
 30
0.0
 10
10.933858
 20
26.403660
 30
0.0
 10
10.995602
 20
26.478267
 30
0.0
 10
11.059919
 20
26.550302
 30
0.0
 10
11.121663
 20
26.622337
 30
0.0
 10
11.062492
 20
26.686654
 30
0.0
 10
11.003320
 20
26.748398
 30
0.0
 10
10.944149
 20
26.810142
 30
0.0
 10
10.884977
 20
26.874459
 30
0.0
 10
10.812943
 20
26.946494
 30
0.0
 10
10.738335
 20
27.013383
 30
0.0
 10
10.661155
 20
27.080273
 30
0.0
 10
10.583975
 20
27.144589
 30
0.0
 10
10.504222
 20
27.208906
 30
0.0
 10
10.424469
 20
27.270650
 30
0.0
 10
10.344716
 20
27.332394
 30
0.0
 10
10.264963
 20
27.394139
 30
0.0
 10
10.182638
 20
27.453310
 30
0.0
 10
10.100312
 20
27.512481
 30
0.0
 10
10.017987
 20
27.569080
 30
0.0
 10
9.933089
 20
27.628252
 30
0.0
 10
9.848190
 20
27.684851
 30
0.0
 10
9.765865
 20
27.738877
 30
0.0
 10
9.678394
 20
27.792903
 30
0.0
 10
9.593496
 20
27.846929
 30
0.0
 10
9.506025
 20
27.898382
 30
0.0
 10
9.418554
 20
27.947263
 30
0.0
 10
9.328511
 20
27.996144
 30
0.0
 10
9.235894
 20
28.039879
 30
0.0
 10
9.143278
 20
28.083615
 30
0.0
 10
9.050662
 20
28.124778
 30
0.0
 10
8.955473
 20
28.165940
 30
0.0
 10
8.860284
 20
28.204530
 30
0.0
 10
8.765095
 20
28.240548
 30
0.0
 10
8.667334
 20
28.273993
 30
0.0
 10
8.572145
 20
28.307437
 30
0.0
 10
8.474383
 20
28.338309
 30
0.0
 10
8.374049
 20
28.366609
 30
0.0
 10
8.276287
 20
28.394908
 30
0.0
 10
8.175953
 20
28.418062
 30
0.0
 10
8.078192
 20
28.441216
 30
0.0
 10
7.977857
 20
28.464370
 30
0.0
 10
7.877523
 20
28.482379
 30
0.0
 10
7.774616
 20
28.500388
 30
0.0
 10
7.674282
 20
28.515824
 30
0.0
 10
7.573948
 20
28.531260
 30
0.0
 10
7.471041
 20
28.541550
 30
0.0
 10
7.368134
 20
28.551841
 30
0.0
 10
7.267800
 20
28.562132
 30
0.0
 10
7.164893
 20
28.567277
 30
0.0
 10
7.061986
 20
28.572423
 30
0.0
 10
6.959079
 20
28.574995
 30
0.0
 10
6.858745
 20
28.574995
 30
0.0
 10
6.755838
 20
28.574995
 30
0.0
 10
6.755838
 20
28.574995
 30
0.0
  0
ENDSEC
  0
SECTION
  2
OBJECTS
  0
DICTIONARY
  5
C
330
0
100
AcDbDictionary
  3
ACAD_GROUP
350
D
  3
ACAD_MLINESTYLE
350
17
  0
DICTIONARY
  5
D
330
C
100
AcDbDictionary
  0
DICTIONARY
  5
1A
330
C
100
AcDbDictionary
  0
DICTIONARY
  5
17
330
C
100
AcDbDictionary
  3
STANDARD
350
18
  0
DICTIONARY
  5
19
330
C
100
AcDbDictionary
  0
ENDSEC
  0
EOF
