  0
SECTION
  2
HEADER
  9
$ACADVER
  1
AC1014
  9
$HANDSEED
  5
FFFF
  9
$MEASUREMENT
 70
     1
  0
ENDSEC
  0
SECTION
  2
TABLES
  0
TABLE
  2
VPORT
  5
8
330
0
100
AcDbSymbolTable
 70
     4
  0
VPORT
  5
2E
330
8
100
AcDbSymbolTableRecord
100
AcDbViewportTableRecord
  2
*ACTIVE
 70
     0
 10
0.0
 20
0.0
 11
1.0
 21
1.0
 12
210.0
 22
148.5
 13
0.0
 23
0.0
 14
10.0
 24
10.0
 15
10.0
 25
10.0
 16
0.0
 26
0.0
 36
1.0
 17
0.0
 27
0.0
 37
0.0
 40
341.0
 41
1.24
 42
50.0
 43
0.0
 44
0.0
 50
0.0
 51
0.0
 71
     0
 72
   100
 73
     1
 74
     3
 75
     0
 76
     0
 77
     0
 78
     0
  0
ENDTAB
  0
TABLE
  2
LTYPE
  5
5
330
0
100
AcDbSymbolTable
 70
     1
  0
LTYPE
  5
14
330
5
100
AcDbSymbolTableRecord
100
AcDbLinetypeTableRecord
  2
BYBLOCK
 70
     0
  3

 72
    65
 73
     0
 40
0.0
  0
LTYPE
  5
15
330
5
100
AcDbSymbolTableRecord
100
AcDbLinetypeTableRecord
  2
BYLAYER
 70
     0
  3

 72
    65
 73
     0
 40
0.0
  0
LTYPE
  5
16
330
5
100
AcDbSymbolTableRecord
100
AcDbLinetypeTableRecord
  2
CONTINUOUS
 70
     0
  3
Solid line
 72
    65
 73
     0
 40
0.0
  0
ENDTAB
  0
TABLE
  2
LAYER
  5
2
100
AcDbSymbolTable
 70
2
  0
LAYER
  5
50
100
AcDbSymbolTableRecord
100
AcDbLayerTableRecord
  2
0
 70
0
  6
CONTINUOUS
  0
LAYER
  5
51
100
AcDbSymbolTableRecord
100
AcDbLayerTableRecord
  2
Layer_1
 70
0
  6
CONTINUOUS
  0
ENDTAB
  0
TABLE
  2
STYLE
  5
3
330
0
100
AcDbSymbolTable
 70
     1
  0
STYLE
  5
11
330
3
100
AcDbSymbolTableRecord
100
AcDbTextStyleTableRecord
  2
STANDARD
 70
     0
 40
0.0
 41
1.0
 50
0.0
 71
     0
 42
2.5
  3
txt
  4

  0
ENDTAB
  0
TABLE
  2
VIEW
  5
6
330
0
100
AcDbSymbolTable
 70
     0
  0
ENDTAB
  0
TABLE
  2
UCS
  5
7
330
0
100
AcDbSymbolTable
 70
     0
  0
ENDTAB
  0
TABLE
  2
APPID
  5
9
330
0
100
AcDbSymbolTable
 70
     2
  0
APPID
  5
12
330
9
100
AcDbSymbolTableRecord
100
AcDbRegAppTableRecord
  2
ACAD
 70
     0
  0
ENDTAB
  0
TABLE
  2
DIMSTYLE
  5
A
330
0
100
AcDbSymbolTable
 70
     1
  0
DIMSTYLE
105
27
330
A
100
AcDbSymbolTableRecord
100
AcDbDimStyleTableRecord
  2
ISO-25
 70
     0
  3

  4

  5

  6

  7

 40
1.0
 41
2.5
 42
0.625
 43
3.75
 44
1.25
 45
0.0
 46
0.0
 47
0.0
 48
0.0
140
2.5
141
2.5
142
0.0
143
0.03937007874016
144
1.0
145
0.0
146
1.0
147
0.625
 71
     0
 72
     0
 73
     0
 74
     0
 75
     0
 76
     0
 77
     1
 78
     8
170
     0
171
     3
172
     1
173
     0
174
     0
175
     0
176
     0
177
     0
178
     0
270
     2
271
     2
272
     2
273
     2
274
     3
340
11
275
     0
280
     0
281
     0
282
     0
283
     0
284
     8
285
     0
286
     0
287
     3
288
     0
  0
ENDTAB
  0
TABLE
  2
BLOCK_RECORD
  5
1
330
0
100
AcDbSymbolTable
 70
     1
  0
BLOCK_RECORD
  5
1F
330
1
100
AcDbSymbolTableRecord
100
AcDbBlockTableRecord
  2
*MODEL_SPACE
  0
BLOCK_RECORD
  5
1B
330
1
100
AcDbSymbolTableRecord
100
AcDbBlockTableRecord
  2
*PAPER_SPACE
  0
ENDTAB
  0
ENDSEC
  0
SECTION
  2
BLOCKS
  0
BLOCK
  5
20
330
1F
100
AcDbEntity
  8
0
100
AcDbBlockBegin
  2
*MODEL_SPACE
 70
     0
 10
0.0
 20
0.0
 30
0.0
  3
*MODEL_SPACE
  1

  0
ENDBLK
  5
21
330
1F
100
AcDbEntity
  8
0
100
AcDbBlockEnd
  0
BLOCK
  5
1C
330
1B
100
AcDbEntity
 67
     1
  8
0
100
AcDbBlockBegin
  2
*PAPER_SPACE
  1

  0
ENDBLK
  5
1D
330
1B
100
AcDbEntity
 67
     1
  8
0
100
AcDbBlockEnd
  0
ENDSEC
  0
SECTION
  2
ENTITIES
  0
LWPOLYLINE
  5
100
100
AcDbEntity
  8
Layer_1
 62
7
100
AcDbPolyline
 90
76
 70
0
 10
-207.248125
 20
145.596597
 30
0.0
 10
-209.629375
 20
144.123750
 30
0.0
 10
-211.992986
 20
142.624444
 30
0.0
 10
-214.356597
 20
141.125139
 30
0.0
 10
-216.720208
 20
139.625833
 30
0.0
 10
-219.083819
 20
138.117708
 30
0.0
 10
-221.447431
 20
136.609583
 30
0.0
 10
-223.802222
 20
135.101458
 30
0.0
 10
-226.165833
 20
133.593333
 30
0.0
 10
-228.520625
 20
132.085208
 30
0.0
 10
-230.884236
 20
130.577083
 30
0.0
 10
-233.239028
 20
129.068958
 30
0.0
 10
-235.602639
 20
127.560833
 30
0.0
 10
-237.957431
 20
126.043889
 30
0.0
 10
-240.312222
 20
124.535764
 30
0.0
 10
-242.675833
 20
123.027639
 30
0.0
 10
-245.030625
 20
121.519514
 30
0.0
 10
-247.394236
 20
120.011389
 30
0.0
 10
-249.749028
 20
118.494444
 30
0.0
 10
-250.904375
 20
119.693889
 30
0.0
 10
-252.315486
 20
120.840417
 30
0.0
 10
-253.894167
 20
121.757639
 30
0.0
 10
-255.816806
 20
122.463194
 30
0.0
 10
-257.871736
 20
122.621944
 30
0.0
 10
-260.358819
 20
122.375000
 30
0.0
 10
-262.731250
 20
121.572431
 30
0.0
 10
-264.847917
 20
120.240694
 30
0.0
 10
-266.611806
 20
118.459167
 30
0.0
 10
-267.961181
 20
116.086736
 30
0.0
 10
-268.605000
 20
113.432083
 30
0.0
 10
-268.552083
 20
110.698056
 30
0.0
 10
-267.802431
 20
108.078681
 30
0.0
 10
-266.338403
 20
105.767986
 30
0.0
 10
-264.812639
 20
104.471528
 30
0.0
 10
-263.101667
 20
103.430833
 30
0.0
 10
-261.231944
 20
102.760556
 30
0.0
 10
-260.711597
 20
100.829097
 30
0.0
 10
-260.614583
 20
99.232778
 30
0.0
 10
-260.332361
 20
97.654097
 30
0.0
 10
-259.441597
 20
95.634444
 30
0.0
 10
-258.109861
 20
93.879375
 30
0.0
 10
-256.425347
 20
92.459444
 30
0.0
 10
-254.458611
 20
91.454028
 30
0.0
 10
-251.768681
 20
90.942500
 30
0.0
 10
-249.025833
 20
91.101250
 30
0.0
 10
-246.397639
 20
91.868542
 30
0.0
 10
-244.069306
 20
93.323750
 30
0.0
 10
-242.208403
 20
95.334583
 30
0.0
 10
-240.920764
 20
97.759931
 30
0.0
 10
-240.312222
 20
100.441042
 30
0.0
 10
-240.426875
 20
103.175069
 30
0.0
 10
-241.300000
 20
105.776806
 30
0.0
 10
-241.926181
 20
107.037986
 30
0.0
 10
-241.308819
 20
107.514236
 30
0.0
 10
-239.165694
 20
109.216389
 30
0.0
 10
-237.031389
 20
110.927361
 30
0.0
 10
-234.905903
 20
112.655972
 30
0.0
 10
-232.780417
 20
114.375764
 30
0.0
 10
-230.654931
 20
116.104375
 30
0.0
 10
-228.529444
 20
117.832986
 30
0.0
 10
-226.403958
 20
119.570417
 30
0.0
 10
-224.287292
 20
121.299028
 30
0.0
 10
-222.161806
 20
123.027639
 30
0.0
 10
-220.045139
 20
124.765069
 30
0.0
 10
-217.928472
 20
126.493681
 30
0.0
 10
-215.802986
 20
128.231111
 30
0.0
 10
-213.686319
 20
129.968542
 30
0.0
 10
-211.569653
 20
131.705972
 30
0.0
 10
-209.461806
 20
133.443403
 30
0.0
 10
-207.345139
 20
135.189653
 30
0.0
 10
-205.237292
 20
136.935903
 30
0.0
 10
-203.147083
 20
138.699792
 30
0.0
 10
-204.443542
 20
141.036944
 30
0.0
 10
-205.845833
 20
143.321181
 30
0.0
 10
-207.248125
 20
145.596597
 30
0.0
 10
-207.248125
 20
145.596597
 30
0.0
  0
LWPOLYLINE
  5
101
100
AcDbEntity
  8
Layer_1
 62
7
100
AcDbPolyline
 90
198
 70
0
 10
-91.775139
 20
148.321806
 30
0.0
 10
-128.270000
 20
148.480556
 30
0.0
 10
-127.749653
 20
147.695625
 30
0.0
 10
-126.373819
 20
145.534861
 30
0.0
 10
-127.008819
 20
145.420208
 30
0.0
 10
-129.257778
 20
145.499583
 30
0.0
 10
-131.515556
 20
145.561319
 30
0.0
 10
-133.773333
 20
145.631875
 30
0.0
 10
-136.022292
 20
145.693611
 30
0.0
 10
-138.685764
 20
145.764167
 30
0.0
 10
-141.349236
 20
145.834722
 30
0.0
 10
-144.012708
 20
145.914097
 30
0.0
 10
-146.676181
 20
146.002292
 30
0.0
 10
-148.951597
 20
146.081667
 30
0.0
 10
-147.575764
 20
148.145417
 30
0.0
 10
-147.293542
 20
148.568750
 30
0.0
 10
-204.849236
 20
148.824514
 30
0.0
 10
-204.831597
 20
148.771597
 30
0.0
 10
-203.640972
 20
146.249236
 30
0.0
 10
-202.326875
 20
143.797431
 30
0.0
 10
-200.880486
 20
141.416181
 30
0.0
 10
-199.310625
 20
139.114306
 30
0.0
 10
-197.634931
 20
136.891806
 30
0.0
 10
-195.844583
 20
134.748681
 30
0.0
 10
-193.957222
 20
132.702569
 30
0.0
 10
-191.972847
 20
130.744653
 30
0.0
 10
-189.900278
 20
128.883750
 30
0.0
 10
-187.739514
 20
127.119861
 30
0.0
 10
-185.499375
 20
125.461806
 30
0.0
 10
-183.188681
 20
123.909583
 30
0.0
 10
-180.807431
 20
122.472014
 30
0.0
 10
-178.355625
 20
121.140278
 30
0.0
 10
-175.850903
 20
119.923194
 30
0.0
 10
-173.293264
 20
118.820764
 30
0.0
 10
-170.964931
 20
117.885903
 30
0.0
 10
-170.964931
 20
115.363542
 30
0.0
 10
-170.964931
 20
112.832361
 30
0.0
 10
-170.964931
 20
110.301181
 30
0.0
 10
-170.964931
 20
107.770000
 30
0.0
 10
-170.964931
 20
105.247639
 30
0.0
 10
-170.964931
 20
102.716458
 30
0.0
 10
-170.964931
 20
100.185278
 30
0.0
 10
-170.964931
 20
97.654097
 30
0.0
 10
-170.964931
 20
95.131736
 30
0.0
 10
-170.964931
 20
92.600556
 30
0.0
 10
-168.989375
 20
92.600556
 30
0.0
 10
-167.013819
 20
92.600556
 30
0.0
 10
-165.038264
 20
92.600556
 30
0.0
 10
-163.062708
 20
92.600556
 30
0.0
 10
-163.053889
 20
95.387500
 30
0.0
 10
-163.045069
 20
98.174444
 30
0.0
 10
-163.027431
 20
100.961389
 30
0.0
 10
-163.018611
 20
103.748333
 30
0.0
 10
-163.009792
 20
106.535278
 30
0.0
 10
-162.992153
 20
109.322222
 30
0.0
 10
-162.983333
 20
112.109167
 30
0.0
 10
-162.965694
 20
114.896111
 30
0.0
 10
-162.956875
 20
117.683056
 30
0.0
 10
-162.948056
 20
120.470000
 30
0.0
 10
-162.930417
 20
123.256944
 30
0.0
 10
-162.921597
 20
126.043889
 30
0.0
 10
-160.804931
 20
126.043889
 30
0.0
 10
-158.688264
 20
126.043889
 30
0.0
 10
-158.679444
 20
123.256944
 30
0.0
 10
-158.661806
 20
120.470000
 30
0.0
 10
-158.652986
 20
117.683056
 30
0.0
 10
-158.635347
 20
114.896111
 30
0.0
 10
-158.626528
 20
112.109167
 30
0.0
 10
-158.617708
 20
109.322222
 30
0.0
 10
-158.600069
 20
106.535278
 30
0.0
 10
-158.591250
 20
103.748333
 30
0.0
 10
-158.582431
 20
100.961389
 30
0.0
 10
-158.564792
 20
98.174444
 30
0.0
 10
-158.555972
 20
95.387500
 30
0.0
 10
-158.538333
 20
92.600556
 30
0.0
 10
-155.866042
 20
92.600556
 30
0.0
 10
-153.184931
 20
92.600556
 30
0.0
 10
-153.184931
 20
95.167014
 30
0.0
 10
-153.184931
 20
97.724653
 30
0.0
 10
-153.184931
 20
100.291111
 30
0.0
 10
-153.184931
 20
102.857569
 30
0.0
 10
-153.184931
 20
105.415208
 30
0.0
 10
-153.184931
 20
107.981667
 30
0.0
 10
-153.184931
 20
110.548125
 30
0.0
 10
-153.184931
 20
113.105764
 30
0.0
 10
-153.184931
 20
115.672222
 30
0.0
 10
-153.184931
 20
118.238681
 30
0.0
 10
-153.184931
 20
120.796319
 30
0.0
 10
-153.184931
 20
123.362778
 30
0.0
 10
-151.279931
 20
123.362778
 30
0.0
 10
-149.374931
 20
123.362778
 30
0.0
 10
-147.469931
 20
123.362778
 30
0.0
 10
-145.564931
 20
123.362778
 30
0.0
 10
-145.564931
 20
120.796319
 30
0.0
 10
-145.564931
 20
118.238681
 30
0.0
 10
-145.564931
 20
115.672222
 30
0.0
 10
-145.564931
 20
113.105764
 30
0.0
 10
-145.564931
 20
110.548125
 30
0.0
 10
-145.564931
 20
107.981667
 30
0.0
 10
-145.564931
 20
105.415208
 30
0.0
 10
-145.564931
 20
102.857569
 30
0.0
 10
-145.564931
 20
100.291111
 30
0.0
 10
-145.564931
 20
97.724653
 30
0.0
 10
-145.564931
 20
95.167014
 30
0.0
 10
-145.564931
 20
92.600556
 30
0.0
 10
-143.942153
 20
92.600556
 30
0.0
 10
-142.319375
 20
92.600556
 30
0.0
 10
-140.696597
 20
92.600556
 30
0.0
 10
-139.073819
 20
92.600556
 30
0.0
 10
-139.073819
 20
95.043542
 30
0.0
 10
-139.073819
 20
97.477708
 30
0.0
 10
-139.073819
 20
99.920694
 30
0.0
 10
-139.073819
 20
102.354861
 30
0.0
 10
-139.073819
 20
104.797847
 30
0.0
 10
-139.073819
 20
107.232014
 30
0.0
 10
-139.073819
 20
109.675000
 30
0.0
 10
-139.073819
 20
112.117986
 30
0.0
 10
-139.073819
 20
114.552153
 30
0.0
 10
-139.073819
 20
116.995139
 30
0.0
 10
-139.073819
 20
119.429306
 30
0.0
 10
-139.073819
 20
121.872292
 30
0.0
 10
-139.073819
 20
124.306458
 30
0.0
 10
-139.073819
 20
126.749444
 30
0.0
 10
-136.392708
 20
126.749444
 30
0.0
 10
-133.711597
 20
126.749444
 30
0.0
 10
-133.711597
 20
124.306458
 30
0.0
 10
-133.711597
 20
121.872292
 30
0.0
 10
-133.711597
 20
119.429306
 30
0.0
 10
-133.711597
 20
116.995139
 30
0.0
 10
-133.711597
 20
114.552153
 30
0.0
 10
-133.711597
 20
112.117986
 30
0.0
 10
-133.711597
 20
109.675000
 30
0.0
 10
-133.711597
 20
107.232014
 30
0.0
 10
-133.711597
 20
104.797847
 30
0.0
 10
-133.711597
 20
102.354861
 30
0.0
 10
-133.711597
 20
99.920694
 30
0.0
 10
-133.711597
 20
97.477708
 30
0.0
 10
-133.711597
 20
95.043542
 30
0.0
 10
-133.711597
 20
92.600556
 30
0.0
 10
-132.018264
 20
92.600556
 30
0.0
 10
-130.324931
 20
92.600556
 30
0.0
 10
-128.631597
 20
92.600556
 30
0.0
 10
-126.938264
 20
92.600556
 30
0.0
 10
-126.938264
 20
95.281667
 30
0.0
 10
-126.938264
 20
97.962778
 30
0.0
 10
-126.938264
 20
100.652708
 30
0.0
 10
-126.938264
 20
103.333819
 30
0.0
 10
-126.938264
 20
106.014931
 30
0.0
 10
-126.938264
 20
108.696042
 30
0.0
 10
-126.938264
 20
111.377153
 30
0.0
 10
-126.938264
 20
114.067083
 30
0.0
 10
-126.938264
 20
116.748194
 30
0.0
 10
-126.938264
 20
119.429306
 30
0.0
 10
-125.280208
 20
119.394028
 30
0.0
 10
-123.622153
 20
119.349931
 30
0.0
 10
-121.964097
 20
119.305833
 30
0.0
 10
-120.306042
 20
119.270556
 30
0.0
 10
-120.288403
 20
116.607083
 30
0.0
 10
-120.279583
 20
113.934792
 30
0.0
 10
-120.261944
 20
111.271319
 30
0.0
 10
-120.244306
 20
108.599028
 30
0.0
 10
-120.235486
 20
105.935556
 30
0.0
 10
-120.217847
 20
103.272083
 30
0.0
 10
-120.200208
 20
100.599792
 30
0.0
 10
-120.191389
 20
97.936319
 30
0.0
 10
-120.173750
 20
95.264028
 30
0.0
 10
-120.156111
 20
92.600556
 30
0.0
 10
-118.180556
 20
92.600556
 30
0.0
 10
-116.213819
 20
92.600556
 30
0.0
 10
-114.238264
 20
92.600556
 30
0.0
 10
-112.262708
 20
92.600556
 30
0.0
 10
-112.262708
 20
95.255208
 30
0.0
 10
-112.262708
 20
97.901042
 30
0.0
 10
-112.262708
 20
100.555694
 30
0.0
 10
-112.262708
 20
103.210347
 30
0.0
 10
-112.262708
 20
105.865000
 30
0.0
 10
-112.262708
 20
108.510833
 30
0.0
 10
-112.262708
 20
111.165486
 30
0.0
 10
-112.262708
 20
113.820139
 30
0.0
 10
-112.262708
 20
116.465972
 30
0.0
 10
-112.262708
 20
119.120625
 30
0.0
 10
-112.262708
 20
121.775278
 30
0.0
 10
-112.262708
 20
124.429931
 30
0.0
 10
-111.027986
 20
125.347153
 30
0.0
 10
-109.793264
 20
126.264375
 30
0.0
 10
-107.861806
 20
127.746042
 30
0.0
 10
-105.983264
 20
129.280625
 30
0.0
 10
-104.166458
 20
130.903403
 30
0.0
 10
-102.437847
 20
132.605556
 30
0.0
 10
-100.788611
 20
134.387083
 30
0.0
 10
-99.218750
 20
136.247986
 30
0.0
 10
-97.728264
 20
138.161806
 30
0.0
 10
-96.193681
 20
140.322569
 30
0.0
 10
-94.764931
 20
142.553889
 30
0.0
 10
-93.450833
 20
144.855764
 30
0.0
 10
-92.260208
 20
147.219375
 30
0.0
 10
-91.775139
 20
148.321806
 30
0.0
 10
-91.775139
 20
148.321806
 30
0.0
  0
LWPOLYLINE
  5
102
100
AcDbEntity
  8
Layer_1
 62
7
100
AcDbPolyline
 90
75
 70
0
 10
-91.792778
 20
143.920903
 30
0.0
 10
-93.124514
 20
141.548472
 30
0.0
 10
-94.332778
 20
139.105486
 30
0.0
 10
-95.399931
 20
136.618403
 30
0.0
 10
-93.159792
 20
135.022083
 30
0.0
 10
-90.910833
 20
133.443403
 30
0.0
 10
-88.653056
 20
131.855903
 30
0.0
 10
-86.404097
 20
130.277222
 30
0.0
 10
-84.155139
 20
128.698542
 30
0.0
 10
-81.906181
 20
127.119861
 30
0.0
 10
-79.657222
 20
125.541181
 30
0.0
 10
-77.399444
 20
123.962500
 30
0.0
 10
-75.150486
 20
122.383819
 30
0.0
 10
-72.892708
 20
120.796319
 30
0.0
 10
-70.634931
 20
119.208819
 30
0.0
 10
-68.377153
 20
117.630139
 30
0.0
 10
-66.119375
 20
116.042639
 30
0.0
 10
-63.861597
 20
114.455139
 30
0.0
 10
-61.612639
 20
112.867639
 30
0.0
 10
-59.354861
 20
111.280139
 30
0.0
 10
-57.097083
 20
109.692639
 30
0.0
 10
-54.856944
 20
108.096319
 30
0.0
 10
-55.139167
 20
106.658750
 30
0.0
 10
-55.668333
 20
104.039375
 30
0.0
 10
-55.633056
 20
101.349444
 30
0.0
 10
-55.042153
 20
98.738889
 30
0.0
 10
-53.772153
 20
96.728056
 30
0.0
 10
-52.114097
 20
95.025903
 30
0.0
 10
-50.165000
 20
93.658889
 30
0.0
 10
-47.977778
 20
92.715208
 30
0.0
 10
-46.275625
 20
92.459444
 30
0.0
 10
-44.555833
 20
92.450625
 30
0.0
 10
-41.910000
 20
92.926875
 30
0.0
 10
-39.502292
 20
94.108681
 30
0.0
 10
-37.526736
 20
95.934306
 30
0.0
 10
-36.097986
 20
98.209722
 30
0.0
 10
-35.454167
 20
100.229375
 30
0.0
 10
-35.365972
 20
102.363681
 30
0.0
 10
-35.383611
 20
104.930139
 30
0.0
 10
-34.060694
 20
105.397569
 30
0.0
 10
-32.058681
 20
106.544097
 30
0.0
 10
-30.382986
 20
108.131597
 30
0.0
 10
-29.095347
 20
110.045417
 30
0.0
 10
-28.389792
 20
112.126806
 30
0.0
 10
-28.310417
 20
114.331667
 30
0.0
 10
-28.407431
 20
116.554167
 30
0.0
 10
-29.130625
 20
118.635556
 30
0.0
 10
-30.435903
 20
120.567014
 30
0.0
 10
-32.067500
 20
122.233889
 30
0.0
 10
-33.963681
 20
123.574444
 30
0.0
 10
-36.477222
 20
124.465208
 30
0.0
 10
-39.123056
 20
124.703333
 30
0.0
 10
-41.751250
 20
124.271181
 30
0.0
 10
-44.176597
 20
123.177569
 30
0.0
 10
-46.205069
 20
121.457778
 30
0.0
 10
-47.563264
 20
119.940833
 30
0.0
 10
-50.015069
 20
121.272569
 30
0.0
 10
-52.475694
 20
122.613125
 30
0.0
 10
-54.927500
 20
123.953681
 30
0.0
 10
-57.379306
 20
125.285417
 30
0.0
 10
-59.831111
 20
126.625972
 30
0.0
 10
-62.282917
 20
127.966528
 30
0.0
 10
-64.734722
 20
129.298264
 30
0.0
 10
-67.186528
 20
130.638819
 30
0.0
 10
-69.638333
 20
131.979375
 30
0.0
 10
-72.090139
 20
133.319931
 30
0.0
 10
-74.550764
 20
134.651667
 30
0.0
 10
-77.002569
 20
135.992222
 30
0.0
 10
-79.463194
 20
137.323958
 30
0.0
 10
-81.923819
 20
138.655694
 30
0.0
 10
-84.384444
 20
139.987431
 30
0.0
 10
-86.845069
 20
141.310347
 30
0.0
 10
-89.314514
 20
142.633264
 30
0.0
 10
-91.792778
 20
143.920903
 30
0.0
 10
-91.792778
 20
143.920903
 30
0.0
  0
LWPOLYLINE
  5
103
100
AcDbEntity
  8
Layer_1
 62
7
100
AcDbPolyline
 90
82
 70
0
 10
-87.585903
 20
173.245556
 30
0.0
 10
-105.665764
 20
179.357431
 30
0.0
 10
-105.983264
 20
177.320139
 30
0.0
 10
-106.900486
 20
174.788958
 30
0.0
 10
-108.285139
 20
172.469444
 30
0.0
 10
-110.093125
 20
170.467431
 30
0.0
 10
-112.262708
 20
168.871111
 30
0.0
 10
-114.740972
 20
167.795139
 30
0.0
 10
-116.831181
 20
167.380625
 30
0.0
 10
-118.965486
 20
167.239514
 30
0.0
 10
-121.090972
 20
167.380625
 30
0.0
 10
-123.260556
 20
168.042083
 30
0.0
 10
-125.280208
 20
169.091597
 30
0.0
 10
-127.132292
 20
170.423333
 30
0.0
 10
-128.755069
 20
172.010833
 30
0.0
 10
-130.042708
 20
173.880556
 30
0.0
 10
-131.048125
 20
176.314722
 30
0.0
 10
-131.621389
 20
178.881181
 30
0.0
 10
-131.736042
 20
181.509375
 30
0.0
 10
-131.445000
 20
183.440833
 30
0.0
 10
-149.022153
 20
183.440833
 30
0.0
 10
-149.013333
 20
181.853333
 30
0.0
 10
-149.277917
 20
179.542639
 30
0.0
 10
-149.877639
 20
177.302500
 30
0.0
 10
-150.786042
 20
175.159375
 30
0.0
 10
-152.179514
 20
172.760486
 30
0.0
 10
-153.916944
 20
170.590903
 30
0.0
 10
-155.936597
 20
168.685903
 30
0.0
 10
-158.212014
 20
167.089583
 30
0.0
 10
-160.699097
 20
165.854861
 30
0.0
 10
-163.353750
 20
165.025833
 30
0.0
 10
-166.096597
 20
164.584861
 30
0.0
 10
-168.883542
 20
164.496667
 30
0.0
 10
-171.644028
 20
164.814167
 30
0.0
 10
-174.325139
 20
165.555000
 30
0.0
 10
-176.856319
 20
166.710347
 30
0.0
 10
-179.184653
 20
168.227292
 30
0.0
 10
-181.274861
 20
170.061736
 30
0.0
 10
-182.924097
 20
171.896181
 30
0.0
 10
-184.352847
 20
173.915833
 30
0.0
 10
-185.472917
 20
176.103056
 30
0.0
 10
-186.266667
 20
178.440208
 30
0.0
 10
-186.495972
 20
179.710208
 30
0.0
 10
-208.597500
 20
175.115278
 30
0.0
 10
-208.826806
 20
173.122083
 30
0.0
 10
-209.003194
 20
170.361597
 30
0.0
 10
-209.012014
 20
167.601111
 30
0.0
 10
-208.879722
 20
164.840625
 30
0.0
 10
-208.588681
 20
162.088958
 30
0.0
 10
-208.138889
 20
159.363750
 30
0.0
 10
-207.547986
 20
156.665000
 30
0.0
 10
-206.789514
 20
153.983889
 30
0.0
 10
-205.881111
 20
151.346875
 30
0.0
 10
-204.849236
 20
148.824514
 30
0.0
 10
-147.293542
 20
148.568750
 30
0.0
 10
-146.199931
 20
150.209167
 30
0.0
 10
-144.824097
 20
152.272917
 30
0.0
 10
-143.448264
 20
154.336667
 30
0.0
 10
-142.054792
 20
156.409236
 30
0.0
 10
-140.661319
 20
158.481806
 30
0.0
 10
-139.259028
 20
160.554375
 30
0.0
 10
-137.821458
 20
162.591667
 30
0.0
 10
-136.339792
 20
160.492639
 30
0.0
 10
-134.893403
 20
158.375972
 30
0.0
 10
-133.455833
 20
156.241667
 30
0.0
 10
-132.018264
 20
154.116181
 30
0.0
 10
-130.589514
 20
151.981875
 30
0.0
 10
-129.169583
 20
149.838750
 30
0.0
 10
-128.270000
 20
148.480556
 30
0.0
 10
-91.775139
 20
148.321806
 30
0.0
 10
-91.184236
 20
149.644722
 30
0.0
 10
-90.240556
 20
152.114167
 30
0.0
 10
-89.411528
 20
154.636528
 30
0.0
 10
-88.705972
 20
157.185347
 30
0.0
 10
-88.123889
 20
159.769444
 30
0.0
 10
-87.788750
 20
162.230069
 30
0.0
 10
-87.612361
 20
164.699514
 30
0.0
 10
-87.515347
 20
167.186597
 30
0.0
 10
-87.480069
 20
169.664861
 30
0.0
 10
-87.515347
 20
172.143125
 30
0.0
 10
-87.585903
 20
173.245556
 30
0.0
 10
-87.585903
 20
173.245556
 30
0.0
  0
LWPOLYLINE
  5
104
100
AcDbEntity
  8
Layer_1
 62
7
100
AcDbPolyline
 90
113
 70
0
 10
-149.419028
 20
223.401736
 30
0.0
 10
-152.082500
 20
223.331181
 30
0.0
 10
-154.737153
 20
223.181250
 30
0.0
 10
-157.382986
 20
222.899028
 30
0.0
 10
-160.099375
 20
222.440417
 30
0.0
 10
-162.789306
 20
221.884792
 30
0.0
 10
-165.461597
 20
221.232153
 30
0.0
 10
-168.107431
 20
220.464861
 30
0.0
 10
-170.717986
 20
219.591736
 30
0.0
 10
-173.293264
 20
218.612778
 30
0.0
 10
-175.815625
 20
217.519167
 30
0.0
 10
-178.285069
 20
216.310903
 30
0.0
 10
-180.701597
 20
214.987986
 30
0.0
 10
-183.056389
 20
213.568056
 30
0.0
 10
-185.349444
 20
212.042292
 30
0.0
 10
-187.571944
 20
210.419514
 30
0.0
 10
-189.732708
 20
208.717361
 30
0.0
 10
-191.822917
 20
206.909375
 30
0.0
 10
-193.816111
 20
204.995556
 30
0.0
 10
-195.712292
 20
202.984722
 30
0.0
 10
-197.502639
 20
200.876875
 30
0.0
 10
-199.178333
 20
198.680833
 30
0.0
 10
-200.748194
 20
196.396597
 30
0.0
 10
-202.185764
 20
194.041806
 30
0.0
 10
-203.499861
 20
191.607639
 30
0.0
 10
-204.681667
 20
189.111736
 30
0.0
 10
-205.731181
 20
186.554097
 30
0.0
 10
-206.639583
 20
183.943542
 30
0.0
 10
-207.406875
 20
181.288889
 30
0.0
 10
-208.033056
 20
178.590139
 30
0.0
 10
-208.509306
 20
175.873750
 30
0.0
 10
-208.597500
 20
175.115278
 30
0.0
 10
-186.495972
 20
179.710208
 30
0.0
 10
-186.707639
 20
180.874375
 30
0.0
 10
-186.839931
 20
183.335000
 30
0.0
 10
-186.707639
 20
185.795625
 30
0.0
 10
-186.266667
 20
188.229792
 30
0.0
 10
-185.472917
 20
190.566944
 30
0.0
 10
-184.352847
 20
192.754167
 30
0.0
 10
-182.924097
 20
194.773819
 30
0.0
 10
-181.274861
 20
196.608264
 30
0.0
 10
-179.431597
 20
198.266319
 30
0.0
 10
-177.385486
 20
199.686250
 30
0.0
 10
-175.154167
 20
200.771042
 30
0.0
 10
-172.799375
 20
201.555972
 30
0.0
 10
-170.956111
 20
201.961667
 30
0.0
 10
-169.059931
 20
202.085139
 30
0.0
 10
-167.172569
 20
202.041042
 30
0.0
 10
-164.808958
 20
201.855833
 30
0.0
 10
-162.480625
 20
201.414861
 30
0.0
 10
-160.240486
 20
200.656389
 30
0.0
 10
-158.141458
 20
199.562778
 30
0.0
 10
-156.218819
 20
198.186944
 30
0.0
 10
-154.463750
 20
196.590625
 30
0.0
 10
-152.611667
 20
194.509236
 30
0.0
 10
-151.077083
 20
192.198542
 30
0.0
 10
-149.957014
 20
189.649722
 30
0.0
 10
-149.295556
 20
186.950972
 30
0.0
 10
-149.022153
 20
184.181667
 30
0.0
 10
-149.022153
 20
183.440833
 30
0.0
 10
-131.445000
 20
183.440833
 30
0.0
 10
-131.347986
 20
184.111111
 30
0.0
 10
-130.457222
 20
186.589375
 30
0.0
 10
-129.090208
 20
188.838333
 30
0.0
 10
-127.299861
 20
190.760972
 30
0.0
 10
-125.165556
 20
192.295556
 30
0.0
 10
-122.775486
 20
193.397986
 30
0.0
 10
-120.156111
 20
193.927153
 30
0.0
 10
-117.492639
 20
193.971250
 30
0.0
 10
-114.864444
 20
193.512639
 30
0.0
 10
-112.580208
 20
192.524861
 30
0.0
 10
-110.525278
 20
191.131389
 30
0.0
 10
-108.752569
 20
189.393958
 30
0.0
 10
-107.323819
 20
187.356667
 30
0.0
 10
-106.300764
 20
185.090069
 30
0.0
 10
-105.701042
 20
182.673542
 30
0.0
 10
-105.568750
 20
179.983611
 30
0.0
 10
-105.665764
 20
179.357431
 30
0.0
 10
-87.585903
 20
173.245556
 30
0.0
 10
-87.682917
 20
174.621389
 30
0.0
 10
-88.088611
 20
177.320139
 30
0.0
 10
-88.644236
 20
180.001250
 30
0.0
 10
-89.340972
 20
182.647083
 30
0.0
 10
-90.178819
 20
185.248819
 30
0.0
 10
-91.157778
 20
187.797639
 30
0.0
 10
-92.269028
 20
190.293542
 30
0.0
 10
-93.512569
 20
192.727708
 30
0.0
 10
-94.879583
 20
195.100139
 30
0.0
 10
-96.361250
 20
197.393194
 30
0.0
 10
-97.957569
 20
199.606875
 30
0.0
 10
-99.668542
 20
201.741181
 30
0.0
 10
-101.476528
 20
203.796111
 30
0.0
 10
-103.381528
 20
205.754028
 30
0.0
 10
-105.374722
 20
207.623750
 30
0.0
 10
-107.456111
 20
209.396458
 30
0.0
 10
-109.616875
 20
211.072153
 30
0.0
 10
-111.848194
 20
212.650833
 30
0.0
 10
-114.150069
 20
214.123681
 30
0.0
 10
-116.513681
 20
215.499514
 30
0.0
 10
-118.833194
 20
216.716597
 30
0.0
 10
-121.205625
 20
217.827847
 30
0.0
 10
-123.630972
 20
218.833264
 30
0.0
 10
-126.082778
 20
219.741667
 30
0.0
 10
-128.578681
 20
220.553056
 30
0.0
 10
-131.101042
 20
221.276250
 30
0.0
 10
-133.641042
 20
221.893611
 30
0.0
 10
-136.207500
 20
222.431597
 30
0.0
 10
-138.791597
 20
222.881389
 30
0.0
 10
-141.437431
 20
223.172431
 30
0.0
 10
-144.092083
 20
223.331181
 30
0.0
 10
-146.755556
 20
223.401736
 30
0.0
 10
-149.419028
 20
223.401736
 30
0.0
 10
-149.419028
 20
223.401736
 30
0.0
  0
LWPOLYLINE
  5
105
100
AcDbEntity
  8
Layer_1
 62
7
100
AcDbPolyline
 90
75
 70
0
 10
-250.789722
 20
249.454375
 30
0.0
 10
-253.294444
 20
248.969306
 30
0.0
 10
-255.578681
 20
247.866875
 30
0.0
 10
-257.492500
 20
246.191181
 30
0.0
 10
-258.930069
 20
244.092153
 30
0.0
 10
-259.635625
 20
242.037222
 30
0.0
 10
-259.715000
 20
239.850000
 30
0.0
 10
-260.006042
 20
237.098333
 30
0.0
 10
-261.699375
 20
236.428056
 30
0.0
 10
-263.525000
 20
235.272708
 30
0.0
 10
-265.059583
 20
233.755764
 30
0.0
 10
-266.267847
 20
231.956597
 30
0.0
 10
-266.964583
 20
229.936944
 30
0.0
 10
-267.052778
 20
227.785000
 30
0.0
 10
-266.964583
 20
225.536042
 30
0.0
 10
-266.232569
 20
223.410556
 30
0.0
 10
-264.865556
 20
221.267431
 30
0.0
 10
-263.039931
 20
219.494722
 30
0.0
 10
-260.852708
 20
218.198264
 30
0.0
 10
-258.427361
 20
217.457431
 30
0.0
 10
-255.887361
 20
217.307500
 30
0.0
 10
-253.391458
 20
217.792569
 30
0.0
 10
-251.089583
 20
218.877361
 30
0.0
 10
-249.131667
 20
220.491319
 30
0.0
 10
-247.782292
 20
221.893611
 30
0.0
 10
-245.356944
 20
220.526597
 30
0.0
 10
-242.931597
 20
219.168403
 30
0.0
 10
-240.506250
 20
217.801389
 30
0.0
 10
-238.080903
 20
216.443194
 30
0.0
 10
-235.655556
 20
215.085000
 30
0.0
 10
-233.230208
 20
213.717986
 30
0.0
 10
-230.804861
 20
212.359792
 30
0.0
 10
-228.379514
 20
211.001597
 30
0.0
 10
-225.954167
 20
209.634583
 30
0.0
 10
-223.520000
 20
208.267569
 30
0.0
 10
-221.077014
 20
206.909375
 30
0.0
 10
-218.642847
 20
205.542361
 30
0.0
 10
-216.199861
 20
204.184167
 30
0.0
 10
-213.756875
 20
202.825972
 30
0.0
 10
-211.313889
 20
201.476597
 30
0.0
 10
-208.862083
 20
200.127222
 30
0.0
 10
-206.410278
 20
198.786667
 30
0.0
 10
-203.940833
 20
197.490208
 30
0.0
 10
-202.547361
 20
199.800903
 30
0.0
 10
-201.303819
 20
202.208611
 30
0.0
 10
-200.245486
 20
204.678056
 30
0.0
 10
-202.485625
 20
206.318472
 30
0.0
 10
-204.734583
 20
207.950069
 30
0.0
 10
-206.983542
 20
209.572847
 30
0.0
 10
-209.232500
 20
211.195625
 30
0.0
 10
-211.481458
 20
212.827222
 30
0.0
 10
-213.739236
 20
214.450000
 30
0.0
 10
-215.988194
 20
216.072778
 30
0.0
 10
-218.245972
 20
217.695556
 30
0.0
 10
-220.494931
 20
219.318333
 30
0.0
 10
-222.735069
 20
220.932292
 30
0.0
 10
-224.975208
 20
222.546250
 30
0.0
 10
-227.206528
 20
224.169028
 30
0.0
 10
-229.437847
 20
225.800625
 30
0.0
 10
-231.669167
 20
227.432222
 30
0.0
 10
-233.891667
 20
229.063819
 30
0.0
 10
-236.114167
 20
230.704236
 30
0.0
 10
-238.327847
 20
232.362292
 30
0.0
 10
-240.479792
 20
234.082083
 30
0.0
 10
-239.924167
 20
235.687222
 30
0.0
 10
-239.527292
 20
237.424653
 30
0.0
 10
-239.439097
 20
239.215000
 30
0.0
 10
-239.589028
 20
241.349306
 30
0.0
 10
-240.347500
 20
243.351319
 30
0.0
 10
-241.714514
 20
245.529722
 30
0.0
 10
-243.548958
 20
247.311250
 30
0.0
 10
-245.771458
 20
248.607708
 30
0.0
 10
-248.232083
 20
249.330903
 30
0.0
 10
-250.789722
 20
249.454375
 30
0.0
 10
-250.789722
 20
249.454375
 30
0.0
  0
LWPOLYLINE
  5
106
100
AcDbEntity
  8
Layer_1
 62
7
100
AcDbPolyline
 90
76
 70
0
 10
-48.780347
 20
252.329514
 30
0.0
 10
-51.329167
 20
251.950278
 30
0.0
 10
-53.622222
 20
250.944861
 30
0.0
 10
-55.606597
 20
249.419097
 30
0.0
 10
-57.185278
 20
247.470000
 30
0.0
 10
-58.278889
 20
245.212222
 30
0.0
 10
-58.816875
 20
242.769236
 30
0.0
 10
-58.737500
 20
240.264514
 30
0.0
 10
-58.005486
 20
237.874444
 30
0.0
 10
-57.255833
 20
236.242847
 30
0.0
 10
-59.346042
 20
234.558333
 30
0.0
 10
-61.445069
 20
232.865000
 30
0.0
 10
-63.535278
 20
231.180486
 30
0.0
 10
-65.625486
 20
229.487153
 30
0.0
 10
-67.715694
 20
227.802639
 30
0.0
 10
-69.805903
 20
226.109306
 30
0.0
 10
-71.896111
 20
224.424792
 30
0.0
 10
-73.986319
 20
222.731458
 30
0.0
 10
-76.085347
 20
221.046944
 30
0.0
 10
-78.246111
 20
219.291875
 30
0.0
 10
-80.415694
 20
217.545625
 30
0.0
 10
-82.585278
 20
215.790556
 30
0.0
 10
-84.754861
 20
214.044306
 30
0.0
 10
-86.915625
 20
212.289236
 30
0.0
 10
-89.085208
 20
210.542986
 30
0.0
 10
-91.254792
 20
208.787917
 30
0.0
 10
-93.424375
 20
207.041667
 30
0.0
 10
-95.585139
 20
205.286597
 30
0.0
 10
-96.273056
 20
204.730972
 30
0.0
 10
-95.223542
 20
203.020000
 30
0.0
 10
-94.174028
 20
201.300208
 30
0.0
 10
-93.080417
 20
199.553958
 30
0.0
 10
-91.907431
 20
197.869444
 30
0.0
 10
-89.526181
 20
199.333472
 30
0.0
 10
-87.153750
 20
200.815139
 30
0.0
 10
-84.790139
 20
202.305625
 30
0.0
 10
-82.435347
 20
203.796111
 30
0.0
 10
-80.071736
 20
205.286597
 30
0.0
 10
-77.708125
 20
206.785903
 30
0.0
 10
-75.353333
 20
208.276389
 30
0.0
 10
-72.989722
 20
209.775694
 30
0.0
 10
-70.634931
 20
211.275000
 30
0.0
 10
-68.280139
 20
212.765486
 30
0.0
 10
-65.934167
 20
214.264792
 30
0.0
 10
-63.579375
 20
215.755278
 30
0.0
 10
-61.224583
 20
217.245764
 30
0.0
 10
-58.869792
 20
218.745069
 30
0.0
 10
-56.515000
 20
220.235556
 30
0.0
 10
-54.160208
 20
221.726042
 30
0.0
 10
-51.805417
 20
223.207708
 30
0.0
 10
-49.432986
 20
224.680556
 30
0.0
 10
-48.357014
 20
223.604583
 30
0.0
 10
-46.469653
 20
222.061181
 30
0.0
 10
-44.255972
 20
221.038125
 30
0.0
 10
-41.865903
 20
220.553056
 30
0.0
 10
-39.431736
 20
220.667708
 30
0.0
 10
-36.953472
 20
221.408542
 30
0.0
 10
-34.722153
 20
222.696181
 30
0.0
 10
-32.852431
 20
224.477708
 30
0.0
 10
-31.458958
 20
226.647292
 30
0.0
 10
-30.674028
 20
228.763958
 30
0.0
 10
-30.559375
 20
231.021736
 30
0.0
 10
-30.647569
 20
233.129583
 30
0.0
 10
-31.317847
 20
235.122778
 30
0.0
 10
-32.684861
 20
237.274722
 30
0.0
 10
-34.572222
 20
238.976875
 30
0.0
 10
-36.847639
 20
240.114583
 30
0.0
 10
-38.346944
 20
240.661389
 30
0.0
 10
-38.408681
 20
242.901528
 30
0.0
 10
-38.805556
 20
245.503264
 30
0.0
 10
-39.863889
 20
247.910972
 30
0.0
 10
-41.566042
 20
249.912986
 30
0.0
 10
-43.744444
 20
251.385833
 30
0.0
 10
-46.205069
 20
252.153125
 30
0.0
 10
-48.780347
 20
252.329514
 30
0.0
 10
-48.780347
 20
252.329514
 30
0.0
  0
ENDSEC
  0
SECTION
  2
OBJECTS
  0
DICTIONARY
  5
C
330
0
100
AcDbDictionary
  3
ACAD_GROUP
350
D
  3
ACAD_MLINESTYLE
350
17
  0
DICTIONARY
  5
D
330
C
100
AcDbDictionary
  0
DICTIONARY
  5
1A
330
C
100
AcDbDictionary
  0
DICTIONARY
  5
17
330
C
100
AcDbDictionary
  3
STANDARD
350
18
  0
DICTIONARY
  5
19
330
C
100
AcDbDictionary
  0
ENDSEC
  0
EOF
