  0
SECTION
  2
HEADER
  9
$ACADVER
  1
AC1014
  9
$HANDSEED
  5
FFFF
  9
$MEASUREMENT
 70
     1
  0
ENDSEC
  0
SECTION
  2
TABLES
  0
TABLE
  2
VPORT
  5
8
330
0
100
AcDbSymbolTable
 70
     4
  0
VPORT
  5
2E
330
8
100
AcDbSymbolTableRecord
100
AcDbViewportTableRecord
  2
*ACTIVE
 70
     0
 10
0.0
 20
0.0
 11
1.0
 21
1.0
 12
210.0
 22
148.5
 13
0.0
 23
0.0
 14
10.0
 24
10.0
 15
10.0
 25
10.0
 16
0.0
 26
0.0
 36
1.0
 17
0.0
 27
0.0
 37
0.0
 40
341.0
 41
1.24
 42
50.0
 43
0.0
 44
0.0
 50
0.0
 51
0.0
 71
     0
 72
   100
 73
     1
 74
     3
 75
     0
 76
     0
 77
     0
 78
     0
  0
ENDTAB
  0
TABLE
  2
LTYPE
  5
5
330
0
100
AcDbSymbolTable
 70
     1
  0
LTYPE
  5
14
330
5
100
AcDbSymbolTableRecord
100
AcDbLinetypeTableRecord
  2
BYBLOCK
 70
     0
  3

 72
    65
 73
     0
 40
0.0
  0
LTYPE
  5
15
330
5
100
AcDbSymbolTableRecord
100
AcDbLinetypeTableRecord
  2
BYLAYER
 70
     0
  3

 72
    65
 73
     0
 40
0.0
  0
LTYPE
  5
16
330
5
100
AcDbSymbolTableRecord
100
AcDbLinetypeTableRecord
  2
CONTINUOUS
 70
     0
  3
Solid line
 72
    65
 73
     0
 40
0.0
  0
ENDTAB
  0
TABLE
  2
LAYER
  5
2
100
AcDbSymbolTable
 70
2
  0
LAYER
  5
50
100
AcDbSymbolTableRecord
100
AcDbLayerTableRecord
  2
0
 70
0
  6
CONTINUOUS
  0
LAYER
  5
51
100
AcDbSymbolTableRecord
100
AcDbLayerTableRecord
  2
ink_ext_XXXXXX
 70
0
  6
CONTINUOUS
  0
ENDTAB
  0
TABLE
  2
STYLE
  5
3
330
0
100
AcDbSymbolTable
 70
     1
  0
STYLE
  5
11
330
3
100
AcDbSymbolTableRecord
100
AcDbTextStyleTableRecord
  2
STANDARD
 70
     0
 40
0.0
 41
1.0
 50
0.0
 71
     0
 42
2.5
  3
txt
  4

  0
ENDTAB
  0
TABLE
  2
VIEW
  5
6
330
0
100
AcDbSymbolTable
 70
     0
  0
ENDTAB
  0
TABLE
  2
UCS
  5
7
330
0
100
AcDbSymbolTable
 70
     0
  0
ENDTAB
  0
TABLE
  2
APPID
  5
9
330
0
100
AcDbSymbolTable
 70
     2
  0
APPID
  5
12
330
9
100
AcDbSymbolTableRecord
100
AcDbRegAppTableRecord
  2
ACAD
 70
     0
  0
ENDTAB
  0
TABLE
  2
DIMSTYLE
  5
A
330
0
100
AcDbSymbolTable
 70
     1
  0
DIMSTYLE
105
27
330
A
100
AcDbSymbolTableRecord
100
AcDbDimStyleTableRecord
  2
ISO-25
 70
     0
  3

  4

  5

  6

  7

 40
1.0
 41
2.5
 42
0.625
 43
3.75
 44
1.25
 45
0.0
 46
0.0
 47
0.0
 48
0.0
140
2.5
141
2.5
142
0.0
143
0.03937007874016
144
1.0
145
0.0
146
1.0
147
0.625
 71
     0
 72
     0
 73
     0
 74
     0
 75
     0
 76
     0
 77
     1
 78
     8
170
     0
171
     3
172
     1
173
     0
174
     0
175
     0
176
     0
177
     0
178
     0
270
     2
271
     2
272
     2
273
     2
274
     3
340
11
275
     0
280
     0
281
     0
282
     0
283
     0
284
     8
285
     0
286
     0
287
     3
288
     0
  0
ENDTAB
  0
TABLE
  2
BLOCK_RECORD
  5
1
330
0
100
AcDbSymbolTable
 70
     1
  0
BLOCK_RECORD
  5
1F
330
1
100
AcDbSymbolTableRecord
100
AcDbBlockTableRecord
  2
*MODEL_SPACE
  0
BLOCK_RECORD
  5
1B
330
1
100
AcDbSymbolTableRecord
100
AcDbBlockTableRecord
  2
*PAPER_SPACE
  0
ENDTAB
  0
ENDSEC
  0
SECTION
  2
BLOCKS
  0
BLOCK
  5
20
330
1F
100
AcDbEntity
  8
0
100
AcDbBlockBegin
  2
*MODEL_SPACE
 70
     0
 10
0.0
 20
0.0
 30
0.0
  3
*MODEL_SPACE
  1

  0
ENDBLK
  5
21
330
1F
100
AcDbEntity
  8
0
100
AcDbBlockEnd
  0
BLOCK
  5
1C
330
1B
100
AcDbEntity
 67
     1
  8
0
100
AcDbBlockBegin
  2
*PAPER_SPACE
  1

  0
ENDBLK
  5
1D
330
1B
100
AcDbEntity
 67
     1
  8
0
100
AcDbBlockEnd
  0
ENDSEC
  0
SECTION
  2
ENTITIES
  0
LWPOLYLINE
  5
100
100
AcDbEntity
  8
ink_ext_XXXXXX
 62
7
100
AcDbPolyline
 90
350
 70
0
 10
12.086907
 20
0.454752
 30
0.0
 10
11.747754
 20
0.528044
 30
0.0
 10
11.411893
 20
0.615039
 30
0.0
 10
11.080673
 20
0.718469
 30
0.0
 10
10.756077
 20
0.840938
 30
0.0
 10
10.440286
 20
0.984573
 30
0.0
 10
10.135572
 20
1.150433
 30
0.0
 10
9.843796
 20
1.338146
 30
0.0
 10
9.565967
 20
1.545921
 30
0.0
 10
9.301956
 20
1.771059
 30
0.0
 10
9.050831
 20
2.010421
 30
0.0
 10
8.817881
 20
2.257590
 30
0.0
 10
8.599766
 20
2.517933
 30
0.0
 10
8.397872
 20
2.791111
 30
0.0
 10
8.213273
 20
3.076235
 30
0.0
 10
8.046502
 20
3.372092
 30
0.0
 10
7.897498
 20
3.677341
 30
0.0
 10
7.765773
 20
3.990430
 30
0.0
 10
7.650405
 20
4.309920
 30
0.0
 10
7.550211
 20
4.634515
 30
0.0
 10
7.463883
 20
4.963043
 30
0.0
 10
7.390059
 20
5.294569
 30
0.0
 10
7.327392
 20
5.628470
 30
0.0
 10
7.274666
 20
5.964026
 30
0.0
 10
7.252227
 20
6.303284
 30
0.0
 10
7.240440
 20
6.643161
 30
0.0
 10
7.231687
 20
6.983133
 30
0.0
 10
7.224606
 20
7.323123
 30
0.0
 10
7.218640
 20
7.663130
 30
0.0
 10
7.213497
 20
8.003174
 30
0.0
 10
7.209000
 20
8.343234
 30
0.0
 10
7.205033
 20
8.683281
 30
0.0
 10
7.201515
 20
9.023329
 30
0.0
 10
7.198385
 20
9.363390
 30
0.0
 10
7.195599
 20
9.703444
 30
0.0
 10
7.193121
 20
10.043487
 30
0.0
 10
7.190924
 20
10.383563
 30
0.0
 10
7.188983
 20
10.723648
 30
0.0
 10
7.187282
 20
11.063742
 30
0.0
 10
7.185804
 20
11.403824
 30
0.0
 10
7.184536
 20
11.743894
 30
0.0
 10
7.183467
 20
12.083994
 30
0.0
 10
7.182589
 20
12.424042
 30
0.0
 10
7.181892
 20
12.764120
 30
0.0
 10
7.181370
 20
13.104217
 30
0.0
 10
7.181016
 20
13.444291
 30
0.0
 10
7.180827
 20
13.784368
 30
0.0
 10
7.180775
 20
14.126152
 30
0.0
 10
7.180723
 20
14.467907
 30
0.0
 10
7.180671
 20
14.809651
 30
0.0
 10
7.180619
 20
15.151383
 30
0.0
 10
7.180567
 20
15.493143
 30
0.0
 10
7.180514
 20
15.834912
 30
0.0
 10
7.180462
 20
16.176682
 30
0.0
 10
7.180410
 20
16.518441
 30
0.0
 10
7.180358
 20
16.860237
 30
0.0
 10
7.180306
 20
17.202003
 30
0.0
 10
7.180254
 20
17.543738
 30
0.0
 10
7.180202
 20
17.885464
 30
0.0
 10
7.180150
 20
18.227261
 30
0.0
 10
7.180098
 20
18.569025
 30
0.0
 10
7.180046
 20
18.910777
 30
0.0
 10
7.179994
 20
19.252523
 30
0.0
 10
7.179942
 20
19.594291
 30
0.0
 10
7.179890
 20
19.936077
 30
0.0
 10
7.179837
 20
20.277855
 30
0.0
 10
7.179785
 20
20.619579
 30
0.0
 10
7.179733
 20
20.961350
 30
0.0
 10
6.841414
 20
20.961350
 30
0.0
 10
6.503130
 20
20.961350
 30
0.0
 10
6.164811
 20
20.961350
 30
0.0
 10
5.826478
 20
20.961350
 30
0.0
 10
5.497836
 20
20.959119
 30
0.0
 10
5.169247
 20
20.952232
 30
0.0
 10
4.840830
 20
20.939579
 30
0.0
 10
4.512801
 20
20.919691
 30
0.0
 10
4.185453
 20
20.890570
 30
0.0
 10
3.859386
 20
20.849459
 30
0.0
 10
3.535736
 20
20.792476
 30
0.0
 10
3.216696
 20
20.714113
 30
0.0
 10
2.906303
 20
20.606630
 30
0.0
 10
2.612402
 20
20.460187
 30
0.0
 10
2.348145
 20
20.265624
 30
0.0
 10
2.129070
 20
20.021515
 30
0.0
 10
1.956248
 20
19.729816
 30
0.0
 10
1.841197
 20
19.410606
 30
0.0
 10
1.757559
 20
19.081454
 30
0.0
 10
1.686486
 20
18.749319
 30
0.0
 10
1.620710
 20
18.416094
 30
0.0
 10
1.411506
 20
18.229325
 30
0.0
 10
1.101566
 20
18.212375
 30
0.0
 10
0.790995
 20
18.210777
 30
0.0
 10
0.527330
 20
18.210777
 30
0.0
 10
0.263667
 20
18.210777
 30
0.0
 10
-0.000000
 20
18.210777
 30
0.0
 10
0.016227
 20
18.480224
 30
0.0
 10
0.032452
 20
18.749643
 30
0.0
 10
0.048678
 20
19.019090
 30
0.0
 10
0.064905
 20
19.288548
 30
0.0
 10
0.087397
 20
19.638185
 30
0.0
 10
0.113612
 20
19.987590
 30
0.0
 10
0.144283
 20
20.336582
 30
0.0
 10
0.180295
 20
20.685093
 30
0.0
 10
0.222681
 20
21.032915
 30
0.0
 10
0.272616
 20
21.379692
 30
0.0
 10
0.331424
 20
21.725069
 30
0.0
 10
0.400512
 20
22.068576
 30
0.0
 10
0.481242
 20
22.409510
 30
0.0
 10
0.574802
 20
22.747152
 30
0.0
 10
0.681983
 20
23.080696
 30
0.0
 10
0.803033
 20
23.409484
 30
0.0
 10
0.937507
 20
23.732979
 30
0.0
 10
1.084379
 20
24.051048
 30
0.0
 10
1.236497
 20
24.348992
 30
0.0
 10
1.403237
 20
24.639049
 30
0.0
 10
1.586116
 20
24.919171
 30
0.0
 10
1.786428
 20
25.187090
 30
0.0
 10
2.004948
 20
25.440332
 30
0.0
 10
2.241786
 20
25.676543
 30
0.0
 10
2.496202
 20
25.893714
 30
0.0
 10
2.766694
 20
26.090541
 30
0.0
 10
3.051124
 20
26.266548
 30
0.0
 10
3.347227
 20
26.422210
 30
0.0
 10
3.652651
 20
26.558633
 30
0.0
 10
3.965380
 20
26.677427
 30
0.0
 10
4.283717
 20
26.780408
 30
0.0
 10
4.606194
 20
26.869388
 30
0.0
 10
4.931869
 20
26.946154
 30
0.0
 10
5.252312
 20
27.011449
 30
0.0
 10
5.575128
 20
27.063387
 30
0.0
 10
5.900233
 20
27.098237
 30
0.0
 10
6.226548
 20
27.119000
 30
0.0
 10
6.553313
 20
27.130734
 30
0.0
 10
6.880254
 20
27.137144
 30
0.0
 10
7.207231
 20
27.140424
 30
0.0
 10
7.534268
 20
27.141835
 30
0.0
 10
7.861314
 20
27.142111
 30
0.0
 10
8.188290
 20
27.141699
 30
0.0
 10
8.532438
 20
27.140286
 30
0.0
 10
8.876569
 20
27.137077
 30
0.0
 10
9.220655
 20
27.132501
 30
0.0
 10
9.564739
 20
27.126806
 30
0.0
 10
9.908793
 20
27.120144
 30
0.0
 10
10.252853
 20
27.112607
 30
0.0
 10
10.596923
 20
27.104249
 30
0.0
 10
10.940959
 20
27.095093
 30
0.0
 10
11.284958
 20
27.085137
 30
0.0
 10
11.628894
 20
27.074349
 30
0.0
 10
11.972821
 20
27.062661
 30
0.0
 10
12.316742
 20
27.049963
 30
0.0
 10
12.660605
 20
27.036076
 30
0.0
 10
13.004412
 20
27.020696
 30
0.0
 10
13.349870
 20
27.004650
 30
0.0
 10
13.695402
 20
26.989950
 30
0.0
 10
14.041025
 20
26.976345
 30
0.0
 10
14.386657
 20
26.963687
 30
0.0
 10
14.732293
 20
26.951882
 30
0.0
 10
15.077973
 20
26.940877
 30
0.0
 10
15.423664
 20
26.930654
 30
0.0
 10
15.769383
 20
26.921223
 30
0.0
 10
16.115187
 20
26.912628
 30
0.0
 10
16.460982
 20
26.904958
 30
0.0
 10
16.806812
 20
26.898369
 30
0.0
 10
17.152612
 20
26.893135
 30
0.0
 10
17.498483
 20
26.889781
 30
0.0
 10
17.820373
 20
26.888286
 30
0.0
 10
18.142256
 20
26.887823
 30
0.0
 10
18.464165
 20
26.889096
 30
0.0
 10
18.786042
 20
26.893396
 30
0.0
 10
19.107793
 20
26.903269
 30
0.0
 10
19.428969
 20
26.924149
 30
0.0
 10
19.747867
 20
26.967344
 30
0.0
 10
20.059967
 20
27.045391
 30
0.0
 10
20.388866
 20
27.170667
 30
0.0
 10
20.694895
 20
27.344143
 30
0.0
 10
20.960947
 20
27.573865
 30
0.0
 10
21.161210
 20
27.862180
 30
0.0
 10
21.268655
 20
28.196187
 30
0.0
 10
21.298958
 20
28.385594
 30
0.0
 10
21.329262
 20
28.575000
 30
0.0
 10
21.641553
 20
28.575000
 30
0.0
 10
21.953869
 20
28.575000
 30
0.0
 10
22.266152
 20
28.575000
 30
0.0
 10
22.578473
 20
28.575000
 30
0.0
 10
22.890727
 20
28.575000
 30
0.0
 10
22.879650
 20
28.258631
 30
0.0
 10
22.868572
 20
27.942236
 30
0.0
 10
22.857495
 20
27.625876
 30
0.0
 10
22.846417
 20
27.309476
 30
0.0
 10
22.835341
 20
26.993144
 30
0.0
 10
22.822290
 20
26.654228
 30
0.0
 10
22.805437
 20
26.315467
 30
0.0
 10
22.783368
 20
25.977020
 30
0.0
 10
22.754197
 20
25.639118
 30
0.0
 10
22.715523
 20
25.302185
 30
0.0
 10
22.664568
 20
24.966903
 30
0.0
 10
22.598681
 20
24.634222
 30
0.0
 10
22.516256
 20
24.305220
 30
0.0
 10
22.417627
 20
23.980723
 30
0.0
 10
22.305081
 20
23.660770
 30
0.0
 10
22.176397
 20
23.343996
 30
0.0
 10
22.027058
 20
23.036474
 30
0.0
 10
21.853912
 20
22.741690
 30
0.0
 10
21.654697
 20
22.463896
 30
0.0
 10
21.428759
 20
22.207454
 30
0.0
 10
21.177404
 20
21.975831
 30
0.0
 10
20.903828
 20
21.770903
 30
0.0
 10
20.612201
 20
21.592547
 30
0.0
 10
20.306726
 20
21.439005
 30
0.0
 10
19.991063
 20
21.307610
 30
0.0
 10
19.668066
 20
21.195389
 30
0.0
 10
19.339878
 20
21.099495
 30
0.0
 10
19.007937
 20
21.017362
 30
0.0
 10
18.673372
 20
20.946830
 30
0.0
 10
18.336882
 20
20.886062
 30
0.0
 10
17.999024
 20
20.833550
 30
0.0
 10
17.660145
 20
20.788040
 30
0.0
 10
17.320503
 20
20.748494
 30
0.0
 10
16.980288
 20
20.714053
 30
0.0
 10
16.639670
 20
20.684001
 30
0.0
 10
16.298721
 20
20.657735
 30
0.0
 10
15.957550
 20
20.634748
 30
0.0
 10
15.658148
 20
20.615451
 30
0.0
 10
15.358747
 20
20.596155
 30
0.0
 10
15.059342
 20
20.576857
 30
0.0
 10
15.060481
 20
20.239272
 30
0.0
 10
15.061619
 20
19.901687
 30
0.0
 10
15.062757
 20
19.564111
 30
0.0
 10
15.063895
 20
19.226529
 30
0.0
 10
15.065033
 20
18.888955
 30
0.0
 10
15.066171
 20
18.551378
 30
0.0
 10
15.067309
 20
18.213828
 30
0.0
 10
15.068448
 20
17.876235
 30
0.0
 10
15.069586
 20
17.538707
 30
0.0
 10
15.070724
 20
17.201137
 30
0.0
 10
15.071862
 20
16.863610
 30
0.0
 10
15.073000
 20
16.526062
 30
0.0
 10
15.074138
 20
16.188497
 30
0.0
 10
15.075276
 20
15.850899
 30
0.0
 10
15.076414
 20
15.513333
 30
0.0
 10
15.077552
 20
15.175762
 30
0.0
 10
15.078690
 20
14.838210
 30
0.0
 10
15.079828
 20
14.500662
 30
0.0
 10
15.080966
 20
14.163134
 30
0.0
 10
15.082104
 20
13.825576
 30
0.0
 10
15.083242
 20
13.488017
 30
0.0
 10
15.084380
 20
13.150465
 30
0.0
 10
15.085519
 20
12.812854
 30
0.0
 10
15.086747
 20
12.473424
 30
0.0
 10
15.087997
 20
12.133998
 30
0.0
 10
15.089275
 20
11.794586
 30
0.0
 10
15.090588
 20
11.455188
 30
0.0
 10
15.091943
 20
11.115777
 30
0.0
 10
15.093351
 20
10.776411
 30
0.0
 10
15.094822
 20
10.437041
 30
0.0
 10
15.096370
 20
10.097668
 30
0.0
 10
15.098013
 20
9.758268
 30
0.0
 10
15.099772
 20
9.418871
 30
0.0
 10
15.101673
 20
9.079473
 30
0.0
 10
15.103751
 20
8.740078
 30
0.0
 10
15.106048
 20
8.400699
 30
0.0
 10
15.108623
 20
8.061333
 30
0.0
 10
15.111553
 20
7.721949
 30
0.0
 10
15.114946
 20
7.382564
 30
0.0
 10
15.118956
 20
7.043150
 30
0.0
 10
15.123815
 20
6.703764
 30
0.0
 10
15.129887
 20
6.364423
 30
0.0
 10
15.137799
 20
6.025144
 30
0.0
 10
15.148745
 20
5.685889
 30
0.0
 10
15.165413
 20
5.346895
 30
0.0
 10
15.195981
 20
5.008929
 30
0.0
 10
15.279546
 20
4.681326
 30
0.0
 10
15.445217
 20
4.370637
 30
0.0
 10
15.661355
 20
4.093055
 30
0.0
 10
15.934205
 20
3.871463
 30
0.0
 10
16.253288
 20
3.723965
 30
0.0
 10
16.596928
 20
3.648409
 30
0.0
 10
16.948503
 20
3.628390
 30
0.0
 10
17.295234
 20
3.667687
 30
0.0
 10
17.625875
 20
3.779520
 30
0.0
 10
17.929742
 20
3.951642
 30
0.0
 10
18.203228
 20
4.169039
 30
0.0
 10
18.447505
 20
4.418966
 30
0.0
 10
18.665600
 20
4.692098
 30
0.0
 10
18.860884
 20
4.982037
 30
0.0
 10
19.036382
 20
5.284358
 30
0.0
 10
19.194709
 20
5.596079
 30
0.0
 10
19.336558
 20
5.911441
 30
0.0
 10
19.462100
 20
6.233632
 30
0.0
 10
19.569721
 20
6.562255
 30
0.0
 10
19.659903
 20
6.896078
 30
0.0
 10
19.734803
 20
7.233624
 30
0.0
 10
19.797319
 20
7.573759
 30
0.0
 10
19.850230
 20
7.915466
 30
0.0
 10
19.895912
 20
8.258239
 30
0.0
 10
19.936213
 20
8.601710
 30
0.0
 10
19.972867
 20
8.930193
 30
0.0
 10
20.009520
 20
9.258674
 30
0.0
 10
20.046174
 20
9.587159
 30
0.0
 10
20.352955
 20
9.587159
 30
0.0
 10
20.659760
 20
9.587159
 30
0.0
 10
20.966532
 20
9.587159
 30
0.0
 10
21.273343
 20
9.587159
 30
0.0
 10
21.580087
 20
9.587159
 30
0.0
 10
21.580087
 20
9.350552
 30
0.0
 10
21.580087
 20
9.113945
 30
0.0
 10
21.580087
 20
8.877335
 30
0.0
 10
21.572836
 20
8.529676
 30
0.0
 10
21.552583
 20
8.182589
 30
0.0
 10
21.520396
 20
7.836401
 30
0.0
 10
21.477071
 20
7.491389
 30
0.0
 10
21.423198
 20
7.147908
 30
0.0
 10
21.359168
 20
6.806145
 30
0.0
 10
21.285222
 20
6.466372
 30
0.0
 10
21.201467
 20
6.128924
 30
0.0
 10
21.107830
 20
5.794015
 30
0.0
 10
21.004144
 20
5.462102
 30
0.0
 10
20.890068
 20
5.133650
 30
0.0
 10
20.765068
 20
4.809182
 30
0.0
 10
20.628431
 20
4.489463
 30
0.0
 10
20.479173
 20
4.175442
 30
0.0
 10
20.318094
 20
3.869958
 30
0.0
 10
20.144563
 20
3.571438
 30
0.0
 10
19.958054
 20
3.280829
 30
0.0
 10
19.758167
 20
2.999226
 30
0.0
 10
19.544657
 20
2.727812
 30
0.0
 10
19.317447
 20
2.467797
 30
0.0
 10
19.076616
 20
2.220333
 30
0.0
 10
18.822515
 20
1.986566
 30
0.0
 10
18.555635
 20
1.767459
 30
0.0
 10
18.276739
 20
1.563858
 30
0.0
 10
17.986779
 20
1.376402
 30
0.0
 10
17.686781
 20
1.205450
 30
0.0
 10
17.377831
 20
1.051110
 30
0.0
 10
17.061169
 20
0.913316
 30
0.0
 10
16.737927
 20
0.791744
 30
0.0
 10
16.409230
 20
0.685910
 30
0.0
 10
16.076048
 20
0.595175
 30
0.0
 10
15.749002
 20
0.526329
 30
0.0
 10
15.418797
 20
0.474393
 30
0.0
 10
15.086991
 20
0.434142
 30
0.0
 10
14.754185
 20
0.403040
 30
0.0
 10
14.420720
 20
0.379765
 30
0.0
 10
14.086833
 20
0.363682
 30
0.0
 10
13.752654
 20
0.354637
 30
0.0
 10
13.418383
 20
0.352926
 30
0.0
 10
13.084172
 20
0.359375
 30
0.0
 10
12.750338
 20
0.375640
 30
0.0
 10
12.417361
 20
0.404990
 30
0.0
 10
12.086907
 20
0.454752
 30
0.0
  0
ENDSEC
  0
SECTION
  2
OBJECTS
  0
DICTIONARY
  5
C
330
0
100
AcDbDictionary
  3
ACAD_GROUP
350
D
  3
ACAD_MLINESTYLE
350
17
  0
DICTIONARY
  5
D
330
C
100
AcDbDictionary
  0
DICTIONARY
  5
1A
330
C
100
AcDbDictionary
  0
DICTIONARY
  5
17
330
C
100
AcDbDictionary
  3
STANDARD
350
18
  0
DICTIONARY
  5
19
330
C
100
AcDbDictionary
  0
ENDSEC
  0
EOF
