G75*
%MOIN*%
%OFA0B0*%
%FSLAX24Y24*%
%IPPOS*%
%LPD*%
%AMOC8*
5,1,8,0,0,1.08239X$1,22.5*
%
%ADD10C,0.0160*%
D10*
X024680Y023375D02*
X027180Y023375D01*
X027182Y023435D01*
X027187Y023496D01*
X027196Y023555D01*
X027209Y023614D01*
X027225Y023673D01*
X027245Y023730D01*
X027268Y023785D01*
X027295Y023840D01*
X027324Y023892D01*
X027357Y023943D01*
X027393Y023992D01*
X027431Y024038D01*
X027473Y024082D01*
X027517Y024124D01*
X027563Y024162D01*
X027612Y024198D01*
X027663Y024231D01*
X027715Y024260D01*
X027770Y024287D01*
X027825Y024310D01*
X027882Y024330D01*
X027941Y024346D01*
X028000Y024359D01*
X028059Y024368D01*
X028120Y024373D01*
X028180Y024375D01*
X032180Y024375D01*
X032180Y023375D01*
X032373Y023373D01*
X032567Y023366D01*
X032759Y023354D01*
X032952Y023338D01*
X033144Y023317D01*
X033336Y023291D01*
X033527Y023261D01*
X033717Y023226D01*
X033906Y023187D01*
X034095Y023143D01*
X034282Y023094D01*
X034468Y023041D01*
X034652Y022983D01*
X034835Y022921D01*
X035017Y022855D01*
X035197Y022784D01*
X035375Y022709D01*
X035551Y022630D01*
X035726Y022546D01*
X035898Y022459D01*
X036068Y022367D01*
X036236Y022271D01*
X036401Y022171D01*
X036564Y022067D01*
X036725Y021959D01*
X036882Y021847D01*
X037037Y021732D01*
X037189Y021612D01*
X037339Y021490D01*
X037485Y021363D01*
X037628Y021233D01*
X037768Y021100D01*
X037905Y020963D01*
X038038Y020823D01*
X038168Y020680D01*
X038295Y020534D01*
X038417Y020384D01*
X038537Y020232D01*
X038652Y020077D01*
X038764Y019920D01*
X038872Y019759D01*
X038976Y019596D01*
X039076Y019431D01*
X039172Y019263D01*
X039264Y019093D01*
X039351Y018921D01*
X039435Y018746D01*
X039514Y018570D01*
X039589Y018392D01*
X039660Y018212D01*
X039726Y018030D01*
X039788Y017847D01*
X039846Y017663D01*
X039899Y017477D01*
X039948Y017290D01*
X039992Y017101D01*
X040031Y016912D01*
X040066Y016722D01*
X040096Y016531D01*
X040122Y016339D01*
X040143Y016147D01*
X040159Y015954D01*
X040171Y015762D01*
X040178Y015568D01*
X040180Y015375D01*
X040178Y015182D01*
X040171Y014988D01*
X040159Y014796D01*
X040143Y014603D01*
X040122Y014411D01*
X040096Y014219D01*
X040066Y014028D01*
X040031Y013838D01*
X039992Y013649D01*
X039948Y013460D01*
X039899Y013273D01*
X039846Y013087D01*
X039788Y012903D01*
X039726Y012720D01*
X039660Y012538D01*
X039589Y012358D01*
X039514Y012180D01*
X039435Y012004D01*
X039351Y011829D01*
X039264Y011657D01*
X039172Y011487D01*
X039076Y011319D01*
X038976Y011154D01*
X038872Y010991D01*
X038764Y010830D01*
X038652Y010673D01*
X038537Y010518D01*
X038417Y010366D01*
X038295Y010216D01*
X038168Y010070D01*
X038038Y009927D01*
X037905Y009787D01*
X037768Y009650D01*
X037628Y009517D01*
X037485Y009387D01*
X037339Y009260D01*
X037189Y009138D01*
X037037Y009018D01*
X036882Y008903D01*
X036725Y008791D01*
X036564Y008683D01*
X036401Y008579D01*
X036236Y008479D01*
X036068Y008383D01*
X035898Y008291D01*
X035726Y008204D01*
X035551Y008120D01*
X035375Y008041D01*
X035197Y007966D01*
X035017Y007895D01*
X034835Y007829D01*
X034652Y007767D01*
X034468Y007709D01*
X034282Y007656D01*
X034095Y007607D01*
X033906Y007563D01*
X033717Y007524D01*
X033527Y007489D01*
X033336Y007459D01*
X033144Y007433D01*
X032952Y007412D01*
X032759Y007396D01*
X032567Y007384D01*
X032373Y007377D01*
X032180Y007375D01*
X032180Y006375D01*
X028180Y006375D01*
X028120Y006377D01*
X028059Y006382D01*
X028000Y006391D01*
X027941Y006404D01*
X027882Y006420D01*
X027825Y006440D01*
X027770Y006463D01*
X027715Y006490D01*
X027663Y006519D01*
X027612Y006552D01*
X027563Y006588D01*
X027517Y006626D01*
X027473Y006668D01*
X027431Y006712D01*
X027393Y006758D01*
X027357Y006807D01*
X027324Y006858D01*
X027295Y006910D01*
X027268Y006965D01*
X027245Y007020D01*
X027225Y007077D01*
X027209Y007136D01*
X027196Y007195D01*
X027187Y007254D01*
X027182Y007315D01*
X027180Y007375D01*
X024680Y007375D01*
X024680Y006375D01*
X025180Y006375D01*
X025287Y006373D01*
X025394Y006367D01*
X025501Y006358D01*
X025607Y006344D01*
X025713Y006327D01*
X025818Y006306D01*
X025922Y006282D01*
X026025Y006253D01*
X026127Y006221D01*
X026228Y006186D01*
X026328Y006147D01*
X026426Y006104D01*
X026523Y006058D01*
X026618Y006008D01*
X026711Y005955D01*
X026802Y005899D01*
X026891Y005839D01*
X026978Y005777D01*
X027062Y005711D01*
X027145Y005642D01*
X027224Y005571D01*
X027301Y005496D01*
X027376Y005419D01*
X027447Y005340D01*
X027516Y005257D01*
X027582Y005173D01*
X027644Y005086D01*
X027704Y004997D01*
X027760Y004906D01*
X027813Y004813D01*
X027863Y004718D01*
X027909Y004621D01*
X027952Y004523D01*
X027991Y004423D01*
X028026Y004322D01*
X028058Y004220D01*
X028087Y004117D01*
X028111Y004013D01*
X028132Y003908D01*
X028149Y003802D01*
X028163Y003696D01*
X028172Y003589D01*
X028178Y003482D01*
X028180Y003375D01*
X028178Y003268D01*
X028172Y003161D01*
X028163Y003054D01*
X028149Y002948D01*
X028132Y002842D01*
X028111Y002737D01*
X028087Y002633D01*
X028058Y002530D01*
X028026Y002428D01*
X027991Y002327D01*
X027952Y002227D01*
X027909Y002129D01*
X027863Y002032D01*
X027813Y001937D01*
X027760Y001844D01*
X027704Y001753D01*
X027644Y001664D01*
X027582Y001577D01*
X027516Y001493D01*
X027447Y001410D01*
X027376Y001331D01*
X027301Y001254D01*
X027224Y001179D01*
X027145Y001108D01*
X027062Y001039D01*
X026978Y000973D01*
X026891Y000911D01*
X026802Y000851D01*
X026711Y000795D01*
X026618Y000742D01*
X026523Y000692D01*
X026426Y000646D01*
X026328Y000603D01*
X026228Y000564D01*
X026127Y000529D01*
X026025Y000497D01*
X025922Y000468D01*
X025818Y000444D01*
X025713Y000423D01*
X025607Y000406D01*
X025501Y000392D01*
X025394Y000383D01*
X025287Y000377D01*
X025180Y000375D01*
X020080Y000375D01*
X019993Y000377D01*
X019906Y000383D01*
X019819Y000392D01*
X019733Y000405D01*
X019647Y000422D01*
X019562Y000443D01*
X019479Y000468D01*
X019396Y000496D01*
X019315Y000527D01*
X019235Y000562D01*
X019157Y000601D01*
X019080Y000643D01*
X019005Y000688D01*
X018933Y000737D01*
X018862Y000788D01*
X018794Y000843D01*
X018729Y000900D01*
X018666Y000961D01*
X018605Y001024D01*
X018548Y001089D01*
X018493Y001157D01*
X018442Y001228D01*
X018393Y001300D01*
X018348Y001375D01*
X018306Y001452D01*
X018267Y001530D01*
X018232Y001610D01*
X018201Y001691D01*
X018173Y001774D01*
X018148Y001857D01*
X018127Y001942D01*
X018110Y002028D01*
X018097Y002114D01*
X018088Y002201D01*
X018082Y002288D01*
X018080Y002375D01*
X018080Y007275D01*
X008180Y007275D01*
X008180Y005375D01*
X008178Y005268D01*
X008172Y005161D01*
X008163Y005054D01*
X008149Y004948D01*
X008132Y004842D01*
X008111Y004737D01*
X008087Y004633D01*
X008058Y004530D01*
X008026Y004428D01*
X007991Y004327D01*
X007952Y004227D01*
X007909Y004129D01*
X007863Y004032D01*
X007813Y003937D01*
X007760Y003844D01*
X007704Y003753D01*
X007644Y003664D01*
X007582Y003577D01*
X007516Y003493D01*
X007447Y003410D01*
X007376Y003331D01*
X007301Y003254D01*
X007224Y003179D01*
X007145Y003108D01*
X007062Y003039D01*
X006978Y002973D01*
X006891Y002911D01*
X006802Y002851D01*
X006711Y002795D01*
X006618Y002742D01*
X006523Y002692D01*
X006426Y002646D01*
X006328Y002603D01*
X006228Y002564D01*
X006127Y002529D01*
X006025Y002497D01*
X005922Y002468D01*
X005818Y002444D01*
X005713Y002423D01*
X005607Y002406D01*
X005501Y002392D01*
X005394Y002383D01*
X005287Y002377D01*
X005180Y002375D01*
X005073Y002377D01*
X004966Y002383D01*
X004859Y002392D01*
X004753Y002406D01*
X004647Y002423D01*
X004542Y002444D01*
X004438Y002468D01*
X004335Y002497D01*
X004233Y002529D01*
X004132Y002564D01*
X004032Y002603D01*
X003934Y002646D01*
X003837Y002692D01*
X003742Y002742D01*
X003649Y002795D01*
X003558Y002851D01*
X003469Y002911D01*
X003382Y002973D01*
X003298Y003039D01*
X003215Y003108D01*
X003136Y003179D01*
X003059Y003254D01*
X002984Y003331D01*
X002913Y003410D01*
X002844Y003493D01*
X002778Y003577D01*
X002716Y003664D01*
X002656Y003753D01*
X002600Y003844D01*
X002547Y003937D01*
X002497Y004032D01*
X002451Y004129D01*
X002408Y004227D01*
X002369Y004327D01*
X002334Y004428D01*
X002302Y004530D01*
X002273Y004633D01*
X002249Y004737D01*
X002228Y004842D01*
X002211Y004948D01*
X002197Y005054D01*
X002188Y005161D01*
X002182Y005268D01*
X002180Y005375D01*
X002180Y010375D01*
X002182Y010482D01*
X002188Y010589D01*
X002197Y010696D01*
X002211Y010802D01*
X002228Y010908D01*
X002249Y011013D01*
X002273Y011117D01*
X002302Y011220D01*
X002334Y011322D01*
X002369Y011423D01*
X002408Y011523D01*
X002451Y011621D01*
X002497Y011718D01*
X002547Y011813D01*
X002600Y011906D01*
X002656Y011997D01*
X002716Y012086D01*
X002778Y012173D01*
X002844Y012257D01*
X002913Y012340D01*
X002984Y012419D01*
X003059Y012496D01*
X003136Y012571D01*
X003215Y012642D01*
X003298Y012711D01*
X003382Y012777D01*
X003469Y012839D01*
X003558Y012899D01*
X003649Y012955D01*
X003742Y013008D01*
X003837Y013058D01*
X003934Y013104D01*
X004032Y013147D01*
X004132Y013186D01*
X004233Y013221D01*
X004335Y013253D01*
X004438Y013282D01*
X004542Y013306D01*
X004647Y013327D01*
X004753Y013344D01*
X004859Y013358D01*
X004966Y013367D01*
X005073Y013373D01*
X005180Y013375D01*
X009880Y013375D01*
X009780Y013775D01*
X009734Y013972D01*
X009692Y014170D01*
X009655Y014369D01*
X009622Y014569D01*
X009595Y014770D01*
X009573Y014971D01*
X009555Y015173D01*
X009543Y015375D01*
X009535Y015577D01*
X009532Y015780D01*
X009534Y015982D01*
X009541Y016184D01*
X009553Y016386D01*
X009570Y016588D01*
X009592Y016789D01*
X009619Y016990D01*
X009650Y017190D01*
X009687Y017389D01*
X009728Y017587D01*
X009774Y017785D01*
X009825Y017981D01*
X009880Y018175D01*
X009980Y018575D01*
X006180Y021375D01*
X003180Y021375D01*
X003073Y021377D01*
X002966Y021383D01*
X002859Y021392D01*
X002753Y021406D01*
X002647Y021423D01*
X002542Y021444D01*
X002438Y021468D01*
X002335Y021497D01*
X002233Y021529D01*
X002132Y021564D01*
X002032Y021603D01*
X001934Y021646D01*
X001837Y021692D01*
X001742Y021742D01*
X001649Y021795D01*
X001558Y021851D01*
X001469Y021911D01*
X001382Y021973D01*
X001298Y022039D01*
X001215Y022108D01*
X001136Y022179D01*
X001059Y022254D01*
X000984Y022331D01*
X000913Y022410D01*
X000844Y022493D01*
X000778Y022577D01*
X000716Y022664D01*
X000656Y022753D01*
X000600Y022844D01*
X000547Y022937D01*
X000497Y023032D01*
X000451Y023129D01*
X000408Y023227D01*
X000369Y023327D01*
X000334Y023428D01*
X000302Y023530D01*
X000273Y023633D01*
X000249Y023737D01*
X000228Y023842D01*
X000211Y023948D01*
X000197Y024054D01*
X000188Y024161D01*
X000182Y024268D01*
X000180Y024375D01*
X000182Y024482D01*
X000188Y024589D01*
X000197Y024696D01*
X000211Y024802D01*
X000228Y024908D01*
X000249Y025013D01*
X000273Y025117D01*
X000302Y025220D01*
X000334Y025322D01*
X000369Y025423D01*
X000408Y025523D01*
X000451Y025621D01*
X000497Y025718D01*
X000547Y025813D01*
X000600Y025906D01*
X000656Y025997D01*
X000716Y026086D01*
X000778Y026173D01*
X000844Y026257D01*
X000913Y026340D01*
X000984Y026419D01*
X001059Y026496D01*
X001136Y026571D01*
X001215Y026642D01*
X001298Y026711D01*
X001382Y026777D01*
X001469Y026839D01*
X001558Y026899D01*
X001649Y026955D01*
X001742Y027008D01*
X001837Y027058D01*
X001934Y027104D01*
X002032Y027147D01*
X002132Y027186D01*
X002233Y027221D01*
X002335Y027253D01*
X002438Y027282D01*
X002542Y027306D01*
X002647Y027327D01*
X002753Y027344D01*
X002859Y027358D01*
X002966Y027367D01*
X003073Y027373D01*
X003180Y027375D01*
X007180Y027375D01*
X007320Y027373D01*
X007460Y027367D01*
X007599Y027357D01*
X007738Y027344D01*
X007877Y027326D01*
X008015Y027305D01*
X008153Y027279D01*
X008290Y027250D01*
X008426Y027217D01*
X008561Y027181D01*
X008695Y027140D01*
X008827Y027096D01*
X008959Y027048D01*
X009089Y026996D01*
X009217Y026941D01*
X009344Y026882D01*
X009469Y026820D01*
X009593Y026754D01*
X009715Y026685D01*
X009834Y026612D01*
X009952Y026537D01*
X010067Y026457D01*
X010180Y026375D01*
X014180Y023475D01*
X018080Y023475D01*
X018080Y028275D01*
X018082Y028364D01*
X018088Y028453D01*
X018097Y028542D01*
X018110Y028630D01*
X018127Y028717D01*
X018148Y028804D01*
X018172Y028890D01*
X018200Y028975D01*
X018231Y029058D01*
X018266Y029140D01*
X018305Y029220D01*
X018347Y029299D01*
X018392Y029376D01*
X018440Y029451D01*
X018492Y029524D01*
X018546Y029594D01*
X018604Y029662D01*
X018664Y029728D01*
X018727Y029791D01*
X018793Y029851D01*
X018861Y029909D01*
X018931Y029963D01*
X019004Y030015D01*
X019079Y030063D01*
X019156Y030108D01*
X019235Y030150D01*
X019315Y030189D01*
X019397Y030224D01*
X019480Y030255D01*
X019565Y030283D01*
X019651Y030307D01*
X019738Y030328D01*
X019825Y030345D01*
X019913Y030358D01*
X020002Y030367D01*
X020091Y030373D01*
X020180Y030375D01*
X025180Y030375D01*
X025287Y030373D01*
X025394Y030367D01*
X025501Y030358D01*
X025607Y030344D01*
X025713Y030327D01*
X025818Y030306D01*
X025922Y030282D01*
X026025Y030253D01*
X026127Y030221D01*
X026228Y030186D01*
X026328Y030147D01*
X026426Y030104D01*
X026523Y030058D01*
X026618Y030008D01*
X026711Y029955D01*
X026802Y029899D01*
X026891Y029839D01*
X026978Y029777D01*
X027062Y029711D01*
X027145Y029642D01*
X027224Y029571D01*
X027301Y029496D01*
X027376Y029419D01*
X027447Y029340D01*
X027516Y029257D01*
X027582Y029173D01*
X027644Y029086D01*
X027704Y028997D01*
X027760Y028906D01*
X027813Y028813D01*
X027863Y028718D01*
X027909Y028621D01*
X027952Y028523D01*
X027991Y028423D01*
X028026Y028322D01*
X028058Y028220D01*
X028087Y028117D01*
X028111Y028013D01*
X028132Y027908D01*
X028149Y027802D01*
X028163Y027696D01*
X028172Y027589D01*
X028178Y027482D01*
X028180Y027375D01*
X028178Y027268D01*
X028172Y027161D01*
X028163Y027054D01*
X028149Y026948D01*
X028132Y026842D01*
X028111Y026737D01*
X028087Y026633D01*
X028058Y026530D01*
X028026Y026428D01*
X027991Y026327D01*
X027952Y026227D01*
X027909Y026129D01*
X027863Y026032D01*
X027813Y025937D01*
X027760Y025844D01*
X027704Y025753D01*
X027644Y025664D01*
X027582Y025577D01*
X027516Y025493D01*
X027447Y025410D01*
X027376Y025331D01*
X027301Y025254D01*
X027224Y025179D01*
X027145Y025108D01*
X027062Y025039D01*
X026978Y024973D01*
X026891Y024911D01*
X026802Y024851D01*
X026711Y024795D01*
X026618Y024742D01*
X026523Y024692D01*
X026426Y024646D01*
X026328Y024603D01*
X026228Y024564D01*
X026127Y024529D01*
X026025Y024497D01*
X025922Y024468D01*
X025818Y024444D01*
X025713Y024423D01*
X025607Y024406D01*
X025501Y024392D01*
X025394Y024383D01*
X025287Y024377D01*
X025180Y024375D01*
X024680Y024375D01*
X024680Y023375D01*
M02*
