%
M48
M72
T01C0.0276
T02C0.0315
T03C0.0320
T04C0.0362
T05C0.0394
T06C0.0400
T07C0.0906
T08C0.1260
T09C0.1280
%
T01
X24780Y23175
X24780Y22575
X24780Y21975
X24780Y21375
X24780Y20775
X24780Y20175
X24780Y19575
X24780Y18975
X24780Y18375
X24780Y17775
X24780Y17175
X24780Y16575
X24780Y15975
X24780Y15375
X24780Y14775
X24780Y14175
X24780Y13575
X24780Y12975
X24780Y12375
X24780Y11775
X24780Y11175
X24780Y10575
X24780Y9975
X24780Y9375
X24780Y8775
X24780Y8175
X24780Y7575
X32086Y18988
X32874Y18988
X31102Y18988
X33858Y18988
X31693Y18397
X30905Y18397
X33267Y18397
X34055Y18397
X32480Y18397
X32480Y12917
X33563Y12917
X31397Y12917
X30708Y12917
X34252Y12917
T02
X20830Y5875
X21830Y5875
X22330Y6875
X21330Y6875
X20330Y6875
X22830Y5875
X19830Y5875
X23330Y6875
X22330Y24875
X21330Y24875
X20830Y23875
X21830Y23875
X22830Y23875
X20330Y24875
X23330Y24875
X19830Y23875
X6930Y23075
X5930Y23075
X5430Y22075
X6430Y22075
X7430Y22075
X4930Y23075
X7930Y23075
X4430Y22075
X7680Y10725
X7680Y9725
X8680Y9225
X8680Y10225
X8680Y11225
X7680Y8725
X7680Y11725
X8680Y8225
T03
X11380Y18875
X11380Y16875
X11380Y19875
X11380Y21875
T04
X32972Y11342
X31988Y11342
X32972Y12129
X31988Y12129
T05
X13880Y16375
X14880Y16375
X15880Y16375
X16880Y16375
X17880Y16375
X18880Y16375
X19880Y16375
X20880Y16375
X21880Y16375
X22880Y16375
X23880Y16375
X12880Y16375
X12880Y17375
X12880Y18375
X12880Y19375
X12880Y20375
X12880Y21375
X12880Y22375
X13880Y22375
X14880Y22375
X15880Y22375
X16880Y22375
X17880Y22375
X18880Y22375
X19880Y22375
X20880Y22375
X21880Y22375
X22880Y22375
X19880Y21375
X19880Y17375
X23880Y22375
X10880Y8375
X11880Y8375
X12880Y8375
X13880Y8375
X14880Y8375
X15880Y8375
X16880Y8375
X17880Y8375
X18880Y8375
X19880Y8375
X20880Y8375
X21880Y8375
X10880Y14375
X11880Y14375
X12880Y14375
X13880Y14375
X14880Y14375
X15880Y14375
X16880Y14375
X17880Y14375
X18880Y14375
X19880Y14375
X20880Y14375
X21880Y14375
X12880Y12375
X11880Y12375
X12880Y9375
X11880Y9375
X12880Y10375
X11880Y10375
X21880Y9375
X14880Y9375
X14880Y10375
X14880Y13375
X21880Y13375
X14880Y12375
X21880Y12375
X23880Y12375
X23880Y13375
X22880Y14375
X23880Y14375
X12880Y11375
X11880Y11375
X14880Y11375
X23880Y11375
X10880Y9375
X10880Y10375
X10880Y11375
X10880Y12375
X10880Y13375
X22880Y8375
X23880Y8375
X23880Y9375
X23880Y10375
X21880Y10375
X18880Y12375
X17880Y12375
X16880Y10375
X15880Y10375
X16880Y12375
X18880Y9375
X18880Y10375
X18880Y11375
X18880Y13375
X20880Y10375
X20880Y9375
X20880Y12375
X20880Y13375
X22880Y9375
X22880Y10375
X22880Y11375
X22880Y12375
X22880Y13375
X21880Y11375
X20880Y11375
X19880Y13375
X19880Y12375
X19880Y11375
X19880Y10375
X19880Y9375
X15880Y9375
X16880Y9375
X17880Y9375
X17880Y10375
X17880Y11375
X16880Y11375
X15880Y11375
X15880Y12375
X15880Y13375
X16880Y13375
X17880Y13375
X13880Y9375
X13880Y10375
X13880Y11375
X13880Y12375
X13880Y13375
X12880Y13375
X11880Y13375
T06
X26280Y19875
X27280Y19875
X26280Y18875
X27280Y18875
X26280Y17875
X27280Y17875
X26280Y16875
X27280Y16875
X26280Y15875
X27280Y15875
X26280Y14875
X27280Y14875
X26280Y13875
X27280Y13875
X26280Y12875
X27280Y12875
X26280Y11875
X27280Y11875
X26280Y10875
X27280Y10875
T07
X29893Y19775
X35067Y19775
X34850Y10275
X30110Y10275
T08
X1880Y24375
X5180Y4075
X26480Y27375
X26480Y3375
X37880Y18875
X26280Y22175
X26280Y8575
X37880Y11875
T09
X19330Y3375
X23830Y3375
X23830Y27375
X19330Y27375
X8430Y25575
X3930Y25575
X5180Y12225
X5180Y7725
M30
